M48
;DRILL file {KiCad (6.0.0-rc1-dev-1-g01c5bdfb8)} date Wed Feb 27 15:48:17 2019
;FORMAT={-:-/ absolute / inch / decimal}
FMAT,2
INCH,TZ
T1C0.0157
T2C0.0236
T3C0.0394
%
G90
G05
M72
T1
X3.9764Y-4.2362
X3.9823Y-5.063
X4.0118Y-4.5039
X4.0157Y-4.2323
X4.0197Y-4.8465
X4.0197Y-4.9252
X4.0354Y-4.4488
X4.0354Y-4.5669
X4.0531Y-4.2835
X4.0591Y-4.1142
X4.063Y-4.2244
X4.1299Y-4.3819
X4.1299Y-4.748
X4.1457Y-4.3386
X4.1496Y-5.0079
X4.1688Y-4.5821
X4.189Y-4.5
X4.1929Y-4.6063
X4.2087Y-4.311
X4.2148Y-4.6634
X4.2165Y-4.1417
X4.2638Y-4.5039
X4.2638Y-4.565
X4.2657Y-4.2539
X4.2795Y-4.7677
X4.2874Y-4.3346
X4.2953Y-5.0079
X4.3071Y-4.4843
X4.315Y-4.8602
X4.3445Y-4.5709
X4.3465Y-4.5
X4.3878Y-4.8425
X4.3937Y-4.5039
X4.3976Y-4.5669
X4.3976Y-4.9882
X4.4252Y-4.6024
X4.437Y-4.7638
X4.4409Y-4.2539
X4.4646Y-4.3268
X4.4782Y-4.5165
X4.4803Y-4.563
X4.4882Y-4.1063
X4.5039Y-5.0236
X4.5354Y-4.5866
X4.5648Y-4.4508
X4.5669Y-4.8228
X4.5827Y-5.0394
X4.5963Y-4.3587
X4.5984Y-4.1417
X4.6063Y-4.4685
X4.6281Y-4.7283
X4.631Y-4.6942
X4.6339Y-4.4252
X4.6581Y-4.3425
X4.6654Y-4.5472
X4.6788Y-4.748
X4.685Y-4.7795
X4.685Y-4.8622
X4.6969Y-3.9874
X4.6969Y-4.0441
X4.7205Y-4.1299
X4.7205Y-4.2087
X4.7638Y-4.4291
X4.7677Y-4.914
X4.7756Y-5.0118
X4.7795Y-4.2814
X4.7795Y-4.8051
X4.8071Y-5.0118
X4.8091Y-4.7933
X4.811Y-4.9337
X4.8386Y-4.748
X4.8392Y-4.3786
X4.8622Y-4.5669
X4.8622Y-4.7205
X4.8858Y-4.0866
X4.8858Y-4.6969
X4.8937Y-4.9961
X4.9016Y-4.3898
X4.9085Y-4.3494
X4.9094Y-4.4528
X4.9094Y-4.7323
X4.9173Y-4.8228
X4.9213Y-4.7835
X4.9291Y-4.0709
X4.9449Y-4.4528
X4.9488Y-4.189
X4.9488Y-4.4843
X4.9803Y-4.6457
X4.9936Y-4.8667
X4.9961Y-4.4724
X5.Y-4.3031
X5.0039Y-5.0079
X5.0276Y-4.0709
X5.0354Y-4.189
X5.0394Y-4.5472
X5.122Y-4.189
X5.126Y-4.0709
X5.1339Y-4.4161
X5.1732Y-4.3071
X5.1929Y-4.4331
X5.1929Y-4.5
X5.1929Y-4.5512
X5.2087Y-4.8268
X5.2205Y-4.0748
X5.2559Y-4.1457
X5.3189Y-4.3583
T3
X4.7673Y-5.1181
X4.8673Y-5.1181
X4.9673Y-5.1181
X5.0673Y-5.1181
X5.1673Y-5.1181
X4.8756Y-4.0197
X4.9756Y-4.0197
X5.0756Y-4.0197
X5.1756Y-4.0197
X5.2756Y-4.0197
X4.1634Y-5.1142
X4.2634Y-5.1142
X4.3634Y-5.1142
X4.4634Y-5.1142
X4.5634Y-5.1142
T2
X5.0636Y-4.6626G85X5.1069Y-4.6626
G05
X5.0636Y-5.0028G85X5.1069Y-5.0028
G05
X5.238Y-4.6626G85X5.2616Y-4.6626
G05
X5.238Y-5.0028G85X5.2616Y-5.0028
G05
T0
M30
