M48
; DRILL file {KiCad 5.1.0} date Mon 06 May 2019 08:06:41 PM CEST
; FORMAT={-:-/ absolute / inch / decimal}
; #@! TF.CreationDate,2019-05-06T20:06:41+02:00
; #@! TF.GenerationSoftware,Kicad,Pcbnew,5.1.0
; #@! TF.FileFunction,Plated,1,2,PTH
FMAT,2
INCH
T1C0.0157
T2C0.0236
T3C0.0394
%
G90
G05
T1
X3.9824Y-4.8465
X4.003Y-4.4872
X4.0197Y-4.0945
X4.0197Y-4.2047
X4.0197Y-4.5472
X4.0197Y-4.9252
X4.0236Y-4.4291
X4.0266Y-4.6634
X4.0502Y-4.6998
X4.0522Y-5.1663
X4.0571Y-4.2835
X4.0581Y-5.0207
X4.0896Y-4.7362
X4.1289Y-4.3681
X4.1533Y-4.5306
X4.1536Y-4.6293
X4.1575Y-4.2283
X4.1585Y-4.5014
X4.188Y-4.3081
X4.189Y-4.4882
X4.1911Y-4.9035
X4.1954Y-4.6122
X4.237Y-4.6473
X4.2402Y-4.3878
X4.2411Y-4.7618
X4.248Y-4.811
X4.2549Y-4.3297
X4.2913Y-4.4961
X4.2992Y-4.9774
X4.3031Y-4.3622
X4.3071Y-4.6319
X4.3179Y-4.2844
X4.3425Y-4.8583
X4.3455Y-4.7648
X4.3622Y-4.374
X4.378Y-4.503
X4.3898Y-4.2756
X4.4094Y-4.8091
X4.4252Y-4.5669
X4.435Y-4.7421
X4.436Y-4.6181
X4.4567Y-4.2854
X4.4646Y-4.8465
X4.4715Y-4.9656
X4.4902Y-4.5728
X4.4911Y-4.6909
X4.502Y-4.3829
X4.5039Y-4.622
X4.5069Y-4.8199
X4.5138Y-4.1604
X4.5411Y-4.4409
X4.5482Y-4.2815
X4.5719Y-4.9783
X4.6083Y-4.3228
X4.6171Y-4.8356
X4.6388Y-5.0482
X4.6427Y-4.374
X4.6565Y-4.128
X4.6772Y-4.7992
X4.685Y-4.4882
X4.685Y-4.5669
X4.685Y-4.6457
X4.7165Y-4.3957
X4.7313Y-4.0827
X4.7313Y-4.1427
X4.7608Y-4.2461
X4.771Y-4.8215
X4.7717Y-4.3368
X4.7746Y-5.0177
X4.8031Y-4.0728
X4.8031Y-4.4882
X4.8031Y-4.5669
X4.8031Y-4.6457
X4.8268Y-4.8346
X4.8317Y-4.1368
X4.8317Y-4.2254
X4.8327Y-4.3327
X4.8445Y-5.0187
X4.8661Y-4.8346
X4.874Y-4.7953
X4.9134Y-4.3898
X4.9193Y-4.4783
X4.9193Y-4.6919
X4.928Y-4.561
X4.9409Y-4.0502
X4.9409Y-4.0787
X4.9411Y-4.6526
X4.9626Y-4.627
X4.9764Y-4.7598
X4.9764Y-4.9055
X4.9892Y-5.0689
X4.9961Y-4.4567
X4.9961Y-4.6102
X4.9961Y-4.7402
X4.997Y-4.1919
X5.0Y-4.9252
X5.0463Y-5.0758
X5.0551Y-4.3898
X5.0561Y-4.0522
X5.0561Y-4.0817
X5.0807Y-4.4902
X5.0984Y-4.7907
X5.1004Y-4.8681
X5.125Y-4.4518
X5.1339Y-4.0423
X5.1339Y-4.2933
X5.1639Y-4.1181
X5.1673Y-4.0128
X5.2008Y-4.1594
X5.2047Y-5.0512
X5.2047Y-5.0906
X5.2047Y-5.1299
X5.2047Y-5.1693
X5.2441Y-5.0512
X5.2441Y-5.0906
X5.2441Y-5.1299
X5.2441Y-5.1693
X5.2461Y-4.0128
X5.2835Y-5.0512
X5.2835Y-5.0906
X5.2835Y-5.1299
X5.2835Y-5.1693
X5.3228Y-5.0512
X5.3228Y-5.0906
X5.3228Y-5.1299
X5.3228Y-5.1693
X5.3307Y-4.0906
X5.3307Y-4.126
X5.3307Y-4.1614
T3
X4.7053Y-5.1201
X4.8053Y-5.1201
X4.9053Y-5.1201
X5.0053Y-5.1201
X5.1053Y-5.1201
X4.1634Y-5.1201
X4.2634Y-5.1201
X4.3634Y-5.1201
X4.4634Y-5.1201
X4.5634Y-5.1201
T2
G00X5.0636Y-4.6626
M15
G01X5.1069Y-4.6626
M16
G05
G00X5.0636Y-5.0028
M15
G01X5.1069Y-5.0028
M16
G05
G00X5.238Y-4.6626
M15
G01X5.2616Y-4.6626
M16
G05
G00X5.238Y-5.0028
M15
G01X5.2616Y-5.0028
M16
G05
T0
M30
