%TF.GenerationSoftware,KiCad,Pcbnew,(6.0.0-rc1-dev-1-g01c5bdfb8)*%
%TF.CreationDate,2019-03-01T14:34:42+01:00*%
%TF.ProjectId,printer-otter,7072696E7465722D6F747465722E6B69,rev?*%
%TF.SameCoordinates,Original*%
%TF.FileFunction,Soldermask,Top*%
%TF.FilePolarity,Negative*%
%FSLAX46Y46*%
G04 Gerber Fmt 4.6, Leading zero omitted, Abs format (unit mm)*
G04 Created by KiCad (PCBNEW (6.0.0-rc1-dev-1-g01c5bdfb8)) date Fri Mar  1 14:34:42 2019*
%MOMM*%
%LPD*%
G01*
G04 APERTURE LIST*
%ADD10C,0.100000*%
G04 APERTURE END LIST*
D10*
X100000000Y-100500000D02*
G75*
G02X100500000Y-100000000I500000J0D01*
G01*
X100500000Y-132000000D02*
G75*
G02X100000000Y-131500000I0J500000D01*
G01*
X136000000Y-131500000D02*
G75*
G02X135500000Y-132000000I-500000J0D01*
G01*
X135500000Y-100000000D02*
G75*
G02X136000000Y-100500000I0J-500000D01*
G01*
X135500000Y-100000000D02*
X118500000Y-100000000D01*
X136000000Y-131500000D02*
X136000000Y-100500000D01*
X100500000Y-132000000D02*
X135500000Y-132000000D01*
X100000000Y-100500000D02*
X100000000Y-131500000D01*
X104500000Y-100000000D02*
X100500000Y-100000000D01*
X107000000Y-100000000D02*
X104500000Y-100000000D01*
X110000000Y-100000000D02*
X112500000Y-100000000D01*
X113000000Y-100000000D02*
X112500000Y-100000000D01*
X116500000Y-100000000D02*
X116000000Y-100000000D01*
X110000000Y-100000000D02*
X107000000Y-100000000D01*
X116000000Y-100000000D02*
X113000000Y-100000000D01*
X118499999Y-99999999D02*
G75*
G02X116500000Y-100000000I-1000000J1499998D01*
G01*
G36*
X126336630Y-129162299D02*
X126496855Y-129210903D01*
X126644520Y-129289831D01*
X126773949Y-129396051D01*
X126880169Y-129525480D01*
X126959097Y-129673145D01*
X127007701Y-129833370D01*
X127024112Y-130000000D01*
X127007701Y-130166630D01*
X126959097Y-130326855D01*
X126880169Y-130474520D01*
X126773949Y-130603949D01*
X126644520Y-130710169D01*
X126496855Y-130789097D01*
X126336630Y-130837701D01*
X126211752Y-130850000D01*
X126128248Y-130850000D01*
X126003370Y-130837701D01*
X125843145Y-130789097D01*
X125695480Y-130710169D01*
X125566051Y-130603949D01*
X125459831Y-130474520D01*
X125380903Y-130326855D01*
X125332299Y-130166630D01*
X125315888Y-130000000D01*
X125332299Y-129833370D01*
X125380903Y-129673145D01*
X125459831Y-129525480D01*
X125566051Y-129396051D01*
X125695480Y-129289831D01*
X125843145Y-129210903D01*
X126003370Y-129162299D01*
X126128248Y-129150000D01*
X126211752Y-129150000D01*
X126336630Y-129162299D01*
X126336630Y-129162299D01*
G37*
G36*
X128876630Y-129162299D02*
X129036855Y-129210903D01*
X129184520Y-129289831D01*
X129313949Y-129396051D01*
X129420169Y-129525480D01*
X129499097Y-129673145D01*
X129547701Y-129833370D01*
X129564112Y-130000000D01*
X129547701Y-130166630D01*
X129499097Y-130326855D01*
X129420169Y-130474520D01*
X129313949Y-130603949D01*
X129184520Y-130710169D01*
X129036855Y-130789097D01*
X128876630Y-130837701D01*
X128751752Y-130850000D01*
X128668248Y-130850000D01*
X128543370Y-130837701D01*
X128383145Y-130789097D01*
X128235480Y-130710169D01*
X128106051Y-130603949D01*
X127999831Y-130474520D01*
X127920903Y-130326855D01*
X127872299Y-130166630D01*
X127855888Y-130000000D01*
X127872299Y-129833370D01*
X127920903Y-129673145D01*
X127999831Y-129525480D01*
X128106051Y-129396051D01*
X128235480Y-129289831D01*
X128383145Y-129210903D01*
X128543370Y-129162299D01*
X128668248Y-129150000D01*
X128751752Y-129150000D01*
X128876630Y-129162299D01*
X128876630Y-129162299D01*
G37*
G36*
X132100000Y-130850000D02*
X130400000Y-130850000D01*
X130400000Y-129150000D01*
X132100000Y-129150000D01*
X132100000Y-130850000D01*
X132100000Y-130850000D01*
G37*
G36*
X123796630Y-129162299D02*
X123956855Y-129210903D01*
X124104520Y-129289831D01*
X124233949Y-129396051D01*
X124340169Y-129525480D01*
X124419097Y-129673145D01*
X124467701Y-129833370D01*
X124484112Y-130000000D01*
X124467701Y-130166630D01*
X124419097Y-130326855D01*
X124340169Y-130474520D01*
X124233949Y-130603949D01*
X124104520Y-130710169D01*
X123956855Y-130789097D01*
X123796630Y-130837701D01*
X123671752Y-130850000D01*
X123588248Y-130850000D01*
X123463370Y-130837701D01*
X123303145Y-130789097D01*
X123155480Y-130710169D01*
X123026051Y-130603949D01*
X122919831Y-130474520D01*
X122840903Y-130326855D01*
X122792299Y-130166630D01*
X122775888Y-130000000D01*
X122792299Y-129833370D01*
X122840903Y-129673145D01*
X122919831Y-129525480D01*
X123026051Y-129396051D01*
X123155480Y-129289831D01*
X123303145Y-129210903D01*
X123463370Y-129162299D01*
X123588248Y-129150000D01*
X123671752Y-129150000D01*
X123796630Y-129162299D01*
X123796630Y-129162299D01*
G37*
G36*
X121256630Y-129162299D02*
X121416855Y-129210903D01*
X121564520Y-129289831D01*
X121693949Y-129396051D01*
X121800169Y-129525480D01*
X121879097Y-129673145D01*
X121927701Y-129833370D01*
X121944112Y-130000000D01*
X121927701Y-130166630D01*
X121879097Y-130326855D01*
X121800169Y-130474520D01*
X121693949Y-130603949D01*
X121564520Y-130710169D01*
X121416855Y-130789097D01*
X121256630Y-130837701D01*
X121131752Y-130850000D01*
X121048248Y-130850000D01*
X120923370Y-130837701D01*
X120763145Y-130789097D01*
X120615480Y-130710169D01*
X120486051Y-130603949D01*
X120379831Y-130474520D01*
X120300903Y-130326855D01*
X120252299Y-130166630D01*
X120235888Y-130000000D01*
X120252299Y-129833370D01*
X120300903Y-129673145D01*
X120379831Y-129525480D01*
X120486051Y-129396051D01*
X120615480Y-129289831D01*
X120763145Y-129210903D01*
X120923370Y-129162299D01*
X121048248Y-129150000D01*
X121131752Y-129150000D01*
X121256630Y-129162299D01*
X121256630Y-129162299D01*
G37*
G36*
X116076630Y-129062299D02*
X116236855Y-129110903D01*
X116384520Y-129189831D01*
X116513949Y-129296051D01*
X116620169Y-129425480D01*
X116699097Y-129573145D01*
X116747701Y-129733370D01*
X116764112Y-129900000D01*
X116747701Y-130066630D01*
X116699097Y-130226855D01*
X116620169Y-130374520D01*
X116513949Y-130503949D01*
X116384520Y-130610169D01*
X116236855Y-130689097D01*
X116076630Y-130737701D01*
X115951752Y-130750000D01*
X115868248Y-130750000D01*
X115743370Y-130737701D01*
X115583145Y-130689097D01*
X115435480Y-130610169D01*
X115306051Y-130503949D01*
X115199831Y-130374520D01*
X115120903Y-130226855D01*
X115072299Y-130066630D01*
X115055888Y-129900000D01*
X115072299Y-129733370D01*
X115120903Y-129573145D01*
X115199831Y-129425480D01*
X115306051Y-129296051D01*
X115435480Y-129189831D01*
X115583145Y-129110903D01*
X115743370Y-129062299D01*
X115868248Y-129050000D01*
X115951752Y-129050000D01*
X116076630Y-129062299D01*
X116076630Y-129062299D01*
G37*
G36*
X113536630Y-129062299D02*
X113696855Y-129110903D01*
X113844520Y-129189831D01*
X113973949Y-129296051D01*
X114080169Y-129425480D01*
X114159097Y-129573145D01*
X114207701Y-129733370D01*
X114224112Y-129900000D01*
X114207701Y-130066630D01*
X114159097Y-130226855D01*
X114080169Y-130374520D01*
X113973949Y-130503949D01*
X113844520Y-130610169D01*
X113696855Y-130689097D01*
X113536630Y-130737701D01*
X113411752Y-130750000D01*
X113328248Y-130750000D01*
X113203370Y-130737701D01*
X113043145Y-130689097D01*
X112895480Y-130610169D01*
X112766051Y-130503949D01*
X112659831Y-130374520D01*
X112580903Y-130226855D01*
X112532299Y-130066630D01*
X112515888Y-129900000D01*
X112532299Y-129733370D01*
X112580903Y-129573145D01*
X112659831Y-129425480D01*
X112766051Y-129296051D01*
X112895480Y-129189831D01*
X113043145Y-129110903D01*
X113203370Y-129062299D01*
X113328248Y-129050000D01*
X113411752Y-129050000D01*
X113536630Y-129062299D01*
X113536630Y-129062299D01*
G37*
G36*
X110996630Y-129062299D02*
X111156855Y-129110903D01*
X111304520Y-129189831D01*
X111433949Y-129296051D01*
X111540169Y-129425480D01*
X111619097Y-129573145D01*
X111667701Y-129733370D01*
X111684112Y-129900000D01*
X111667701Y-130066630D01*
X111619097Y-130226855D01*
X111540169Y-130374520D01*
X111433949Y-130503949D01*
X111304520Y-130610169D01*
X111156855Y-130689097D01*
X110996630Y-130737701D01*
X110871752Y-130750000D01*
X110788248Y-130750000D01*
X110663370Y-130737701D01*
X110503145Y-130689097D01*
X110355480Y-130610169D01*
X110226051Y-130503949D01*
X110119831Y-130374520D01*
X110040903Y-130226855D01*
X109992299Y-130066630D01*
X109975888Y-129900000D01*
X109992299Y-129733370D01*
X110040903Y-129573145D01*
X110119831Y-129425480D01*
X110226051Y-129296051D01*
X110355480Y-129189831D01*
X110503145Y-129110903D01*
X110663370Y-129062299D01*
X110788248Y-129050000D01*
X110871752Y-129050000D01*
X110996630Y-129062299D01*
X110996630Y-129062299D01*
G37*
G36*
X108456630Y-129062299D02*
X108616855Y-129110903D01*
X108764520Y-129189831D01*
X108893949Y-129296051D01*
X109000169Y-129425480D01*
X109079097Y-129573145D01*
X109127701Y-129733370D01*
X109144112Y-129900000D01*
X109127701Y-130066630D01*
X109079097Y-130226855D01*
X109000169Y-130374520D01*
X108893949Y-130503949D01*
X108764520Y-130610169D01*
X108616855Y-130689097D01*
X108456630Y-130737701D01*
X108331752Y-130750000D01*
X108248248Y-130750000D01*
X108123370Y-130737701D01*
X107963145Y-130689097D01*
X107815480Y-130610169D01*
X107686051Y-130503949D01*
X107579831Y-130374520D01*
X107500903Y-130226855D01*
X107452299Y-130066630D01*
X107435888Y-129900000D01*
X107452299Y-129733370D01*
X107500903Y-129573145D01*
X107579831Y-129425480D01*
X107686051Y-129296051D01*
X107815480Y-129189831D01*
X107963145Y-129110903D01*
X108123370Y-129062299D01*
X108248248Y-129050000D01*
X108331752Y-129050000D01*
X108456630Y-129062299D01*
X108456630Y-129062299D01*
G37*
G36*
X106600000Y-130750000D02*
X104900000Y-130750000D01*
X104900000Y-129050000D01*
X106600000Y-129050000D01*
X106600000Y-130750000D01*
X106600000Y-130750000D01*
G37*
G36*
X101841463Y-129582226D02*
X101857298Y-129587030D01*
X101871886Y-129594827D01*
X101884676Y-129605324D01*
X101895173Y-129618114D01*
X101902970Y-129632702D01*
X101907774Y-129648537D01*
X101910000Y-129671140D01*
X101910000Y-130128860D01*
X101907774Y-130151463D01*
X101902970Y-130167298D01*
X101895173Y-130181886D01*
X101884676Y-130194676D01*
X101871886Y-130205173D01*
X101857298Y-130212970D01*
X101841463Y-130217774D01*
X101818860Y-130220000D01*
X101411140Y-130220000D01*
X101388537Y-130217774D01*
X101372702Y-130212970D01*
X101358114Y-130205173D01*
X101345324Y-130194676D01*
X101334827Y-130181886D01*
X101327030Y-130167298D01*
X101322226Y-130151463D01*
X101320000Y-130128860D01*
X101320000Y-129671140D01*
X101322226Y-129648537D01*
X101327030Y-129632702D01*
X101334827Y-129618114D01*
X101345324Y-129605324D01*
X101358114Y-129594827D01*
X101372702Y-129587030D01*
X101388537Y-129582226D01*
X101411140Y-129580000D01*
X101818860Y-129580000D01*
X101841463Y-129582226D01*
X101841463Y-129582226D01*
G37*
G36*
X102811463Y-129582226D02*
X102827298Y-129587030D01*
X102841886Y-129594827D01*
X102854676Y-129605324D01*
X102865173Y-129618114D01*
X102872970Y-129632702D01*
X102877774Y-129648537D01*
X102880000Y-129671140D01*
X102880000Y-130128860D01*
X102877774Y-130151463D01*
X102872970Y-130167298D01*
X102865173Y-130181886D01*
X102854676Y-130194676D01*
X102841886Y-130205173D01*
X102827298Y-130212970D01*
X102811463Y-130217774D01*
X102788860Y-130220000D01*
X102381140Y-130220000D01*
X102358537Y-130217774D01*
X102342702Y-130212970D01*
X102328114Y-130205173D01*
X102315324Y-130194676D01*
X102304827Y-130181886D01*
X102297030Y-130167298D01*
X102292226Y-130151463D01*
X102290000Y-130128860D01*
X102290000Y-129671140D01*
X102292226Y-129648537D01*
X102297030Y-129632702D01*
X102304827Y-129618114D01*
X102315324Y-129605324D01*
X102328114Y-129594827D01*
X102342702Y-129587030D01*
X102358537Y-129582226D01*
X102381140Y-129580000D01*
X102788860Y-129580000D01*
X102811463Y-129582226D01*
X102811463Y-129582226D01*
G37*
G36*
X101550000Y-129050000D02*
X100750000Y-129050000D01*
X100750000Y-128150000D01*
X101550000Y-128150000D01*
X101550000Y-129050000D01*
X101550000Y-129050000D01*
G37*
G36*
X103450000Y-129050000D02*
X102650000Y-129050000D01*
X102650000Y-128150000D01*
X103450000Y-128150000D01*
X103450000Y-129050000D01*
X103450000Y-129050000D01*
G37*
G36*
X120033581Y-126776351D02*
X120062778Y-126785208D01*
X120089683Y-126799589D01*
X120113273Y-126818948D01*
X120132632Y-126842538D01*
X120147013Y-126869443D01*
X120155870Y-126898640D01*
X120159465Y-126935146D01*
X120159465Y-127485366D01*
X120155870Y-127521872D01*
X120147013Y-127551069D01*
X120132632Y-127577974D01*
X120113273Y-127601564D01*
X120089683Y-127620923D01*
X120062778Y-127635304D01*
X120033581Y-127644161D01*
X119997075Y-127647756D01*
X119371855Y-127647756D01*
X119335349Y-127644161D01*
X119306152Y-127635304D01*
X119279247Y-127620923D01*
X119255657Y-127601564D01*
X119236298Y-127577974D01*
X119221917Y-127551069D01*
X119213060Y-127521872D01*
X119209465Y-127485366D01*
X119209465Y-126935146D01*
X119213060Y-126898640D01*
X119221917Y-126869443D01*
X119236298Y-126842538D01*
X119255657Y-126818948D01*
X119279247Y-126799589D01*
X119306152Y-126785208D01*
X119335349Y-126776351D01*
X119371855Y-126772756D01*
X119997075Y-126772756D01*
X120033581Y-126776351D01*
X120033581Y-126776351D01*
G37*
G36*
X118333579Y-126763852D02*
X118362776Y-126772709D01*
X118389681Y-126787090D01*
X118413271Y-126806449D01*
X118432630Y-126830039D01*
X118447011Y-126856944D01*
X118455868Y-126886141D01*
X118459463Y-126922647D01*
X118459463Y-127472867D01*
X118455868Y-127509373D01*
X118447011Y-127538570D01*
X118432630Y-127565475D01*
X118413271Y-127589065D01*
X118389681Y-127608424D01*
X118362776Y-127622805D01*
X118333579Y-127631662D01*
X118297073Y-127635257D01*
X117671853Y-127635257D01*
X117635347Y-127631662D01*
X117606150Y-127622805D01*
X117579245Y-127608424D01*
X117555655Y-127589065D01*
X117536296Y-127565475D01*
X117521915Y-127538570D01*
X117513058Y-127509373D01*
X117509463Y-127472867D01*
X117509463Y-126922647D01*
X117513058Y-126886141D01*
X117521915Y-126856944D01*
X117536296Y-126830039D01*
X117555655Y-126806449D01*
X117579245Y-126787090D01*
X117606150Y-126772709D01*
X117635347Y-126763852D01*
X117671853Y-126760257D01*
X118297073Y-126760257D01*
X118333579Y-126763852D01*
X118333579Y-126763852D01*
G37*
G36*
X133743015Y-126577234D02*
X133837268Y-126605825D01*
X133883697Y-126630643D01*
X133924129Y-126652254D01*
X134000264Y-126714736D01*
X134062746Y-126790871D01*
X134080629Y-126824327D01*
X134109175Y-126877732D01*
X134137766Y-126971985D01*
X134147419Y-127070000D01*
X134137766Y-127168015D01*
X134109175Y-127262268D01*
X134084357Y-127308697D01*
X134062746Y-127349129D01*
X134000264Y-127425264D01*
X133924129Y-127487746D01*
X133884792Y-127508772D01*
X133837268Y-127534175D01*
X133743015Y-127562766D01*
X133669564Y-127570000D01*
X133020436Y-127570000D01*
X132946985Y-127562766D01*
X132852732Y-127534175D01*
X132805208Y-127508772D01*
X132765871Y-127487746D01*
X132689736Y-127425264D01*
X132627254Y-127349129D01*
X132605643Y-127308697D01*
X132580825Y-127262268D01*
X132552234Y-127168015D01*
X132542581Y-127070000D01*
X132552234Y-126971985D01*
X132580825Y-126877732D01*
X132609371Y-126824327D01*
X132627254Y-126790871D01*
X132689736Y-126714736D01*
X132765871Y-126652254D01*
X132806303Y-126630643D01*
X132852732Y-126605825D01*
X132946985Y-126577234D01*
X133020436Y-126570000D01*
X133669564Y-126570000D01*
X133743015Y-126577234D01*
X133743015Y-126577234D01*
G37*
G36*
X129813015Y-126577234D02*
X129907268Y-126605825D01*
X129953697Y-126630643D01*
X129994129Y-126652254D01*
X130070264Y-126714736D01*
X130132746Y-126790871D01*
X130150629Y-126824327D01*
X130179175Y-126877732D01*
X130207766Y-126971985D01*
X130217419Y-127070000D01*
X130207766Y-127168015D01*
X130179175Y-127262268D01*
X130154357Y-127308697D01*
X130132746Y-127349129D01*
X130070264Y-127425264D01*
X129994129Y-127487746D01*
X129954792Y-127508772D01*
X129907268Y-127534175D01*
X129813015Y-127562766D01*
X129739564Y-127570000D01*
X128590436Y-127570000D01*
X128516985Y-127562766D01*
X128422732Y-127534175D01*
X128375208Y-127508772D01*
X128335871Y-127487746D01*
X128259736Y-127425264D01*
X128197254Y-127349129D01*
X128175643Y-127308697D01*
X128150825Y-127262268D01*
X128122234Y-127168015D01*
X128112581Y-127070000D01*
X128122234Y-126971985D01*
X128150825Y-126877732D01*
X128179371Y-126824327D01*
X128197254Y-126790871D01*
X128259736Y-126714736D01*
X128335871Y-126652254D01*
X128376303Y-126630643D01*
X128422732Y-126605825D01*
X128516985Y-126577234D01*
X128590436Y-126570000D01*
X129739564Y-126570000D01*
X129813015Y-126577234D01*
X129813015Y-126577234D01*
G37*
G36*
X107256463Y-126882226D02*
X107272298Y-126887030D01*
X107286886Y-126894827D01*
X107299676Y-126905324D01*
X107310173Y-126918114D01*
X107317970Y-126932702D01*
X107322774Y-126948537D01*
X107325000Y-126971140D01*
X107325000Y-127428860D01*
X107322774Y-127451463D01*
X107317970Y-127467298D01*
X107310173Y-127481886D01*
X107299676Y-127494676D01*
X107286886Y-127505173D01*
X107272298Y-127512970D01*
X107256463Y-127517774D01*
X107233860Y-127520000D01*
X106826140Y-127520000D01*
X106803537Y-127517774D01*
X106787702Y-127512970D01*
X106773114Y-127505173D01*
X106760324Y-127494676D01*
X106749827Y-127481886D01*
X106742030Y-127467298D01*
X106737226Y-127451463D01*
X106735000Y-127428860D01*
X106735000Y-126971140D01*
X106737226Y-126948537D01*
X106742030Y-126932702D01*
X106749827Y-126918114D01*
X106760324Y-126905324D01*
X106773114Y-126894827D01*
X106787702Y-126887030D01*
X106803537Y-126882226D01*
X106826140Y-126880000D01*
X107233860Y-126880000D01*
X107256463Y-126882226D01*
X107256463Y-126882226D01*
G37*
G36*
X108226463Y-126882226D02*
X108242298Y-126887030D01*
X108256886Y-126894827D01*
X108269676Y-126905324D01*
X108280173Y-126918114D01*
X108287970Y-126932702D01*
X108292774Y-126948537D01*
X108295000Y-126971140D01*
X108295000Y-127428860D01*
X108292774Y-127451463D01*
X108287970Y-127467298D01*
X108280173Y-127481886D01*
X108269676Y-127494676D01*
X108256886Y-127505173D01*
X108242298Y-127512970D01*
X108226463Y-127517774D01*
X108203860Y-127520000D01*
X107796140Y-127520000D01*
X107773537Y-127517774D01*
X107757702Y-127512970D01*
X107743114Y-127505173D01*
X107730324Y-127494676D01*
X107719827Y-127481886D01*
X107712030Y-127467298D01*
X107707226Y-127451463D01*
X107705000Y-127428860D01*
X107705000Y-126971140D01*
X107707226Y-126948537D01*
X107712030Y-126932702D01*
X107719827Y-126918114D01*
X107730324Y-126905324D01*
X107743114Y-126894827D01*
X107757702Y-126887030D01*
X107773537Y-126882226D01*
X107796140Y-126880000D01*
X108203860Y-126880000D01*
X108226463Y-126882226D01*
X108226463Y-126882226D01*
G37*
G36*
X102500000Y-127050000D02*
X101700000Y-127050000D01*
X101700000Y-126150000D01*
X102500000Y-126150000D01*
X102500000Y-127050000D01*
X102500000Y-127050000D01*
G37*
G36*
X122451463Y-125992226D02*
X122467298Y-125997030D01*
X122481886Y-126004827D01*
X122494676Y-126015324D01*
X122505173Y-126028114D01*
X122512970Y-126042702D01*
X122517774Y-126058537D01*
X122520000Y-126081140D01*
X122520000Y-126488860D01*
X122517774Y-126511463D01*
X122512970Y-126527298D01*
X122505173Y-126541886D01*
X122494676Y-126554676D01*
X122481886Y-126565173D01*
X122467298Y-126572970D01*
X122451463Y-126577774D01*
X122428860Y-126580000D01*
X121971140Y-126580000D01*
X121948537Y-126577774D01*
X121932702Y-126572970D01*
X121918114Y-126565173D01*
X121905324Y-126554676D01*
X121894827Y-126541886D01*
X121887030Y-126527298D01*
X121882226Y-126511463D01*
X121880000Y-126488860D01*
X121880000Y-126081140D01*
X121882226Y-126058537D01*
X121887030Y-126042702D01*
X121894827Y-126028114D01*
X121905324Y-126015324D01*
X121918114Y-126004827D01*
X121932702Y-125997030D01*
X121948537Y-125992226D01*
X121971140Y-125990000D01*
X122428860Y-125990000D01*
X122451463Y-125992226D01*
X122451463Y-125992226D01*
G37*
G36*
X126551463Y-125692226D02*
X126567298Y-125697030D01*
X126581886Y-125704827D01*
X126594676Y-125715324D01*
X126605173Y-125728114D01*
X126612970Y-125742702D01*
X126617774Y-125758537D01*
X126620000Y-125781140D01*
X126620000Y-126188860D01*
X126617774Y-126211463D01*
X126612970Y-126227298D01*
X126605173Y-126241886D01*
X126594676Y-126254676D01*
X126581886Y-126265173D01*
X126567298Y-126272970D01*
X126551463Y-126277774D01*
X126528860Y-126280000D01*
X126071140Y-126280000D01*
X126048537Y-126277774D01*
X126032702Y-126272970D01*
X126018114Y-126265173D01*
X126005324Y-126254676D01*
X125994827Y-126241886D01*
X125987030Y-126227298D01*
X125982226Y-126211463D01*
X125980000Y-126188860D01*
X125980000Y-125781140D01*
X125982226Y-125758537D01*
X125987030Y-125742702D01*
X125994827Y-125728114D01*
X126005324Y-125715324D01*
X126018114Y-125704827D01*
X126032702Y-125697030D01*
X126048537Y-125692226D01*
X126071140Y-125690000D01*
X126528860Y-125690000D01*
X126551463Y-125692226D01*
X126551463Y-125692226D01*
G37*
G36*
X128975000Y-126250000D02*
X127525000Y-126250000D01*
X127525000Y-119250000D01*
X128975000Y-119250000D01*
X128975000Y-126250000D01*
X128975000Y-126250000D01*
G37*
G36*
X121351463Y-125492226D02*
X121367298Y-125497030D01*
X121381886Y-125504827D01*
X121394676Y-125515324D01*
X121405173Y-125528114D01*
X121412970Y-125542702D01*
X121417774Y-125558537D01*
X121420000Y-125581140D01*
X121420000Y-125988860D01*
X121417774Y-126011463D01*
X121412970Y-126027298D01*
X121405173Y-126041886D01*
X121394676Y-126054676D01*
X121381886Y-126065173D01*
X121367298Y-126072970D01*
X121351463Y-126077774D01*
X121328860Y-126080000D01*
X120871140Y-126080000D01*
X120848537Y-126077774D01*
X120832702Y-126072970D01*
X120818114Y-126065173D01*
X120805324Y-126054676D01*
X120794827Y-126041886D01*
X120787030Y-126027298D01*
X120782226Y-126011463D01*
X120780000Y-125988860D01*
X120780000Y-125581140D01*
X120782226Y-125558537D01*
X120787030Y-125542702D01*
X120794827Y-125528114D01*
X120805324Y-125515324D01*
X120818114Y-125504827D01*
X120832702Y-125497030D01*
X120848537Y-125492226D01*
X120871140Y-125490000D01*
X121328860Y-125490000D01*
X121351463Y-125492226D01*
X121351463Y-125492226D01*
G37*
G36*
X120033581Y-125201351D02*
X120062778Y-125210208D01*
X120089683Y-125224589D01*
X120113273Y-125243948D01*
X120132632Y-125267538D01*
X120147013Y-125294443D01*
X120155870Y-125323640D01*
X120159465Y-125360146D01*
X120159465Y-125910366D01*
X120155870Y-125946872D01*
X120147013Y-125976069D01*
X120132632Y-126002974D01*
X120113273Y-126026564D01*
X120089683Y-126045923D01*
X120062778Y-126060304D01*
X120033581Y-126069161D01*
X119997075Y-126072756D01*
X119371855Y-126072756D01*
X119335349Y-126069161D01*
X119306152Y-126060304D01*
X119279247Y-126045923D01*
X119255657Y-126026564D01*
X119236298Y-126002974D01*
X119221917Y-125976069D01*
X119213060Y-125946872D01*
X119209465Y-125910366D01*
X119209465Y-125360146D01*
X119213060Y-125323640D01*
X119221917Y-125294443D01*
X119236298Y-125267538D01*
X119255657Y-125243948D01*
X119279247Y-125224589D01*
X119306152Y-125210208D01*
X119335349Y-125201351D01*
X119371855Y-125197756D01*
X119997075Y-125197756D01*
X120033581Y-125201351D01*
X120033581Y-125201351D01*
G37*
G36*
X118333579Y-125188852D02*
X118362776Y-125197709D01*
X118389681Y-125212090D01*
X118413271Y-125231449D01*
X118432630Y-125255039D01*
X118447011Y-125281944D01*
X118455868Y-125311141D01*
X118459463Y-125347647D01*
X118459463Y-125897867D01*
X118455868Y-125934373D01*
X118447011Y-125963570D01*
X118432630Y-125990475D01*
X118413271Y-126014065D01*
X118389681Y-126033424D01*
X118362776Y-126047805D01*
X118333579Y-126056662D01*
X118297073Y-126060257D01*
X117671853Y-126060257D01*
X117635347Y-126056662D01*
X117606150Y-126047805D01*
X117579245Y-126033424D01*
X117555655Y-126014065D01*
X117536296Y-125990475D01*
X117521915Y-125963570D01*
X117513058Y-125934373D01*
X117509463Y-125897867D01*
X117509463Y-125347647D01*
X117513058Y-125311141D01*
X117521915Y-125281944D01*
X117536296Y-125255039D01*
X117555655Y-125231449D01*
X117579245Y-125212090D01*
X117606150Y-125197709D01*
X117635347Y-125188852D01*
X117671853Y-125185257D01*
X118297073Y-125185257D01*
X118333579Y-125188852D01*
X118333579Y-125188852D01*
G37*
G36*
X129789799Y-125327489D02*
X129835543Y-125346437D01*
X129848941Y-125351986D01*
X129848942Y-125351987D01*
X129848945Y-125351988D01*
X129902176Y-125387556D01*
X129947444Y-125432824D01*
X129983012Y-125486055D01*
X130007511Y-125545201D01*
X130020000Y-125607990D01*
X130020000Y-125672010D01*
X130007511Y-125734799D01*
X129983012Y-125793945D01*
X129947444Y-125847176D01*
X129902176Y-125892444D01*
X129848945Y-125928012D01*
X129848942Y-125928013D01*
X129848941Y-125928014D01*
X129838110Y-125932500D01*
X129789799Y-125952511D01*
X129727010Y-125965000D01*
X129662990Y-125965000D01*
X129600201Y-125952511D01*
X129551890Y-125932500D01*
X129541059Y-125928014D01*
X129541058Y-125928013D01*
X129541055Y-125928012D01*
X129487824Y-125892444D01*
X129442556Y-125847176D01*
X129406988Y-125793945D01*
X129382489Y-125734799D01*
X129370000Y-125672010D01*
X129370000Y-125607990D01*
X129382489Y-125545201D01*
X129406988Y-125486055D01*
X129442556Y-125432824D01*
X129487824Y-125387556D01*
X129541055Y-125351988D01*
X129541058Y-125351987D01*
X129541059Y-125351986D01*
X129554457Y-125346437D01*
X129600201Y-125327489D01*
X129662990Y-125315000D01*
X129727010Y-125315000D01*
X129789799Y-125327489D01*
X129789799Y-125327489D01*
G37*
G36*
X104751463Y-125107226D02*
X104767298Y-125112030D01*
X104781886Y-125119827D01*
X104794676Y-125130324D01*
X104805173Y-125143114D01*
X104812970Y-125157702D01*
X104817774Y-125173537D01*
X104820000Y-125196140D01*
X104820000Y-125603860D01*
X104817774Y-125626463D01*
X104812970Y-125642298D01*
X104805173Y-125656886D01*
X104794676Y-125669676D01*
X104781886Y-125680173D01*
X104767298Y-125687970D01*
X104751463Y-125692774D01*
X104728860Y-125695000D01*
X104271140Y-125695000D01*
X104248537Y-125692774D01*
X104232702Y-125687970D01*
X104218114Y-125680173D01*
X104205324Y-125669676D01*
X104194827Y-125656886D01*
X104187030Y-125642298D01*
X104182226Y-125626463D01*
X104180000Y-125603860D01*
X104180000Y-125196140D01*
X104182226Y-125173537D01*
X104187030Y-125157702D01*
X104194827Y-125143114D01*
X104205324Y-125130324D01*
X104218114Y-125119827D01*
X104232702Y-125112030D01*
X104248537Y-125107226D01*
X104271140Y-125105000D01*
X104728860Y-125105000D01*
X104751463Y-125107226D01*
X104751463Y-125107226D01*
G37*
G36*
X122451463Y-125022226D02*
X122467298Y-125027030D01*
X122481886Y-125034827D01*
X122494676Y-125045324D01*
X122505173Y-125058114D01*
X122512970Y-125072702D01*
X122517774Y-125088537D01*
X122520000Y-125111140D01*
X122520000Y-125518860D01*
X122517774Y-125541463D01*
X122512970Y-125557298D01*
X122505173Y-125571886D01*
X122494676Y-125584676D01*
X122481886Y-125595173D01*
X122467298Y-125602970D01*
X122451463Y-125607774D01*
X122428860Y-125610000D01*
X121971140Y-125610000D01*
X121948537Y-125607774D01*
X121932702Y-125602970D01*
X121918114Y-125595173D01*
X121905324Y-125584676D01*
X121894827Y-125571886D01*
X121887030Y-125557298D01*
X121882226Y-125541463D01*
X121880000Y-125518860D01*
X121880000Y-125111140D01*
X121882226Y-125088537D01*
X121887030Y-125072702D01*
X121894827Y-125058114D01*
X121905324Y-125045324D01*
X121918114Y-125034827D01*
X121932702Y-125027030D01*
X121948537Y-125022226D01*
X121971140Y-125020000D01*
X122428860Y-125020000D01*
X122451463Y-125022226D01*
X122451463Y-125022226D01*
G37*
G36*
X102500000Y-125550000D02*
X101700000Y-125550000D01*
X101700000Y-124650000D01*
X102500000Y-124650000D01*
X102500000Y-125550000D01*
X102500000Y-125550000D01*
G37*
G36*
X113705000Y-125450000D02*
X113105000Y-125450000D01*
X113105000Y-123950000D01*
X113705000Y-123950000D01*
X113705000Y-125450000D01*
X113705000Y-125450000D01*
G37*
G36*
X116245000Y-125450000D02*
X115645000Y-125450000D01*
X115645000Y-123950000D01*
X116245000Y-123950000D01*
X116245000Y-125450000D01*
X116245000Y-125450000D01*
G37*
G36*
X114975000Y-125450000D02*
X114375000Y-125450000D01*
X114375000Y-123950000D01*
X114975000Y-123950000D01*
X114975000Y-125450000D01*
X114975000Y-125450000D01*
G37*
G36*
X109895000Y-125450000D02*
X109295000Y-125450000D01*
X109295000Y-123950000D01*
X109895000Y-123950000D01*
X109895000Y-125450000D01*
X109895000Y-125450000D01*
G37*
G36*
X107355000Y-125450000D02*
X106755000Y-125450000D01*
X106755000Y-123950000D01*
X107355000Y-123950000D01*
X107355000Y-125450000D01*
X107355000Y-125450000D01*
G37*
G36*
X108625000Y-125450000D02*
X108025000Y-125450000D01*
X108025000Y-123950000D01*
X108625000Y-123950000D01*
X108625000Y-125450000D01*
X108625000Y-125450000D01*
G37*
G36*
X111165000Y-125450000D02*
X110565000Y-125450000D01*
X110565000Y-123950000D01*
X111165000Y-123950000D01*
X111165000Y-125450000D01*
X111165000Y-125450000D01*
G37*
G36*
X112435000Y-125450000D02*
X111835000Y-125450000D01*
X111835000Y-123950000D01*
X112435000Y-123950000D01*
X112435000Y-125450000D01*
X112435000Y-125450000D01*
G37*
G36*
X126551463Y-124722226D02*
X126567298Y-124727030D01*
X126581886Y-124734827D01*
X126594676Y-124745324D01*
X126605173Y-124758114D01*
X126612970Y-124772702D01*
X126617774Y-124788537D01*
X126620000Y-124811140D01*
X126620000Y-125218860D01*
X126617774Y-125241463D01*
X126612970Y-125257298D01*
X126605173Y-125271886D01*
X126594676Y-125284676D01*
X126581886Y-125295173D01*
X126567298Y-125302970D01*
X126551463Y-125307774D01*
X126528860Y-125310000D01*
X126071140Y-125310000D01*
X126048537Y-125307774D01*
X126032702Y-125302970D01*
X126018114Y-125295173D01*
X126005324Y-125284676D01*
X125994827Y-125271886D01*
X125987030Y-125257298D01*
X125982226Y-125241463D01*
X125980000Y-125218860D01*
X125980000Y-124811140D01*
X125982226Y-124788537D01*
X125987030Y-124772702D01*
X125994827Y-124758114D01*
X126005324Y-124745324D01*
X126018114Y-124734827D01*
X126032702Y-124727030D01*
X126048537Y-124722226D01*
X126071140Y-124720000D01*
X126528860Y-124720000D01*
X126551463Y-124722226D01*
X126551463Y-124722226D01*
G37*
G36*
X124960643Y-124844526D02*
X124501023Y-125304146D01*
X123751489Y-124554612D01*
X124211109Y-124094992D01*
X124960643Y-124844526D01*
X124960643Y-124844526D01*
G37*
G36*
X121351463Y-124522226D02*
X121367298Y-124527030D01*
X121381886Y-124534827D01*
X121394676Y-124545324D01*
X121405173Y-124558114D01*
X121412970Y-124572702D01*
X121417774Y-124588537D01*
X121420000Y-124611140D01*
X121420000Y-125018860D01*
X121417774Y-125041463D01*
X121412970Y-125057298D01*
X121405173Y-125071886D01*
X121394676Y-125084676D01*
X121381886Y-125095173D01*
X121367298Y-125102970D01*
X121351463Y-125107774D01*
X121328860Y-125110000D01*
X120871140Y-125110000D01*
X120848537Y-125107774D01*
X120832702Y-125102970D01*
X120818114Y-125095173D01*
X120805324Y-125084676D01*
X120794827Y-125071886D01*
X120787030Y-125057298D01*
X120782226Y-125041463D01*
X120780000Y-125018860D01*
X120780000Y-124611140D01*
X120782226Y-124588537D01*
X120787030Y-124572702D01*
X120794827Y-124558114D01*
X120805324Y-124545324D01*
X120818114Y-124534827D01*
X120832702Y-124527030D01*
X120848537Y-124522226D01*
X120871140Y-124520000D01*
X121328860Y-124520000D01*
X121351463Y-124522226D01*
X121351463Y-124522226D01*
G37*
G36*
X104751463Y-124137226D02*
X104767298Y-124142030D01*
X104781886Y-124149827D01*
X104794676Y-124160324D01*
X104805173Y-124173114D01*
X104812970Y-124187702D01*
X104817774Y-124203537D01*
X104820000Y-124226140D01*
X104820000Y-124633860D01*
X104817774Y-124656463D01*
X104812970Y-124672298D01*
X104805173Y-124686886D01*
X104794676Y-124699676D01*
X104781886Y-124710173D01*
X104767298Y-124717970D01*
X104751463Y-124722774D01*
X104728860Y-124725000D01*
X104271140Y-124725000D01*
X104248537Y-124722774D01*
X104232702Y-124717970D01*
X104218114Y-124710173D01*
X104205324Y-124699676D01*
X104194827Y-124686886D01*
X104187030Y-124672298D01*
X104182226Y-124656463D01*
X104180000Y-124633860D01*
X104180000Y-124226140D01*
X104182226Y-124203537D01*
X104187030Y-124187702D01*
X104194827Y-124173114D01*
X104205324Y-124160324D01*
X104218114Y-124149827D01*
X104232702Y-124142030D01*
X104248537Y-124137226D01*
X104271140Y-124135000D01*
X104728860Y-124135000D01*
X104751463Y-124137226D01*
X104751463Y-124137226D01*
G37*
G36*
X125632394Y-124172774D02*
X125172774Y-124632394D01*
X124423240Y-123882860D01*
X124882860Y-123423240D01*
X125632394Y-124172774D01*
X125632394Y-124172774D01*
G37*
G36*
X121051463Y-123477226D02*
X121067298Y-123482030D01*
X121081886Y-123489827D01*
X121094676Y-123500324D01*
X121105173Y-123513114D01*
X121112970Y-123527702D01*
X121117774Y-123543537D01*
X121120000Y-123566140D01*
X121120000Y-123973860D01*
X121117774Y-123996463D01*
X121112970Y-124012298D01*
X121105173Y-124026886D01*
X121094676Y-124039676D01*
X121081886Y-124050173D01*
X121067298Y-124057970D01*
X121051463Y-124062774D01*
X121028860Y-124065000D01*
X120571140Y-124065000D01*
X120548537Y-124062774D01*
X120532702Y-124057970D01*
X120518114Y-124050173D01*
X120505324Y-124039676D01*
X120494827Y-124026886D01*
X120487030Y-124012298D01*
X120482226Y-123996463D01*
X120480000Y-123973860D01*
X120480000Y-123566140D01*
X120482226Y-123543537D01*
X120487030Y-123527702D01*
X120494827Y-123513114D01*
X120505324Y-123500324D01*
X120518114Y-123489827D01*
X120532702Y-123482030D01*
X120548537Y-123477226D01*
X120571140Y-123475000D01*
X121028860Y-123475000D01*
X121051463Y-123477226D01*
X121051463Y-123477226D01*
G37*
G36*
X126304146Y-123501023D02*
X125844526Y-123960643D01*
X125094992Y-123211109D01*
X125554612Y-122751489D01*
X126304146Y-123501023D01*
X126304146Y-123501023D01*
G37*
G36*
X104751463Y-123192226D02*
X104767298Y-123197030D01*
X104781886Y-123204827D01*
X104794676Y-123215324D01*
X104805173Y-123228114D01*
X104812970Y-123242702D01*
X104817774Y-123258537D01*
X104820000Y-123281140D01*
X104820000Y-123688860D01*
X104817774Y-123711463D01*
X104812970Y-123727298D01*
X104805173Y-123741886D01*
X104794676Y-123754676D01*
X104781886Y-123765173D01*
X104767298Y-123772970D01*
X104751463Y-123777774D01*
X104728860Y-123780000D01*
X104271140Y-123780000D01*
X104248537Y-123777774D01*
X104232702Y-123772970D01*
X104218114Y-123765173D01*
X104205324Y-123754676D01*
X104194827Y-123741886D01*
X104187030Y-123727298D01*
X104182226Y-123711463D01*
X104180000Y-123688860D01*
X104180000Y-123281140D01*
X104182226Y-123258537D01*
X104187030Y-123242702D01*
X104194827Y-123228114D01*
X104205324Y-123215324D01*
X104218114Y-123204827D01*
X104232702Y-123197030D01*
X104248537Y-123192226D01*
X104271140Y-123190000D01*
X104728860Y-123190000D01*
X104751463Y-123192226D01*
X104751463Y-123192226D01*
G37*
G36*
X123405008Y-123288891D02*
X122945388Y-123748511D01*
X122195854Y-122998977D01*
X122655474Y-122539357D01*
X123405008Y-123288891D01*
X123405008Y-123288891D01*
G37*
G36*
X103450000Y-123550000D02*
X102650000Y-123550000D01*
X102650000Y-122650000D01*
X103450000Y-122650000D01*
X103450000Y-123550000D01*
X103450000Y-123550000D01*
G37*
G36*
X101550000Y-123550000D02*
X100750000Y-123550000D01*
X100750000Y-122650000D01*
X101550000Y-122650000D01*
X101550000Y-123550000D01*
X101550000Y-123550000D01*
G37*
G36*
X121051463Y-122507226D02*
X121067298Y-122512030D01*
X121081886Y-122519827D01*
X121094676Y-122530324D01*
X121105173Y-122543114D01*
X121112970Y-122557702D01*
X121117774Y-122573537D01*
X121120000Y-122596140D01*
X121120000Y-123003860D01*
X121117774Y-123026463D01*
X121112970Y-123042298D01*
X121105173Y-123056886D01*
X121094676Y-123069676D01*
X121081886Y-123080173D01*
X121067298Y-123087970D01*
X121051463Y-123092774D01*
X121028860Y-123095000D01*
X120571140Y-123095000D01*
X120548537Y-123092774D01*
X120532702Y-123087970D01*
X120518114Y-123080173D01*
X120505324Y-123069676D01*
X120494827Y-123056886D01*
X120487030Y-123042298D01*
X120482226Y-123026463D01*
X120480000Y-123003860D01*
X120480000Y-122596140D01*
X120482226Y-122573537D01*
X120487030Y-122557702D01*
X120494827Y-122543114D01*
X120505324Y-122530324D01*
X120518114Y-122519827D01*
X120532702Y-122512030D01*
X120548537Y-122507226D01*
X120571140Y-122505000D01*
X121028860Y-122505000D01*
X121051463Y-122507226D01*
X121051463Y-122507226D01*
G37*
G36*
X124076760Y-122617140D02*
X123617140Y-123076760D01*
X122867606Y-122327226D01*
X123327226Y-121867606D01*
X124076760Y-122617140D01*
X124076760Y-122617140D01*
G37*
G36*
X104751463Y-122222226D02*
X104767298Y-122227030D01*
X104781886Y-122234827D01*
X104794676Y-122245324D01*
X104805173Y-122258114D01*
X104812970Y-122272702D01*
X104817774Y-122288537D01*
X104820000Y-122311140D01*
X104820000Y-122718860D01*
X104817774Y-122741463D01*
X104812970Y-122757298D01*
X104805173Y-122771886D01*
X104794676Y-122784676D01*
X104781886Y-122795173D01*
X104767298Y-122802970D01*
X104751463Y-122807774D01*
X104728860Y-122810000D01*
X104271140Y-122810000D01*
X104248537Y-122807774D01*
X104232702Y-122802970D01*
X104218114Y-122795173D01*
X104205324Y-122784676D01*
X104194827Y-122771886D01*
X104187030Y-122757298D01*
X104182226Y-122741463D01*
X104180000Y-122718860D01*
X104180000Y-122311140D01*
X104182226Y-122288537D01*
X104187030Y-122272702D01*
X104194827Y-122258114D01*
X104205324Y-122245324D01*
X104218114Y-122234827D01*
X104232702Y-122227030D01*
X104248537Y-122222226D01*
X104271140Y-122220000D01*
X104728860Y-122220000D01*
X104751463Y-122222226D01*
X104751463Y-122222226D01*
G37*
G36*
X124748511Y-121945388D02*
X124288891Y-122405008D01*
X123539357Y-121655474D01*
X123998977Y-121195854D01*
X124748511Y-121945388D01*
X124748511Y-121945388D01*
G37*
G36*
X103300000Y-122000000D02*
X100300000Y-122000000D01*
X100300000Y-120000000D01*
X103300000Y-120000000D01*
X103300000Y-122000000D01*
X103300000Y-122000000D01*
G37*
G36*
X126851463Y-120392226D02*
X126867298Y-120397030D01*
X126881886Y-120404827D01*
X126894676Y-120415324D01*
X126905173Y-120428114D01*
X126912970Y-120442702D01*
X126917774Y-120458537D01*
X126920000Y-120481140D01*
X126920000Y-120888860D01*
X126917774Y-120911463D01*
X126912970Y-120927298D01*
X126905173Y-120941886D01*
X126894676Y-120954676D01*
X126881886Y-120965173D01*
X126867298Y-120972970D01*
X126851463Y-120977774D01*
X126828860Y-120980000D01*
X126371140Y-120980000D01*
X126348537Y-120977774D01*
X126332702Y-120972970D01*
X126318114Y-120965173D01*
X126305324Y-120954676D01*
X126294827Y-120941886D01*
X126287030Y-120927298D01*
X126282226Y-120911463D01*
X126280000Y-120888860D01*
X126280000Y-120481140D01*
X126282226Y-120458537D01*
X126287030Y-120442702D01*
X126294827Y-120428114D01*
X126305324Y-120415324D01*
X126318114Y-120404827D01*
X126332702Y-120397030D01*
X126348537Y-120392226D01*
X126371140Y-120390000D01*
X126828860Y-120390000D01*
X126851463Y-120392226D01*
X126851463Y-120392226D01*
G37*
G36*
X121711453Y-110981375D02*
X121879538Y-111149460D01*
X121883105Y-111153806D01*
X121875647Y-111162893D01*
X121862033Y-111183267D01*
X121852655Y-111205906D01*
X121847874Y-111229939D01*
X121847874Y-111254443D01*
X121852654Y-111278477D01*
X121862031Y-111301116D01*
X121875644Y-111321491D01*
X121892971Y-111338819D01*
X121913345Y-111352433D01*
X121935984Y-111361811D01*
X121960017Y-111366592D01*
X121984521Y-111366592D01*
X122008555Y-111361812D01*
X122031194Y-111352435D01*
X122051573Y-111338819D01*
X122060660Y-111331361D01*
X122065006Y-111334928D01*
X122233091Y-111503013D01*
X122236658Y-111507359D01*
X122233091Y-111511705D01*
X121623064Y-112121732D01*
X121618429Y-112125536D01*
X121613689Y-112126974D01*
X121599671Y-112129762D01*
X121577032Y-112139139D01*
X121556657Y-112152752D01*
X121539330Y-112170079D01*
X121525716Y-112190454D01*
X121516338Y-112213093D01*
X121511557Y-112237126D01*
X121511557Y-112261630D01*
X121516337Y-112285664D01*
X121525714Y-112308303D01*
X121539327Y-112328678D01*
X121547567Y-112337768D01*
X121583805Y-112374006D01*
X121602747Y-112389552D01*
X121624358Y-112401103D01*
X121647807Y-112408216D01*
X121672193Y-112410618D01*
X121696579Y-112408216D01*
X121720028Y-112401103D01*
X121741639Y-112389552D01*
X121760581Y-112374006D01*
X121776127Y-112355064D01*
X121787678Y-112333453D01*
X121794791Y-112310004D01*
X121795590Y-112304617D01*
X121796037Y-112303144D01*
X121799841Y-112298509D01*
X122409868Y-111688482D01*
X122414214Y-111684915D01*
X122418560Y-111688482D01*
X122586645Y-111856567D01*
X122590212Y-111860913D01*
X122582754Y-111870000D01*
X122569140Y-111890374D01*
X122559762Y-111913013D01*
X122554981Y-111937046D01*
X122554981Y-111961550D01*
X122559761Y-111985584D01*
X122569138Y-112008223D01*
X122582751Y-112028598D01*
X122600078Y-112045926D01*
X122620452Y-112059540D01*
X122643091Y-112068918D01*
X122667124Y-112073699D01*
X122691628Y-112073699D01*
X122715662Y-112068919D01*
X122738301Y-112059542D01*
X122758680Y-112045926D01*
X122767767Y-112038468D01*
X122772113Y-112042035D01*
X122940198Y-112210120D01*
X122943765Y-112214466D01*
X122936307Y-112223553D01*
X122922693Y-112243927D01*
X122913315Y-112266566D01*
X122908534Y-112290599D01*
X122908534Y-112315103D01*
X122913314Y-112339137D01*
X122922691Y-112361776D01*
X122936304Y-112382151D01*
X122953631Y-112399479D01*
X122974005Y-112413093D01*
X122996644Y-112422471D01*
X123020677Y-112427252D01*
X123045181Y-112427252D01*
X123069215Y-112422472D01*
X123091854Y-112413095D01*
X123112233Y-112399479D01*
X123121320Y-112392021D01*
X123125666Y-112395588D01*
X123293751Y-112563673D01*
X123297318Y-112568019D01*
X123293751Y-112572365D01*
X122683724Y-113182392D01*
X122679089Y-113186196D01*
X122674349Y-113187634D01*
X122660331Y-113190422D01*
X122637692Y-113199799D01*
X122617317Y-113213412D01*
X122599990Y-113230739D01*
X122586376Y-113251114D01*
X122576998Y-113273753D01*
X122572217Y-113297786D01*
X122572217Y-113322290D01*
X122576997Y-113346324D01*
X122586374Y-113368963D01*
X122599987Y-113389338D01*
X122608227Y-113398428D01*
X122644465Y-113434666D01*
X122663407Y-113450212D01*
X122685018Y-113461763D01*
X122708467Y-113468876D01*
X122732853Y-113471278D01*
X122757239Y-113468876D01*
X122780688Y-113461763D01*
X122802299Y-113450212D01*
X122821241Y-113434666D01*
X122836787Y-113415724D01*
X122848338Y-113394113D01*
X122855451Y-113370664D01*
X122856250Y-113365277D01*
X122856697Y-113363804D01*
X122860501Y-113359169D01*
X123470528Y-112749142D01*
X123474874Y-112745575D01*
X123479220Y-112749142D01*
X123647305Y-112917227D01*
X123650872Y-112921573D01*
X123643414Y-112930660D01*
X123629800Y-112951034D01*
X123620422Y-112973673D01*
X123615641Y-112997706D01*
X123615641Y-113022210D01*
X123620421Y-113046244D01*
X123629798Y-113068883D01*
X123643411Y-113089258D01*
X123660738Y-113106586D01*
X123681112Y-113120200D01*
X123703751Y-113129578D01*
X123727784Y-113134359D01*
X123752288Y-113134359D01*
X123776322Y-113129579D01*
X123798961Y-113120202D01*
X123819340Y-113106586D01*
X123828427Y-113099128D01*
X123832773Y-113102695D01*
X124000858Y-113270780D01*
X124004425Y-113275126D01*
X124000858Y-113279472D01*
X123390831Y-113889499D01*
X123386196Y-113893303D01*
X123381456Y-113894741D01*
X123367438Y-113897529D01*
X123344799Y-113906906D01*
X123324424Y-113920519D01*
X123307097Y-113937846D01*
X123293483Y-113958221D01*
X123284105Y-113980860D01*
X123279324Y-114004893D01*
X123279324Y-114029397D01*
X123284104Y-114053431D01*
X123293481Y-114076070D01*
X123307094Y-114096445D01*
X123315334Y-114105535D01*
X123351572Y-114141773D01*
X123370514Y-114157319D01*
X123392125Y-114168870D01*
X123415574Y-114175983D01*
X123439960Y-114178385D01*
X123464346Y-114175983D01*
X123487795Y-114168870D01*
X123509406Y-114157319D01*
X123528348Y-114141773D01*
X123543894Y-114122831D01*
X123555445Y-114101220D01*
X123562558Y-114077771D01*
X123563357Y-114072384D01*
X123563804Y-114070911D01*
X123567608Y-114066276D01*
X124177635Y-113456249D01*
X124181981Y-113452682D01*
X124186327Y-113456249D01*
X124354412Y-113624334D01*
X124357979Y-113628680D01*
X124350521Y-113637767D01*
X124336907Y-113658141D01*
X124327529Y-113680780D01*
X124322748Y-113704813D01*
X124322748Y-113729317D01*
X124327528Y-113753351D01*
X124336905Y-113775990D01*
X124350518Y-113796365D01*
X124367845Y-113813693D01*
X124388219Y-113827307D01*
X124410858Y-113836685D01*
X124434891Y-113841466D01*
X124459395Y-113841466D01*
X124483429Y-113836686D01*
X124506068Y-113827309D01*
X124526447Y-113813693D01*
X124535534Y-113806235D01*
X124539880Y-113809802D01*
X124707965Y-113977887D01*
X124711532Y-113982233D01*
X124704074Y-113991320D01*
X124690460Y-114011694D01*
X124681082Y-114034333D01*
X124676301Y-114058366D01*
X124676301Y-114082870D01*
X124681081Y-114106904D01*
X124690458Y-114129543D01*
X124704071Y-114149918D01*
X124721398Y-114167246D01*
X124741772Y-114180860D01*
X124764411Y-114190238D01*
X124788444Y-114195019D01*
X124812948Y-114195019D01*
X124836982Y-114190239D01*
X124859621Y-114180862D01*
X124880000Y-114167246D01*
X124889087Y-114159788D01*
X124893433Y-114163355D01*
X125061518Y-114331440D01*
X125065085Y-114335786D01*
X125061518Y-114340132D01*
X124451491Y-114950159D01*
X124446856Y-114953963D01*
X124442116Y-114955401D01*
X124428098Y-114958189D01*
X124405459Y-114967566D01*
X124385084Y-114981179D01*
X124367757Y-114998506D01*
X124354143Y-115018881D01*
X124344765Y-115041520D01*
X124339984Y-115065553D01*
X124339984Y-115090057D01*
X124344764Y-115114091D01*
X124354141Y-115136730D01*
X124367754Y-115157105D01*
X124375994Y-115166195D01*
X124412232Y-115202433D01*
X124431174Y-115217979D01*
X124452785Y-115229530D01*
X124476234Y-115236643D01*
X124500620Y-115239045D01*
X124525006Y-115236643D01*
X124548455Y-115229530D01*
X124570066Y-115217979D01*
X124589008Y-115202433D01*
X124604554Y-115183491D01*
X124616105Y-115161880D01*
X124623218Y-115138431D01*
X124624017Y-115133044D01*
X124624464Y-115131571D01*
X124628268Y-115126936D01*
X125238295Y-114516909D01*
X125242641Y-114513342D01*
X125246987Y-114516909D01*
X125415072Y-114684994D01*
X125418639Y-114689340D01*
X125411181Y-114698427D01*
X125397567Y-114718801D01*
X125388189Y-114741440D01*
X125383408Y-114765473D01*
X125383408Y-114789977D01*
X125388188Y-114814011D01*
X125397565Y-114836650D01*
X125411178Y-114857025D01*
X125428505Y-114874353D01*
X125448879Y-114887967D01*
X125471518Y-114897345D01*
X125495551Y-114902126D01*
X125520055Y-114902126D01*
X125544089Y-114897346D01*
X125566728Y-114887969D01*
X125587107Y-114874353D01*
X125596194Y-114866895D01*
X125600540Y-114870462D01*
X125768625Y-115038547D01*
X125772192Y-115042893D01*
X125768625Y-115047239D01*
X125154252Y-115661612D01*
X125112693Y-115620053D01*
X125093751Y-115604507D01*
X125072140Y-115592956D01*
X125048691Y-115585843D01*
X125024305Y-115583441D01*
X124999919Y-115585843D01*
X124976470Y-115592956D01*
X124954859Y-115604507D01*
X124935917Y-115620053D01*
X124920371Y-115638995D01*
X124908820Y-115660606D01*
X124901707Y-115684055D01*
X124899907Y-115720693D01*
X124902793Y-115750000D01*
X124899907Y-115779307D01*
X124899907Y-115803812D01*
X124904688Y-115827845D01*
X124914065Y-115850484D01*
X124927679Y-115870859D01*
X124945006Y-115888186D01*
X124965381Y-115901799D01*
X124988020Y-115911177D01*
X125012053Y-115915957D01*
X125036558Y-115915957D01*
X125060591Y-115911176D01*
X125083230Y-115901799D01*
X125112693Y-115879947D01*
X125154252Y-115838388D01*
X125768625Y-116452761D01*
X125772192Y-116457107D01*
X125768625Y-116461453D01*
X125600540Y-116629538D01*
X125596194Y-116633105D01*
X125587107Y-116625647D01*
X125566733Y-116612033D01*
X125544094Y-116602655D01*
X125520061Y-116597874D01*
X125495557Y-116597874D01*
X125471523Y-116602654D01*
X125448884Y-116612031D01*
X125428509Y-116625644D01*
X125411181Y-116642971D01*
X125397567Y-116663345D01*
X125388189Y-116685984D01*
X125383408Y-116710017D01*
X125383408Y-116734521D01*
X125388188Y-116758555D01*
X125397565Y-116781194D01*
X125411181Y-116801573D01*
X125418639Y-116810660D01*
X125415072Y-116815006D01*
X125246987Y-116983091D01*
X125242641Y-116986658D01*
X125238295Y-116983091D01*
X124628268Y-116373064D01*
X124624464Y-116368429D01*
X124623026Y-116363689D01*
X124620238Y-116349671D01*
X124610861Y-116327032D01*
X124597248Y-116306657D01*
X124579921Y-116289330D01*
X124559546Y-116275716D01*
X124536907Y-116266338D01*
X124512874Y-116261557D01*
X124488370Y-116261557D01*
X124464336Y-116266337D01*
X124441697Y-116275714D01*
X124421322Y-116289327D01*
X124412232Y-116297567D01*
X124375994Y-116333805D01*
X124360448Y-116352747D01*
X124348897Y-116374358D01*
X124341784Y-116397807D01*
X124339382Y-116422193D01*
X124341784Y-116446579D01*
X124348897Y-116470028D01*
X124360448Y-116491639D01*
X124375994Y-116510581D01*
X124394936Y-116526127D01*
X124416547Y-116537678D01*
X124439996Y-116544791D01*
X124445383Y-116545590D01*
X124446856Y-116546037D01*
X124451491Y-116549841D01*
X125061518Y-117159868D01*
X125065085Y-117164214D01*
X125061518Y-117168560D01*
X124893433Y-117336645D01*
X124889087Y-117340212D01*
X124880000Y-117332754D01*
X124859626Y-117319140D01*
X124836987Y-117309762D01*
X124812954Y-117304981D01*
X124788450Y-117304981D01*
X124764416Y-117309761D01*
X124741777Y-117319138D01*
X124721402Y-117332751D01*
X124704074Y-117350078D01*
X124690460Y-117370452D01*
X124681082Y-117393091D01*
X124676301Y-117417124D01*
X124676301Y-117441628D01*
X124681081Y-117465662D01*
X124690458Y-117488301D01*
X124704074Y-117508680D01*
X124711532Y-117517767D01*
X124707965Y-117522113D01*
X124539880Y-117690198D01*
X124535534Y-117693765D01*
X124526447Y-117686307D01*
X124506073Y-117672693D01*
X124483434Y-117663315D01*
X124459401Y-117658534D01*
X124434897Y-117658534D01*
X124410863Y-117663314D01*
X124388224Y-117672691D01*
X124367849Y-117686304D01*
X124350521Y-117703631D01*
X124336907Y-117724005D01*
X124327529Y-117746644D01*
X124322748Y-117770677D01*
X124322748Y-117795181D01*
X124327528Y-117819215D01*
X124336905Y-117841854D01*
X124350521Y-117862233D01*
X124357979Y-117871320D01*
X124354412Y-117875666D01*
X124186327Y-118043751D01*
X124181981Y-118047318D01*
X124177635Y-118043751D01*
X123567608Y-117433724D01*
X123563804Y-117429089D01*
X123562366Y-117424349D01*
X123559578Y-117410331D01*
X123550201Y-117387692D01*
X123536588Y-117367317D01*
X123519261Y-117349990D01*
X123498886Y-117336376D01*
X123476247Y-117326998D01*
X123452214Y-117322217D01*
X123427710Y-117322217D01*
X123403676Y-117326997D01*
X123381037Y-117336374D01*
X123360662Y-117349987D01*
X123351572Y-117358227D01*
X123315334Y-117394465D01*
X123299788Y-117413407D01*
X123288237Y-117435018D01*
X123281124Y-117458467D01*
X123278722Y-117482853D01*
X123281124Y-117507239D01*
X123288237Y-117530688D01*
X123299788Y-117552299D01*
X123315334Y-117571241D01*
X123334276Y-117586787D01*
X123355887Y-117598338D01*
X123379336Y-117605451D01*
X123384723Y-117606250D01*
X123386196Y-117606697D01*
X123390831Y-117610501D01*
X124000858Y-118220528D01*
X124004425Y-118224874D01*
X124000858Y-118229220D01*
X123832773Y-118397305D01*
X123828427Y-118400872D01*
X123819340Y-118393414D01*
X123798966Y-118379800D01*
X123776327Y-118370422D01*
X123752294Y-118365641D01*
X123727790Y-118365641D01*
X123703756Y-118370421D01*
X123681117Y-118379798D01*
X123660742Y-118393411D01*
X123643414Y-118410738D01*
X123629800Y-118431112D01*
X123620422Y-118453751D01*
X123615641Y-118477784D01*
X123615641Y-118502288D01*
X123620421Y-118526322D01*
X123629798Y-118548961D01*
X123643414Y-118569340D01*
X123650872Y-118578427D01*
X123647305Y-118582773D01*
X123479220Y-118750858D01*
X123474874Y-118754425D01*
X123470528Y-118750858D01*
X122860501Y-118140831D01*
X122856697Y-118136196D01*
X122855259Y-118131456D01*
X122852471Y-118117438D01*
X122843094Y-118094799D01*
X122829481Y-118074424D01*
X122812154Y-118057097D01*
X122791779Y-118043483D01*
X122769140Y-118034105D01*
X122745107Y-118029324D01*
X122720603Y-118029324D01*
X122696569Y-118034104D01*
X122673930Y-118043481D01*
X122653555Y-118057094D01*
X122644465Y-118065334D01*
X122608227Y-118101572D01*
X122592681Y-118120514D01*
X122581130Y-118142125D01*
X122574017Y-118165574D01*
X122571615Y-118189960D01*
X122574017Y-118214346D01*
X122581130Y-118237795D01*
X122592681Y-118259406D01*
X122608227Y-118278348D01*
X122627169Y-118293894D01*
X122648780Y-118305445D01*
X122672229Y-118312558D01*
X122677616Y-118313357D01*
X122679089Y-118313804D01*
X122683724Y-118317608D01*
X123293751Y-118927635D01*
X123297318Y-118931981D01*
X123293751Y-118936327D01*
X123125666Y-119104412D01*
X123121320Y-119107979D01*
X123112233Y-119100521D01*
X123091859Y-119086907D01*
X123069220Y-119077529D01*
X123045187Y-119072748D01*
X123020683Y-119072748D01*
X122996649Y-119077528D01*
X122974010Y-119086905D01*
X122953635Y-119100518D01*
X122936307Y-119117845D01*
X122922693Y-119138219D01*
X122913315Y-119160858D01*
X122908534Y-119184891D01*
X122908534Y-119209395D01*
X122913314Y-119233429D01*
X122922691Y-119256068D01*
X122936307Y-119276447D01*
X122943765Y-119285534D01*
X122940198Y-119289880D01*
X122772113Y-119457965D01*
X122767767Y-119461532D01*
X122758680Y-119454074D01*
X122738306Y-119440460D01*
X122715667Y-119431082D01*
X122691634Y-119426301D01*
X122667130Y-119426301D01*
X122643096Y-119431081D01*
X122620457Y-119440458D01*
X122600082Y-119454071D01*
X122582754Y-119471398D01*
X122569140Y-119491772D01*
X122559762Y-119514411D01*
X122554981Y-119538444D01*
X122554981Y-119562948D01*
X122559761Y-119586982D01*
X122569138Y-119609621D01*
X122582754Y-119630000D01*
X122590212Y-119639087D01*
X122586645Y-119643433D01*
X122418560Y-119811518D01*
X122414214Y-119815085D01*
X122409868Y-119811518D01*
X121799841Y-119201491D01*
X121796037Y-119196856D01*
X121794599Y-119192116D01*
X121791811Y-119178098D01*
X121782434Y-119155459D01*
X121768821Y-119135084D01*
X121751494Y-119117757D01*
X121731119Y-119104143D01*
X121708480Y-119094765D01*
X121684447Y-119089984D01*
X121659943Y-119089984D01*
X121635909Y-119094764D01*
X121613270Y-119104141D01*
X121592895Y-119117754D01*
X121583805Y-119125994D01*
X121547567Y-119162232D01*
X121532021Y-119181174D01*
X121520470Y-119202785D01*
X121513357Y-119226234D01*
X121510955Y-119250620D01*
X121513357Y-119275006D01*
X121520470Y-119298455D01*
X121532021Y-119320066D01*
X121547567Y-119339008D01*
X121566509Y-119354554D01*
X121588120Y-119366105D01*
X121611569Y-119373218D01*
X121616956Y-119374017D01*
X121618429Y-119374464D01*
X121623064Y-119378268D01*
X122233091Y-119988295D01*
X122236658Y-119992641D01*
X122233091Y-119996987D01*
X122065006Y-120165072D01*
X122060660Y-120168639D01*
X122051573Y-120161181D01*
X122031199Y-120147567D01*
X122008560Y-120138189D01*
X121984527Y-120133408D01*
X121960023Y-120133408D01*
X121935989Y-120138188D01*
X121913350Y-120147565D01*
X121892975Y-120161178D01*
X121875647Y-120178505D01*
X121862033Y-120198879D01*
X121852655Y-120221518D01*
X121847874Y-120245551D01*
X121847874Y-120270055D01*
X121852654Y-120294089D01*
X121862031Y-120316728D01*
X121875647Y-120337107D01*
X121883105Y-120346194D01*
X121879538Y-120350540D01*
X121711453Y-120518625D01*
X121707107Y-120522192D01*
X121702761Y-120518625D01*
X121088388Y-119904252D01*
X121129947Y-119862693D01*
X121145493Y-119843751D01*
X121157044Y-119822140D01*
X121164157Y-119798691D01*
X121166559Y-119774305D01*
X121164157Y-119749919D01*
X121157044Y-119726470D01*
X121145493Y-119704859D01*
X121129947Y-119685917D01*
X121111005Y-119670371D01*
X121089394Y-119658820D01*
X121065945Y-119651707D01*
X121029307Y-119649907D01*
X121000000Y-119652793D01*
X120970693Y-119649907D01*
X120946188Y-119649907D01*
X120922155Y-119654688D01*
X120899516Y-119664065D01*
X120879141Y-119677679D01*
X120861814Y-119695006D01*
X120848201Y-119715381D01*
X120838823Y-119738020D01*
X120834043Y-119762053D01*
X120834043Y-119786558D01*
X120838824Y-119810591D01*
X120848201Y-119833230D01*
X120870053Y-119862693D01*
X120911612Y-119904252D01*
X120297239Y-120518625D01*
X120292893Y-120522192D01*
X120288547Y-120518625D01*
X120120462Y-120350540D01*
X120116895Y-120346194D01*
X120124353Y-120337107D01*
X120137967Y-120316733D01*
X120147345Y-120294094D01*
X120152126Y-120270061D01*
X120152126Y-120245557D01*
X120147346Y-120221523D01*
X120137969Y-120198884D01*
X120124356Y-120178509D01*
X120107029Y-120161181D01*
X120086655Y-120147567D01*
X120064016Y-120138189D01*
X120039983Y-120133408D01*
X120015479Y-120133408D01*
X119991445Y-120138188D01*
X119968806Y-120147565D01*
X119948427Y-120161181D01*
X119939340Y-120168639D01*
X119934994Y-120165072D01*
X119766909Y-119996987D01*
X119763342Y-119992641D01*
X119766909Y-119988295D01*
X120128372Y-119626832D01*
X120522049Y-119626832D01*
X120522049Y-119651336D01*
X120526829Y-119675370D01*
X120536206Y-119698009D01*
X120549819Y-119718384D01*
X120567146Y-119735712D01*
X120587520Y-119749326D01*
X120610159Y-119758704D01*
X120634192Y-119763485D01*
X120658696Y-119763485D01*
X120682730Y-119758705D01*
X120705369Y-119749328D01*
X120725748Y-119735712D01*
X120735124Y-119728017D01*
X120739864Y-119726579D01*
X120753882Y-119723791D01*
X120776521Y-119714414D01*
X120796896Y-119700801D01*
X120814223Y-119683474D01*
X120827837Y-119663099D01*
X120837215Y-119640460D01*
X120841996Y-119616427D01*
X120841996Y-119604173D01*
X121157402Y-119604173D01*
X121159804Y-119628559D01*
X121166917Y-119652008D01*
X121178468Y-119673619D01*
X121194014Y-119692561D01*
X121212956Y-119708107D01*
X121234567Y-119719658D01*
X121258016Y-119726771D01*
X121263403Y-119727570D01*
X121264876Y-119728017D01*
X121274252Y-119735712D01*
X121294626Y-119749326D01*
X121317265Y-119758704D01*
X121341298Y-119763485D01*
X121365802Y-119763485D01*
X121389836Y-119758705D01*
X121412475Y-119749328D01*
X121432850Y-119735715D01*
X121450178Y-119718388D01*
X121463792Y-119698014D01*
X121473170Y-119675375D01*
X121477951Y-119651342D01*
X121477951Y-119626838D01*
X121473171Y-119602804D01*
X121463794Y-119580165D01*
X121450178Y-119559786D01*
X121442483Y-119550410D01*
X121441045Y-119545670D01*
X121438257Y-119531652D01*
X121428880Y-119509013D01*
X121415267Y-119488638D01*
X121397940Y-119471311D01*
X121377565Y-119457697D01*
X121354926Y-119448319D01*
X121330893Y-119443538D01*
X121306389Y-119443538D01*
X121282355Y-119448318D01*
X121259716Y-119457695D01*
X121239341Y-119471308D01*
X121230251Y-119479548D01*
X121194014Y-119515785D01*
X121178468Y-119534727D01*
X121166917Y-119556338D01*
X121159804Y-119579787D01*
X121157402Y-119604173D01*
X120841996Y-119604173D01*
X120841996Y-119591923D01*
X120837216Y-119567889D01*
X120827839Y-119545250D01*
X120814226Y-119524875D01*
X120805986Y-119515785D01*
X120769749Y-119479548D01*
X120750807Y-119464002D01*
X120729196Y-119452451D01*
X120705747Y-119445338D01*
X120681361Y-119442936D01*
X120656975Y-119445338D01*
X120633526Y-119452451D01*
X120611915Y-119464002D01*
X120592973Y-119479548D01*
X120577427Y-119498490D01*
X120565876Y-119520101D01*
X120558763Y-119543550D01*
X120557964Y-119548937D01*
X120557517Y-119550410D01*
X120549822Y-119559786D01*
X120536208Y-119580160D01*
X120526830Y-119602799D01*
X120522049Y-119626832D01*
X120128372Y-119626832D01*
X120376936Y-119378268D01*
X120381571Y-119374464D01*
X120386311Y-119373026D01*
X120400329Y-119370238D01*
X120422968Y-119360861D01*
X120443343Y-119347248D01*
X120460670Y-119329921D01*
X120474284Y-119309546D01*
X120483662Y-119286907D01*
X120488443Y-119262874D01*
X120488443Y-119238370D01*
X120483663Y-119214336D01*
X120474286Y-119191697D01*
X120460673Y-119171322D01*
X120452433Y-119162232D01*
X120416195Y-119125994D01*
X120397253Y-119110448D01*
X120375642Y-119098897D01*
X120352193Y-119091784D01*
X120327807Y-119089382D01*
X120303421Y-119091784D01*
X120279972Y-119098897D01*
X120258361Y-119110448D01*
X120239419Y-119125994D01*
X120223873Y-119144936D01*
X120212322Y-119166547D01*
X120205209Y-119189996D01*
X120204410Y-119195383D01*
X120203963Y-119196856D01*
X120200159Y-119201491D01*
X119590132Y-119811518D01*
X119585786Y-119815085D01*
X119581440Y-119811518D01*
X119413355Y-119643433D01*
X119409788Y-119639087D01*
X119417246Y-119630000D01*
X119430860Y-119609626D01*
X119440238Y-119586987D01*
X119445019Y-119562954D01*
X119445019Y-119538450D01*
X119440239Y-119514416D01*
X119430862Y-119491777D01*
X119417249Y-119471402D01*
X119399922Y-119454074D01*
X119379548Y-119440460D01*
X119356909Y-119431082D01*
X119332876Y-119426301D01*
X119308372Y-119426301D01*
X119284338Y-119431081D01*
X119261699Y-119440458D01*
X119241320Y-119454074D01*
X119232233Y-119461532D01*
X119227887Y-119457965D01*
X119059802Y-119289880D01*
X119056235Y-119285534D01*
X119063693Y-119276447D01*
X119077307Y-119256073D01*
X119086685Y-119233434D01*
X119091466Y-119209401D01*
X119091466Y-119184897D01*
X119086686Y-119160863D01*
X119077309Y-119138224D01*
X119063696Y-119117849D01*
X119046369Y-119100521D01*
X119025995Y-119086907D01*
X119003356Y-119077529D01*
X118979323Y-119072748D01*
X118954819Y-119072748D01*
X118930785Y-119077528D01*
X118908146Y-119086905D01*
X118887767Y-119100521D01*
X118878680Y-119107979D01*
X118874334Y-119104412D01*
X118706249Y-118936327D01*
X118702682Y-118931981D01*
X118706249Y-118927635D01*
X118714159Y-118919725D01*
X119814942Y-118919725D01*
X119814942Y-118944229D01*
X119819722Y-118968263D01*
X119829099Y-118990902D01*
X119842712Y-119011277D01*
X119860039Y-119028605D01*
X119880413Y-119042219D01*
X119903052Y-119051597D01*
X119927085Y-119056378D01*
X119951589Y-119056378D01*
X119975623Y-119051598D01*
X119998262Y-119042221D01*
X120018641Y-119028605D01*
X120028017Y-119020910D01*
X120032757Y-119019472D01*
X120046775Y-119016684D01*
X120069414Y-119007307D01*
X120089789Y-118993694D01*
X120107116Y-118976367D01*
X120120730Y-118955992D01*
X120130108Y-118933353D01*
X120134889Y-118909320D01*
X120134889Y-118897066D01*
X121864509Y-118897066D01*
X121866911Y-118921452D01*
X121874024Y-118944901D01*
X121885575Y-118966512D01*
X121901121Y-118985454D01*
X121920063Y-119001000D01*
X121941674Y-119012551D01*
X121965123Y-119019664D01*
X121970510Y-119020463D01*
X121971983Y-119020910D01*
X121981359Y-119028605D01*
X122001733Y-119042219D01*
X122024372Y-119051597D01*
X122048405Y-119056378D01*
X122072909Y-119056378D01*
X122096943Y-119051598D01*
X122119582Y-119042221D01*
X122139957Y-119028608D01*
X122157285Y-119011281D01*
X122170899Y-118990907D01*
X122180277Y-118968268D01*
X122185058Y-118944235D01*
X122185058Y-118919731D01*
X122180278Y-118895697D01*
X122170901Y-118873058D01*
X122157285Y-118852679D01*
X122149590Y-118843303D01*
X122148152Y-118838563D01*
X122145364Y-118824545D01*
X122135987Y-118801906D01*
X122122374Y-118781531D01*
X122105047Y-118764204D01*
X122084672Y-118750590D01*
X122062033Y-118741212D01*
X122038000Y-118736431D01*
X122013496Y-118736431D01*
X121989462Y-118741211D01*
X121966823Y-118750588D01*
X121946448Y-118764201D01*
X121937358Y-118772441D01*
X121901121Y-118808678D01*
X121885575Y-118827620D01*
X121874024Y-118849231D01*
X121866911Y-118872680D01*
X121864509Y-118897066D01*
X120134889Y-118897066D01*
X120134889Y-118884816D01*
X120130109Y-118860782D01*
X120120732Y-118838143D01*
X120107119Y-118817768D01*
X120098879Y-118808678D01*
X120062642Y-118772441D01*
X120043700Y-118756895D01*
X120022089Y-118745344D01*
X119998640Y-118738231D01*
X119974254Y-118735829D01*
X119949868Y-118738231D01*
X119926419Y-118745344D01*
X119904808Y-118756895D01*
X119885866Y-118772441D01*
X119870320Y-118791383D01*
X119858769Y-118812994D01*
X119851656Y-118836443D01*
X119850857Y-118841830D01*
X119850410Y-118843303D01*
X119842715Y-118852679D01*
X119829101Y-118873053D01*
X119819723Y-118895692D01*
X119814942Y-118919725D01*
X118714159Y-118919725D01*
X119067712Y-118566172D01*
X119461389Y-118566172D01*
X119461389Y-118590676D01*
X119466169Y-118614710D01*
X119475546Y-118637349D01*
X119489159Y-118657724D01*
X119506486Y-118675052D01*
X119526860Y-118688666D01*
X119549499Y-118698044D01*
X119573532Y-118702825D01*
X119598036Y-118702825D01*
X119622070Y-118698045D01*
X119644709Y-118688668D01*
X119665088Y-118675052D01*
X119674464Y-118667357D01*
X119679204Y-118665919D01*
X119693222Y-118663131D01*
X119715861Y-118653754D01*
X119736236Y-118640141D01*
X119753563Y-118622814D01*
X119767177Y-118602439D01*
X119776555Y-118579800D01*
X119781336Y-118555767D01*
X119781336Y-118543513D01*
X122218062Y-118543513D01*
X122220464Y-118567899D01*
X122227577Y-118591348D01*
X122239128Y-118612959D01*
X122254674Y-118631901D01*
X122273616Y-118647447D01*
X122295227Y-118658998D01*
X122318676Y-118666111D01*
X122324063Y-118666910D01*
X122325536Y-118667357D01*
X122334912Y-118675052D01*
X122355286Y-118688666D01*
X122377925Y-118698044D01*
X122401958Y-118702825D01*
X122426462Y-118702825D01*
X122450496Y-118698045D01*
X122473135Y-118688668D01*
X122493510Y-118675055D01*
X122510838Y-118657728D01*
X122524452Y-118637354D01*
X122533830Y-118614715D01*
X122538611Y-118590682D01*
X122538611Y-118566178D01*
X122533831Y-118542144D01*
X122524454Y-118519505D01*
X122510838Y-118499126D01*
X122503143Y-118489750D01*
X122501705Y-118485010D01*
X122498917Y-118470992D01*
X122489540Y-118448353D01*
X122475927Y-118427978D01*
X122458600Y-118410651D01*
X122438225Y-118397037D01*
X122415586Y-118387659D01*
X122391553Y-118382878D01*
X122367049Y-118382878D01*
X122343015Y-118387658D01*
X122320376Y-118397035D01*
X122300001Y-118410648D01*
X122290911Y-118418888D01*
X122254674Y-118455125D01*
X122239128Y-118474067D01*
X122227577Y-118495678D01*
X122220464Y-118519127D01*
X122218062Y-118543513D01*
X119781336Y-118543513D01*
X119781336Y-118531263D01*
X119776556Y-118507229D01*
X119767179Y-118484590D01*
X119753566Y-118464215D01*
X119745326Y-118455125D01*
X119709089Y-118418888D01*
X119690147Y-118403342D01*
X119668536Y-118391791D01*
X119645087Y-118384678D01*
X119620701Y-118382276D01*
X119596315Y-118384678D01*
X119572866Y-118391791D01*
X119551255Y-118403342D01*
X119532313Y-118418888D01*
X119516767Y-118437830D01*
X119505216Y-118459441D01*
X119498103Y-118482890D01*
X119497304Y-118488277D01*
X119496857Y-118489750D01*
X119489162Y-118499126D01*
X119475548Y-118519500D01*
X119466170Y-118542139D01*
X119461389Y-118566172D01*
X119067712Y-118566172D01*
X119316276Y-118317608D01*
X119320911Y-118313804D01*
X119325651Y-118312366D01*
X119339669Y-118309578D01*
X119362308Y-118300201D01*
X119382683Y-118286588D01*
X119400010Y-118269261D01*
X119413624Y-118248886D01*
X119423002Y-118226247D01*
X119427783Y-118202214D01*
X119427783Y-118177710D01*
X119423003Y-118153676D01*
X119413626Y-118131037D01*
X119400013Y-118110662D01*
X119391773Y-118101572D01*
X119355535Y-118065334D01*
X119336593Y-118049788D01*
X119314982Y-118038237D01*
X119291533Y-118031124D01*
X119267147Y-118028722D01*
X119242761Y-118031124D01*
X119219312Y-118038237D01*
X119197701Y-118049788D01*
X119178759Y-118065334D01*
X119163213Y-118084276D01*
X119151662Y-118105887D01*
X119144549Y-118129336D01*
X119143750Y-118134723D01*
X119143303Y-118136196D01*
X119139499Y-118140831D01*
X118529472Y-118750858D01*
X118525126Y-118754425D01*
X118520780Y-118750858D01*
X118352695Y-118582773D01*
X118349128Y-118578427D01*
X118356586Y-118569340D01*
X118370200Y-118548966D01*
X118379578Y-118526327D01*
X118384359Y-118502294D01*
X118384359Y-118477790D01*
X118379579Y-118453756D01*
X118370202Y-118431117D01*
X118356589Y-118410742D01*
X118339262Y-118393414D01*
X118318888Y-118379800D01*
X118296249Y-118370422D01*
X118272216Y-118365641D01*
X118247712Y-118365641D01*
X118223678Y-118370421D01*
X118201039Y-118379798D01*
X118180660Y-118393414D01*
X118171573Y-118400872D01*
X118167227Y-118397305D01*
X117999142Y-118229220D01*
X117995575Y-118224874D01*
X117999142Y-118220528D01*
X118360605Y-117859065D01*
X118754282Y-117859065D01*
X118754282Y-117883569D01*
X118759062Y-117907603D01*
X118768439Y-117930242D01*
X118782052Y-117950617D01*
X118799379Y-117967945D01*
X118819753Y-117981559D01*
X118842392Y-117990937D01*
X118866425Y-117995718D01*
X118890929Y-117995718D01*
X118914963Y-117990938D01*
X118937602Y-117981561D01*
X118957981Y-117967945D01*
X118967357Y-117960250D01*
X118972097Y-117958812D01*
X118986115Y-117956024D01*
X119008754Y-117946647D01*
X119029129Y-117933034D01*
X119046456Y-117915707D01*
X119060070Y-117895332D01*
X119069448Y-117872693D01*
X119074229Y-117848660D01*
X119074229Y-117836406D01*
X122925169Y-117836406D01*
X122927571Y-117860792D01*
X122934684Y-117884241D01*
X122946235Y-117905852D01*
X122961781Y-117924794D01*
X122980723Y-117940340D01*
X123002334Y-117951891D01*
X123025783Y-117959004D01*
X123031170Y-117959803D01*
X123032643Y-117960250D01*
X123042019Y-117967945D01*
X123062393Y-117981559D01*
X123085032Y-117990937D01*
X123109065Y-117995718D01*
X123133569Y-117995718D01*
X123157603Y-117990938D01*
X123180242Y-117981561D01*
X123200617Y-117967948D01*
X123217945Y-117950621D01*
X123231559Y-117930247D01*
X123240937Y-117907608D01*
X123245718Y-117883575D01*
X123245718Y-117859071D01*
X123240938Y-117835037D01*
X123231561Y-117812398D01*
X123217945Y-117792019D01*
X123210250Y-117782643D01*
X123208812Y-117777903D01*
X123206024Y-117763885D01*
X123196647Y-117741246D01*
X123183034Y-117720871D01*
X123165707Y-117703544D01*
X123145332Y-117689930D01*
X123122693Y-117680552D01*
X123098660Y-117675771D01*
X123074156Y-117675771D01*
X123050122Y-117680551D01*
X123027483Y-117689928D01*
X123007108Y-117703541D01*
X122998018Y-117711781D01*
X122961781Y-117748018D01*
X122946235Y-117766960D01*
X122934684Y-117788571D01*
X122927571Y-117812020D01*
X122925169Y-117836406D01*
X119074229Y-117836406D01*
X119074229Y-117824156D01*
X119069449Y-117800122D01*
X119060072Y-117777483D01*
X119046459Y-117757108D01*
X119038219Y-117748018D01*
X119001982Y-117711781D01*
X118983040Y-117696235D01*
X118961429Y-117684684D01*
X118937980Y-117677571D01*
X118913594Y-117675169D01*
X118889208Y-117677571D01*
X118865759Y-117684684D01*
X118844148Y-117696235D01*
X118825206Y-117711781D01*
X118809660Y-117730723D01*
X118798109Y-117752334D01*
X118790996Y-117775783D01*
X118790197Y-117781170D01*
X118789750Y-117782643D01*
X118782055Y-117792019D01*
X118768441Y-117812393D01*
X118759063Y-117835032D01*
X118754282Y-117859065D01*
X118360605Y-117859065D01*
X118609169Y-117610501D01*
X118613804Y-117606697D01*
X118618544Y-117605259D01*
X118632562Y-117602471D01*
X118655201Y-117593094D01*
X118675576Y-117579481D01*
X118692903Y-117562154D01*
X118706517Y-117541779D01*
X118715895Y-117519140D01*
X118720676Y-117495107D01*
X118720676Y-117470603D01*
X118715896Y-117446569D01*
X118706519Y-117423930D01*
X118692906Y-117403555D01*
X118684666Y-117394465D01*
X118648428Y-117358227D01*
X118629486Y-117342681D01*
X118607875Y-117331130D01*
X118584426Y-117324017D01*
X118560040Y-117321615D01*
X118535654Y-117324017D01*
X118512205Y-117331130D01*
X118490594Y-117342681D01*
X118471652Y-117358227D01*
X118456106Y-117377169D01*
X118444555Y-117398780D01*
X118437442Y-117422229D01*
X118436643Y-117427616D01*
X118436196Y-117429089D01*
X118432392Y-117433724D01*
X117822365Y-118043751D01*
X117818019Y-118047318D01*
X117813673Y-118043751D01*
X117645588Y-117875666D01*
X117642021Y-117871320D01*
X117649479Y-117862233D01*
X117663093Y-117841859D01*
X117672471Y-117819220D01*
X117677252Y-117795187D01*
X117677252Y-117770683D01*
X117672472Y-117746649D01*
X117663095Y-117724010D01*
X117649482Y-117703635D01*
X117632155Y-117686307D01*
X117611781Y-117672693D01*
X117589142Y-117663315D01*
X117565109Y-117658534D01*
X117540605Y-117658534D01*
X117516571Y-117663314D01*
X117493932Y-117672691D01*
X117473553Y-117686307D01*
X117464466Y-117693765D01*
X117460120Y-117690198D01*
X117292035Y-117522113D01*
X117288468Y-117517767D01*
X117295926Y-117508680D01*
X117309540Y-117488306D01*
X117318918Y-117465667D01*
X117323699Y-117441634D01*
X117323699Y-117417130D01*
X117318919Y-117393096D01*
X117309542Y-117370457D01*
X117295929Y-117350082D01*
X117278602Y-117332754D01*
X117258228Y-117319140D01*
X117235589Y-117309762D01*
X117211556Y-117304981D01*
X117187052Y-117304981D01*
X117163018Y-117309761D01*
X117140379Y-117319138D01*
X117120000Y-117332754D01*
X117110913Y-117340212D01*
X117106567Y-117336645D01*
X116938482Y-117168560D01*
X116934915Y-117164214D01*
X116938482Y-117159868D01*
X116946392Y-117151958D01*
X118047175Y-117151958D01*
X118047175Y-117176462D01*
X118051955Y-117200496D01*
X118061332Y-117223135D01*
X118074945Y-117243510D01*
X118092272Y-117260838D01*
X118112646Y-117274452D01*
X118135285Y-117283830D01*
X118159318Y-117288611D01*
X118183822Y-117288611D01*
X118207856Y-117283831D01*
X118230495Y-117274454D01*
X118250874Y-117260838D01*
X118260250Y-117253143D01*
X118264990Y-117251705D01*
X118279008Y-117248917D01*
X118301647Y-117239540D01*
X118322022Y-117225927D01*
X118339349Y-117208600D01*
X118352963Y-117188225D01*
X118362341Y-117165586D01*
X118367122Y-117141553D01*
X118367122Y-117129299D01*
X123632276Y-117129299D01*
X123634678Y-117153685D01*
X123641791Y-117177134D01*
X123653342Y-117198745D01*
X123668888Y-117217687D01*
X123687830Y-117233233D01*
X123709441Y-117244784D01*
X123732890Y-117251897D01*
X123738277Y-117252696D01*
X123739750Y-117253143D01*
X123749126Y-117260838D01*
X123769500Y-117274452D01*
X123792139Y-117283830D01*
X123816172Y-117288611D01*
X123840676Y-117288611D01*
X123864710Y-117283831D01*
X123887349Y-117274454D01*
X123907724Y-117260841D01*
X123925052Y-117243514D01*
X123938666Y-117223140D01*
X123948044Y-117200501D01*
X123952825Y-117176468D01*
X123952825Y-117151964D01*
X123948045Y-117127930D01*
X123938668Y-117105291D01*
X123925052Y-117084912D01*
X123917357Y-117075536D01*
X123915919Y-117070796D01*
X123913131Y-117056778D01*
X123903754Y-117034139D01*
X123890141Y-117013764D01*
X123872814Y-116996437D01*
X123852439Y-116982823D01*
X123829800Y-116973445D01*
X123805767Y-116968664D01*
X123781263Y-116968664D01*
X123757229Y-116973444D01*
X123734590Y-116982821D01*
X123714215Y-116996434D01*
X123705125Y-117004674D01*
X123668888Y-117040911D01*
X123653342Y-117059853D01*
X123641791Y-117081464D01*
X123634678Y-117104913D01*
X123632276Y-117129299D01*
X118367122Y-117129299D01*
X118367122Y-117117049D01*
X118362342Y-117093015D01*
X118352965Y-117070376D01*
X118339352Y-117050001D01*
X118331112Y-117040911D01*
X118294875Y-117004674D01*
X118275933Y-116989128D01*
X118254322Y-116977577D01*
X118230873Y-116970464D01*
X118206487Y-116968062D01*
X118182101Y-116970464D01*
X118158652Y-116977577D01*
X118137041Y-116989128D01*
X118118099Y-117004674D01*
X118102553Y-117023616D01*
X118091002Y-117045227D01*
X118083889Y-117068676D01*
X118083090Y-117074063D01*
X118082643Y-117075536D01*
X118074948Y-117084912D01*
X118061334Y-117105286D01*
X118051956Y-117127925D01*
X118047175Y-117151958D01*
X116946392Y-117151958D01*
X117299945Y-116798405D01*
X117693622Y-116798405D01*
X117693622Y-116822909D01*
X117698402Y-116846943D01*
X117707779Y-116869582D01*
X117721392Y-116889957D01*
X117738719Y-116907285D01*
X117759093Y-116920899D01*
X117781732Y-116930277D01*
X117805765Y-116935058D01*
X117830269Y-116935058D01*
X117854303Y-116930278D01*
X117876942Y-116920901D01*
X117897321Y-116907285D01*
X117906697Y-116899590D01*
X117911437Y-116898152D01*
X117925455Y-116895364D01*
X117948094Y-116885987D01*
X117968469Y-116872374D01*
X117985796Y-116855047D01*
X117999410Y-116834672D01*
X118008788Y-116812033D01*
X118013569Y-116788000D01*
X118013569Y-116775746D01*
X123985829Y-116775746D01*
X123988231Y-116800132D01*
X123995344Y-116823581D01*
X124006895Y-116845192D01*
X124022441Y-116864134D01*
X124041383Y-116879680D01*
X124062994Y-116891231D01*
X124086443Y-116898344D01*
X124091830Y-116899143D01*
X124093303Y-116899590D01*
X124102679Y-116907285D01*
X124123053Y-116920899D01*
X124145692Y-116930277D01*
X124169725Y-116935058D01*
X124194229Y-116935058D01*
X124218263Y-116930278D01*
X124240902Y-116920901D01*
X124261277Y-116907288D01*
X124278605Y-116889961D01*
X124292219Y-116869587D01*
X124301597Y-116846948D01*
X124306378Y-116822915D01*
X124306378Y-116798411D01*
X124301598Y-116774377D01*
X124292221Y-116751738D01*
X124278605Y-116731359D01*
X124270910Y-116721983D01*
X124269472Y-116717243D01*
X124266684Y-116703225D01*
X124257307Y-116680586D01*
X124243694Y-116660211D01*
X124226367Y-116642884D01*
X124205992Y-116629270D01*
X124183353Y-116619892D01*
X124159320Y-116615111D01*
X124134816Y-116615111D01*
X124110782Y-116619891D01*
X124088143Y-116629268D01*
X124067768Y-116642881D01*
X124058678Y-116651121D01*
X124022441Y-116687358D01*
X124006895Y-116706300D01*
X123995344Y-116727911D01*
X123988231Y-116751360D01*
X123985829Y-116775746D01*
X118013569Y-116775746D01*
X118013569Y-116763496D01*
X118008789Y-116739462D01*
X117999412Y-116716823D01*
X117985799Y-116696448D01*
X117977559Y-116687358D01*
X117941322Y-116651121D01*
X117922380Y-116635575D01*
X117900769Y-116624024D01*
X117877320Y-116616911D01*
X117852934Y-116614509D01*
X117828548Y-116616911D01*
X117805099Y-116624024D01*
X117783488Y-116635575D01*
X117764546Y-116651121D01*
X117749000Y-116670063D01*
X117737449Y-116691674D01*
X117730336Y-116715123D01*
X117729537Y-116720510D01*
X117729090Y-116721983D01*
X117721395Y-116731359D01*
X117707781Y-116751733D01*
X117698403Y-116774372D01*
X117693622Y-116798405D01*
X117299945Y-116798405D01*
X117548509Y-116549841D01*
X117553144Y-116546037D01*
X117557884Y-116544599D01*
X117571902Y-116541811D01*
X117594541Y-116532434D01*
X117614916Y-116518821D01*
X117632243Y-116501494D01*
X117645857Y-116481119D01*
X117655235Y-116458480D01*
X117660016Y-116434447D01*
X117660016Y-116409943D01*
X117655236Y-116385909D01*
X117645859Y-116363270D01*
X117632246Y-116342895D01*
X117624006Y-116333805D01*
X117587768Y-116297567D01*
X117568826Y-116282021D01*
X117547215Y-116270470D01*
X117523766Y-116263357D01*
X117499380Y-116260955D01*
X117474994Y-116263357D01*
X117451545Y-116270470D01*
X117429934Y-116282021D01*
X117410992Y-116297567D01*
X117395446Y-116316509D01*
X117383895Y-116338120D01*
X117376782Y-116361569D01*
X117375983Y-116366956D01*
X117375536Y-116368429D01*
X117371732Y-116373064D01*
X116761705Y-116983091D01*
X116757359Y-116986658D01*
X116753013Y-116983091D01*
X116584928Y-116815006D01*
X116581361Y-116810660D01*
X116588819Y-116801573D01*
X116602433Y-116781199D01*
X116611811Y-116758560D01*
X116616592Y-116734527D01*
X116616592Y-116710023D01*
X116611812Y-116685989D01*
X116602435Y-116663350D01*
X116588822Y-116642975D01*
X116571495Y-116625647D01*
X116551121Y-116612033D01*
X116528482Y-116602655D01*
X116504449Y-116597874D01*
X116479945Y-116597874D01*
X116455911Y-116602654D01*
X116433272Y-116612031D01*
X116412893Y-116625647D01*
X116403806Y-116633105D01*
X116399460Y-116629538D01*
X116231375Y-116461453D01*
X116227808Y-116457107D01*
X116231375Y-116452761D01*
X116592838Y-116091298D01*
X116986515Y-116091298D01*
X116986515Y-116115802D01*
X116991295Y-116139836D01*
X117000672Y-116162475D01*
X117014285Y-116182850D01*
X117031612Y-116200178D01*
X117051986Y-116213792D01*
X117074625Y-116223170D01*
X117098658Y-116227951D01*
X117123162Y-116227951D01*
X117147196Y-116223171D01*
X117169835Y-116213794D01*
X117190214Y-116200178D01*
X117199590Y-116192483D01*
X117204330Y-116191045D01*
X117218348Y-116188257D01*
X117240987Y-116178880D01*
X117261362Y-116165267D01*
X117278689Y-116147940D01*
X117292303Y-116127565D01*
X117301681Y-116104926D01*
X117306462Y-116080893D01*
X117306462Y-116068639D01*
X124692936Y-116068639D01*
X124695338Y-116093025D01*
X124702451Y-116116474D01*
X124714002Y-116138085D01*
X124729548Y-116157027D01*
X124748490Y-116172573D01*
X124770101Y-116184124D01*
X124793550Y-116191237D01*
X124798937Y-116192036D01*
X124800410Y-116192483D01*
X124809786Y-116200178D01*
X124830160Y-116213792D01*
X124852799Y-116223170D01*
X124876832Y-116227951D01*
X124901336Y-116227951D01*
X124925370Y-116223171D01*
X124948009Y-116213794D01*
X124968384Y-116200181D01*
X124985712Y-116182854D01*
X124999326Y-116162480D01*
X125008704Y-116139841D01*
X125013485Y-116115808D01*
X125013485Y-116091304D01*
X125008705Y-116067270D01*
X124999328Y-116044631D01*
X124985712Y-116024252D01*
X124978017Y-116014876D01*
X124976579Y-116010136D01*
X124973791Y-115996118D01*
X124964414Y-115973479D01*
X124950801Y-115953104D01*
X124933474Y-115935777D01*
X124913099Y-115922163D01*
X124890460Y-115912785D01*
X124866427Y-115908004D01*
X124841923Y-115908004D01*
X124817889Y-115912784D01*
X124795250Y-115922161D01*
X124774875Y-115935774D01*
X124765785Y-115944014D01*
X124729548Y-115980251D01*
X124714002Y-115999193D01*
X124702451Y-116020804D01*
X124695338Y-116044253D01*
X124692936Y-116068639D01*
X117306462Y-116068639D01*
X117306462Y-116056389D01*
X117301682Y-116032355D01*
X117292305Y-116009716D01*
X117278692Y-115989341D01*
X117270452Y-115980251D01*
X117234215Y-115944014D01*
X117215273Y-115928468D01*
X117193662Y-115916917D01*
X117170213Y-115909804D01*
X117145827Y-115907402D01*
X117121441Y-115909804D01*
X117097992Y-115916917D01*
X117076381Y-115928468D01*
X117057439Y-115944014D01*
X117041893Y-115962956D01*
X117030342Y-115984567D01*
X117023229Y-116008016D01*
X117022430Y-116013403D01*
X117021983Y-116014876D01*
X117014288Y-116024252D01*
X117000674Y-116044626D01*
X116991296Y-116067265D01*
X116986515Y-116091298D01*
X116592838Y-116091298D01*
X116845748Y-115838388D01*
X116887307Y-115879947D01*
X116906249Y-115895493D01*
X116927860Y-115907044D01*
X116951309Y-115914157D01*
X116975695Y-115916559D01*
X117000081Y-115914157D01*
X117023530Y-115907044D01*
X117045141Y-115895493D01*
X117064083Y-115879947D01*
X117079629Y-115861005D01*
X117091180Y-115839394D01*
X117098293Y-115815945D01*
X117100093Y-115779307D01*
X117097207Y-115750000D01*
X117100093Y-115720693D01*
X117100093Y-115696188D01*
X117095312Y-115672155D01*
X117085935Y-115649516D01*
X117072321Y-115629141D01*
X117054994Y-115611814D01*
X117034619Y-115598201D01*
X117011980Y-115588823D01*
X116987947Y-115584043D01*
X116963442Y-115584043D01*
X116939409Y-115588824D01*
X116916770Y-115598201D01*
X116887307Y-115620053D01*
X116845748Y-115661612D01*
X116568328Y-115384192D01*
X116986515Y-115384192D01*
X116986515Y-115408696D01*
X116991295Y-115432730D01*
X117000672Y-115455369D01*
X117014288Y-115475748D01*
X117021983Y-115485124D01*
X117023421Y-115489864D01*
X117026209Y-115503882D01*
X117035586Y-115526521D01*
X117049199Y-115546896D01*
X117066526Y-115564223D01*
X117086901Y-115577837D01*
X117109540Y-115587215D01*
X117133573Y-115591996D01*
X117158077Y-115591996D01*
X117182111Y-115587216D01*
X117204750Y-115577839D01*
X117225125Y-115564226D01*
X117234215Y-115555986D01*
X117270452Y-115519749D01*
X117285998Y-115500807D01*
X117297549Y-115479196D01*
X117304662Y-115455747D01*
X117307064Y-115431361D01*
X117305857Y-115419107D01*
X124693538Y-115419107D01*
X124693538Y-115443611D01*
X124698318Y-115467645D01*
X124707695Y-115490284D01*
X124721308Y-115510659D01*
X124729548Y-115519749D01*
X124765785Y-115555986D01*
X124784727Y-115571532D01*
X124806338Y-115583083D01*
X124829787Y-115590196D01*
X124854173Y-115592598D01*
X124878559Y-115590196D01*
X124902008Y-115583083D01*
X124923619Y-115571532D01*
X124942561Y-115555986D01*
X124958107Y-115537044D01*
X124969658Y-115515433D01*
X124976771Y-115491984D01*
X124977570Y-115486597D01*
X124978017Y-115485124D01*
X124985712Y-115475748D01*
X124999326Y-115455374D01*
X125008704Y-115432735D01*
X125013485Y-115408702D01*
X125013485Y-115384198D01*
X125008705Y-115360164D01*
X124999328Y-115337525D01*
X124985715Y-115317150D01*
X124968388Y-115299822D01*
X124948014Y-115286208D01*
X124925375Y-115276830D01*
X124901342Y-115272049D01*
X124876838Y-115272049D01*
X124852804Y-115276829D01*
X124830165Y-115286206D01*
X124809786Y-115299822D01*
X124800410Y-115307517D01*
X124795670Y-115308955D01*
X124781652Y-115311743D01*
X124759013Y-115321120D01*
X124738638Y-115334733D01*
X124721311Y-115352060D01*
X124707697Y-115372435D01*
X124698319Y-115395074D01*
X124693538Y-115419107D01*
X117305857Y-115419107D01*
X117304662Y-115406975D01*
X117297549Y-115383526D01*
X117285998Y-115361915D01*
X117270452Y-115342973D01*
X117251510Y-115327427D01*
X117229899Y-115315876D01*
X117206450Y-115308763D01*
X117201063Y-115307964D01*
X117199590Y-115307517D01*
X117190214Y-115299822D01*
X117169840Y-115286208D01*
X117147201Y-115276830D01*
X117123168Y-115272049D01*
X117098664Y-115272049D01*
X117074630Y-115276829D01*
X117051991Y-115286206D01*
X117031616Y-115299819D01*
X117014288Y-115317146D01*
X117000674Y-115337520D01*
X116991296Y-115360159D01*
X116986515Y-115384192D01*
X116568328Y-115384192D01*
X116231375Y-115047239D01*
X116227808Y-115042893D01*
X116231375Y-115038547D01*
X116399460Y-114870462D01*
X116403806Y-114866895D01*
X116412893Y-114874353D01*
X116433267Y-114887967D01*
X116455906Y-114897345D01*
X116479939Y-114902126D01*
X116504443Y-114902126D01*
X116528477Y-114897346D01*
X116551116Y-114887969D01*
X116571491Y-114874356D01*
X116588819Y-114857029D01*
X116602433Y-114836655D01*
X116611811Y-114814016D01*
X116616592Y-114789983D01*
X116616592Y-114765479D01*
X116611812Y-114741445D01*
X116602435Y-114718806D01*
X116588819Y-114698427D01*
X116581361Y-114689340D01*
X116584928Y-114684994D01*
X116753013Y-114516909D01*
X116757359Y-114513342D01*
X116761705Y-114516909D01*
X117371732Y-115126936D01*
X117375536Y-115131571D01*
X117376974Y-115136311D01*
X117379762Y-115150329D01*
X117389139Y-115172968D01*
X117402752Y-115193343D01*
X117420079Y-115210670D01*
X117440454Y-115224284D01*
X117463093Y-115233662D01*
X117487126Y-115238443D01*
X117511630Y-115238443D01*
X117535664Y-115233663D01*
X117558303Y-115224286D01*
X117578678Y-115210673D01*
X117587768Y-115202433D01*
X117624006Y-115166195D01*
X117639552Y-115147253D01*
X117651103Y-115125642D01*
X117658216Y-115102193D01*
X117660618Y-115077807D01*
X117658216Y-115053421D01*
X117651103Y-115029972D01*
X117639552Y-115008361D01*
X117624006Y-114989419D01*
X117605064Y-114973873D01*
X117583453Y-114962322D01*
X117560004Y-114955209D01*
X117554617Y-114954410D01*
X117553144Y-114953963D01*
X117548509Y-114950159D01*
X117275435Y-114677085D01*
X117693622Y-114677085D01*
X117693622Y-114701589D01*
X117698402Y-114725623D01*
X117707779Y-114748262D01*
X117721395Y-114768641D01*
X117729090Y-114778017D01*
X117730528Y-114782757D01*
X117733316Y-114796775D01*
X117742693Y-114819414D01*
X117756306Y-114839789D01*
X117773633Y-114857116D01*
X117794008Y-114870730D01*
X117816647Y-114880108D01*
X117840680Y-114884889D01*
X117865184Y-114884889D01*
X117889218Y-114880109D01*
X117911857Y-114870732D01*
X117932232Y-114857119D01*
X117941322Y-114848879D01*
X117977559Y-114812642D01*
X117993105Y-114793700D01*
X118004656Y-114772089D01*
X118011769Y-114748640D01*
X118014171Y-114724254D01*
X118012964Y-114712000D01*
X123986431Y-114712000D01*
X123986431Y-114736504D01*
X123991211Y-114760538D01*
X124000588Y-114783177D01*
X124014201Y-114803552D01*
X124022441Y-114812642D01*
X124058678Y-114848879D01*
X124077620Y-114864425D01*
X124099231Y-114875976D01*
X124122680Y-114883089D01*
X124147066Y-114885491D01*
X124171452Y-114883089D01*
X124194901Y-114875976D01*
X124216512Y-114864425D01*
X124235454Y-114848879D01*
X124251000Y-114829937D01*
X124262551Y-114808326D01*
X124269664Y-114784877D01*
X124270463Y-114779490D01*
X124270910Y-114778017D01*
X124278605Y-114768641D01*
X124292219Y-114748267D01*
X124301597Y-114725628D01*
X124306378Y-114701595D01*
X124306378Y-114677091D01*
X124301598Y-114653057D01*
X124292221Y-114630418D01*
X124278608Y-114610043D01*
X124261281Y-114592715D01*
X124240907Y-114579101D01*
X124218268Y-114569723D01*
X124194235Y-114564942D01*
X124169731Y-114564942D01*
X124145697Y-114569722D01*
X124123058Y-114579099D01*
X124102679Y-114592715D01*
X124093303Y-114600410D01*
X124088563Y-114601848D01*
X124074545Y-114604636D01*
X124051906Y-114614013D01*
X124031531Y-114627626D01*
X124014204Y-114644953D01*
X124000590Y-114665328D01*
X123991212Y-114687967D01*
X123986431Y-114712000D01*
X118012964Y-114712000D01*
X118011769Y-114699868D01*
X118004656Y-114676419D01*
X117993105Y-114654808D01*
X117977559Y-114635866D01*
X117958617Y-114620320D01*
X117937006Y-114608769D01*
X117913557Y-114601656D01*
X117908170Y-114600857D01*
X117906697Y-114600410D01*
X117897321Y-114592715D01*
X117876947Y-114579101D01*
X117854308Y-114569723D01*
X117830275Y-114564942D01*
X117805771Y-114564942D01*
X117781737Y-114569722D01*
X117759098Y-114579099D01*
X117738723Y-114592712D01*
X117721395Y-114610039D01*
X117707781Y-114630413D01*
X117698403Y-114653052D01*
X117693622Y-114677085D01*
X117275435Y-114677085D01*
X116938482Y-114340132D01*
X116934915Y-114335786D01*
X116938482Y-114331440D01*
X116946390Y-114323532D01*
X118047175Y-114323532D01*
X118047175Y-114348036D01*
X118051955Y-114372070D01*
X118061332Y-114394709D01*
X118074948Y-114415088D01*
X118082643Y-114424464D01*
X118084081Y-114429204D01*
X118086869Y-114443222D01*
X118096246Y-114465861D01*
X118109859Y-114486236D01*
X118127186Y-114503563D01*
X118147561Y-114517177D01*
X118170200Y-114526555D01*
X118194233Y-114531336D01*
X118218737Y-114531336D01*
X118242771Y-114526556D01*
X118265410Y-114517179D01*
X118285785Y-114503566D01*
X118294875Y-114495326D01*
X118331112Y-114459089D01*
X118346658Y-114440147D01*
X118358209Y-114418536D01*
X118365322Y-114395087D01*
X118367724Y-114370701D01*
X118366517Y-114358447D01*
X123632878Y-114358447D01*
X123632878Y-114382951D01*
X123637658Y-114406985D01*
X123647035Y-114429624D01*
X123660648Y-114449999D01*
X123668888Y-114459089D01*
X123705125Y-114495326D01*
X123724067Y-114510872D01*
X123745678Y-114522423D01*
X123769127Y-114529536D01*
X123793513Y-114531938D01*
X123817899Y-114529536D01*
X123841348Y-114522423D01*
X123862959Y-114510872D01*
X123881901Y-114495326D01*
X123897447Y-114476384D01*
X123908998Y-114454773D01*
X123916111Y-114431324D01*
X123916910Y-114425937D01*
X123917357Y-114424464D01*
X123925052Y-114415088D01*
X123938666Y-114394714D01*
X123948044Y-114372075D01*
X123952825Y-114348042D01*
X123952825Y-114323538D01*
X123948045Y-114299504D01*
X123938668Y-114276865D01*
X123925055Y-114256490D01*
X123907728Y-114239162D01*
X123887354Y-114225548D01*
X123864715Y-114216170D01*
X123840682Y-114211389D01*
X123816178Y-114211389D01*
X123792144Y-114216169D01*
X123769505Y-114225546D01*
X123749126Y-114239162D01*
X123739750Y-114246857D01*
X123735010Y-114248295D01*
X123720992Y-114251083D01*
X123698353Y-114260460D01*
X123677978Y-114274073D01*
X123660651Y-114291400D01*
X123647037Y-114311775D01*
X123637659Y-114334414D01*
X123632878Y-114358447D01*
X118366517Y-114358447D01*
X118365322Y-114346315D01*
X118358209Y-114322866D01*
X118346658Y-114301255D01*
X118331112Y-114282313D01*
X118312170Y-114266767D01*
X118290559Y-114255216D01*
X118267110Y-114248103D01*
X118261723Y-114247304D01*
X118260250Y-114246857D01*
X118250874Y-114239162D01*
X118230500Y-114225548D01*
X118207861Y-114216170D01*
X118183828Y-114211389D01*
X118159324Y-114211389D01*
X118135290Y-114216169D01*
X118112651Y-114225546D01*
X118092276Y-114239159D01*
X118074948Y-114256486D01*
X118061334Y-114276860D01*
X118051956Y-114299499D01*
X118047175Y-114323532D01*
X116946390Y-114323532D01*
X117106567Y-114163355D01*
X117110913Y-114159788D01*
X117120000Y-114167246D01*
X117140374Y-114180860D01*
X117163013Y-114190238D01*
X117187046Y-114195019D01*
X117211550Y-114195019D01*
X117235584Y-114190239D01*
X117258223Y-114180862D01*
X117278598Y-114167249D01*
X117295926Y-114149922D01*
X117309540Y-114129548D01*
X117318918Y-114106909D01*
X117323699Y-114082876D01*
X117323699Y-114058372D01*
X117318919Y-114034338D01*
X117309542Y-114011699D01*
X117295926Y-113991320D01*
X117288468Y-113982233D01*
X117292035Y-113977887D01*
X117460120Y-113809802D01*
X117464466Y-113806235D01*
X117473553Y-113813693D01*
X117493927Y-113827307D01*
X117516566Y-113836685D01*
X117540599Y-113841466D01*
X117565103Y-113841466D01*
X117589137Y-113836686D01*
X117611776Y-113827309D01*
X117632151Y-113813696D01*
X117649479Y-113796369D01*
X117663093Y-113775995D01*
X117672471Y-113753356D01*
X117677252Y-113729323D01*
X117677252Y-113704819D01*
X117672472Y-113680785D01*
X117663095Y-113658146D01*
X117649479Y-113637767D01*
X117642021Y-113628680D01*
X117645588Y-113624334D01*
X117813673Y-113456249D01*
X117818019Y-113452682D01*
X117822365Y-113456249D01*
X118432392Y-114066276D01*
X118436196Y-114070911D01*
X118437634Y-114075651D01*
X118440422Y-114089669D01*
X118449799Y-114112308D01*
X118463412Y-114132683D01*
X118480739Y-114150010D01*
X118501114Y-114163624D01*
X118523753Y-114173002D01*
X118547786Y-114177783D01*
X118572290Y-114177783D01*
X118596324Y-114173003D01*
X118618963Y-114163626D01*
X118639338Y-114150013D01*
X118648428Y-114141773D01*
X118684666Y-114105535D01*
X118700212Y-114086593D01*
X118711763Y-114064982D01*
X118718876Y-114041533D01*
X118721278Y-114017147D01*
X118718876Y-113992761D01*
X118711763Y-113969312D01*
X118700212Y-113947701D01*
X118684666Y-113928759D01*
X118665724Y-113913213D01*
X118644113Y-113901662D01*
X118620664Y-113894549D01*
X118615277Y-113893750D01*
X118613804Y-113893303D01*
X118609169Y-113889499D01*
X118336095Y-113616425D01*
X118754282Y-113616425D01*
X118754282Y-113640929D01*
X118759062Y-113664963D01*
X118768439Y-113687602D01*
X118782055Y-113707981D01*
X118789750Y-113717357D01*
X118791188Y-113722097D01*
X118793976Y-113736115D01*
X118803353Y-113758754D01*
X118816966Y-113779129D01*
X118834293Y-113796456D01*
X118854668Y-113810070D01*
X118877307Y-113819448D01*
X118901340Y-113824229D01*
X118925844Y-113824229D01*
X118949878Y-113819449D01*
X118972517Y-113810072D01*
X118992892Y-113796459D01*
X119001982Y-113788219D01*
X119038219Y-113751982D01*
X119053765Y-113733040D01*
X119065316Y-113711429D01*
X119072429Y-113687980D01*
X119074831Y-113663594D01*
X119073624Y-113651340D01*
X122925771Y-113651340D01*
X122925771Y-113675844D01*
X122930551Y-113699878D01*
X122939928Y-113722517D01*
X122953541Y-113742892D01*
X122961781Y-113751982D01*
X122998018Y-113788219D01*
X123016960Y-113803765D01*
X123038571Y-113815316D01*
X123062020Y-113822429D01*
X123086406Y-113824831D01*
X123110792Y-113822429D01*
X123134241Y-113815316D01*
X123155852Y-113803765D01*
X123174794Y-113788219D01*
X123190340Y-113769277D01*
X123201891Y-113747666D01*
X123209004Y-113724217D01*
X123209803Y-113718830D01*
X123210250Y-113717357D01*
X123217945Y-113707981D01*
X123231559Y-113687607D01*
X123240937Y-113664968D01*
X123245718Y-113640935D01*
X123245718Y-113616431D01*
X123240938Y-113592397D01*
X123231561Y-113569758D01*
X123217948Y-113549383D01*
X123200621Y-113532055D01*
X123180247Y-113518441D01*
X123157608Y-113509063D01*
X123133575Y-113504282D01*
X123109071Y-113504282D01*
X123085037Y-113509062D01*
X123062398Y-113518439D01*
X123042019Y-113532055D01*
X123032643Y-113539750D01*
X123027903Y-113541188D01*
X123013885Y-113543976D01*
X122991246Y-113553353D01*
X122970871Y-113566966D01*
X122953544Y-113584293D01*
X122939930Y-113604668D01*
X122930552Y-113627307D01*
X122925771Y-113651340D01*
X119073624Y-113651340D01*
X119072429Y-113639208D01*
X119065316Y-113615759D01*
X119053765Y-113594148D01*
X119038219Y-113575206D01*
X119019277Y-113559660D01*
X118997666Y-113548109D01*
X118974217Y-113540996D01*
X118968830Y-113540197D01*
X118967357Y-113539750D01*
X118957981Y-113532055D01*
X118937607Y-113518441D01*
X118914968Y-113509063D01*
X118890935Y-113504282D01*
X118866431Y-113504282D01*
X118842397Y-113509062D01*
X118819758Y-113518439D01*
X118799383Y-113532052D01*
X118782055Y-113549379D01*
X118768441Y-113569753D01*
X118759063Y-113592392D01*
X118754282Y-113616425D01*
X118336095Y-113616425D01*
X117999142Y-113279472D01*
X117995575Y-113275126D01*
X117999142Y-113270780D01*
X118167227Y-113102695D01*
X118171573Y-113099128D01*
X118180660Y-113106586D01*
X118201034Y-113120200D01*
X118223673Y-113129578D01*
X118247706Y-113134359D01*
X118272210Y-113134359D01*
X118296244Y-113129579D01*
X118318883Y-113120202D01*
X118339258Y-113106589D01*
X118356586Y-113089262D01*
X118370200Y-113068888D01*
X118379578Y-113046249D01*
X118384359Y-113022216D01*
X118384359Y-112997712D01*
X118379579Y-112973678D01*
X118370202Y-112951039D01*
X118356586Y-112930660D01*
X118349128Y-112921573D01*
X118352695Y-112917227D01*
X118520780Y-112749142D01*
X118525126Y-112745575D01*
X118529472Y-112749142D01*
X119139499Y-113359169D01*
X119143303Y-113363804D01*
X119144741Y-113368544D01*
X119147529Y-113382562D01*
X119156906Y-113405201D01*
X119170519Y-113425576D01*
X119187846Y-113442903D01*
X119208221Y-113456517D01*
X119230860Y-113465895D01*
X119254893Y-113470676D01*
X119279397Y-113470676D01*
X119303431Y-113465896D01*
X119326070Y-113456519D01*
X119346445Y-113442906D01*
X119355535Y-113434666D01*
X119391773Y-113398428D01*
X119407319Y-113379486D01*
X119418870Y-113357875D01*
X119425983Y-113334426D01*
X119428385Y-113310040D01*
X119425983Y-113285654D01*
X119418870Y-113262205D01*
X119407319Y-113240594D01*
X119391773Y-113221652D01*
X119372831Y-113206106D01*
X119351220Y-113194555D01*
X119327771Y-113187442D01*
X119322384Y-113186643D01*
X119320911Y-113186196D01*
X119316276Y-113182392D01*
X119043202Y-112909318D01*
X119461389Y-112909318D01*
X119461389Y-112933822D01*
X119466169Y-112957856D01*
X119475546Y-112980495D01*
X119489162Y-113000874D01*
X119496857Y-113010250D01*
X119498295Y-113014990D01*
X119501083Y-113029008D01*
X119510460Y-113051647D01*
X119524073Y-113072022D01*
X119541400Y-113089349D01*
X119561775Y-113102963D01*
X119584414Y-113112341D01*
X119608447Y-113117122D01*
X119632951Y-113117122D01*
X119656985Y-113112342D01*
X119679624Y-113102965D01*
X119699999Y-113089352D01*
X119709089Y-113081112D01*
X119745326Y-113044875D01*
X119760872Y-113025933D01*
X119772423Y-113004322D01*
X119779536Y-112980873D01*
X119781938Y-112956487D01*
X119780731Y-112944233D01*
X122218664Y-112944233D01*
X122218664Y-112968737D01*
X122223444Y-112992771D01*
X122232821Y-113015410D01*
X122246434Y-113035785D01*
X122254674Y-113044875D01*
X122290911Y-113081112D01*
X122309853Y-113096658D01*
X122331464Y-113108209D01*
X122354913Y-113115322D01*
X122379299Y-113117724D01*
X122403685Y-113115322D01*
X122427134Y-113108209D01*
X122448745Y-113096658D01*
X122467687Y-113081112D01*
X122483233Y-113062170D01*
X122494784Y-113040559D01*
X122501897Y-113017110D01*
X122502696Y-113011723D01*
X122503143Y-113010250D01*
X122510838Y-113000874D01*
X122524452Y-112980500D01*
X122533830Y-112957861D01*
X122538611Y-112933828D01*
X122538611Y-112909324D01*
X122533831Y-112885290D01*
X122524454Y-112862651D01*
X122510841Y-112842276D01*
X122493514Y-112824948D01*
X122473140Y-112811334D01*
X122450501Y-112801956D01*
X122426468Y-112797175D01*
X122401964Y-112797175D01*
X122377930Y-112801955D01*
X122355291Y-112811332D01*
X122334912Y-112824948D01*
X122325536Y-112832643D01*
X122320796Y-112834081D01*
X122306778Y-112836869D01*
X122284139Y-112846246D01*
X122263764Y-112859859D01*
X122246437Y-112877186D01*
X122232823Y-112897561D01*
X122223445Y-112920200D01*
X122218664Y-112944233D01*
X119780731Y-112944233D01*
X119779536Y-112932101D01*
X119772423Y-112908652D01*
X119760872Y-112887041D01*
X119745326Y-112868099D01*
X119726384Y-112852553D01*
X119704773Y-112841002D01*
X119681324Y-112833889D01*
X119675937Y-112833090D01*
X119674464Y-112832643D01*
X119665088Y-112824948D01*
X119644714Y-112811334D01*
X119622075Y-112801956D01*
X119598042Y-112797175D01*
X119573538Y-112797175D01*
X119549504Y-112801955D01*
X119526865Y-112811332D01*
X119506490Y-112824945D01*
X119489162Y-112842272D01*
X119475548Y-112862646D01*
X119466170Y-112885285D01*
X119461389Y-112909318D01*
X119043202Y-112909318D01*
X118706249Y-112572365D01*
X118702682Y-112568019D01*
X118706249Y-112563673D01*
X118714157Y-112555765D01*
X119814942Y-112555765D01*
X119814942Y-112580269D01*
X119819722Y-112604303D01*
X119829099Y-112626942D01*
X119842715Y-112647321D01*
X119850410Y-112656697D01*
X119851848Y-112661437D01*
X119854636Y-112675455D01*
X119864013Y-112698094D01*
X119877626Y-112718469D01*
X119894953Y-112735796D01*
X119915328Y-112749410D01*
X119937967Y-112758788D01*
X119962000Y-112763569D01*
X119986504Y-112763569D01*
X120010538Y-112758789D01*
X120033177Y-112749412D01*
X120053552Y-112735799D01*
X120062642Y-112727559D01*
X120098879Y-112691322D01*
X120114425Y-112672380D01*
X120125976Y-112650769D01*
X120133089Y-112627320D01*
X120135491Y-112602934D01*
X120134284Y-112590680D01*
X121865111Y-112590680D01*
X121865111Y-112615184D01*
X121869891Y-112639218D01*
X121879268Y-112661857D01*
X121892881Y-112682232D01*
X121901121Y-112691322D01*
X121937358Y-112727559D01*
X121956300Y-112743105D01*
X121977911Y-112754656D01*
X122001360Y-112761769D01*
X122025746Y-112764171D01*
X122050132Y-112761769D01*
X122073581Y-112754656D01*
X122095192Y-112743105D01*
X122114134Y-112727559D01*
X122129680Y-112708617D01*
X122141231Y-112687006D01*
X122148344Y-112663557D01*
X122149143Y-112658170D01*
X122149590Y-112656697D01*
X122157285Y-112647321D01*
X122170899Y-112626947D01*
X122180277Y-112604308D01*
X122185058Y-112580275D01*
X122185058Y-112555771D01*
X122180278Y-112531737D01*
X122170901Y-112509098D01*
X122157288Y-112488723D01*
X122139961Y-112471395D01*
X122119587Y-112457781D01*
X122096948Y-112448403D01*
X122072915Y-112443622D01*
X122048411Y-112443622D01*
X122024377Y-112448402D01*
X122001738Y-112457779D01*
X121981359Y-112471395D01*
X121971983Y-112479090D01*
X121967243Y-112480528D01*
X121953225Y-112483316D01*
X121930586Y-112492693D01*
X121910211Y-112506306D01*
X121892884Y-112523633D01*
X121879270Y-112544008D01*
X121869892Y-112566647D01*
X121865111Y-112590680D01*
X120134284Y-112590680D01*
X120133089Y-112578548D01*
X120125976Y-112555099D01*
X120114425Y-112533488D01*
X120098879Y-112514546D01*
X120079937Y-112499000D01*
X120058326Y-112487449D01*
X120034877Y-112480336D01*
X120029490Y-112479537D01*
X120028017Y-112479090D01*
X120018641Y-112471395D01*
X119998267Y-112457781D01*
X119975628Y-112448403D01*
X119951595Y-112443622D01*
X119927091Y-112443622D01*
X119903057Y-112448402D01*
X119880418Y-112457779D01*
X119860043Y-112471392D01*
X119842715Y-112488719D01*
X119829101Y-112509093D01*
X119819723Y-112531732D01*
X119814942Y-112555765D01*
X118714157Y-112555765D01*
X118874334Y-112395588D01*
X118878680Y-112392021D01*
X118887767Y-112399479D01*
X118908141Y-112413093D01*
X118930780Y-112422471D01*
X118954813Y-112427252D01*
X118979317Y-112427252D01*
X119003351Y-112422472D01*
X119025990Y-112413095D01*
X119046365Y-112399482D01*
X119063693Y-112382155D01*
X119077307Y-112361781D01*
X119086685Y-112339142D01*
X119091466Y-112315109D01*
X119091466Y-112290605D01*
X119086686Y-112266571D01*
X119077309Y-112243932D01*
X119063693Y-112223553D01*
X119056235Y-112214466D01*
X119059802Y-112210120D01*
X119227887Y-112042035D01*
X119232233Y-112038468D01*
X119241320Y-112045926D01*
X119261694Y-112059540D01*
X119284333Y-112068918D01*
X119308366Y-112073699D01*
X119332870Y-112073699D01*
X119356904Y-112068919D01*
X119379543Y-112059542D01*
X119399918Y-112045929D01*
X119417246Y-112028602D01*
X119430860Y-112008228D01*
X119440238Y-111985589D01*
X119445019Y-111961556D01*
X119445019Y-111937052D01*
X119440239Y-111913018D01*
X119430862Y-111890379D01*
X119417246Y-111870000D01*
X119409788Y-111860913D01*
X119413355Y-111856567D01*
X119581440Y-111688482D01*
X119585786Y-111684915D01*
X119590132Y-111688482D01*
X120200159Y-112298509D01*
X120203963Y-112303144D01*
X120205401Y-112307884D01*
X120208189Y-112321902D01*
X120217566Y-112344541D01*
X120231179Y-112364916D01*
X120248506Y-112382243D01*
X120268881Y-112395857D01*
X120291520Y-112405235D01*
X120315553Y-112410016D01*
X120340057Y-112410016D01*
X120364091Y-112405236D01*
X120386730Y-112395859D01*
X120407105Y-112382246D01*
X120416195Y-112374006D01*
X120452433Y-112337768D01*
X120467979Y-112318826D01*
X120479530Y-112297215D01*
X120486643Y-112273766D01*
X120489045Y-112249380D01*
X120486643Y-112224994D01*
X120479530Y-112201545D01*
X120467979Y-112179934D01*
X120452433Y-112160992D01*
X120433491Y-112145446D01*
X120411880Y-112133895D01*
X120388431Y-112126782D01*
X120383044Y-112125983D01*
X120381571Y-112125536D01*
X120376936Y-112121732D01*
X120103862Y-111848658D01*
X120522049Y-111848658D01*
X120522049Y-111873162D01*
X120526829Y-111897196D01*
X120536206Y-111919835D01*
X120549822Y-111940214D01*
X120557517Y-111949590D01*
X120558955Y-111954330D01*
X120561743Y-111968348D01*
X120571120Y-111990987D01*
X120584733Y-112011362D01*
X120602060Y-112028689D01*
X120622435Y-112042303D01*
X120645074Y-112051681D01*
X120669107Y-112056462D01*
X120693611Y-112056462D01*
X120717645Y-112051682D01*
X120740284Y-112042305D01*
X120760659Y-112028692D01*
X120769749Y-112020452D01*
X120805986Y-111984215D01*
X120821532Y-111965273D01*
X120833083Y-111943662D01*
X120840196Y-111920213D01*
X120842598Y-111895827D01*
X120841391Y-111883573D01*
X121158004Y-111883573D01*
X121158004Y-111908077D01*
X121162784Y-111932111D01*
X121172161Y-111954750D01*
X121185774Y-111975125D01*
X121194014Y-111984215D01*
X121230251Y-112020452D01*
X121249193Y-112035998D01*
X121270804Y-112047549D01*
X121294253Y-112054662D01*
X121318639Y-112057064D01*
X121343025Y-112054662D01*
X121366474Y-112047549D01*
X121388085Y-112035998D01*
X121407027Y-112020452D01*
X121422573Y-112001510D01*
X121434124Y-111979899D01*
X121441237Y-111956450D01*
X121442036Y-111951063D01*
X121442483Y-111949590D01*
X121450178Y-111940214D01*
X121463792Y-111919840D01*
X121473170Y-111897201D01*
X121477951Y-111873168D01*
X121477951Y-111848664D01*
X121473171Y-111824630D01*
X121463794Y-111801991D01*
X121450181Y-111781616D01*
X121432854Y-111764288D01*
X121412480Y-111750674D01*
X121389841Y-111741296D01*
X121365808Y-111736515D01*
X121341304Y-111736515D01*
X121317270Y-111741295D01*
X121294631Y-111750672D01*
X121274252Y-111764288D01*
X121264876Y-111771983D01*
X121260136Y-111773421D01*
X121246118Y-111776209D01*
X121223479Y-111785586D01*
X121203104Y-111799199D01*
X121185777Y-111816526D01*
X121172163Y-111836901D01*
X121162785Y-111859540D01*
X121158004Y-111883573D01*
X120841391Y-111883573D01*
X120840196Y-111871441D01*
X120833083Y-111847992D01*
X120821532Y-111826381D01*
X120805986Y-111807439D01*
X120787044Y-111791893D01*
X120765433Y-111780342D01*
X120741984Y-111773229D01*
X120736597Y-111772430D01*
X120735124Y-111771983D01*
X120725748Y-111764288D01*
X120705374Y-111750674D01*
X120682735Y-111741296D01*
X120658702Y-111736515D01*
X120634198Y-111736515D01*
X120610164Y-111741295D01*
X120587525Y-111750672D01*
X120567150Y-111764285D01*
X120549822Y-111781612D01*
X120536208Y-111801986D01*
X120526830Y-111824625D01*
X120522049Y-111848658D01*
X120103862Y-111848658D01*
X119766909Y-111511705D01*
X119763342Y-111507359D01*
X119766909Y-111503013D01*
X119934994Y-111334928D01*
X119939340Y-111331361D01*
X119948427Y-111338819D01*
X119968801Y-111352433D01*
X119991440Y-111361811D01*
X120015473Y-111366592D01*
X120039977Y-111366592D01*
X120064011Y-111361812D01*
X120086650Y-111352435D01*
X120107025Y-111338822D01*
X120124353Y-111321495D01*
X120137967Y-111301121D01*
X120147345Y-111278482D01*
X120152126Y-111254449D01*
X120152126Y-111229945D01*
X120147346Y-111205911D01*
X120137969Y-111183272D01*
X120124353Y-111162893D01*
X120116895Y-111153806D01*
X120120462Y-111149460D01*
X120288547Y-110981375D01*
X120292893Y-110977808D01*
X120297239Y-110981375D01*
X120911612Y-111595748D01*
X120870053Y-111637307D01*
X120854507Y-111656249D01*
X120842956Y-111677860D01*
X120835843Y-111701309D01*
X120833441Y-111725695D01*
X120835843Y-111750081D01*
X120842956Y-111773530D01*
X120854507Y-111795141D01*
X120870053Y-111814083D01*
X120888995Y-111829629D01*
X120910606Y-111841180D01*
X120934055Y-111848293D01*
X120970693Y-111850093D01*
X121000000Y-111847207D01*
X121029307Y-111850093D01*
X121053812Y-111850093D01*
X121077845Y-111845312D01*
X121100484Y-111835935D01*
X121120859Y-111822321D01*
X121138186Y-111804994D01*
X121151799Y-111784619D01*
X121161177Y-111761980D01*
X121165957Y-111737947D01*
X121165957Y-111713442D01*
X121161176Y-111689409D01*
X121151799Y-111666770D01*
X121129947Y-111637307D01*
X121088388Y-111595748D01*
X121702761Y-110981375D01*
X121707107Y-110977808D01*
X121711453Y-110981375D01*
X121711453Y-110981375D01*
G37*
G36*
X129789799Y-119547489D02*
X129835543Y-119566437D01*
X129848941Y-119571986D01*
X129848942Y-119571987D01*
X129848945Y-119571988D01*
X129902176Y-119607556D01*
X129947444Y-119652824D01*
X129983012Y-119706055D01*
X129983013Y-119706058D01*
X129983014Y-119706059D01*
X129988563Y-119719457D01*
X130007511Y-119765201D01*
X130020000Y-119827990D01*
X130020000Y-119892010D01*
X130007511Y-119954799D01*
X129983012Y-120013945D01*
X129947444Y-120067176D01*
X129902176Y-120112444D01*
X129848945Y-120148012D01*
X129848942Y-120148013D01*
X129848941Y-120148014D01*
X129835543Y-120153563D01*
X129789799Y-120172511D01*
X129727010Y-120185000D01*
X129662990Y-120185000D01*
X129600201Y-120172511D01*
X129554457Y-120153563D01*
X129541059Y-120148014D01*
X129541058Y-120148013D01*
X129541055Y-120148012D01*
X129487824Y-120112444D01*
X129442556Y-120067176D01*
X129406988Y-120013945D01*
X129382489Y-119954799D01*
X129370000Y-119892010D01*
X129370000Y-119827990D01*
X129382489Y-119765201D01*
X129401437Y-119719457D01*
X129406986Y-119706059D01*
X129406987Y-119706058D01*
X129406988Y-119706055D01*
X129442556Y-119652824D01*
X129487824Y-119607556D01*
X129541055Y-119571988D01*
X129541058Y-119571987D01*
X129541059Y-119571986D01*
X129554457Y-119566437D01*
X129600201Y-119547489D01*
X129662990Y-119535000D01*
X129727010Y-119535000D01*
X129789799Y-119547489D01*
X129789799Y-119547489D01*
G37*
G36*
X112435000Y-120050000D02*
X111835000Y-120050000D01*
X111835000Y-118550000D01*
X112435000Y-118550000D01*
X112435000Y-120050000D01*
X112435000Y-120050000D01*
G37*
G36*
X113705000Y-120050000D02*
X113105000Y-120050000D01*
X113105000Y-118550000D01*
X113705000Y-118550000D01*
X113705000Y-120050000D01*
X113705000Y-120050000D01*
G37*
G36*
X114975000Y-120050000D02*
X114375000Y-120050000D01*
X114375000Y-118550000D01*
X114975000Y-118550000D01*
X114975000Y-120050000D01*
X114975000Y-120050000D01*
G37*
G36*
X116245000Y-120050000D02*
X115645000Y-120050000D01*
X115645000Y-118550000D01*
X116245000Y-118550000D01*
X116245000Y-120050000D01*
X116245000Y-120050000D01*
G37*
G36*
X107355000Y-120050000D02*
X106755000Y-120050000D01*
X106755000Y-118550000D01*
X107355000Y-118550000D01*
X107355000Y-120050000D01*
X107355000Y-120050000D01*
G37*
G36*
X108625000Y-120050000D02*
X108025000Y-120050000D01*
X108025000Y-118550000D01*
X108625000Y-118550000D01*
X108625000Y-120050000D01*
X108625000Y-120050000D01*
G37*
G36*
X109895000Y-120050000D02*
X109295000Y-120050000D01*
X109295000Y-118550000D01*
X109895000Y-118550000D01*
X109895000Y-120050000D01*
X109895000Y-120050000D01*
G37*
G36*
X111165000Y-120050000D02*
X110565000Y-120050000D01*
X110565000Y-118550000D01*
X111165000Y-118550000D01*
X111165000Y-120050000D01*
X111165000Y-120050000D01*
G37*
G36*
X126851463Y-119422226D02*
X126867298Y-119427030D01*
X126881886Y-119434827D01*
X126894676Y-119445324D01*
X126905173Y-119458114D01*
X126912970Y-119472702D01*
X126917774Y-119488537D01*
X126920000Y-119511140D01*
X126920000Y-119918860D01*
X126917774Y-119941463D01*
X126912970Y-119957298D01*
X126905173Y-119971886D01*
X126894676Y-119984676D01*
X126881886Y-119995173D01*
X126867298Y-120002970D01*
X126851463Y-120007774D01*
X126828860Y-120010000D01*
X126371140Y-120010000D01*
X126348537Y-120007774D01*
X126332702Y-120002970D01*
X126318114Y-119995173D01*
X126305324Y-119984676D01*
X126294827Y-119971886D01*
X126287030Y-119957298D01*
X126282226Y-119941463D01*
X126280000Y-119918860D01*
X126280000Y-119511140D01*
X126282226Y-119488537D01*
X126287030Y-119472702D01*
X126294827Y-119458114D01*
X126305324Y-119445324D01*
X126318114Y-119434827D01*
X126332702Y-119427030D01*
X126348537Y-119422226D01*
X126371140Y-119420000D01*
X126828860Y-119420000D01*
X126851463Y-119422226D01*
X126851463Y-119422226D01*
G37*
G36*
X105025000Y-119650000D02*
X103575000Y-119650000D01*
X103575000Y-112350000D01*
X105025000Y-112350000D01*
X105025000Y-119650000D01*
X105025000Y-119650000D01*
G37*
G36*
X133743015Y-117937234D02*
X133837268Y-117965825D01*
X133883159Y-117990355D01*
X133924129Y-118012254D01*
X134000264Y-118074736D01*
X134050703Y-118136196D01*
X134062745Y-118150870D01*
X134109175Y-118237732D01*
X134137766Y-118331985D01*
X134147419Y-118430000D01*
X134137766Y-118528015D01*
X134109175Y-118622268D01*
X134092345Y-118653754D01*
X134062746Y-118709129D01*
X134000264Y-118785264D01*
X133924129Y-118847746D01*
X133887153Y-118867510D01*
X133837268Y-118894175D01*
X133743015Y-118922766D01*
X133669564Y-118930000D01*
X133020436Y-118930000D01*
X132946985Y-118922766D01*
X132852732Y-118894175D01*
X132802847Y-118867510D01*
X132765871Y-118847746D01*
X132689736Y-118785264D01*
X132627254Y-118709129D01*
X132597655Y-118653754D01*
X132580825Y-118622268D01*
X132552234Y-118528015D01*
X132542581Y-118430000D01*
X132552234Y-118331985D01*
X132580825Y-118237732D01*
X132627255Y-118150870D01*
X132639298Y-118136196D01*
X132689736Y-118074736D01*
X132765871Y-118012254D01*
X132806841Y-117990355D01*
X132852732Y-117965825D01*
X132946985Y-117937234D01*
X133020436Y-117930000D01*
X133669564Y-117930000D01*
X133743015Y-117937234D01*
X133743015Y-117937234D01*
G37*
G36*
X129813015Y-117937234D02*
X129907268Y-117965825D01*
X129953159Y-117990355D01*
X129994129Y-118012254D01*
X130070264Y-118074736D01*
X130120703Y-118136196D01*
X130132745Y-118150870D01*
X130179175Y-118237732D01*
X130207766Y-118331985D01*
X130217419Y-118430000D01*
X130207766Y-118528015D01*
X130179175Y-118622268D01*
X130162345Y-118653754D01*
X130132746Y-118709129D01*
X130070264Y-118785264D01*
X129994129Y-118847746D01*
X129957153Y-118867510D01*
X129907268Y-118894175D01*
X129813015Y-118922766D01*
X129739564Y-118930000D01*
X128590436Y-118930000D01*
X128516985Y-118922766D01*
X128422732Y-118894175D01*
X128372847Y-118867510D01*
X128335871Y-118847746D01*
X128259736Y-118785264D01*
X128197254Y-118709129D01*
X128167655Y-118653754D01*
X128150825Y-118622268D01*
X128122234Y-118528015D01*
X128112581Y-118430000D01*
X128122234Y-118331985D01*
X128150825Y-118237732D01*
X128197255Y-118150870D01*
X128209298Y-118136196D01*
X128259736Y-118074736D01*
X128335871Y-118012254D01*
X128376841Y-117990355D01*
X128422732Y-117965825D01*
X128516985Y-117937234D01*
X128590436Y-117930000D01*
X129739564Y-117930000D01*
X129813015Y-117937234D01*
X129813015Y-117937234D01*
G37*
G36*
X107701463Y-116627226D02*
X107717298Y-116632030D01*
X107731886Y-116639827D01*
X107744676Y-116650324D01*
X107755173Y-116663114D01*
X107762970Y-116677702D01*
X107767774Y-116693537D01*
X107770000Y-116716140D01*
X107770000Y-117123860D01*
X107767774Y-117146463D01*
X107762970Y-117162298D01*
X107755173Y-117176886D01*
X107744676Y-117189676D01*
X107731886Y-117200173D01*
X107717298Y-117207970D01*
X107701463Y-117212774D01*
X107678860Y-117215000D01*
X107221140Y-117215000D01*
X107198537Y-117212774D01*
X107182702Y-117207970D01*
X107168114Y-117200173D01*
X107155324Y-117189676D01*
X107144827Y-117176886D01*
X107137030Y-117162298D01*
X107132226Y-117146463D01*
X107130000Y-117123860D01*
X107130000Y-116716140D01*
X107132226Y-116693537D01*
X107137030Y-116677702D01*
X107144827Y-116663114D01*
X107155324Y-116650324D01*
X107168114Y-116639827D01*
X107182702Y-116632030D01*
X107198537Y-116627226D01*
X107221140Y-116625000D01*
X107678860Y-116625000D01*
X107701463Y-116627226D01*
X107701463Y-116627226D01*
G37*
G36*
X128211463Y-116282226D02*
X128227298Y-116287030D01*
X128241886Y-116294827D01*
X128254676Y-116305324D01*
X128265173Y-116318114D01*
X128272970Y-116332702D01*
X128277774Y-116348537D01*
X128280000Y-116371140D01*
X128280000Y-116828860D01*
X128277774Y-116851463D01*
X128272970Y-116867298D01*
X128265173Y-116881886D01*
X128254676Y-116894676D01*
X128241886Y-116905173D01*
X128227298Y-116912970D01*
X128211463Y-116917774D01*
X128188860Y-116920000D01*
X127781140Y-116920000D01*
X127758537Y-116917774D01*
X127742702Y-116912970D01*
X127728114Y-116905173D01*
X127715324Y-116894676D01*
X127704827Y-116881886D01*
X127697030Y-116867298D01*
X127692226Y-116851463D01*
X127690000Y-116828860D01*
X127690000Y-116371140D01*
X127692226Y-116348537D01*
X127697030Y-116332702D01*
X127704827Y-116318114D01*
X127715324Y-116305324D01*
X127728114Y-116294827D01*
X127742702Y-116287030D01*
X127758537Y-116282226D01*
X127781140Y-116280000D01*
X128188860Y-116280000D01*
X128211463Y-116282226D01*
X128211463Y-116282226D01*
G37*
G36*
X127241463Y-116282226D02*
X127257298Y-116287030D01*
X127271886Y-116294827D01*
X127284676Y-116305324D01*
X127295173Y-116318114D01*
X127302970Y-116332702D01*
X127307774Y-116348537D01*
X127310000Y-116371140D01*
X127310000Y-116828860D01*
X127307774Y-116851463D01*
X127302970Y-116867298D01*
X127295173Y-116881886D01*
X127284676Y-116894676D01*
X127271886Y-116905173D01*
X127257298Y-116912970D01*
X127241463Y-116917774D01*
X127218860Y-116920000D01*
X126811140Y-116920000D01*
X126788537Y-116917774D01*
X126772702Y-116912970D01*
X126758114Y-116905173D01*
X126745324Y-116894676D01*
X126734827Y-116881886D01*
X126727030Y-116867298D01*
X126722226Y-116851463D01*
X126720000Y-116828860D01*
X126720000Y-116371140D01*
X126722226Y-116348537D01*
X126727030Y-116332702D01*
X126734827Y-116318114D01*
X126745324Y-116305324D01*
X126758114Y-116294827D01*
X126772702Y-116287030D01*
X126788537Y-116282226D01*
X126811140Y-116280000D01*
X127218860Y-116280000D01*
X127241463Y-116282226D01*
X127241463Y-116282226D01*
G37*
G36*
X132400000Y-113177254D02*
X132402402Y-113201640D01*
X132409515Y-113225089D01*
X132422596Y-113248937D01*
X132679842Y-113616431D01*
X132763621Y-113736115D01*
X132955468Y-114010183D01*
X132971420Y-114028783D01*
X132990695Y-114043915D01*
X133001476Y-114049380D01*
X133002402Y-114058783D01*
X133009515Y-114082232D01*
X133022596Y-114106080D01*
X133030684Y-114117635D01*
X133021066Y-114129354D01*
X133009515Y-114150965D01*
X133002402Y-114174414D01*
X133000000Y-114198800D01*
X133000000Y-115767000D01*
X133002402Y-115791386D01*
X133009515Y-115814835D01*
X133021066Y-115836446D01*
X133030823Y-115848334D01*
X133022879Y-115859588D01*
X133010778Y-115880895D01*
X133003067Y-115904155D01*
X133001653Y-115916844D01*
X132987206Y-115924566D01*
X132968264Y-115940112D01*
X132954531Y-115956415D01*
X132400001Y-116742000D01*
X131399999Y-116742000D01*
X130845469Y-115956415D01*
X130829444Y-115937877D01*
X130810110Y-115922822D01*
X130798557Y-115917022D01*
X130797598Y-115907287D01*
X130790485Y-115883838D01*
X130777121Y-115859588D01*
X130769177Y-115848334D01*
X130778934Y-115836446D01*
X130790485Y-115814835D01*
X130797598Y-115791386D01*
X130800000Y-115767000D01*
X130800000Y-114198800D01*
X130797598Y-114174414D01*
X130790485Y-114150965D01*
X130778934Y-114129354D01*
X130769316Y-114117635D01*
X130777404Y-114106080D01*
X130789421Y-114084724D01*
X130797041Y-114061435D01*
X130798347Y-114049504D01*
X130811574Y-114042434D01*
X130830516Y-114026888D01*
X130844532Y-114010183D01*
X131036380Y-113736115D01*
X131120158Y-113616431D01*
X131377404Y-113248937D01*
X131389421Y-113227581D01*
X131397041Y-113204292D01*
X131400000Y-113177254D01*
X131400000Y-111416500D01*
X132400000Y-111416500D01*
X132400000Y-113177254D01*
X132400000Y-113177254D01*
G37*
G36*
X107701463Y-115657226D02*
X107717298Y-115662030D01*
X107731886Y-115669827D01*
X107744676Y-115680324D01*
X107755173Y-115693114D01*
X107762970Y-115707702D01*
X107767774Y-115723537D01*
X107770000Y-115746140D01*
X107770000Y-116153860D01*
X107767774Y-116176463D01*
X107762970Y-116192298D01*
X107755173Y-116206886D01*
X107744676Y-116219676D01*
X107731886Y-116230173D01*
X107717298Y-116237970D01*
X107701463Y-116242774D01*
X107678860Y-116245000D01*
X107221140Y-116245000D01*
X107198537Y-116242774D01*
X107182702Y-116237970D01*
X107168114Y-116230173D01*
X107155324Y-116219676D01*
X107144827Y-116206886D01*
X107137030Y-116192298D01*
X107132226Y-116176463D01*
X107130000Y-116153860D01*
X107130000Y-115746140D01*
X107132226Y-115723537D01*
X107137030Y-115707702D01*
X107144827Y-115693114D01*
X107155324Y-115680324D01*
X107168114Y-115669827D01*
X107182702Y-115662030D01*
X107198537Y-115657226D01*
X107221140Y-115655000D01*
X107678860Y-115655000D01*
X107701463Y-115657226D01*
X107701463Y-115657226D01*
G37*
G36*
X112811463Y-114082226D02*
X112827298Y-114087030D01*
X112841886Y-114094827D01*
X112854676Y-114105324D01*
X112865173Y-114118114D01*
X112872970Y-114132702D01*
X112877774Y-114148537D01*
X112880000Y-114171140D01*
X112880000Y-114628860D01*
X112877774Y-114651463D01*
X112872970Y-114667298D01*
X112865173Y-114681886D01*
X112854676Y-114694676D01*
X112841886Y-114705173D01*
X112827298Y-114712970D01*
X112811463Y-114717774D01*
X112788860Y-114720000D01*
X112381140Y-114720000D01*
X112358537Y-114717774D01*
X112342702Y-114712970D01*
X112328114Y-114705173D01*
X112315324Y-114694676D01*
X112304827Y-114681886D01*
X112297030Y-114667298D01*
X112292226Y-114651463D01*
X112290000Y-114628860D01*
X112290000Y-114171140D01*
X112292226Y-114148537D01*
X112297030Y-114132702D01*
X112304827Y-114118114D01*
X112315324Y-114105324D01*
X112328114Y-114094827D01*
X112342702Y-114087030D01*
X112358537Y-114082226D01*
X112381140Y-114080000D01*
X112788860Y-114080000D01*
X112811463Y-114082226D01*
X112811463Y-114082226D01*
G37*
G36*
X111841463Y-114082226D02*
X111857298Y-114087030D01*
X111871886Y-114094827D01*
X111884676Y-114105324D01*
X111895173Y-114118114D01*
X111902970Y-114132702D01*
X111907774Y-114148537D01*
X111910000Y-114171140D01*
X111910000Y-114628860D01*
X111907774Y-114651463D01*
X111902970Y-114667298D01*
X111895173Y-114681886D01*
X111884676Y-114694676D01*
X111871886Y-114705173D01*
X111857298Y-114712970D01*
X111841463Y-114717774D01*
X111818860Y-114720000D01*
X111411140Y-114720000D01*
X111388537Y-114717774D01*
X111372702Y-114712970D01*
X111358114Y-114705173D01*
X111345324Y-114694676D01*
X111334827Y-114681886D01*
X111327030Y-114667298D01*
X111322226Y-114651463D01*
X111320000Y-114628860D01*
X111320000Y-114171140D01*
X111322226Y-114148537D01*
X111327030Y-114132702D01*
X111334827Y-114118114D01*
X111345324Y-114105324D01*
X111358114Y-114094827D01*
X111372702Y-114087030D01*
X111388537Y-114082226D01*
X111411140Y-114080000D01*
X111818860Y-114080000D01*
X111841463Y-114082226D01*
X111841463Y-114082226D01*
G37*
G36*
X116955838Y-112645510D02*
X116971673Y-112650314D01*
X116986261Y-112658111D01*
X117003824Y-112672525D01*
X117327475Y-112996176D01*
X117341889Y-113013739D01*
X117349686Y-113028327D01*
X117354490Y-113044162D01*
X117356111Y-113060625D01*
X117354490Y-113077088D01*
X117349686Y-113092923D01*
X117341889Y-113107511D01*
X117327475Y-113125074D01*
X117039180Y-113413369D01*
X117021617Y-113427783D01*
X117007029Y-113435580D01*
X116991194Y-113440384D01*
X116974731Y-113442005D01*
X116958268Y-113440384D01*
X116942433Y-113435580D01*
X116927845Y-113427783D01*
X116910282Y-113413369D01*
X116586631Y-113089718D01*
X116572217Y-113072155D01*
X116564420Y-113057567D01*
X116559616Y-113041732D01*
X116557995Y-113025269D01*
X116559616Y-113008806D01*
X116564420Y-112992971D01*
X116572217Y-112978383D01*
X116586631Y-112960820D01*
X116874926Y-112672525D01*
X116892489Y-112658111D01*
X116907077Y-112650314D01*
X116922912Y-112645510D01*
X116939375Y-112643889D01*
X116955838Y-112645510D01*
X116955838Y-112645510D01*
G37*
G36*
X111165000Y-112950000D02*
X110565000Y-112950000D01*
X110565000Y-111450000D01*
X111165000Y-111450000D01*
X111165000Y-112950000D01*
X111165000Y-112950000D01*
G37*
G36*
X113705000Y-112950000D02*
X113105000Y-112950000D01*
X113105000Y-111450000D01*
X113705000Y-111450000D01*
X113705000Y-112950000D01*
X113705000Y-112950000D01*
G37*
G36*
X112435000Y-112950000D02*
X111835000Y-112950000D01*
X111835000Y-111450000D01*
X112435000Y-111450000D01*
X112435000Y-112950000D01*
X112435000Y-112950000D01*
G37*
G36*
X109895000Y-112950000D02*
X109295000Y-112950000D01*
X109295000Y-111450000D01*
X109895000Y-111450000D01*
X109895000Y-112950000D01*
X109895000Y-112950000D01*
G37*
G36*
X108625000Y-112950000D02*
X108025000Y-112950000D01*
X108025000Y-111450000D01*
X108625000Y-111450000D01*
X108625000Y-112950000D01*
X108625000Y-112950000D01*
G37*
G36*
X107355000Y-112950000D02*
X106755000Y-112950000D01*
X106755000Y-111450000D01*
X107355000Y-111450000D01*
X107355000Y-112950000D01*
X107355000Y-112950000D01*
G37*
G36*
X114975000Y-112950000D02*
X114375000Y-112950000D01*
X114375000Y-111450000D01*
X114975000Y-111450000D01*
X114975000Y-112950000D01*
X114975000Y-112950000D01*
G37*
G36*
X116245000Y-112950000D02*
X115645000Y-112950000D01*
X115645000Y-111450000D01*
X116245000Y-111450000D01*
X116245000Y-112950000D01*
X116245000Y-112950000D01*
G37*
G36*
X130900000Y-112920000D02*
X129900000Y-112920000D01*
X129900000Y-111420000D01*
X130900000Y-111420000D01*
X130900000Y-112920000D01*
X130900000Y-112920000D01*
G37*
G36*
X133900000Y-112920000D02*
X132900000Y-112920000D01*
X132900000Y-111420000D01*
X133900000Y-111420000D01*
X133900000Y-112920000D01*
X133900000Y-112920000D01*
G37*
G36*
X127951463Y-112292226D02*
X127967298Y-112297030D01*
X127981886Y-112304827D01*
X127994676Y-112315324D01*
X128005173Y-112328114D01*
X128012970Y-112342702D01*
X128017774Y-112358537D01*
X128020000Y-112381140D01*
X128020000Y-112788860D01*
X128017774Y-112811463D01*
X128012970Y-112827298D01*
X128005173Y-112841886D01*
X127994676Y-112854676D01*
X127981886Y-112865173D01*
X127967298Y-112872970D01*
X127951463Y-112877774D01*
X127928860Y-112880000D01*
X127471140Y-112880000D01*
X127448537Y-112877774D01*
X127432702Y-112872970D01*
X127418114Y-112865173D01*
X127405324Y-112854676D01*
X127394827Y-112841886D01*
X127387030Y-112827298D01*
X127382226Y-112811463D01*
X127380000Y-112788860D01*
X127380000Y-112381140D01*
X127382226Y-112358537D01*
X127387030Y-112342702D01*
X127394827Y-112328114D01*
X127405324Y-112315324D01*
X127418114Y-112304827D01*
X127432702Y-112297030D01*
X127448537Y-112292226D01*
X127471140Y-112290000D01*
X127928860Y-112290000D01*
X127951463Y-112292226D01*
X127951463Y-112292226D01*
G37*
G36*
X117641732Y-111959616D02*
X117657567Y-111964420D01*
X117672155Y-111972217D01*
X117689718Y-111986631D01*
X118013369Y-112310282D01*
X118027783Y-112327845D01*
X118035580Y-112342433D01*
X118040384Y-112358268D01*
X118042005Y-112374731D01*
X118040384Y-112391194D01*
X118035580Y-112407029D01*
X118027783Y-112421617D01*
X118013369Y-112439180D01*
X117725074Y-112727475D01*
X117707511Y-112741889D01*
X117692923Y-112749686D01*
X117677088Y-112754490D01*
X117660625Y-112756111D01*
X117644162Y-112754490D01*
X117628327Y-112749686D01*
X117613739Y-112741889D01*
X117596176Y-112727475D01*
X117272525Y-112403824D01*
X117258111Y-112386261D01*
X117250314Y-112371673D01*
X117245510Y-112355838D01*
X117243889Y-112339375D01*
X117245510Y-112322912D01*
X117250314Y-112307077D01*
X117258111Y-112292489D01*
X117272525Y-112274926D01*
X117560820Y-111986631D01*
X117578383Y-111972217D01*
X117592971Y-111964420D01*
X117608806Y-111959616D01*
X117625269Y-111957995D01*
X117641732Y-111959616D01*
X117641732Y-111959616D01*
G37*
G36*
X126650000Y-111650000D02*
X126647592Y-111650000D01*
X126647592Y-111699009D01*
X126628470Y-111795142D01*
X126590961Y-111885698D01*
X126536505Y-111967197D01*
X126467197Y-112036505D01*
X126385698Y-112090961D01*
X126295142Y-112128470D01*
X126199009Y-112147592D01*
X126150000Y-112147592D01*
X126150000Y-112150000D01*
X125650000Y-112150000D01*
X125650000Y-112147592D01*
X125600991Y-112147592D01*
X125504858Y-112128470D01*
X125414302Y-112090961D01*
X125332803Y-112036505D01*
X125263495Y-111967197D01*
X125209039Y-111885698D01*
X125171530Y-111795142D01*
X125152408Y-111699009D01*
X125152408Y-111650000D01*
X125150000Y-111650000D01*
X125150000Y-111150000D01*
X126650000Y-111150000D01*
X126650000Y-111650000D01*
X126650000Y-111650000D01*
G37*
G36*
X103300000Y-112000000D02*
X100300000Y-112000000D01*
X100300000Y-110000000D01*
X103300000Y-110000000D01*
X103300000Y-112000000D01*
X103300000Y-112000000D01*
G37*
G36*
X127951463Y-111322226D02*
X127967298Y-111327030D01*
X127981886Y-111334827D01*
X127994676Y-111345324D01*
X128005173Y-111358114D01*
X128012970Y-111372702D01*
X128017774Y-111388537D01*
X128020000Y-111411140D01*
X128020000Y-111818860D01*
X128017774Y-111841463D01*
X128012970Y-111857298D01*
X128005173Y-111871886D01*
X127994676Y-111884676D01*
X127981886Y-111895173D01*
X127967298Y-111902970D01*
X127951463Y-111907774D01*
X127928860Y-111910000D01*
X127471140Y-111910000D01*
X127448537Y-111907774D01*
X127432702Y-111902970D01*
X127418114Y-111895173D01*
X127405324Y-111884676D01*
X127394827Y-111871886D01*
X127387030Y-111857298D01*
X127382226Y-111841463D01*
X127380000Y-111818860D01*
X127380000Y-111411140D01*
X127382226Y-111388537D01*
X127387030Y-111372702D01*
X127394827Y-111358114D01*
X127405324Y-111345324D01*
X127418114Y-111334827D01*
X127432702Y-111327030D01*
X127448537Y-111322226D01*
X127471140Y-111320000D01*
X127928860Y-111320000D01*
X127951463Y-111322226D01*
X127951463Y-111322226D01*
G37*
G36*
X126150000Y-109852408D02*
X126199009Y-109852408D01*
X126295142Y-109871530D01*
X126385698Y-109909039D01*
X126467197Y-109963495D01*
X126536505Y-110032803D01*
X126590961Y-110114302D01*
X126628470Y-110204858D01*
X126647592Y-110300991D01*
X126647592Y-110350000D01*
X126650000Y-110350000D01*
X126650000Y-110850000D01*
X125150000Y-110850000D01*
X125150000Y-110350000D01*
X125152408Y-110350000D01*
X125152408Y-110300991D01*
X125171530Y-110204858D01*
X125209039Y-110114302D01*
X125263495Y-110032803D01*
X125332803Y-109963495D01*
X125414302Y-109909039D01*
X125504858Y-109871530D01*
X125600991Y-109852408D01*
X125650000Y-109852408D01*
X125650000Y-109850000D01*
X126150000Y-109850000D01*
X126150000Y-109852408D01*
X126150000Y-109852408D01*
G37*
G36*
X130641463Y-110082226D02*
X130657298Y-110087030D01*
X130671886Y-110094827D01*
X130684676Y-110105324D01*
X130695173Y-110118114D01*
X130702970Y-110132702D01*
X130707774Y-110148537D01*
X130710000Y-110171140D01*
X130710000Y-110628860D01*
X130707774Y-110651463D01*
X130702970Y-110667298D01*
X130695173Y-110681886D01*
X130684676Y-110694676D01*
X130671886Y-110705173D01*
X130657298Y-110712970D01*
X130641463Y-110717774D01*
X130618860Y-110720000D01*
X130211140Y-110720000D01*
X130188537Y-110717774D01*
X130172702Y-110712970D01*
X130158114Y-110705173D01*
X130145324Y-110694676D01*
X130134827Y-110681886D01*
X130127030Y-110667298D01*
X130122226Y-110651463D01*
X130120000Y-110628860D01*
X130120000Y-110171140D01*
X130122226Y-110148537D01*
X130127030Y-110132702D01*
X130134827Y-110118114D01*
X130145324Y-110105324D01*
X130158114Y-110094827D01*
X130172702Y-110087030D01*
X130188537Y-110082226D01*
X130211140Y-110080000D01*
X130618860Y-110080000D01*
X130641463Y-110082226D01*
X130641463Y-110082226D01*
G37*
G36*
X133846463Y-110082226D02*
X133862298Y-110087030D01*
X133876886Y-110094827D01*
X133889676Y-110105324D01*
X133900173Y-110118114D01*
X133907970Y-110132702D01*
X133912774Y-110148537D01*
X133915000Y-110171140D01*
X133915000Y-110628860D01*
X133912774Y-110651463D01*
X133907970Y-110667298D01*
X133900173Y-110681886D01*
X133889676Y-110694676D01*
X133876886Y-110705173D01*
X133862298Y-110712970D01*
X133846463Y-110717774D01*
X133823860Y-110720000D01*
X133416140Y-110720000D01*
X133393537Y-110717774D01*
X133377702Y-110712970D01*
X133363114Y-110705173D01*
X133350324Y-110694676D01*
X133339827Y-110681886D01*
X133332030Y-110667298D01*
X133327226Y-110651463D01*
X133325000Y-110628860D01*
X133325000Y-110171140D01*
X133327226Y-110148537D01*
X133332030Y-110132702D01*
X133339827Y-110118114D01*
X133350324Y-110105324D01*
X133363114Y-110094827D01*
X133377702Y-110087030D01*
X133393537Y-110082226D01*
X133416140Y-110080000D01*
X133823860Y-110080000D01*
X133846463Y-110082226D01*
X133846463Y-110082226D01*
G37*
G36*
X132876463Y-110082226D02*
X132892298Y-110087030D01*
X132906886Y-110094827D01*
X132919676Y-110105324D01*
X132930173Y-110118114D01*
X132937970Y-110132702D01*
X132942774Y-110148537D01*
X132945000Y-110171140D01*
X132945000Y-110628860D01*
X132942774Y-110651463D01*
X132937970Y-110667298D01*
X132930173Y-110681886D01*
X132919676Y-110694676D01*
X132906886Y-110705173D01*
X132892298Y-110712970D01*
X132876463Y-110717774D01*
X132853860Y-110720000D01*
X132446140Y-110720000D01*
X132423537Y-110717774D01*
X132407702Y-110712970D01*
X132393114Y-110705173D01*
X132380324Y-110694676D01*
X132369827Y-110681886D01*
X132362030Y-110667298D01*
X132357226Y-110651463D01*
X132355000Y-110628860D01*
X132355000Y-110171140D01*
X132357226Y-110148537D01*
X132362030Y-110132702D01*
X132369827Y-110118114D01*
X132380324Y-110105324D01*
X132393114Y-110094827D01*
X132407702Y-110087030D01*
X132423537Y-110082226D01*
X132446140Y-110080000D01*
X132853860Y-110080000D01*
X132876463Y-110082226D01*
X132876463Y-110082226D01*
G37*
G36*
X131611463Y-110082226D02*
X131627298Y-110087030D01*
X131641886Y-110094827D01*
X131654676Y-110105324D01*
X131665173Y-110118114D01*
X131672970Y-110132702D01*
X131677774Y-110148537D01*
X131680000Y-110171140D01*
X131680000Y-110628860D01*
X131677774Y-110651463D01*
X131672970Y-110667298D01*
X131665173Y-110681886D01*
X131654676Y-110694676D01*
X131641886Y-110705173D01*
X131627298Y-110712970D01*
X131611463Y-110717774D01*
X131588860Y-110720000D01*
X131181140Y-110720000D01*
X131158537Y-110717774D01*
X131142702Y-110712970D01*
X131128114Y-110705173D01*
X131115324Y-110694676D01*
X131104827Y-110681886D01*
X131097030Y-110667298D01*
X131092226Y-110651463D01*
X131090000Y-110628860D01*
X131090000Y-110171140D01*
X131092226Y-110148537D01*
X131097030Y-110132702D01*
X131104827Y-110118114D01*
X131115324Y-110105324D01*
X131128114Y-110094827D01*
X131142702Y-110087030D01*
X131158537Y-110082226D01*
X131181140Y-110080000D01*
X131588860Y-110080000D01*
X131611463Y-110082226D01*
X131611463Y-110082226D01*
G37*
G36*
X121611463Y-109982226D02*
X121627298Y-109987030D01*
X121641886Y-109994827D01*
X121654676Y-110005324D01*
X121665173Y-110018114D01*
X121672970Y-110032702D01*
X121677774Y-110048537D01*
X121680000Y-110071140D01*
X121680000Y-110528860D01*
X121677774Y-110551463D01*
X121672970Y-110567298D01*
X121665173Y-110581886D01*
X121654676Y-110594676D01*
X121641886Y-110605173D01*
X121627298Y-110612970D01*
X121611463Y-110617774D01*
X121588860Y-110620000D01*
X121181140Y-110620000D01*
X121158537Y-110617774D01*
X121142702Y-110612970D01*
X121128114Y-110605173D01*
X121115324Y-110594676D01*
X121104827Y-110581886D01*
X121097030Y-110567298D01*
X121092226Y-110551463D01*
X121090000Y-110528860D01*
X121090000Y-110071140D01*
X121092226Y-110048537D01*
X121097030Y-110032702D01*
X121104827Y-110018114D01*
X121115324Y-110005324D01*
X121128114Y-109994827D01*
X121142702Y-109987030D01*
X121158537Y-109982226D01*
X121181140Y-109980000D01*
X121588860Y-109980000D01*
X121611463Y-109982226D01*
X121611463Y-109982226D01*
G37*
G36*
X120641463Y-109982226D02*
X120657298Y-109987030D01*
X120671886Y-109994827D01*
X120684676Y-110005324D01*
X120695173Y-110018114D01*
X120702970Y-110032702D01*
X120707774Y-110048537D01*
X120710000Y-110071140D01*
X120710000Y-110528860D01*
X120707774Y-110551463D01*
X120702970Y-110567298D01*
X120695173Y-110581886D01*
X120684676Y-110594676D01*
X120671886Y-110605173D01*
X120657298Y-110612970D01*
X120641463Y-110617774D01*
X120618860Y-110620000D01*
X120211140Y-110620000D01*
X120188537Y-110617774D01*
X120172702Y-110612970D01*
X120158114Y-110605173D01*
X120145324Y-110594676D01*
X120134827Y-110581886D01*
X120127030Y-110567298D01*
X120122226Y-110551463D01*
X120120000Y-110528860D01*
X120120000Y-110071140D01*
X120122226Y-110048537D01*
X120127030Y-110032702D01*
X120134827Y-110018114D01*
X120145324Y-110005324D01*
X120158114Y-109994827D01*
X120172702Y-109987030D01*
X120188537Y-109982226D01*
X120211140Y-109980000D01*
X120618860Y-109980000D01*
X120641463Y-109982226D01*
X120641463Y-109982226D01*
G37*
G36*
X119511463Y-109982226D02*
X119527298Y-109987030D01*
X119541886Y-109994827D01*
X119554676Y-110005324D01*
X119565173Y-110018114D01*
X119572970Y-110032702D01*
X119577774Y-110048537D01*
X119580000Y-110071140D01*
X119580000Y-110528860D01*
X119577774Y-110551463D01*
X119572970Y-110567298D01*
X119565173Y-110581886D01*
X119554676Y-110594676D01*
X119541886Y-110605173D01*
X119527298Y-110612970D01*
X119511463Y-110617774D01*
X119488860Y-110620000D01*
X119081140Y-110620000D01*
X119058537Y-110617774D01*
X119042702Y-110612970D01*
X119028114Y-110605173D01*
X119015324Y-110594676D01*
X119004827Y-110581886D01*
X118997030Y-110567298D01*
X118992226Y-110551463D01*
X118990000Y-110528860D01*
X118990000Y-110071140D01*
X118992226Y-110048537D01*
X118997030Y-110032702D01*
X119004827Y-110018114D01*
X119015324Y-110005324D01*
X119028114Y-109994827D01*
X119042702Y-109987030D01*
X119058537Y-109982226D01*
X119081140Y-109980000D01*
X119488860Y-109980000D01*
X119511463Y-109982226D01*
X119511463Y-109982226D01*
G37*
G36*
X118541463Y-109982226D02*
X118557298Y-109987030D01*
X118571886Y-109994827D01*
X118584676Y-110005324D01*
X118595173Y-110018114D01*
X118602970Y-110032702D01*
X118607774Y-110048537D01*
X118610000Y-110071140D01*
X118610000Y-110528860D01*
X118607774Y-110551463D01*
X118602970Y-110567298D01*
X118595173Y-110581886D01*
X118584676Y-110594676D01*
X118571886Y-110605173D01*
X118557298Y-110612970D01*
X118541463Y-110617774D01*
X118518860Y-110620000D01*
X118111140Y-110620000D01*
X118088537Y-110617774D01*
X118072702Y-110612970D01*
X118058114Y-110605173D01*
X118045324Y-110594676D01*
X118034827Y-110581886D01*
X118027030Y-110567298D01*
X118022226Y-110551463D01*
X118020000Y-110528860D01*
X118020000Y-110071140D01*
X118022226Y-110048537D01*
X118027030Y-110032702D01*
X118034827Y-110018114D01*
X118045324Y-110005324D01*
X118058114Y-109994827D01*
X118072702Y-109987030D01*
X118088537Y-109982226D01*
X118111140Y-109980000D01*
X118518860Y-109980000D01*
X118541463Y-109982226D01*
X118541463Y-109982226D01*
G37*
G36*
X124351463Y-109292226D02*
X124367298Y-109297030D01*
X124381886Y-109304827D01*
X124394676Y-109315324D01*
X124405173Y-109328114D01*
X124412970Y-109342702D01*
X124417774Y-109358537D01*
X124420000Y-109381140D01*
X124420000Y-109788860D01*
X124417774Y-109811463D01*
X124412970Y-109827298D01*
X124405173Y-109841886D01*
X124394676Y-109854676D01*
X124381886Y-109865173D01*
X124367298Y-109872970D01*
X124351463Y-109877774D01*
X124328860Y-109880000D01*
X123871140Y-109880000D01*
X123848537Y-109877774D01*
X123832702Y-109872970D01*
X123818114Y-109865173D01*
X123805324Y-109854676D01*
X123794827Y-109841886D01*
X123787030Y-109827298D01*
X123782226Y-109811463D01*
X123780000Y-109788860D01*
X123780000Y-109381140D01*
X123782226Y-109358537D01*
X123787030Y-109342702D01*
X123794827Y-109328114D01*
X123805324Y-109315324D01*
X123818114Y-109304827D01*
X123832702Y-109297030D01*
X123848537Y-109292226D01*
X123871140Y-109290000D01*
X124328860Y-109290000D01*
X124351463Y-109292226D01*
X124351463Y-109292226D01*
G37*
G36*
X123351463Y-109292226D02*
X123367298Y-109297030D01*
X123381886Y-109304827D01*
X123394676Y-109315324D01*
X123405173Y-109328114D01*
X123412970Y-109342702D01*
X123417774Y-109358537D01*
X123420000Y-109381140D01*
X123420000Y-109788860D01*
X123417774Y-109811463D01*
X123412970Y-109827298D01*
X123405173Y-109841886D01*
X123394676Y-109854676D01*
X123381886Y-109865173D01*
X123367298Y-109872970D01*
X123351463Y-109877774D01*
X123328860Y-109880000D01*
X122871140Y-109880000D01*
X122848537Y-109877774D01*
X122832702Y-109872970D01*
X122818114Y-109865173D01*
X122805324Y-109854676D01*
X122794827Y-109841886D01*
X122787030Y-109827298D01*
X122782226Y-109811463D01*
X122780000Y-109788860D01*
X122780000Y-109381140D01*
X122782226Y-109358537D01*
X122787030Y-109342702D01*
X122794827Y-109328114D01*
X122805324Y-109315324D01*
X122818114Y-109304827D01*
X122832702Y-109297030D01*
X122848537Y-109292226D01*
X122871140Y-109290000D01*
X123328860Y-109290000D01*
X123351463Y-109292226D01*
X123351463Y-109292226D01*
G37*
G36*
X120954531Y-104960085D02*
X120970556Y-104978623D01*
X120989890Y-104993678D01*
X121001443Y-104999478D01*
X121002402Y-105009213D01*
X121009515Y-105032662D01*
X121022879Y-105056912D01*
X121030823Y-105068166D01*
X121021066Y-105080054D01*
X121009515Y-105101665D01*
X121002402Y-105125114D01*
X121000000Y-105149500D01*
X121000000Y-106717700D01*
X121002402Y-106742086D01*
X121009515Y-106765535D01*
X121021066Y-106787146D01*
X121030684Y-106798865D01*
X121022596Y-106810420D01*
X121010579Y-106831776D01*
X121002959Y-106855065D01*
X121001653Y-106866996D01*
X120988426Y-106874066D01*
X120969484Y-106889612D01*
X120955468Y-106906317D01*
X120422596Y-107667563D01*
X120410579Y-107688919D01*
X120402959Y-107712208D01*
X120400000Y-107739246D01*
X120400000Y-109500000D01*
X119400000Y-109500000D01*
X119400000Y-107739246D01*
X119397598Y-107714860D01*
X119390485Y-107691411D01*
X119377404Y-107667563D01*
X118844532Y-106906317D01*
X118828580Y-106887717D01*
X118809305Y-106872585D01*
X118798524Y-106867120D01*
X118797598Y-106857717D01*
X118790485Y-106834268D01*
X118777404Y-106810420D01*
X118769316Y-106798865D01*
X118778934Y-106787146D01*
X118790485Y-106765535D01*
X118797598Y-106742086D01*
X118800000Y-106717700D01*
X118800000Y-105149500D01*
X118797598Y-105125114D01*
X118790485Y-105101665D01*
X118778934Y-105080054D01*
X118769177Y-105068166D01*
X118777121Y-105056912D01*
X118789222Y-105035605D01*
X118796933Y-105012345D01*
X118798347Y-104999656D01*
X118812794Y-104991934D01*
X118831736Y-104976388D01*
X118845469Y-104960085D01*
X119399999Y-104174500D01*
X120400001Y-104174500D01*
X120954531Y-104960085D01*
X120954531Y-104960085D01*
G37*
G36*
X121900000Y-109496500D02*
X120900000Y-109496500D01*
X120900000Y-107996500D01*
X121900000Y-107996500D01*
X121900000Y-109496500D01*
X121900000Y-109496500D01*
G37*
G36*
X118900000Y-109496500D02*
X117900000Y-109496500D01*
X117900000Y-107996500D01*
X118900000Y-107996500D01*
X118900000Y-109496500D01*
X118900000Y-109496500D01*
G37*
G36*
X133941463Y-108782226D02*
X133957298Y-108787030D01*
X133971886Y-108794827D01*
X133984676Y-108805324D01*
X133995173Y-108818114D01*
X134002970Y-108832702D01*
X134007774Y-108848537D01*
X134010000Y-108871140D01*
X134010000Y-109328860D01*
X134007774Y-109351463D01*
X134002970Y-109367298D01*
X133995173Y-109381886D01*
X133984676Y-109394676D01*
X133971886Y-109405173D01*
X133957298Y-109412970D01*
X133941463Y-109417774D01*
X133918860Y-109420000D01*
X133511140Y-109420000D01*
X133488537Y-109417774D01*
X133472702Y-109412970D01*
X133458114Y-109405173D01*
X133445324Y-109394676D01*
X133434827Y-109381886D01*
X133427030Y-109367298D01*
X133422226Y-109351463D01*
X133420000Y-109328860D01*
X133420000Y-108871140D01*
X133422226Y-108848537D01*
X133427030Y-108832702D01*
X133434827Y-108818114D01*
X133445324Y-108805324D01*
X133458114Y-108794827D01*
X133472702Y-108787030D01*
X133488537Y-108782226D01*
X133511140Y-108780000D01*
X133918860Y-108780000D01*
X133941463Y-108782226D01*
X133941463Y-108782226D01*
G37*
G36*
X134911463Y-108782226D02*
X134927298Y-108787030D01*
X134941886Y-108794827D01*
X134954676Y-108805324D01*
X134965173Y-108818114D01*
X134972970Y-108832702D01*
X134977774Y-108848537D01*
X134980000Y-108871140D01*
X134980000Y-109328860D01*
X134977774Y-109351463D01*
X134972970Y-109367298D01*
X134965173Y-109381886D01*
X134954676Y-109394676D01*
X134941886Y-109405173D01*
X134927298Y-109412970D01*
X134911463Y-109417774D01*
X134888860Y-109420000D01*
X134481140Y-109420000D01*
X134458537Y-109417774D01*
X134442702Y-109412970D01*
X134428114Y-109405173D01*
X134415324Y-109394676D01*
X134404827Y-109381886D01*
X134397030Y-109367298D01*
X134392226Y-109351463D01*
X134390000Y-109328860D01*
X134390000Y-108871140D01*
X134392226Y-108848537D01*
X134397030Y-108832702D01*
X134404827Y-108818114D01*
X134415324Y-108805324D01*
X134428114Y-108794827D01*
X134442702Y-108787030D01*
X134458537Y-108782226D01*
X134481140Y-108780000D01*
X134888860Y-108780000D01*
X134911463Y-108782226D01*
X134911463Y-108782226D01*
G37*
G36*
X104651463Y-108677226D02*
X104667298Y-108682030D01*
X104681886Y-108689827D01*
X104694676Y-108700324D01*
X104705173Y-108713114D01*
X104712970Y-108727702D01*
X104717774Y-108743537D01*
X104720000Y-108766140D01*
X104720000Y-109173860D01*
X104717774Y-109196463D01*
X104712970Y-109212298D01*
X104705173Y-109226886D01*
X104694676Y-109239676D01*
X104681886Y-109250173D01*
X104667298Y-109257970D01*
X104651463Y-109262774D01*
X104628860Y-109265000D01*
X104171140Y-109265000D01*
X104148537Y-109262774D01*
X104132702Y-109257970D01*
X104118114Y-109250173D01*
X104105324Y-109239676D01*
X104094827Y-109226886D01*
X104087030Y-109212298D01*
X104082226Y-109196463D01*
X104080000Y-109173860D01*
X104080000Y-108766140D01*
X104082226Y-108743537D01*
X104087030Y-108727702D01*
X104094827Y-108713114D01*
X104105324Y-108700324D01*
X104118114Y-108689827D01*
X104132702Y-108682030D01*
X104148537Y-108677226D01*
X104171140Y-108675000D01*
X104628860Y-108675000D01*
X104651463Y-108677226D01*
X104651463Y-108677226D01*
G37*
G36*
X103450000Y-109250000D02*
X102650000Y-109250000D01*
X102650000Y-108350000D01*
X103450000Y-108350000D01*
X103450000Y-109250000D01*
X103450000Y-109250000D01*
G37*
G36*
X101550000Y-109250000D02*
X100750000Y-109250000D01*
X100750000Y-108350000D01*
X101550000Y-108350000D01*
X101550000Y-109250000D01*
X101550000Y-109250000D01*
G37*
G36*
X124351463Y-108322226D02*
X124367298Y-108327030D01*
X124381886Y-108334827D01*
X124394676Y-108345324D01*
X124405173Y-108358114D01*
X124412970Y-108372702D01*
X124417774Y-108388537D01*
X124420000Y-108411140D01*
X124420000Y-108818860D01*
X124417774Y-108841463D01*
X124412970Y-108857298D01*
X124405173Y-108871886D01*
X124394676Y-108884676D01*
X124381886Y-108895173D01*
X124367298Y-108902970D01*
X124351463Y-108907774D01*
X124328860Y-108910000D01*
X123871140Y-108910000D01*
X123848537Y-108907774D01*
X123832702Y-108902970D01*
X123818114Y-108895173D01*
X123805324Y-108884676D01*
X123794827Y-108871886D01*
X123787030Y-108857298D01*
X123782226Y-108841463D01*
X123780000Y-108818860D01*
X123780000Y-108411140D01*
X123782226Y-108388537D01*
X123787030Y-108372702D01*
X123794827Y-108358114D01*
X123805324Y-108345324D01*
X123818114Y-108334827D01*
X123832702Y-108327030D01*
X123848537Y-108322226D01*
X123871140Y-108320000D01*
X124328860Y-108320000D01*
X124351463Y-108322226D01*
X124351463Y-108322226D01*
G37*
G36*
X123351463Y-108322226D02*
X123367298Y-108327030D01*
X123381886Y-108334827D01*
X123394676Y-108345324D01*
X123405173Y-108358114D01*
X123412970Y-108372702D01*
X123417774Y-108388537D01*
X123420000Y-108411140D01*
X123420000Y-108818860D01*
X123417774Y-108841463D01*
X123412970Y-108857298D01*
X123405173Y-108871886D01*
X123394676Y-108884676D01*
X123381886Y-108895173D01*
X123367298Y-108902970D01*
X123351463Y-108907774D01*
X123328860Y-108910000D01*
X122871140Y-108910000D01*
X122848537Y-108907774D01*
X122832702Y-108902970D01*
X122818114Y-108895173D01*
X122805324Y-108884676D01*
X122794827Y-108871886D01*
X122787030Y-108857298D01*
X122782226Y-108841463D01*
X122780000Y-108818860D01*
X122780000Y-108411140D01*
X122782226Y-108388537D01*
X122787030Y-108372702D01*
X122794827Y-108358114D01*
X122805324Y-108345324D01*
X122818114Y-108334827D01*
X122832702Y-108327030D01*
X122848537Y-108322226D01*
X122871140Y-108320000D01*
X123328860Y-108320000D01*
X123351463Y-108322226D01*
X123351463Y-108322226D01*
G37*
G36*
X126400000Y-108800000D02*
X125200000Y-108800000D01*
X125200000Y-107900000D01*
X126400000Y-107900000D01*
X126400000Y-108800000D01*
X126400000Y-108800000D01*
G37*
G36*
X131150000Y-108600000D02*
X127450000Y-108600000D01*
X127450000Y-107400000D01*
X131150000Y-107400000D01*
X131150000Y-108600000D01*
X131150000Y-108600000D01*
G37*
G36*
X104651463Y-107707226D02*
X104667298Y-107712030D01*
X104681886Y-107719827D01*
X104694676Y-107730324D01*
X104705173Y-107743114D01*
X104712970Y-107757702D01*
X104717774Y-107773537D01*
X104720000Y-107796140D01*
X104720000Y-108203860D01*
X104717774Y-108226463D01*
X104712970Y-108242298D01*
X104705173Y-108256886D01*
X104694676Y-108269676D01*
X104681886Y-108280173D01*
X104667298Y-108287970D01*
X104651463Y-108292774D01*
X104628860Y-108295000D01*
X104171140Y-108295000D01*
X104148537Y-108292774D01*
X104132702Y-108287970D01*
X104118114Y-108280173D01*
X104105324Y-108269676D01*
X104094827Y-108256886D01*
X104087030Y-108242298D01*
X104082226Y-108226463D01*
X104080000Y-108203860D01*
X104080000Y-107796140D01*
X104082226Y-107773537D01*
X104087030Y-107757702D01*
X104094827Y-107743114D01*
X104105324Y-107730324D01*
X104118114Y-107719827D01*
X104132702Y-107712030D01*
X104148537Y-107707226D01*
X104171140Y-107705000D01*
X104628860Y-107705000D01*
X104651463Y-107707226D01*
X104651463Y-107707226D01*
G37*
G36*
X134775000Y-108230000D02*
X134125000Y-108230000D01*
X134125000Y-107170000D01*
X134775000Y-107170000D01*
X134775000Y-108230000D01*
X134775000Y-108230000D01*
G37*
G36*
X133825000Y-108230000D02*
X133175000Y-108230000D01*
X133175000Y-107170000D01*
X133825000Y-107170000D01*
X133825000Y-108230000D01*
X133825000Y-108230000D01*
G37*
G36*
X132875000Y-108230000D02*
X132225000Y-108230000D01*
X132225000Y-107170000D01*
X132875000Y-107170000D01*
X132875000Y-108230000D01*
X132875000Y-108230000D01*
G37*
G36*
X124351463Y-107392226D02*
X124367298Y-107397030D01*
X124381886Y-107404827D01*
X124394676Y-107415324D01*
X124405173Y-107428114D01*
X124412970Y-107442702D01*
X124417774Y-107458537D01*
X124420000Y-107481140D01*
X124420000Y-107888860D01*
X124417774Y-107911463D01*
X124412970Y-107927298D01*
X124405173Y-107941886D01*
X124394676Y-107954676D01*
X124381886Y-107965173D01*
X124367298Y-107972970D01*
X124351463Y-107977774D01*
X124328860Y-107980000D01*
X123871140Y-107980000D01*
X123848537Y-107977774D01*
X123832702Y-107972970D01*
X123818114Y-107965173D01*
X123805324Y-107954676D01*
X123794827Y-107941886D01*
X123787030Y-107927298D01*
X123782226Y-107911463D01*
X123780000Y-107888860D01*
X123780000Y-107481140D01*
X123782226Y-107458537D01*
X123787030Y-107442702D01*
X123794827Y-107428114D01*
X123805324Y-107415324D01*
X123818114Y-107404827D01*
X123832702Y-107397030D01*
X123848537Y-107392226D01*
X123871140Y-107390000D01*
X124328860Y-107390000D01*
X124351463Y-107392226D01*
X124351463Y-107392226D01*
G37*
G36*
X114975000Y-107550000D02*
X114375000Y-107550000D01*
X114375000Y-106050000D01*
X114975000Y-106050000D01*
X114975000Y-107550000D01*
X114975000Y-107550000D01*
G37*
G36*
X107355000Y-107550000D02*
X106755000Y-107550000D01*
X106755000Y-106050000D01*
X107355000Y-106050000D01*
X107355000Y-107550000D01*
X107355000Y-107550000D01*
G37*
G36*
X108625000Y-107550000D02*
X108025000Y-107550000D01*
X108025000Y-106050000D01*
X108625000Y-106050000D01*
X108625000Y-107550000D01*
X108625000Y-107550000D01*
G37*
G36*
X109895000Y-107550000D02*
X109295000Y-107550000D01*
X109295000Y-106050000D01*
X109895000Y-106050000D01*
X109895000Y-107550000D01*
X109895000Y-107550000D01*
G37*
G36*
X111165000Y-107550000D02*
X110565000Y-107550000D01*
X110565000Y-106050000D01*
X111165000Y-106050000D01*
X111165000Y-107550000D01*
X111165000Y-107550000D01*
G37*
G36*
X113705000Y-107550000D02*
X113105000Y-107550000D01*
X113105000Y-106050000D01*
X113705000Y-106050000D01*
X113705000Y-107550000D01*
X113705000Y-107550000D01*
G37*
G36*
X116245000Y-107550000D02*
X115645000Y-107550000D01*
X115645000Y-106050000D01*
X116245000Y-106050000D01*
X116245000Y-107550000D01*
X116245000Y-107550000D01*
G37*
G36*
X112435000Y-107550000D02*
X111835000Y-107550000D01*
X111835000Y-106050000D01*
X112435000Y-106050000D01*
X112435000Y-107550000D01*
X112435000Y-107550000D01*
G37*
G36*
X104651463Y-106707226D02*
X104667298Y-106712030D01*
X104681886Y-106719827D01*
X104694676Y-106730324D01*
X104705173Y-106743114D01*
X104712970Y-106757702D01*
X104717774Y-106773537D01*
X104720000Y-106796140D01*
X104720000Y-107203860D01*
X104717774Y-107226463D01*
X104712970Y-107242298D01*
X104705173Y-107256886D01*
X104694676Y-107269676D01*
X104681886Y-107280173D01*
X104667298Y-107287970D01*
X104651463Y-107292774D01*
X104628860Y-107295000D01*
X104171140Y-107295000D01*
X104148537Y-107292774D01*
X104132702Y-107287970D01*
X104118114Y-107280173D01*
X104105324Y-107269676D01*
X104094827Y-107256886D01*
X104087030Y-107242298D01*
X104082226Y-107226463D01*
X104080000Y-107203860D01*
X104080000Y-106796140D01*
X104082226Y-106773537D01*
X104087030Y-106757702D01*
X104094827Y-106743114D01*
X104105324Y-106730324D01*
X104118114Y-106719827D01*
X104132702Y-106712030D01*
X104148537Y-106707226D01*
X104171140Y-106705000D01*
X104628860Y-106705000D01*
X104651463Y-106707226D01*
X104651463Y-106707226D01*
G37*
G36*
X102500000Y-107250000D02*
X101700000Y-107250000D01*
X101700000Y-106350000D01*
X102500000Y-106350000D01*
X102500000Y-107250000D01*
X102500000Y-107250000D01*
G37*
G36*
X124351463Y-106422226D02*
X124367298Y-106427030D01*
X124381886Y-106434827D01*
X124394676Y-106445324D01*
X124405173Y-106458114D01*
X124412970Y-106472702D01*
X124417774Y-106488537D01*
X124420000Y-106511140D01*
X124420000Y-106918860D01*
X124417774Y-106941463D01*
X124412970Y-106957298D01*
X124405173Y-106971886D01*
X124394676Y-106984676D01*
X124381886Y-106995173D01*
X124367298Y-107002970D01*
X124351463Y-107007774D01*
X124328860Y-107010000D01*
X123871140Y-107010000D01*
X123848537Y-107007774D01*
X123832702Y-107002970D01*
X123818114Y-106995173D01*
X123805324Y-106984676D01*
X123794827Y-106971886D01*
X123787030Y-106957298D01*
X123782226Y-106941463D01*
X123780000Y-106918860D01*
X123780000Y-106511140D01*
X123782226Y-106488537D01*
X123787030Y-106472702D01*
X123794827Y-106458114D01*
X123805324Y-106445324D01*
X123818114Y-106434827D01*
X123832702Y-106427030D01*
X123848537Y-106422226D01*
X123871140Y-106420000D01*
X124328860Y-106420000D01*
X124351463Y-106422226D01*
X124351463Y-106422226D01*
G37*
G36*
X104651463Y-105737226D02*
X104667298Y-105742030D01*
X104681886Y-105749827D01*
X104694676Y-105760324D01*
X104705173Y-105773114D01*
X104712970Y-105787702D01*
X104717774Y-105803537D01*
X104720000Y-105826140D01*
X104720000Y-106233860D01*
X104717774Y-106256463D01*
X104712970Y-106272298D01*
X104705173Y-106286886D01*
X104694676Y-106299676D01*
X104681886Y-106310173D01*
X104667298Y-106317970D01*
X104651463Y-106322774D01*
X104628860Y-106325000D01*
X104171140Y-106325000D01*
X104148537Y-106322774D01*
X104132702Y-106317970D01*
X104118114Y-106310173D01*
X104105324Y-106299676D01*
X104094827Y-106286886D01*
X104087030Y-106272298D01*
X104082226Y-106256463D01*
X104080000Y-106233860D01*
X104080000Y-105826140D01*
X104082226Y-105803537D01*
X104087030Y-105787702D01*
X104094827Y-105773114D01*
X104105324Y-105760324D01*
X104118114Y-105749827D01*
X104132702Y-105742030D01*
X104148537Y-105737226D01*
X104171140Y-105735000D01*
X104628860Y-105735000D01*
X104651463Y-105737226D01*
X104651463Y-105737226D01*
G37*
G36*
X124351463Y-105492226D02*
X124367298Y-105497030D01*
X124381886Y-105504827D01*
X124394676Y-105515324D01*
X124405173Y-105528114D01*
X124412970Y-105542702D01*
X124417774Y-105558537D01*
X124420000Y-105581140D01*
X124420000Y-105988860D01*
X124417774Y-106011463D01*
X124412970Y-106027298D01*
X124405173Y-106041886D01*
X124394676Y-106054676D01*
X124381886Y-106065173D01*
X124367298Y-106072970D01*
X124351463Y-106077774D01*
X124328860Y-106080000D01*
X123871140Y-106080000D01*
X123848537Y-106077774D01*
X123832702Y-106072970D01*
X123818114Y-106065173D01*
X123805324Y-106054676D01*
X123794827Y-106041886D01*
X123787030Y-106027298D01*
X123782226Y-106011463D01*
X123780000Y-105988860D01*
X123780000Y-105581140D01*
X123782226Y-105558537D01*
X123787030Y-105542702D01*
X123794827Y-105528114D01*
X123805324Y-105515324D01*
X123818114Y-105504827D01*
X123832702Y-105497030D01*
X123848537Y-105492226D01*
X123871140Y-105490000D01*
X124328860Y-105490000D01*
X124351463Y-105492226D01*
X124351463Y-105492226D01*
G37*
G36*
X132875000Y-106030000D02*
X132225000Y-106030000D01*
X132225000Y-104970000D01*
X132875000Y-104970000D01*
X132875000Y-106030000D01*
X132875000Y-106030000D01*
G37*
G36*
X133825000Y-106030000D02*
X133175000Y-106030000D01*
X133175000Y-104970000D01*
X133825000Y-104970000D01*
X133825000Y-106030000D01*
X133825000Y-106030000D01*
G37*
G36*
X134775000Y-106030000D02*
X134125000Y-106030000D01*
X134125000Y-104970000D01*
X134775000Y-104970000D01*
X134775000Y-106030000D01*
X134775000Y-106030000D01*
G37*
G36*
X131150000Y-105800000D02*
X127450000Y-105800000D01*
X127450000Y-104600000D01*
X131150000Y-104600000D01*
X131150000Y-105800000D01*
X131150000Y-105800000D01*
G37*
G36*
X102500000Y-105750000D02*
X101700000Y-105750000D01*
X101700000Y-104850000D01*
X102500000Y-104850000D01*
X102500000Y-105750000D01*
X102500000Y-105750000D01*
G37*
G36*
X126400000Y-105500000D02*
X125200000Y-105500000D01*
X125200000Y-104600000D01*
X126400000Y-104600000D01*
X126400000Y-105500000D01*
X126400000Y-105500000D01*
G37*
G36*
X124351463Y-104522226D02*
X124367298Y-104527030D01*
X124381886Y-104534827D01*
X124394676Y-104545324D01*
X124405173Y-104558114D01*
X124412970Y-104572702D01*
X124417774Y-104588537D01*
X124420000Y-104611140D01*
X124420000Y-105018860D01*
X124417774Y-105041463D01*
X124412970Y-105057298D01*
X124405173Y-105071886D01*
X124394676Y-105084676D01*
X124381886Y-105095173D01*
X124367298Y-105102970D01*
X124351463Y-105107774D01*
X124328860Y-105110000D01*
X123871140Y-105110000D01*
X123848537Y-105107774D01*
X123832702Y-105102970D01*
X123818114Y-105095173D01*
X123805324Y-105084676D01*
X123794827Y-105071886D01*
X123787030Y-105057298D01*
X123782226Y-105041463D01*
X123780000Y-105018860D01*
X123780000Y-104611140D01*
X123782226Y-104588537D01*
X123787030Y-104572702D01*
X123794827Y-104558114D01*
X123805324Y-104545324D01*
X123818114Y-104534827D01*
X123832702Y-104527030D01*
X123848537Y-104522226D01*
X123871140Y-104520000D01*
X124328860Y-104520000D01*
X124351463Y-104522226D01*
X124351463Y-104522226D01*
G37*
G36*
X104651463Y-104377226D02*
X104667298Y-104382030D01*
X104681886Y-104389827D01*
X104694676Y-104400324D01*
X104705173Y-104413114D01*
X104712970Y-104427702D01*
X104717774Y-104443537D01*
X104720000Y-104466140D01*
X104720000Y-104873860D01*
X104717774Y-104896463D01*
X104712970Y-104912298D01*
X104705173Y-104926886D01*
X104694676Y-104939676D01*
X104681886Y-104950173D01*
X104667298Y-104957970D01*
X104651463Y-104962774D01*
X104628860Y-104965000D01*
X104171140Y-104965000D01*
X104148537Y-104962774D01*
X104132702Y-104957970D01*
X104118114Y-104950173D01*
X104105324Y-104939676D01*
X104094827Y-104926886D01*
X104087030Y-104912298D01*
X104082226Y-104896463D01*
X104080000Y-104873860D01*
X104080000Y-104466140D01*
X104082226Y-104443537D01*
X104087030Y-104427702D01*
X104094827Y-104413114D01*
X104105324Y-104400324D01*
X104118114Y-104389827D01*
X104132702Y-104382030D01*
X104148537Y-104377226D01*
X104171140Y-104375000D01*
X104628860Y-104375000D01*
X104651463Y-104377226D01*
X104651463Y-104377226D01*
G37*
G36*
X116111463Y-103982226D02*
X116127298Y-103987030D01*
X116141886Y-103994827D01*
X116154676Y-104005324D01*
X116165173Y-104018114D01*
X116172970Y-104032702D01*
X116177774Y-104048537D01*
X116180000Y-104071140D01*
X116180000Y-104528860D01*
X116177774Y-104551463D01*
X116172970Y-104567298D01*
X116165173Y-104581886D01*
X116154676Y-104594676D01*
X116141886Y-104605173D01*
X116127298Y-104612970D01*
X116111463Y-104617774D01*
X116088860Y-104620000D01*
X115681140Y-104620000D01*
X115658537Y-104617774D01*
X115642702Y-104612970D01*
X115628114Y-104605173D01*
X115615324Y-104594676D01*
X115604827Y-104581886D01*
X115597030Y-104567298D01*
X115592226Y-104551463D01*
X115590000Y-104528860D01*
X115590000Y-104071140D01*
X115592226Y-104048537D01*
X115597030Y-104032702D01*
X115604827Y-104018114D01*
X115615324Y-104005324D01*
X115628114Y-103994827D01*
X115642702Y-103987030D01*
X115658537Y-103982226D01*
X115681140Y-103980000D01*
X116088860Y-103980000D01*
X116111463Y-103982226D01*
X116111463Y-103982226D01*
G37*
G36*
X115141463Y-103982226D02*
X115157298Y-103987030D01*
X115171886Y-103994827D01*
X115184676Y-104005324D01*
X115195173Y-104018114D01*
X115202970Y-104032702D01*
X115207774Y-104048537D01*
X115210000Y-104071140D01*
X115210000Y-104528860D01*
X115207774Y-104551463D01*
X115202970Y-104567298D01*
X115195173Y-104581886D01*
X115184676Y-104594676D01*
X115171886Y-104605173D01*
X115157298Y-104612970D01*
X115141463Y-104617774D01*
X115118860Y-104620000D01*
X114711140Y-104620000D01*
X114688537Y-104617774D01*
X114672702Y-104612970D01*
X114658114Y-104605173D01*
X114645324Y-104594676D01*
X114634827Y-104581886D01*
X114627030Y-104567298D01*
X114622226Y-104551463D01*
X114620000Y-104528860D01*
X114620000Y-104071140D01*
X114622226Y-104048537D01*
X114627030Y-104032702D01*
X114634827Y-104018114D01*
X114645324Y-104005324D01*
X114658114Y-103994827D01*
X114672702Y-103987030D01*
X114688537Y-103982226D01*
X114711140Y-103980000D01*
X115118860Y-103980000D01*
X115141463Y-103982226D01*
X115141463Y-103982226D01*
G37*
G36*
X104651463Y-103407226D02*
X104667298Y-103412030D01*
X104681886Y-103419827D01*
X104694676Y-103430324D01*
X104705173Y-103443114D01*
X104712970Y-103457702D01*
X104717774Y-103473537D01*
X104720000Y-103496140D01*
X104720000Y-103903860D01*
X104717774Y-103926463D01*
X104712970Y-103942298D01*
X104705173Y-103956886D01*
X104694676Y-103969676D01*
X104681886Y-103980173D01*
X104667298Y-103987970D01*
X104651463Y-103992774D01*
X104628860Y-103995000D01*
X104171140Y-103995000D01*
X104148537Y-103992774D01*
X104132702Y-103987970D01*
X104118114Y-103980173D01*
X104105324Y-103969676D01*
X104094827Y-103956886D01*
X104087030Y-103942298D01*
X104082226Y-103926463D01*
X104080000Y-103903860D01*
X104080000Y-103496140D01*
X104082226Y-103473537D01*
X104087030Y-103457702D01*
X104094827Y-103443114D01*
X104105324Y-103430324D01*
X104118114Y-103419827D01*
X104132702Y-103412030D01*
X104148537Y-103407226D01*
X104171140Y-103405000D01*
X104628860Y-103405000D01*
X104651463Y-103407226D01*
X104651463Y-103407226D01*
G37*
G36*
X101550000Y-103750000D02*
X100750000Y-103750000D01*
X100750000Y-102850000D01*
X101550000Y-102850000D01*
X101550000Y-103750000D01*
X101550000Y-103750000D01*
G37*
G36*
X103450000Y-103750000D02*
X102650000Y-103750000D01*
X102650000Y-102850000D01*
X103450000Y-102850000D01*
X103450000Y-103750000D01*
X103450000Y-103750000D01*
G37*
G36*
X117551377Y-102553363D02*
X117602091Y-102563450D01*
X117665787Y-102589834D01*
X117723112Y-102628137D01*
X117771863Y-102676888D01*
X117810166Y-102734213D01*
X117836550Y-102797909D01*
X117850000Y-102865528D01*
X117850000Y-102934472D01*
X117836550Y-103002091D01*
X117810166Y-103065787D01*
X117771863Y-103123112D01*
X117723112Y-103171863D01*
X117665787Y-103210166D01*
X117602091Y-103236550D01*
X117559609Y-103245000D01*
X117534473Y-103250000D01*
X117465527Y-103250000D01*
X117440391Y-103245000D01*
X117397909Y-103236550D01*
X117334213Y-103210166D01*
X117276888Y-103171863D01*
X117228137Y-103123112D01*
X117189834Y-103065787D01*
X117163450Y-103002091D01*
X117150000Y-102934472D01*
X117150000Y-102865528D01*
X117163450Y-102797909D01*
X117189834Y-102734213D01*
X117228137Y-102676888D01*
X117276888Y-102628137D01*
X117334213Y-102589834D01*
X117397909Y-102563450D01*
X117448623Y-102553363D01*
X117465527Y-102550000D01*
X117534473Y-102550000D01*
X117551377Y-102553363D01*
X117551377Y-102553363D01*
G37*
G36*
X120000000Y-103245000D02*
X118600000Y-103245000D01*
X118600000Y-102195000D01*
X120000000Y-102195000D01*
X120000000Y-103245000D01*
X120000000Y-103245000D01*
G37*
G36*
X116400000Y-103245000D02*
X115000000Y-103245000D01*
X115000000Y-102195000D01*
X116400000Y-102195000D01*
X116400000Y-103245000D01*
X116400000Y-103245000D01*
G37*
G36*
X134850000Y-102950000D02*
X133150000Y-102950000D01*
X133150000Y-101250000D01*
X134850000Y-101250000D01*
X134850000Y-102950000D01*
X134850000Y-102950000D01*
G37*
G36*
X131626630Y-101262299D02*
X131786855Y-101310903D01*
X131934520Y-101389831D01*
X132063949Y-101496051D01*
X132170169Y-101625480D01*
X132249097Y-101773145D01*
X132297701Y-101933370D01*
X132314112Y-102100000D01*
X132297701Y-102266630D01*
X132249097Y-102426855D01*
X132170169Y-102574520D01*
X132063949Y-102703949D01*
X131934520Y-102810169D01*
X131786855Y-102889097D01*
X131626630Y-102937701D01*
X131501752Y-102950000D01*
X131418248Y-102950000D01*
X131293370Y-102937701D01*
X131133145Y-102889097D01*
X130985480Y-102810169D01*
X130856051Y-102703949D01*
X130749831Y-102574520D01*
X130670903Y-102426855D01*
X130622299Y-102266630D01*
X130605888Y-102100000D01*
X130622299Y-101933370D01*
X130670903Y-101773145D01*
X130749831Y-101625480D01*
X130856051Y-101496051D01*
X130985480Y-101389831D01*
X131133145Y-101310903D01*
X131293370Y-101262299D01*
X131418248Y-101250000D01*
X131501752Y-101250000D01*
X131626630Y-101262299D01*
X131626630Y-101262299D01*
G37*
G36*
X129086630Y-101262299D02*
X129246855Y-101310903D01*
X129394520Y-101389831D01*
X129523949Y-101496051D01*
X129630169Y-101625480D01*
X129709097Y-101773145D01*
X129757701Y-101933370D01*
X129774112Y-102100000D01*
X129757701Y-102266630D01*
X129709097Y-102426855D01*
X129630169Y-102574520D01*
X129523949Y-102703949D01*
X129394520Y-102810169D01*
X129246855Y-102889097D01*
X129086630Y-102937701D01*
X128961752Y-102950000D01*
X128878248Y-102950000D01*
X128753370Y-102937701D01*
X128593145Y-102889097D01*
X128445480Y-102810169D01*
X128316051Y-102703949D01*
X128209831Y-102574520D01*
X128130903Y-102426855D01*
X128082299Y-102266630D01*
X128065888Y-102100000D01*
X128082299Y-101933370D01*
X128130903Y-101773145D01*
X128209831Y-101625480D01*
X128316051Y-101496051D01*
X128445480Y-101389831D01*
X128593145Y-101310903D01*
X128753370Y-101262299D01*
X128878248Y-101250000D01*
X128961752Y-101250000D01*
X129086630Y-101262299D01*
X129086630Y-101262299D01*
G37*
G36*
X126546630Y-101262299D02*
X126706855Y-101310903D01*
X126854520Y-101389831D01*
X126983949Y-101496051D01*
X127090169Y-101625480D01*
X127169097Y-101773145D01*
X127217701Y-101933370D01*
X127234112Y-102100000D01*
X127217701Y-102266630D01*
X127169097Y-102426855D01*
X127090169Y-102574520D01*
X126983949Y-102703949D01*
X126854520Y-102810169D01*
X126706855Y-102889097D01*
X126546630Y-102937701D01*
X126421752Y-102950000D01*
X126338248Y-102950000D01*
X126213370Y-102937701D01*
X126053145Y-102889097D01*
X125905480Y-102810169D01*
X125776051Y-102703949D01*
X125669831Y-102574520D01*
X125590903Y-102426855D01*
X125542299Y-102266630D01*
X125525888Y-102100000D01*
X125542299Y-101933370D01*
X125590903Y-101773145D01*
X125669831Y-101625480D01*
X125776051Y-101496051D01*
X125905480Y-101389831D01*
X126053145Y-101310903D01*
X126213370Y-101262299D01*
X126338248Y-101250000D01*
X126421752Y-101250000D01*
X126546630Y-101262299D01*
X126546630Y-101262299D01*
G37*
G36*
X124006630Y-101262299D02*
X124166855Y-101310903D01*
X124314520Y-101389831D01*
X124443949Y-101496051D01*
X124550169Y-101625480D01*
X124629097Y-101773145D01*
X124677701Y-101933370D01*
X124694112Y-102100000D01*
X124677701Y-102266630D01*
X124629097Y-102426855D01*
X124550169Y-102574520D01*
X124443949Y-102703949D01*
X124314520Y-102810169D01*
X124166855Y-102889097D01*
X124006630Y-102937701D01*
X123881752Y-102950000D01*
X123798248Y-102950000D01*
X123673370Y-102937701D01*
X123513145Y-102889097D01*
X123365480Y-102810169D01*
X123236051Y-102703949D01*
X123129831Y-102574520D01*
X123050903Y-102426855D01*
X123002299Y-102266630D01*
X122985888Y-102100000D01*
X123002299Y-101933370D01*
X123050903Y-101773145D01*
X123129831Y-101625480D01*
X123236051Y-101496051D01*
X123365480Y-101389831D01*
X123513145Y-101310903D01*
X123673370Y-101262299D01*
X123798248Y-101250000D01*
X123881752Y-101250000D01*
X124006630Y-101262299D01*
X124006630Y-101262299D01*
G37*
G36*
X116400000Y-101805000D02*
X115000000Y-101805000D01*
X115000000Y-100755000D01*
X116400000Y-100755000D01*
X116400000Y-101805000D01*
X116400000Y-101805000D01*
G37*
G36*
X120000000Y-101805000D02*
X118600000Y-101805000D01*
X118600000Y-100755000D01*
X120000000Y-100755000D01*
X120000000Y-101805000D01*
X120000000Y-101805000D01*
G37*
G36*
X117551377Y-100753363D02*
X117602091Y-100763450D01*
X117665787Y-100789834D01*
X117723112Y-100828137D01*
X117771863Y-100876888D01*
X117810166Y-100934213D01*
X117836550Y-100997909D01*
X117850000Y-101065528D01*
X117850000Y-101134472D01*
X117836550Y-101202091D01*
X117810166Y-101265787D01*
X117771863Y-101323112D01*
X117723112Y-101371863D01*
X117665787Y-101410166D01*
X117602091Y-101436550D01*
X117551377Y-101446637D01*
X117534473Y-101450000D01*
X117465527Y-101450000D01*
X117448623Y-101446637D01*
X117397909Y-101436550D01*
X117334213Y-101410166D01*
X117276888Y-101371863D01*
X117228137Y-101323112D01*
X117189834Y-101265787D01*
X117163450Y-101202091D01*
X117150000Y-101134472D01*
X117150000Y-101065528D01*
X117163450Y-100997909D01*
X117189834Y-100934213D01*
X117228137Y-100876888D01*
X117276888Y-100828137D01*
X117334213Y-100789834D01*
X117397909Y-100763450D01*
X117448623Y-100753363D01*
X117465527Y-100750000D01*
X117534473Y-100750000D01*
X117551377Y-100753363D01*
X117551377Y-100753363D01*
G37*
M02*
