%TF.GenerationSoftware,KiCad,Pcbnew,(6.0.0-rc1-dev-1-g01c5bdfb8)*%
%TF.CreationDate,2019-02-27T16:04:15+01:00*%
%TF.ProjectId,printer-otter,7072696E7465722D6F747465722E6B69,rev?*%
%TF.SameCoordinates,Original*%
%TF.FileFunction,Legend,Top*%
%TF.FilePolarity,Positive*%
%FSLAX46Y46*%
G04 Gerber Fmt 4.6, Leading zero omitted, Abs format (unit mm)*
G04 Created by KiCad (PCBNEW (6.0.0-rc1-dev-1-g01c5bdfb8)) date Wed Feb 27 16:04:15 2019*
%MOMM*%
%LPD*%
G01*
G04 APERTURE LIST*
%ADD10C,0.100000*%
%ADD11C,0.250000*%
%ADD12C,0.150000*%
%ADD13C,0.120000*%
G04 APERTURE END LIST*
D10*
X128061904Y-111021428D02*
X127261904Y-111021428D01*
X127261904Y-110830952D01*
X127300000Y-110716666D01*
X127376190Y-110640476D01*
X127452380Y-110602380D01*
X127604761Y-110564285D01*
X127719047Y-110564285D01*
X127871428Y-110602380D01*
X127947619Y-110640476D01*
X128023809Y-110716666D01*
X128061904Y-110830952D01*
X128061904Y-111021428D01*
X127642857Y-109954761D02*
X127642857Y-110221428D01*
X128061904Y-110221428D02*
X127261904Y-110221428D01*
X127261904Y-109840476D01*
X127261904Y-109535714D02*
X127909523Y-109535714D01*
X127985714Y-109497619D01*
X128023809Y-109459523D01*
X128061904Y-109383333D01*
X128061904Y-109230952D01*
X128023809Y-109154761D01*
X127985714Y-109116666D01*
X127909523Y-109078571D01*
X127261904Y-109078571D01*
X106638095Y-104280952D02*
X106600000Y-104242857D01*
X106523809Y-104204761D01*
X106447619Y-104204761D01*
X106371428Y-104242857D01*
X106333333Y-104280952D01*
X106295238Y-104357142D01*
X106295238Y-104433333D01*
X106333333Y-104509523D01*
X106371428Y-104547619D01*
X106447619Y-104585714D01*
X106523809Y-104585714D01*
X106600000Y-104547619D01*
X106638095Y-104509523D01*
X106638095Y-104204761D02*
X106638095Y-104509523D01*
X106676190Y-104547619D01*
X106714285Y-104547619D01*
X106790476Y-104509523D01*
X106828571Y-104433333D01*
X106828571Y-104242857D01*
X106752380Y-104128571D01*
X106638095Y-104052380D01*
X106485714Y-104014285D01*
X106333333Y-104052380D01*
X106219047Y-104128571D01*
X106142857Y-104242857D01*
X106104761Y-104395238D01*
X106142857Y-104547619D01*
X106219047Y-104661904D01*
X106333333Y-104738095D01*
X106485714Y-104776190D01*
X106638095Y-104738095D01*
X106752380Y-104661904D01*
X107400000Y-103861904D02*
X107400000Y-104433333D01*
X107361904Y-104547619D01*
X107285714Y-104623809D01*
X107171428Y-104661904D01*
X107095238Y-104661904D01*
X108123809Y-104661904D02*
X108123809Y-104242857D01*
X108085714Y-104166666D01*
X108009523Y-104128571D01*
X107857142Y-104128571D01*
X107780952Y-104166666D01*
X108123809Y-104623809D02*
X108047619Y-104661904D01*
X107857142Y-104661904D01*
X107780952Y-104623809D01*
X107742857Y-104547619D01*
X107742857Y-104471428D01*
X107780952Y-104395238D01*
X107857142Y-104357142D01*
X108047619Y-104357142D01*
X108123809Y-104319047D01*
X108504761Y-104128571D02*
X108504761Y-104661904D01*
X108504761Y-104204761D02*
X108542857Y-104166666D01*
X108619047Y-104128571D01*
X108733333Y-104128571D01*
X108809523Y-104166666D01*
X108847619Y-104242857D01*
X108847619Y-104661904D01*
X109228571Y-104661904D02*
X109228571Y-103861904D01*
X109228571Y-104242857D02*
X109685714Y-104242857D01*
X109685714Y-104661904D02*
X109685714Y-103861904D01*
X110371428Y-104623809D02*
X110295238Y-104661904D01*
X110142857Y-104661904D01*
X110066666Y-104623809D01*
X110028571Y-104547619D01*
X110028571Y-104242857D01*
X110066666Y-104166666D01*
X110142857Y-104128571D01*
X110295238Y-104128571D01*
X110371428Y-104166666D01*
X110409523Y-104242857D01*
X110409523Y-104319047D01*
X110028571Y-104395238D01*
X110752380Y-104128571D02*
X110752380Y-104661904D01*
X110752380Y-104204761D02*
X110790476Y-104166666D01*
X110866666Y-104128571D01*
X110980952Y-104128571D01*
X111057142Y-104166666D01*
X111095238Y-104242857D01*
X111095238Y-104661904D01*
X111476190Y-104661904D02*
X111476190Y-104128571D01*
X111476190Y-104280952D02*
X111514285Y-104204761D01*
X111552380Y-104166666D01*
X111628571Y-104128571D01*
X111704761Y-104128571D01*
X111971428Y-104661904D02*
X111971428Y-104128571D01*
X111971428Y-103861904D02*
X111933333Y-103900000D01*
X111971428Y-103938095D01*
X112009523Y-103900000D01*
X111971428Y-103861904D01*
X111971428Y-103938095D01*
X112352380Y-104661904D02*
X112352380Y-103861904D01*
X112428571Y-104357142D02*
X112657142Y-104661904D01*
X112657142Y-104128571D02*
X112352380Y-104433333D01*
X113000000Y-104661904D02*
X113000000Y-103861904D01*
X113000000Y-104242857D02*
X113457142Y-104242857D01*
X113457142Y-104661904D02*
X113457142Y-103861904D01*
X105325476Y-103361904D02*
X105325476Y-102561904D01*
X105592142Y-102828571D02*
X105896904Y-102828571D01*
X105706428Y-102561904D02*
X105706428Y-103247619D01*
X105744523Y-103323809D01*
X105820714Y-103361904D01*
X105896904Y-103361904D01*
X106773095Y-102828571D02*
X106773095Y-103628571D01*
X106773095Y-102866666D02*
X106849285Y-102828571D01*
X107001666Y-102828571D01*
X107077857Y-102866666D01*
X107115952Y-102904761D01*
X107154047Y-102980952D01*
X107154047Y-103209523D01*
X107115952Y-103285714D01*
X107077857Y-103323809D01*
X107001666Y-103361904D01*
X106849285Y-103361904D01*
X106773095Y-103323809D01*
X107496904Y-103361904D02*
X107496904Y-102828571D01*
X107496904Y-102980952D02*
X107535000Y-102904761D01*
X107573095Y-102866666D01*
X107649285Y-102828571D01*
X107725476Y-102828571D01*
X107992142Y-103361904D02*
X107992142Y-102828571D01*
X107992142Y-102561904D02*
X107954047Y-102600000D01*
X107992142Y-102638095D01*
X108030238Y-102600000D01*
X107992142Y-102561904D01*
X107992142Y-102638095D01*
X108373095Y-102828571D02*
X108373095Y-103361904D01*
X108373095Y-102904761D02*
X108411190Y-102866666D01*
X108487380Y-102828571D01*
X108601666Y-102828571D01*
X108677857Y-102866666D01*
X108715952Y-102942857D01*
X108715952Y-103361904D01*
X108982619Y-102828571D02*
X109287380Y-102828571D01*
X109096904Y-102561904D02*
X109096904Y-103247619D01*
X109135000Y-103323809D01*
X109211190Y-103361904D01*
X109287380Y-103361904D01*
X109515952Y-103323809D02*
X109592142Y-103361904D01*
X109744523Y-103361904D01*
X109820714Y-103323809D01*
X109858809Y-103247619D01*
X109858809Y-103209523D01*
X109820714Y-103133333D01*
X109744523Y-103095238D01*
X109630238Y-103095238D01*
X109554047Y-103057142D01*
X109515952Y-102980952D01*
X109515952Y-102942857D01*
X109554047Y-102866666D01*
X109630238Y-102828571D01*
X109744523Y-102828571D01*
X109820714Y-102866666D01*
X110963571Y-102561904D02*
X111115952Y-102561904D01*
X111192142Y-102600000D01*
X111268333Y-102676190D01*
X111306428Y-102828571D01*
X111306428Y-103095238D01*
X111268333Y-103247619D01*
X111192142Y-103323809D01*
X111115952Y-103361904D01*
X110963571Y-103361904D01*
X110887380Y-103323809D01*
X110811190Y-103247619D01*
X110773095Y-103095238D01*
X110773095Y-102828571D01*
X110811190Y-102676190D01*
X110887380Y-102600000D01*
X110963571Y-102561904D01*
X111535000Y-102828571D02*
X111839761Y-102828571D01*
X111649285Y-102561904D02*
X111649285Y-103247619D01*
X111687380Y-103323809D01*
X111763571Y-103361904D01*
X111839761Y-103361904D01*
X111992142Y-102828571D02*
X112296904Y-102828571D01*
X112106428Y-102561904D02*
X112106428Y-103247619D01*
X112144523Y-103323809D01*
X112220714Y-103361904D01*
X112296904Y-103361904D01*
X112868333Y-103323809D02*
X112792142Y-103361904D01*
X112639761Y-103361904D01*
X112563571Y-103323809D01*
X112525476Y-103247619D01*
X112525476Y-102942857D01*
X112563571Y-102866666D01*
X112639761Y-102828571D01*
X112792142Y-102828571D01*
X112868333Y-102866666D01*
X112906428Y-102942857D01*
X112906428Y-103019047D01*
X112525476Y-103095238D01*
X113249285Y-103361904D02*
X113249285Y-102828571D01*
X113249285Y-102980952D02*
X113287380Y-102904761D01*
X113325476Y-102866666D01*
X113401666Y-102828571D01*
X113477857Y-102828571D01*
X113744523Y-103285714D02*
X113782619Y-103323809D01*
X113744523Y-103361904D01*
X113706428Y-103323809D01*
X113744523Y-103285714D01*
X113744523Y-103361904D01*
X113744523Y-103057142D02*
X113706428Y-102600000D01*
X113744523Y-102561904D01*
X113782619Y-102600000D01*
X113744523Y-103057142D01*
X113744523Y-102561904D01*
D11*
X101033333Y-100583333D02*
X101300000Y-100583333D01*
X101433333Y-100650000D01*
X101566666Y-100783333D01*
X101633333Y-101050000D01*
X101633333Y-101516666D01*
X101566666Y-101783333D01*
X101433333Y-101916666D01*
X101300000Y-101983333D01*
X101033333Y-101983333D01*
X100900000Y-101916666D01*
X100766666Y-101783333D01*
X100700000Y-101516666D01*
X100700000Y-101050000D01*
X100766666Y-100783333D01*
X100900000Y-100650000D01*
X101033333Y-100583333D01*
X102033333Y-101050000D02*
X102566666Y-101050000D01*
X102233333Y-100583333D02*
X102233333Y-101783333D01*
X102300000Y-101916666D01*
X102433333Y-101983333D01*
X102566666Y-101983333D01*
X102833333Y-101050000D02*
X103366666Y-101050000D01*
X103033333Y-100583333D02*
X103033333Y-101783333D01*
X103100000Y-101916666D01*
X103233333Y-101983333D01*
X103366666Y-101983333D01*
X104366666Y-101916666D02*
X104233333Y-101983333D01*
X103966666Y-101983333D01*
X103833333Y-101916666D01*
X103766666Y-101783333D01*
X103766666Y-101250000D01*
X103833333Y-101116666D01*
X103966666Y-101050000D01*
X104233333Y-101050000D01*
X104366666Y-101116666D01*
X104433333Y-101250000D01*
X104433333Y-101383333D01*
X103766666Y-101516666D01*
X105033333Y-101983333D02*
X105033333Y-101050000D01*
X105033333Y-101316666D02*
X105100000Y-101183333D01*
X105166666Y-101116666D01*
X105300000Y-101050000D01*
X105433333Y-101050000D01*
X105900000Y-101450000D02*
X106966666Y-101450000D01*
X107633333Y-101983333D02*
X107633333Y-100583333D01*
X108166666Y-100583333D01*
X108300000Y-100650000D01*
X108366666Y-100716666D01*
X108433333Y-100850000D01*
X108433333Y-101050000D01*
X108366666Y-101183333D01*
X108300000Y-101250000D01*
X108166666Y-101316666D01*
X107633333Y-101316666D01*
X109033333Y-101983333D02*
X109033333Y-101050000D01*
X109033333Y-101316666D02*
X109100000Y-101183333D01*
X109166666Y-101116666D01*
X109300000Y-101050000D01*
X109433333Y-101050000D01*
X109900000Y-101983333D02*
X109900000Y-101050000D01*
X109900000Y-100583333D02*
X109833333Y-100650000D01*
X109900000Y-100716666D01*
X109966666Y-100650000D01*
X109900000Y-100583333D01*
X109900000Y-100716666D01*
X110566666Y-101050000D02*
X110566666Y-101983333D01*
X110566666Y-101183333D02*
X110633333Y-101116666D01*
X110766666Y-101050000D01*
X110966666Y-101050000D01*
X111100000Y-101116666D01*
X111166666Y-101250000D01*
X111166666Y-101983333D01*
X111633333Y-101050000D02*
X112166666Y-101050000D01*
X111833333Y-100583333D02*
X111833333Y-101783333D01*
X111900000Y-101916666D01*
X112033333Y-101983333D01*
X112166666Y-101983333D01*
X113166666Y-101916666D02*
X113033333Y-101983333D01*
X112766666Y-101983333D01*
X112633333Y-101916666D01*
X112566666Y-101783333D01*
X112566666Y-101250000D01*
X112633333Y-101116666D01*
X112766666Y-101050000D01*
X113033333Y-101050000D01*
X113166666Y-101116666D01*
X113233333Y-101250000D01*
X113233333Y-101383333D01*
X112566666Y-101516666D01*
X113833333Y-101983333D02*
X113833333Y-101050000D01*
X113833333Y-101316666D02*
X113900000Y-101183333D01*
X113966666Y-101116666D01*
X114100000Y-101050000D01*
X114233333Y-101050000D01*
D10*
X120152380Y-124676190D02*
X119152380Y-124676190D01*
X119152380Y-124295238D01*
X119200000Y-124200000D01*
X119247619Y-124152380D01*
X119342857Y-124104761D01*
X119485714Y-124104761D01*
X119580952Y-124152380D01*
X119628571Y-124200000D01*
X119676190Y-124295238D01*
X119676190Y-124676190D01*
X120152380Y-123533333D02*
X120104761Y-123628571D01*
X120057142Y-123676190D01*
X119961904Y-123723809D01*
X119676190Y-123723809D01*
X119580952Y-123676190D01*
X119533333Y-123628571D01*
X119485714Y-123533333D01*
X119485714Y-123390476D01*
X119533333Y-123295238D01*
X119580952Y-123247619D01*
X119676190Y-123200000D01*
X119961904Y-123200000D01*
X120057142Y-123247619D01*
X120104761Y-123295238D01*
X120152380Y-123390476D01*
X120152380Y-123533333D01*
X119485714Y-122866666D02*
X120152380Y-122676190D01*
X119676190Y-122485714D01*
X120152380Y-122295238D01*
X119485714Y-122104761D01*
X120104761Y-121342857D02*
X120152380Y-121438095D01*
X120152380Y-121628571D01*
X120104761Y-121723809D01*
X120009523Y-121771428D01*
X119628571Y-121771428D01*
X119533333Y-121723809D01*
X119485714Y-121628571D01*
X119485714Y-121438095D01*
X119533333Y-121342857D01*
X119628571Y-121295238D01*
X119723809Y-121295238D01*
X119819047Y-121771428D01*
X120152380Y-120866666D02*
X119485714Y-120866666D01*
X119676190Y-120866666D02*
X119580952Y-120819047D01*
X119533333Y-120771428D01*
X119485714Y-120676190D01*
X119485714Y-120580952D01*
X118404761Y-124766666D02*
X118452380Y-124623809D01*
X118452380Y-124385714D01*
X118404761Y-124290476D01*
X118357142Y-124242857D01*
X118261904Y-124195238D01*
X118166666Y-124195238D01*
X118071428Y-124242857D01*
X118023809Y-124290476D01*
X117976190Y-124385714D01*
X117928571Y-124576190D01*
X117880952Y-124671428D01*
X117833333Y-124719047D01*
X117738095Y-124766666D01*
X117642857Y-124766666D01*
X117547619Y-124719047D01*
X117500000Y-124671428D01*
X117452380Y-124576190D01*
X117452380Y-124338095D01*
X117500000Y-124195238D01*
X117785714Y-123909523D02*
X117785714Y-123528571D01*
X117452380Y-123766666D02*
X118309523Y-123766666D01*
X118404761Y-123719047D01*
X118452380Y-123623809D01*
X118452380Y-123528571D01*
X118452380Y-122766666D02*
X117928571Y-122766666D01*
X117833333Y-122814285D01*
X117785714Y-122909523D01*
X117785714Y-123100000D01*
X117833333Y-123195238D01*
X118404761Y-122766666D02*
X118452380Y-122861904D01*
X118452380Y-123100000D01*
X118404761Y-123195238D01*
X118309523Y-123242857D01*
X118214285Y-123242857D01*
X118119047Y-123195238D01*
X118071428Y-123100000D01*
X118071428Y-122861904D01*
X118023809Y-122766666D01*
X117785714Y-122433333D02*
X117785714Y-122052380D01*
X117452380Y-122290476D02*
X118309523Y-122290476D01*
X118404761Y-122242857D01*
X118452380Y-122147619D01*
X118452380Y-122052380D01*
X117785714Y-121290476D02*
X118452380Y-121290476D01*
X117785714Y-121719047D02*
X118309523Y-121719047D01*
X118404761Y-121671428D01*
X118452380Y-121576190D01*
X118452380Y-121433333D01*
X118404761Y-121338095D01*
X118357142Y-121290476D01*
X118404761Y-120861904D02*
X118452380Y-120766666D01*
X118452380Y-120576190D01*
X118404761Y-120480952D01*
X118309523Y-120433333D01*
X118261904Y-120433333D01*
X118166666Y-120480952D01*
X118119047Y-120576190D01*
X118119047Y-120719047D01*
X118071428Y-120814285D01*
X117976190Y-120861904D01*
X117928571Y-120861904D01*
X117833333Y-120814285D01*
X117785714Y-120719047D01*
X117785714Y-120576190D01*
X117833333Y-120480952D01*
X100000000Y-100500000D02*
G75*
G02X100500000Y-100000000I500000J0D01*
G01*
X100500000Y-132000000D02*
G75*
G02X100000000Y-131500000I0J500000D01*
G01*
X136000000Y-131500000D02*
G75*
G02X135500000Y-132000000I-500000J0D01*
G01*
X135500000Y-100000000D02*
G75*
G02X136000000Y-100500000I0J-500000D01*
G01*
X135500000Y-100000000D02*
X118500000Y-100000000D01*
X136000000Y-131500000D02*
X136000000Y-100500000D01*
X100500000Y-132000000D02*
X135500000Y-132000000D01*
X100000000Y-100500000D02*
X100000000Y-131500000D01*
X104500000Y-100000000D02*
X100500000Y-100000000D01*
X107000000Y-100000000D02*
X104500000Y-100000000D01*
X110000000Y-100000000D02*
X112500000Y-100000000D01*
X113000000Y-100000000D02*
X112500000Y-100000000D01*
X116500000Y-100000000D02*
X116000000Y-100000000D01*
X110000000Y-100000000D02*
X107000000Y-100000000D01*
X116000000Y-100000000D02*
X113000000Y-100000000D01*
X118499999Y-99999999D02*
G75*
G02X116500000Y-100000000I-1000000J1499998D01*
G01*
D12*
X106450000Y-124075000D02*
X106450000Y-125450000D01*
X116575000Y-124075000D02*
X116575000Y-119925000D01*
X106425000Y-124075000D02*
X106425000Y-119925000D01*
X116575000Y-124075000D02*
X116470000Y-124075000D01*
X116575000Y-119925000D02*
X116470000Y-119925000D01*
X106425000Y-119925000D02*
X106530000Y-119925000D01*
X106425000Y-124075000D02*
X106450000Y-124075000D01*
X116575000Y-107425000D02*
X116550000Y-107425000D01*
X116575000Y-111575000D02*
X116470000Y-111575000D01*
X106425000Y-111575000D02*
X106530000Y-111575000D01*
X106425000Y-107425000D02*
X106530000Y-107425000D01*
X116575000Y-107425000D02*
X116575000Y-111575000D01*
X106425000Y-107425000D02*
X106425000Y-111575000D01*
X116550000Y-107425000D02*
X116550000Y-106050000D01*
D13*
X100520000Y-105060000D02*
X100520000Y-103600000D01*
X103680000Y-105060000D02*
X103680000Y-102900000D01*
X103680000Y-105060000D02*
X102750000Y-105060000D01*
X100520000Y-105060000D02*
X101450000Y-105060000D01*
X124800000Y-108950000D02*
X124800000Y-105050000D01*
X126800000Y-108950000D02*
X126800000Y-105050000D01*
X124800000Y-108950000D02*
X126800000Y-108950000D01*
D12*
X127750000Y-118750000D02*
X127750000Y-118250000D01*
X127750000Y-127250000D02*
X127750000Y-126750000D01*
X130250000Y-127250000D02*
X132250000Y-127250000D01*
X132250000Y-118250000D02*
X130250000Y-118250000D01*
X134250000Y-118250000D02*
X135945000Y-118250000D01*
X135945000Y-127250000D02*
X134250000Y-127250000D01*
X135945000Y-118250000D02*
X135945000Y-127250000D01*
D13*
X135330000Y-100770000D02*
X135330000Y-102100000D01*
X134000000Y-100770000D02*
X135330000Y-100770000D01*
X132730000Y-100770000D02*
X132730000Y-103430000D01*
X132730000Y-103430000D02*
X122510000Y-103430000D01*
X132730000Y-100770000D02*
X122510000Y-100770000D01*
X122510000Y-100770000D02*
X122510000Y-103430000D01*
X132580000Y-128670000D02*
X132580000Y-130000000D01*
X131250000Y-128670000D02*
X132580000Y-128670000D01*
X129980000Y-128670000D02*
X129980000Y-131330000D01*
X129980000Y-131330000D02*
X119760000Y-131330000D01*
X129980000Y-128670000D02*
X119760000Y-128670000D01*
X119760000Y-128670000D02*
X119760000Y-131330000D01*
X104420000Y-131230000D02*
X104420000Y-129900000D01*
X105750000Y-131230000D02*
X104420000Y-131230000D01*
X107020000Y-131230000D02*
X107020000Y-128570000D01*
X107020000Y-128570000D02*
X117240000Y-128570000D01*
X107020000Y-131230000D02*
X117240000Y-131230000D01*
X117240000Y-131230000D02*
X117240000Y-128570000D01*
X115750000Y-100450000D02*
X119250000Y-100450000D01*
X119250000Y-103550000D02*
X115750000Y-103550000D01*
X118450000Y-99800000D02*
X118450000Y-100450000D01*
X116550000Y-99800000D02*
X118450000Y-99800000D01*
X116550000Y-100450000D02*
X116550000Y-99800000D01*
X131400000Y-108600000D02*
X131400000Y-104600000D01*
X127200000Y-108600000D02*
X127200000Y-104600000D01*
X126900000Y-110300000D02*
X126900000Y-111700000D01*
X126200000Y-112400000D02*
X125600000Y-112400000D01*
X124900000Y-111700000D02*
X124900000Y-110300000D01*
X125600000Y-109600000D02*
X126200000Y-109600000D01*
X126200000Y-109600000D02*
G75*
G02X126900000Y-110300000I0J-700000D01*
G01*
X124900000Y-110300000D02*
G75*
G02X125600000Y-109600000I700000J0D01*
G01*
X125600000Y-112400000D02*
G75*
G02X124900000Y-111700000I0J700000D01*
G01*
X126900000Y-111700000D02*
G75*
G02X126200000Y-112400000I-700000J0D01*
G01*
X120419465Y-127907756D02*
X120419465Y-125622756D01*
X118949465Y-127907756D02*
X120419465Y-127907756D01*
X118949465Y-125622756D02*
X118949465Y-127907756D01*
X118719463Y-127895257D02*
X118719463Y-125610257D01*
X117249463Y-127895257D02*
X118719463Y-127895257D01*
X117249463Y-125610257D02*
X117249463Y-127895257D01*
X121335876Y-110980565D02*
X121000000Y-110644689D01*
X121000000Y-120855311D02*
X121335876Y-120519435D01*
X120664124Y-120519435D02*
X121000000Y-120855311D01*
X115894689Y-115750000D02*
X116230565Y-115414124D01*
X116230565Y-116085876D02*
X115894689Y-115750000D01*
X126105311Y-115750000D02*
X125769435Y-116085876D01*
X125769435Y-115414124D02*
X126105311Y-115750000D01*
X103680000Y-107040000D02*
X103680000Y-108500000D01*
X100520000Y-107040000D02*
X100520000Y-109200000D01*
X100520000Y-107040000D02*
X101450000Y-107040000D01*
X103680000Y-107040000D02*
X102750000Y-107040000D01*
X103680000Y-126840000D02*
X103680000Y-128300000D01*
X100520000Y-126840000D02*
X100520000Y-129000000D01*
X100520000Y-126840000D02*
X101450000Y-126840000D01*
X103680000Y-126840000D02*
X102750000Y-126840000D01*
X100520000Y-124860000D02*
X100520000Y-123400000D01*
X103680000Y-124860000D02*
X103680000Y-122700000D01*
X103680000Y-124860000D02*
X102750000Y-124860000D01*
X100520000Y-124860000D02*
X101450000Y-124860000D01*
X135110000Y-107500000D02*
X135110000Y-105050000D01*
X131890000Y-105700000D02*
X131890000Y-107500000D01*
X126024838Y-122747954D02*
X124292426Y-121015543D01*
X122475162Y-123752046D02*
X123747954Y-125024838D01*
X134300000Y-115430000D02*
X133100000Y-115430000D01*
X134300000Y-111430000D02*
X134300000Y-115430000D01*
X129500000Y-115430000D02*
X129500000Y-112730000D01*
X130700000Y-115430000D02*
X129500000Y-115430000D01*
X117500000Y-105486500D02*
X118700000Y-105486500D01*
X117500000Y-109486500D02*
X117500000Y-105486500D01*
X122300000Y-105486500D02*
X122300000Y-108186500D01*
X121100000Y-105486500D02*
X122300000Y-105486500D01*
D12*
X104300000Y-120000000D02*
X104300000Y-121500000D01*
X104300000Y-121500000D02*
X103800000Y-121500000D01*
X104300000Y-112000000D02*
X104300000Y-110500000D01*
X104300000Y-110500000D02*
X103800000Y-110500000D01*
X100800000Y-112500000D02*
X100800000Y-119500000D01*
D10*
X105780952Y-122304761D02*
X106104761Y-122304761D01*
X106142857Y-122285714D01*
X106161904Y-122266666D01*
X106180952Y-122228571D01*
X106180952Y-122152380D01*
X106161904Y-122114285D01*
X106142857Y-122095238D01*
X106104761Y-122076190D01*
X105780952Y-122076190D01*
X105780952Y-121714285D02*
X105780952Y-121790476D01*
X105800000Y-121828571D01*
X105819047Y-121847619D01*
X105876190Y-121885714D01*
X105952380Y-121904761D01*
X106104761Y-121904761D01*
X106142857Y-121885714D01*
X106161904Y-121866666D01*
X106180952Y-121828571D01*
X106180952Y-121752380D01*
X106161904Y-121714285D01*
X106142857Y-121695238D01*
X106104761Y-121676190D01*
X106009523Y-121676190D01*
X105971428Y-121695238D01*
X105952380Y-121714285D01*
X105933333Y-121752380D01*
X105933333Y-121828571D01*
X105952380Y-121866666D01*
X105971428Y-121885714D01*
X106009523Y-121904761D01*
X116780952Y-109804761D02*
X117104761Y-109804761D01*
X117142857Y-109785714D01*
X117161904Y-109766666D01*
X117180952Y-109728571D01*
X117180952Y-109652380D01*
X117161904Y-109614285D01*
X117142857Y-109595238D01*
X117104761Y-109576190D01*
X116780952Y-109576190D01*
X116780952Y-109423809D02*
X116780952Y-109157142D01*
X117180952Y-109328571D01*
X100861904Y-105669047D02*
X100823809Y-105650000D01*
X100785714Y-105611904D01*
X100728571Y-105554761D01*
X100690476Y-105535714D01*
X100652380Y-105535714D01*
X100671428Y-105630952D02*
X100633333Y-105611904D01*
X100595238Y-105573809D01*
X100576190Y-105497619D01*
X100576190Y-105364285D01*
X100595238Y-105288095D01*
X100633333Y-105250000D01*
X100671428Y-105230952D01*
X100747619Y-105230952D01*
X100785714Y-105250000D01*
X100823809Y-105288095D01*
X100842857Y-105364285D01*
X100842857Y-105497619D01*
X100823809Y-105573809D01*
X100785714Y-105611904D01*
X100747619Y-105630952D01*
X100671428Y-105630952D01*
X101223809Y-105630952D02*
X100995238Y-105630952D01*
X101109523Y-105630952D02*
X101109523Y-105230952D01*
X101071428Y-105288095D01*
X101033333Y-105326190D01*
X100995238Y-105345238D01*
X126304761Y-104230952D02*
X126304761Y-103830952D01*
X126400000Y-103830952D01*
X126457142Y-103850000D01*
X126495238Y-103888095D01*
X126514285Y-103926190D01*
X126533333Y-104002380D01*
X126533333Y-104059523D01*
X126514285Y-104135714D01*
X126495238Y-104173809D01*
X126457142Y-104211904D01*
X126400000Y-104230952D01*
X126304761Y-104230952D01*
X126685714Y-103869047D02*
X126704761Y-103850000D01*
X126742857Y-103830952D01*
X126838095Y-103830952D01*
X126876190Y-103850000D01*
X126895238Y-103869047D01*
X126914285Y-103907142D01*
X126914285Y-103945238D01*
X126895238Y-104002380D01*
X126666666Y-104230952D01*
X126914285Y-104230952D01*
X129530952Y-122883333D02*
X129816666Y-122883333D01*
X129873809Y-122902380D01*
X129911904Y-122940476D01*
X129930952Y-122997619D01*
X129930952Y-123035714D01*
X129930952Y-122483333D02*
X129930952Y-122711904D01*
X129930952Y-122597619D02*
X129530952Y-122597619D01*
X129588095Y-122635714D01*
X129626190Y-122673809D01*
X129645238Y-122711904D01*
X131816666Y-131230952D02*
X131816666Y-131516666D01*
X131797619Y-131573809D01*
X131759523Y-131611904D01*
X131702380Y-131630952D01*
X131664285Y-131630952D01*
X132178571Y-131364285D02*
X132178571Y-131630952D01*
X132083333Y-131211904D02*
X131988095Y-131497619D01*
X132235714Y-131497619D01*
X104966666Y-128280952D02*
X104966666Y-128566666D01*
X104947619Y-128623809D01*
X104909523Y-128661904D01*
X104852380Y-128680952D01*
X104814285Y-128680952D01*
X105347619Y-128280952D02*
X105157142Y-128280952D01*
X105138095Y-128471428D01*
X105157142Y-128452380D01*
X105195238Y-128433333D01*
X105290476Y-128433333D01*
X105328571Y-128452380D01*
X105347619Y-128471428D01*
X105366666Y-128509523D01*
X105366666Y-128604761D01*
X105347619Y-128642857D01*
X105328571Y-128661904D01*
X105290476Y-128680952D01*
X105195238Y-128680952D01*
X105157142Y-128661904D01*
X105138095Y-128642857D01*
X116966666Y-102211904D02*
X117023809Y-102230952D01*
X117119047Y-102230952D01*
X117157142Y-102211904D01*
X117176190Y-102192857D01*
X117195238Y-102154761D01*
X117195238Y-102116666D01*
X117176190Y-102078571D01*
X117157142Y-102059523D01*
X117119047Y-102040476D01*
X117042857Y-102021428D01*
X117004761Y-102002380D01*
X116985714Y-101983333D01*
X116966666Y-101945238D01*
X116966666Y-101907142D01*
X116985714Y-101869047D01*
X117004761Y-101850000D01*
X117042857Y-101830952D01*
X117138095Y-101830952D01*
X117195238Y-101850000D01*
X117328571Y-101830952D02*
X117423809Y-102230952D01*
X117500000Y-101945238D01*
X117576190Y-102230952D01*
X117671428Y-101830952D01*
X118033333Y-102230952D02*
X117804761Y-102230952D01*
X117919047Y-102230952D02*
X117919047Y-101830952D01*
X117880952Y-101888095D01*
X117842857Y-101926190D01*
X117804761Y-101945238D01*
X130833333Y-109792857D02*
X130814285Y-109811904D01*
X130757142Y-109830952D01*
X130719047Y-109830952D01*
X130661904Y-109811904D01*
X130623809Y-109773809D01*
X130604761Y-109735714D01*
X130585714Y-109659523D01*
X130585714Y-109602380D01*
X130604761Y-109526190D01*
X130623809Y-109488095D01*
X130661904Y-109450000D01*
X130719047Y-109430952D01*
X130757142Y-109430952D01*
X130814285Y-109450000D01*
X130833333Y-109469047D01*
X130985714Y-109469047D02*
X131004761Y-109450000D01*
X131042857Y-109430952D01*
X131138095Y-109430952D01*
X131176190Y-109450000D01*
X131195238Y-109469047D01*
X131214285Y-109507142D01*
X131214285Y-109545238D01*
X131195238Y-109602380D01*
X130966666Y-109830952D01*
X131214285Y-109830952D01*
X133068333Y-109792857D02*
X133049285Y-109811904D01*
X132992142Y-109830952D01*
X132954047Y-109830952D01*
X132896904Y-109811904D01*
X132858809Y-109773809D01*
X132839761Y-109735714D01*
X132820714Y-109659523D01*
X132820714Y-109602380D01*
X132839761Y-109526190D01*
X132858809Y-109488095D01*
X132896904Y-109450000D01*
X132954047Y-109430952D01*
X132992142Y-109430952D01*
X133049285Y-109450000D01*
X133068333Y-109469047D01*
X133449285Y-109830952D02*
X133220714Y-109830952D01*
X133335000Y-109830952D02*
X133335000Y-109430952D01*
X133296904Y-109488095D01*
X133258809Y-109526190D01*
X133220714Y-109545238D01*
X117353874Y-111748156D02*
X117353874Y-111775094D01*
X117326937Y-111828968D01*
X117300000Y-111855906D01*
X117246125Y-111882843D01*
X117192250Y-111882843D01*
X117151844Y-111869375D01*
X117084500Y-111828968D01*
X117044094Y-111788562D01*
X117003688Y-111721219D01*
X116990219Y-111680813D01*
X116990219Y-111626938D01*
X117017157Y-111573063D01*
X117044094Y-111546126D01*
X117097969Y-111519188D01*
X117124906Y-111519188D01*
X117434687Y-111344095D02*
X117623248Y-111532657D01*
X117259593Y-111303689D02*
X117394280Y-111573063D01*
X117569374Y-111397970D01*
X122183333Y-110492857D02*
X122164285Y-110511904D01*
X122107142Y-110530952D01*
X122069047Y-110530952D01*
X122011904Y-110511904D01*
X121973809Y-110473809D01*
X121954761Y-110435714D01*
X121935714Y-110359523D01*
X121935714Y-110302380D01*
X121954761Y-110226190D01*
X121973809Y-110188095D01*
X122011904Y-110150000D01*
X122069047Y-110130952D01*
X122107142Y-110130952D01*
X122164285Y-110150000D01*
X122183333Y-110169047D01*
X122545238Y-110130952D02*
X122354761Y-110130952D01*
X122335714Y-110321428D01*
X122354761Y-110302380D01*
X122392857Y-110283333D01*
X122488095Y-110283333D01*
X122526190Y-110302380D01*
X122545238Y-110321428D01*
X122564285Y-110359523D01*
X122564285Y-110454761D01*
X122545238Y-110492857D01*
X122526190Y-110511904D01*
X122488095Y-110530952D01*
X122392857Y-110530952D01*
X122354761Y-110511904D01*
X122335714Y-110492857D01*
X127433333Y-117542857D02*
X127414285Y-117561904D01*
X127357142Y-117580952D01*
X127319047Y-117580952D01*
X127261904Y-117561904D01*
X127223809Y-117523809D01*
X127204761Y-117485714D01*
X127185714Y-117409523D01*
X127185714Y-117352380D01*
X127204761Y-117276190D01*
X127223809Y-117238095D01*
X127261904Y-117200000D01*
X127319047Y-117180952D01*
X127357142Y-117180952D01*
X127414285Y-117200000D01*
X127433333Y-117219047D01*
X127776190Y-117180952D02*
X127700000Y-117180952D01*
X127661904Y-117200000D01*
X127642857Y-117219047D01*
X127604761Y-117276190D01*
X127585714Y-117352380D01*
X127585714Y-117504761D01*
X127604761Y-117542857D01*
X127623809Y-117561904D01*
X127661904Y-117580952D01*
X127738095Y-117580952D01*
X127776190Y-117561904D01*
X127795238Y-117542857D01*
X127814285Y-117504761D01*
X127814285Y-117409523D01*
X127795238Y-117371428D01*
X127776190Y-117352380D01*
X127738095Y-117333333D01*
X127661904Y-117333333D01*
X127623809Y-117352380D01*
X127604761Y-117371428D01*
X127585714Y-117409523D01*
X121742857Y-123351666D02*
X121761904Y-123370714D01*
X121780952Y-123427857D01*
X121780952Y-123465952D01*
X121761904Y-123523095D01*
X121723809Y-123561190D01*
X121685714Y-123580238D01*
X121609523Y-123599285D01*
X121552380Y-123599285D01*
X121476190Y-123580238D01*
X121438095Y-123561190D01*
X121400000Y-123523095D01*
X121380952Y-123465952D01*
X121380952Y-123427857D01*
X121400000Y-123370714D01*
X121419047Y-123351666D01*
X121380952Y-123218333D02*
X121380952Y-122951666D01*
X121780952Y-123123095D01*
X134492857Y-110042857D02*
X134473809Y-110061904D01*
X134416666Y-110080952D01*
X134378571Y-110080952D01*
X134321428Y-110061904D01*
X134283333Y-110023809D01*
X134264285Y-109985714D01*
X134245238Y-109909523D01*
X134245238Y-109852380D01*
X134264285Y-109776190D01*
X134283333Y-109738095D01*
X134321428Y-109700000D01*
X134378571Y-109680952D01*
X134416666Y-109680952D01*
X134473809Y-109700000D01*
X134492857Y-109719047D01*
X134873809Y-110080952D02*
X134645238Y-110080952D01*
X134759523Y-110080952D02*
X134759523Y-109680952D01*
X134721428Y-109738095D01*
X134683333Y-109776190D01*
X134645238Y-109795238D01*
X135254761Y-110080952D02*
X135026190Y-110080952D01*
X135140476Y-110080952D02*
X135140476Y-109680952D01*
X135102380Y-109738095D01*
X135064285Y-109776190D01*
X135026190Y-109795238D01*
X118542857Y-111242857D02*
X118523809Y-111261904D01*
X118466666Y-111280952D01*
X118428571Y-111280952D01*
X118371428Y-111261904D01*
X118333333Y-111223809D01*
X118314285Y-111185714D01*
X118295238Y-111109523D01*
X118295238Y-111052380D01*
X118314285Y-110976190D01*
X118333333Y-110938095D01*
X118371428Y-110900000D01*
X118428571Y-110880952D01*
X118466666Y-110880952D01*
X118523809Y-110900000D01*
X118542857Y-110919047D01*
X118923809Y-111280952D02*
X118695238Y-111280952D01*
X118809523Y-111280952D02*
X118809523Y-110880952D01*
X118771428Y-110938095D01*
X118733333Y-110976190D01*
X118695238Y-110995238D01*
X119152380Y-111052380D02*
X119114285Y-111033333D01*
X119095238Y-111014285D01*
X119076190Y-110976190D01*
X119076190Y-110957142D01*
X119095238Y-110919047D01*
X119114285Y-110900000D01*
X119152380Y-110880952D01*
X119228571Y-110880952D01*
X119266666Y-110900000D01*
X119285714Y-110919047D01*
X119304761Y-110957142D01*
X119304761Y-110976190D01*
X119285714Y-111014285D01*
X119266666Y-111033333D01*
X119228571Y-111052380D01*
X119152380Y-111052380D01*
X119114285Y-111071428D01*
X119095238Y-111090476D01*
X119076190Y-111128571D01*
X119076190Y-111204761D01*
X119095238Y-111242857D01*
X119114285Y-111261904D01*
X119152380Y-111280952D01*
X119228571Y-111280952D01*
X119266666Y-111261904D01*
X119285714Y-111242857D01*
X119304761Y-111204761D01*
X119304761Y-111128571D01*
X119285714Y-111090476D01*
X119266666Y-111071428D01*
X119228571Y-111052380D01*
X123592857Y-110492857D02*
X123573809Y-110511904D01*
X123516666Y-110530952D01*
X123478571Y-110530952D01*
X123421428Y-110511904D01*
X123383333Y-110473809D01*
X123364285Y-110435714D01*
X123345238Y-110359523D01*
X123345238Y-110302380D01*
X123364285Y-110226190D01*
X123383333Y-110188095D01*
X123421428Y-110150000D01*
X123478571Y-110130952D01*
X123516666Y-110130952D01*
X123573809Y-110150000D01*
X123592857Y-110169047D01*
X123973809Y-110530952D02*
X123745238Y-110530952D01*
X123859523Y-110530952D02*
X123859523Y-110130952D01*
X123821428Y-110188095D01*
X123783333Y-110226190D01*
X123745238Y-110245238D01*
X124164285Y-110530952D02*
X124240476Y-110530952D01*
X124278571Y-110511904D01*
X124297619Y-110492857D01*
X124335714Y-110435714D01*
X124354761Y-110359523D01*
X124354761Y-110207142D01*
X124335714Y-110169047D01*
X124316666Y-110150000D01*
X124278571Y-110130952D01*
X124202380Y-110130952D01*
X124164285Y-110150000D01*
X124145238Y-110169047D01*
X124126190Y-110207142D01*
X124126190Y-110302380D01*
X124145238Y-110340476D01*
X124164285Y-110359523D01*
X124202380Y-110378571D01*
X124278571Y-110378571D01*
X124316666Y-110359523D01*
X124335714Y-110340476D01*
X124354761Y-110302380D01*
X122692857Y-108042857D02*
X122673809Y-108061904D01*
X122616666Y-108080952D01*
X122578571Y-108080952D01*
X122521428Y-108061904D01*
X122483333Y-108023809D01*
X122464285Y-107985714D01*
X122445238Y-107909523D01*
X122445238Y-107852380D01*
X122464285Y-107776190D01*
X122483333Y-107738095D01*
X122521428Y-107700000D01*
X122578571Y-107680952D01*
X122616666Y-107680952D01*
X122673809Y-107700000D01*
X122692857Y-107719047D01*
X122845238Y-107719047D02*
X122864285Y-107700000D01*
X122902380Y-107680952D01*
X122997619Y-107680952D01*
X123035714Y-107700000D01*
X123054761Y-107719047D01*
X123073809Y-107757142D01*
X123073809Y-107795238D01*
X123054761Y-107852380D01*
X122826190Y-108080952D01*
X123073809Y-108080952D01*
X123321428Y-107680952D02*
X123359523Y-107680952D01*
X123397619Y-107700000D01*
X123416666Y-107719047D01*
X123435714Y-107757142D01*
X123454761Y-107833333D01*
X123454761Y-107928571D01*
X123435714Y-108004761D01*
X123416666Y-108042857D01*
X123397619Y-108061904D01*
X123359523Y-108080952D01*
X123321428Y-108080952D01*
X123283333Y-108061904D01*
X123264285Y-108042857D01*
X123245238Y-108004761D01*
X123226190Y-107928571D01*
X123226190Y-107833333D01*
X123245238Y-107757142D01*
X123264285Y-107719047D01*
X123283333Y-107700000D01*
X123321428Y-107680952D01*
X107257857Y-128142857D02*
X107238809Y-128161904D01*
X107181666Y-128180952D01*
X107143571Y-128180952D01*
X107086428Y-128161904D01*
X107048333Y-128123809D01*
X107029285Y-128085714D01*
X107010238Y-128009523D01*
X107010238Y-127952380D01*
X107029285Y-127876190D01*
X107048333Y-127838095D01*
X107086428Y-127800000D01*
X107143571Y-127780952D01*
X107181666Y-127780952D01*
X107238809Y-127800000D01*
X107257857Y-127819047D01*
X107410238Y-127819047D02*
X107429285Y-127800000D01*
X107467380Y-127780952D01*
X107562619Y-127780952D01*
X107600714Y-127800000D01*
X107619761Y-127819047D01*
X107638809Y-127857142D01*
X107638809Y-127895238D01*
X107619761Y-127952380D01*
X107391190Y-128180952D01*
X107638809Y-128180952D01*
X108019761Y-128180952D02*
X107791190Y-128180952D01*
X107905476Y-128180952D02*
X107905476Y-127780952D01*
X107867380Y-127838095D01*
X107829285Y-127876190D01*
X107791190Y-127895238D01*
X106842857Y-116407142D02*
X106861904Y-116426190D01*
X106880952Y-116483333D01*
X106880952Y-116521428D01*
X106861904Y-116578571D01*
X106823809Y-116616666D01*
X106785714Y-116635714D01*
X106709523Y-116654761D01*
X106652380Y-116654761D01*
X106576190Y-116635714D01*
X106538095Y-116616666D01*
X106500000Y-116578571D01*
X106480952Y-116521428D01*
X106480952Y-116483333D01*
X106500000Y-116426190D01*
X106519047Y-116407142D01*
X106519047Y-116254761D02*
X106500000Y-116235714D01*
X106480952Y-116197619D01*
X106480952Y-116102380D01*
X106500000Y-116064285D01*
X106519047Y-116045238D01*
X106557142Y-116026190D01*
X106595238Y-116026190D01*
X106652380Y-116045238D01*
X106880952Y-116273809D01*
X106880952Y-116026190D01*
X106519047Y-115873809D02*
X106500000Y-115854761D01*
X106480952Y-115816666D01*
X106480952Y-115721428D01*
X106500000Y-115683333D01*
X106519047Y-115664285D01*
X106557142Y-115645238D01*
X106595238Y-115645238D01*
X106652380Y-115664285D01*
X106880952Y-115892857D01*
X106880952Y-115645238D01*
X116692857Y-104442857D02*
X116673809Y-104461904D01*
X116616666Y-104480952D01*
X116578571Y-104480952D01*
X116521428Y-104461904D01*
X116483333Y-104423809D01*
X116464285Y-104385714D01*
X116445238Y-104309523D01*
X116445238Y-104252380D01*
X116464285Y-104176190D01*
X116483333Y-104138095D01*
X116521428Y-104100000D01*
X116578571Y-104080952D01*
X116616666Y-104080952D01*
X116673809Y-104100000D01*
X116692857Y-104119047D01*
X116845238Y-104119047D02*
X116864285Y-104100000D01*
X116902380Y-104080952D01*
X116997619Y-104080952D01*
X117035714Y-104100000D01*
X117054761Y-104119047D01*
X117073809Y-104157142D01*
X117073809Y-104195238D01*
X117054761Y-104252380D01*
X116826190Y-104480952D01*
X117073809Y-104480952D01*
X117207142Y-104080952D02*
X117454761Y-104080952D01*
X117321428Y-104233333D01*
X117378571Y-104233333D01*
X117416666Y-104252380D01*
X117435714Y-104271428D01*
X117454761Y-104309523D01*
X117454761Y-104404761D01*
X117435714Y-104442857D01*
X117416666Y-104461904D01*
X117378571Y-104480952D01*
X117264285Y-104480952D01*
X117226190Y-104461904D01*
X117207142Y-104442857D01*
X111842857Y-115342857D02*
X111823809Y-115361904D01*
X111766666Y-115380952D01*
X111728571Y-115380952D01*
X111671428Y-115361904D01*
X111633333Y-115323809D01*
X111614285Y-115285714D01*
X111595238Y-115209523D01*
X111595238Y-115152380D01*
X111614285Y-115076190D01*
X111633333Y-115038095D01*
X111671428Y-115000000D01*
X111728571Y-114980952D01*
X111766666Y-114980952D01*
X111823809Y-115000000D01*
X111842857Y-115019047D01*
X111995238Y-115019047D02*
X112014285Y-115000000D01*
X112052380Y-114980952D01*
X112147619Y-114980952D01*
X112185714Y-115000000D01*
X112204761Y-115019047D01*
X112223809Y-115057142D01*
X112223809Y-115095238D01*
X112204761Y-115152380D01*
X111976190Y-115380952D01*
X112223809Y-115380952D01*
X112566666Y-115114285D02*
X112566666Y-115380952D01*
X112471428Y-114961904D02*
X112376190Y-115247619D01*
X112623809Y-115247619D01*
X129233333Y-106780952D02*
X129042857Y-106780952D01*
X129042857Y-106380952D01*
X129576190Y-106780952D02*
X129347619Y-106780952D01*
X129461904Y-106780952D02*
X129461904Y-106380952D01*
X129423809Y-106438095D01*
X129385714Y-106476190D01*
X129347619Y-106495238D01*
X123845238Y-112180952D02*
X123845238Y-112504761D01*
X123864285Y-112542857D01*
X123883333Y-112561904D01*
X123921428Y-112580952D01*
X123997619Y-112580952D01*
X124035714Y-112561904D01*
X124054761Y-112542857D01*
X124073809Y-112504761D01*
X124073809Y-112180952D01*
X124245238Y-112219047D02*
X124264285Y-112200000D01*
X124302380Y-112180952D01*
X124397619Y-112180952D01*
X124435714Y-112200000D01*
X124454761Y-112219047D01*
X124473809Y-112257142D01*
X124473809Y-112295238D01*
X124454761Y-112352380D01*
X124226190Y-112580952D01*
X124473809Y-112580952D01*
X100861904Y-106869047D02*
X100823809Y-106850000D01*
X100785714Y-106811904D01*
X100728571Y-106754761D01*
X100690476Y-106735714D01*
X100652380Y-106735714D01*
X100671428Y-106830952D02*
X100633333Y-106811904D01*
X100595238Y-106773809D01*
X100576190Y-106697619D01*
X100576190Y-106564285D01*
X100595238Y-106488095D01*
X100633333Y-106450000D01*
X100671428Y-106430952D01*
X100747619Y-106430952D01*
X100785714Y-106450000D01*
X100823809Y-106488095D01*
X100842857Y-106564285D01*
X100842857Y-106697619D01*
X100823809Y-106773809D01*
X100785714Y-106811904D01*
X100747619Y-106830952D01*
X100671428Y-106830952D01*
X100995238Y-106469047D02*
X101014285Y-106450000D01*
X101052380Y-106430952D01*
X101147619Y-106430952D01*
X101185714Y-106450000D01*
X101204761Y-106469047D01*
X101223809Y-106507142D01*
X101223809Y-106545238D01*
X101204761Y-106602380D01*
X100976190Y-106830952D01*
X101223809Y-106830952D01*
X100961904Y-126619047D02*
X100923809Y-126600000D01*
X100885714Y-126561904D01*
X100828571Y-126504761D01*
X100790476Y-126485714D01*
X100752380Y-126485714D01*
X100771428Y-126580952D02*
X100733333Y-126561904D01*
X100695238Y-126523809D01*
X100676190Y-126447619D01*
X100676190Y-126314285D01*
X100695238Y-126238095D01*
X100733333Y-126200000D01*
X100771428Y-126180952D01*
X100847619Y-126180952D01*
X100885714Y-126200000D01*
X100923809Y-126238095D01*
X100942857Y-126314285D01*
X100942857Y-126447619D01*
X100923809Y-126523809D01*
X100885714Y-126561904D01*
X100847619Y-126580952D01*
X100771428Y-126580952D01*
X101076190Y-126180952D02*
X101323809Y-126180952D01*
X101190476Y-126333333D01*
X101247619Y-126333333D01*
X101285714Y-126352380D01*
X101304761Y-126371428D01*
X101323809Y-126409523D01*
X101323809Y-126504761D01*
X101304761Y-126542857D01*
X101285714Y-126561904D01*
X101247619Y-126580952D01*
X101133333Y-126580952D01*
X101095238Y-126561904D01*
X101076190Y-126542857D01*
X100911904Y-125519047D02*
X100873809Y-125500000D01*
X100835714Y-125461904D01*
X100778571Y-125404761D01*
X100740476Y-125385714D01*
X100702380Y-125385714D01*
X100721428Y-125480952D02*
X100683333Y-125461904D01*
X100645238Y-125423809D01*
X100626190Y-125347619D01*
X100626190Y-125214285D01*
X100645238Y-125138095D01*
X100683333Y-125100000D01*
X100721428Y-125080952D01*
X100797619Y-125080952D01*
X100835714Y-125100000D01*
X100873809Y-125138095D01*
X100892857Y-125214285D01*
X100892857Y-125347619D01*
X100873809Y-125423809D01*
X100835714Y-125461904D01*
X100797619Y-125480952D01*
X100721428Y-125480952D01*
X101235714Y-125214285D02*
X101235714Y-125480952D01*
X101140476Y-125061904D02*
X101045238Y-125347619D01*
X101292857Y-125347619D01*
X135280952Y-106904761D02*
X135604761Y-106904761D01*
X135642857Y-106885714D01*
X135661904Y-106866666D01*
X135680952Y-106828571D01*
X135680952Y-106752380D01*
X135661904Y-106714285D01*
X135642857Y-106695238D01*
X135604761Y-106676190D01*
X135280952Y-106676190D01*
X135680952Y-106276190D02*
X135680952Y-106504761D01*
X135680952Y-106390476D02*
X135280952Y-106390476D01*
X135338095Y-106428571D01*
X135376190Y-106466666D01*
X135395238Y-106504761D01*
X125810609Y-122120389D02*
X126039577Y-121891421D01*
X126053045Y-121851015D01*
X126053045Y-121824077D01*
X126039577Y-121783671D01*
X125985702Y-121729796D01*
X125945296Y-121716328D01*
X125918358Y-121716328D01*
X125877952Y-121729796D01*
X125648984Y-121958764D01*
X125487360Y-121608578D02*
X125675922Y-121420016D01*
X125446954Y-121783671D02*
X125716328Y-121648984D01*
X125541235Y-121473891D01*
X129695238Y-115630952D02*
X129695238Y-115954761D01*
X129714285Y-115992857D01*
X129733333Y-116011904D01*
X129771428Y-116030952D01*
X129847619Y-116030952D01*
X129885714Y-116011904D01*
X129904761Y-115992857D01*
X129923809Y-115954761D01*
X129923809Y-115630952D01*
X130076190Y-115630952D02*
X130323809Y-115630952D01*
X130190476Y-115783333D01*
X130247619Y-115783333D01*
X130285714Y-115802380D01*
X130304761Y-115821428D01*
X130323809Y-115859523D01*
X130323809Y-115954761D01*
X130304761Y-115992857D01*
X130285714Y-116011904D01*
X130247619Y-116030952D01*
X130133333Y-116030952D01*
X130095238Y-116011904D01*
X130076190Y-115992857D01*
X116730952Y-106454761D02*
X117054761Y-106454761D01*
X117092857Y-106435714D01*
X117111904Y-106416666D01*
X117130952Y-106378571D01*
X117130952Y-106302380D01*
X117111904Y-106264285D01*
X117092857Y-106245238D01*
X117054761Y-106226190D01*
X116730952Y-106226190D01*
X116730952Y-105845238D02*
X116730952Y-106035714D01*
X116921428Y-106054761D01*
X116902380Y-106035714D01*
X116883333Y-105997619D01*
X116883333Y-105902380D01*
X116902380Y-105864285D01*
X116921428Y-105845238D01*
X116959523Y-105826190D01*
X117054761Y-105826190D01*
X117092857Y-105845238D01*
X117111904Y-105864285D01*
X117130952Y-105902380D01*
X117130952Y-105997619D01*
X117111904Y-106035714D01*
X117092857Y-106054761D01*
X123180952Y-125866666D02*
X122990476Y-126000000D01*
X123180952Y-126095238D02*
X122780952Y-126095238D01*
X122780952Y-125942857D01*
X122800000Y-125904761D01*
X122819047Y-125885714D01*
X122857142Y-125866666D01*
X122914285Y-125866666D01*
X122952380Y-125885714D01*
X122971428Y-125904761D01*
X122990476Y-125942857D01*
X122990476Y-126095238D01*
X123180952Y-125676190D02*
X123180952Y-125600000D01*
X123161904Y-125561904D01*
X123142857Y-125542857D01*
X123085714Y-125504761D01*
X123009523Y-125485714D01*
X122857142Y-125485714D01*
X122819047Y-125504761D01*
X122800000Y-125523809D01*
X122780952Y-125561904D01*
X122780952Y-125638095D01*
X122800000Y-125676190D01*
X122819047Y-125695238D01*
X122857142Y-125714285D01*
X122952380Y-125714285D01*
X122990476Y-125695238D01*
X123009523Y-125676190D01*
X123028571Y-125638095D01*
X123028571Y-125561904D01*
X123009523Y-125523809D01*
X122990476Y-125504761D01*
X122952380Y-125485714D01*
X105380952Y-108551666D02*
X105190476Y-108685000D01*
X105380952Y-108780238D02*
X104980952Y-108780238D01*
X104980952Y-108627857D01*
X105000000Y-108589761D01*
X105019047Y-108570714D01*
X105057142Y-108551666D01*
X105114285Y-108551666D01*
X105152380Y-108570714D01*
X105171428Y-108589761D01*
X105190476Y-108627857D01*
X105190476Y-108780238D01*
X105152380Y-108323095D02*
X105133333Y-108361190D01*
X105114285Y-108380238D01*
X105076190Y-108399285D01*
X105057142Y-108399285D01*
X105019047Y-108380238D01*
X105000000Y-108361190D01*
X104980952Y-108323095D01*
X104980952Y-108246904D01*
X105000000Y-108208809D01*
X105019047Y-108189761D01*
X105057142Y-108170714D01*
X105076190Y-108170714D01*
X105114285Y-108189761D01*
X105133333Y-108208809D01*
X105152380Y-108246904D01*
X105152380Y-108323095D01*
X105171428Y-108361190D01*
X105190476Y-108380238D01*
X105228571Y-108399285D01*
X105304761Y-108399285D01*
X105342857Y-108380238D01*
X105361904Y-108361190D01*
X105380952Y-108323095D01*
X105380952Y-108246904D01*
X105361904Y-108208809D01*
X105342857Y-108189761D01*
X105304761Y-108170714D01*
X105228571Y-108170714D01*
X105190476Y-108189761D01*
X105171428Y-108208809D01*
X105152380Y-108246904D01*
X128680952Y-112116666D02*
X128490476Y-112250000D01*
X128680952Y-112345238D02*
X128280952Y-112345238D01*
X128280952Y-112192857D01*
X128300000Y-112154761D01*
X128319047Y-112135714D01*
X128357142Y-112116666D01*
X128414285Y-112116666D01*
X128452380Y-112135714D01*
X128471428Y-112154761D01*
X128490476Y-112192857D01*
X128490476Y-112345238D01*
X128319047Y-111964285D02*
X128300000Y-111945238D01*
X128280952Y-111907142D01*
X128280952Y-111811904D01*
X128300000Y-111773809D01*
X128319047Y-111754761D01*
X128357142Y-111735714D01*
X128395238Y-111735714D01*
X128452380Y-111754761D01*
X128680952Y-111983333D01*
X128680952Y-111735714D01*
X126030952Y-120266666D02*
X125840476Y-120400000D01*
X126030952Y-120495238D02*
X125630952Y-120495238D01*
X125630952Y-120342857D01*
X125650000Y-120304761D01*
X125669047Y-120285714D01*
X125707142Y-120266666D01*
X125764285Y-120266666D01*
X125802380Y-120285714D01*
X125821428Y-120304761D01*
X125840476Y-120342857D01*
X125840476Y-120495238D01*
X125630952Y-120133333D02*
X125630952Y-119885714D01*
X125783333Y-120019047D01*
X125783333Y-119961904D01*
X125802380Y-119923809D01*
X125821428Y-119904761D01*
X125859523Y-119885714D01*
X125954761Y-119885714D01*
X125992857Y-119904761D01*
X126011904Y-119923809D01*
X126030952Y-119961904D01*
X126030952Y-120076190D01*
X126011904Y-120114285D01*
X125992857Y-120133333D01*
X123530952Y-107266666D02*
X123340476Y-107400000D01*
X123530952Y-107495238D02*
X123130952Y-107495238D01*
X123130952Y-107342857D01*
X123150000Y-107304761D01*
X123169047Y-107285714D01*
X123207142Y-107266666D01*
X123264285Y-107266666D01*
X123302380Y-107285714D01*
X123321428Y-107304761D01*
X123340476Y-107342857D01*
X123340476Y-107495238D01*
X123264285Y-106923809D02*
X123530952Y-106923809D01*
X123111904Y-107019047D02*
X123397619Y-107114285D01*
X123397619Y-106866666D01*
X123530952Y-105366666D02*
X123340476Y-105500000D01*
X123530952Y-105595238D02*
X123130952Y-105595238D01*
X123130952Y-105442857D01*
X123150000Y-105404761D01*
X123169047Y-105385714D01*
X123207142Y-105366666D01*
X123264285Y-105366666D01*
X123302380Y-105385714D01*
X123321428Y-105404761D01*
X123340476Y-105442857D01*
X123340476Y-105595238D01*
X123130952Y-105004761D02*
X123130952Y-105195238D01*
X123321428Y-105214285D01*
X123302380Y-105195238D01*
X123283333Y-105157142D01*
X123283333Y-105061904D01*
X123302380Y-105023809D01*
X123321428Y-105004761D01*
X123359523Y-104985714D01*
X123454761Y-104985714D01*
X123492857Y-105004761D01*
X123511904Y-105023809D01*
X123530952Y-105061904D01*
X123530952Y-105157142D01*
X123511904Y-105195238D01*
X123492857Y-105214285D01*
X105380952Y-104251666D02*
X105190476Y-104385000D01*
X105380952Y-104480238D02*
X104980952Y-104480238D01*
X104980952Y-104327857D01*
X105000000Y-104289761D01*
X105019047Y-104270714D01*
X105057142Y-104251666D01*
X105114285Y-104251666D01*
X105152380Y-104270714D01*
X105171428Y-104289761D01*
X105190476Y-104327857D01*
X105190476Y-104480238D01*
X104980952Y-103908809D02*
X104980952Y-103985000D01*
X105000000Y-104023095D01*
X105019047Y-104042142D01*
X105076190Y-104080238D01*
X105152380Y-104099285D01*
X105304761Y-104099285D01*
X105342857Y-104080238D01*
X105361904Y-104061190D01*
X105380952Y-104023095D01*
X105380952Y-103946904D01*
X105361904Y-103908809D01*
X105342857Y-103889761D01*
X105304761Y-103870714D01*
X105209523Y-103870714D01*
X105171428Y-103889761D01*
X105152380Y-103908809D01*
X105133333Y-103946904D01*
X105133333Y-104023095D01*
X105152380Y-104061190D01*
X105171428Y-104080238D01*
X105209523Y-104099285D01*
X105380952Y-106616666D02*
X105190476Y-106750000D01*
X105380952Y-106845238D02*
X104980952Y-106845238D01*
X104980952Y-106692857D01*
X105000000Y-106654761D01*
X105019047Y-106635714D01*
X105057142Y-106616666D01*
X105114285Y-106616666D01*
X105152380Y-106635714D01*
X105171428Y-106654761D01*
X105190476Y-106692857D01*
X105190476Y-106845238D01*
X104980952Y-106483333D02*
X104980952Y-106216666D01*
X105380952Y-106388095D01*
X121330952Y-127107142D02*
X121140476Y-127240476D01*
X121330952Y-127335714D02*
X120930952Y-127335714D01*
X120930952Y-127183333D01*
X120950000Y-127145238D01*
X120969047Y-127126190D01*
X121007142Y-127107142D01*
X121064285Y-127107142D01*
X121102380Y-127126190D01*
X121121428Y-127145238D01*
X121140476Y-127183333D01*
X121140476Y-127335714D01*
X121330952Y-126726190D02*
X121330952Y-126954761D01*
X121330952Y-126840476D02*
X120930952Y-126840476D01*
X120988095Y-126878571D01*
X121026190Y-126916666D01*
X121045238Y-126954761D01*
X120930952Y-126478571D02*
X120930952Y-126440476D01*
X120950000Y-126402380D01*
X120969047Y-126383333D01*
X121007142Y-126364285D01*
X121083333Y-126345238D01*
X121178571Y-126345238D01*
X121254761Y-126364285D01*
X121292857Y-126383333D01*
X121311904Y-126402380D01*
X121330952Y-126440476D01*
X121330952Y-126478571D01*
X121311904Y-126516666D01*
X121292857Y-126535714D01*
X121254761Y-126554761D01*
X121178571Y-126573809D01*
X121083333Y-126573809D01*
X121007142Y-126554761D01*
X120969047Y-126535714D01*
X120950000Y-126516666D01*
X120930952Y-126478571D01*
X101842857Y-130880952D02*
X101709523Y-130690476D01*
X101614285Y-130880952D02*
X101614285Y-130480952D01*
X101766666Y-130480952D01*
X101804761Y-130500000D01*
X101823809Y-130519047D01*
X101842857Y-130557142D01*
X101842857Y-130614285D01*
X101823809Y-130652380D01*
X101804761Y-130671428D01*
X101766666Y-130690476D01*
X101614285Y-130690476D01*
X102223809Y-130880952D02*
X101995238Y-130880952D01*
X102109523Y-130880952D02*
X102109523Y-130480952D01*
X102071428Y-130538095D01*
X102033333Y-130576190D01*
X101995238Y-130595238D01*
X102604761Y-130880952D02*
X102376190Y-130880952D01*
X102490476Y-130880952D02*
X102490476Y-130480952D01*
X102452380Y-130538095D01*
X102414285Y-130576190D01*
X102376190Y-130595238D01*
X105480952Y-123257142D02*
X105290476Y-123390476D01*
X105480952Y-123485714D02*
X105080952Y-123485714D01*
X105080952Y-123333333D01*
X105100000Y-123295238D01*
X105119047Y-123276190D01*
X105157142Y-123257142D01*
X105214285Y-123257142D01*
X105252380Y-123276190D01*
X105271428Y-123295238D01*
X105290476Y-123333333D01*
X105290476Y-123485714D01*
X105480952Y-122876190D02*
X105480952Y-123104761D01*
X105480952Y-122990476D02*
X105080952Y-122990476D01*
X105138095Y-123028571D01*
X105176190Y-123066666D01*
X105195238Y-123104761D01*
X105080952Y-122742857D02*
X105080952Y-122495238D01*
X105233333Y-122628571D01*
X105233333Y-122571428D01*
X105252380Y-122533333D01*
X105271428Y-122514285D01*
X105309523Y-122495238D01*
X105404761Y-122495238D01*
X105442857Y-122514285D01*
X105461904Y-122533333D01*
X105480952Y-122571428D01*
X105480952Y-122685714D01*
X105461904Y-122723809D01*
X105442857Y-122742857D01*
X105480952Y-125172142D02*
X105290476Y-125305476D01*
X105480952Y-125400714D02*
X105080952Y-125400714D01*
X105080952Y-125248333D01*
X105100000Y-125210238D01*
X105119047Y-125191190D01*
X105157142Y-125172142D01*
X105214285Y-125172142D01*
X105252380Y-125191190D01*
X105271428Y-125210238D01*
X105290476Y-125248333D01*
X105290476Y-125400714D01*
X105480952Y-124791190D02*
X105480952Y-125019761D01*
X105480952Y-124905476D02*
X105080952Y-124905476D01*
X105138095Y-124943571D01*
X105176190Y-124981666D01*
X105195238Y-125019761D01*
X105119047Y-124638809D02*
X105100000Y-124619761D01*
X105080952Y-124581666D01*
X105080952Y-124486428D01*
X105100000Y-124448333D01*
X105119047Y-124429285D01*
X105157142Y-124410238D01*
X105195238Y-124410238D01*
X105252380Y-124429285D01*
X105480952Y-124657857D01*
X105480952Y-124410238D01*
X127280952Y-125566666D02*
X127090476Y-125700000D01*
X127280952Y-125795238D02*
X126880952Y-125795238D01*
X126880952Y-125642857D01*
X126900000Y-125604761D01*
X126919047Y-125585714D01*
X126957142Y-125566666D01*
X127014285Y-125566666D01*
X127052380Y-125585714D01*
X127071428Y-125604761D01*
X127090476Y-125642857D01*
X127090476Y-125795238D01*
X127280952Y-125185714D02*
X127280952Y-125414285D01*
X127280952Y-125300000D02*
X126880952Y-125300000D01*
X126938095Y-125338095D01*
X126976190Y-125376190D01*
X126995238Y-125414285D01*
X101330952Y-116133333D02*
X101616666Y-116133333D01*
X101673809Y-116152380D01*
X101711904Y-116190476D01*
X101730952Y-116247619D01*
X101730952Y-116285714D01*
X101369047Y-115961904D02*
X101350000Y-115942857D01*
X101330952Y-115904761D01*
X101330952Y-115809523D01*
X101350000Y-115771428D01*
X101369047Y-115752380D01*
X101407142Y-115733333D01*
X101445238Y-115733333D01*
X101502380Y-115752380D01*
X101730952Y-115980952D01*
X101730952Y-115733333D01*
M02*
