%TF.GenerationSoftware,KiCad,Pcbnew,(6.0.0-rc1-dev-1-g01c5bdfb8)*%
%TF.CreationDate,2019-02-27T16:04:15+01:00*%
%TF.ProjectId,printer-otter,7072696E7465722D6F747465722E6B69,rev?*%
%TF.SameCoordinates,Original*%
%TF.FileFunction,Soldermask,Bot*%
%TF.FilePolarity,Negative*%
%FSLAX46Y46*%
G04 Gerber Fmt 4.6, Leading zero omitted, Abs format (unit mm)*
G04 Created by KiCad (PCBNEW (6.0.0-rc1-dev-1-g01c5bdfb8)) date Wed Feb 27 16:04:15 2019*
%MOMM*%
%LPD*%
G01*
G04 APERTURE LIST*
%ADD10C,0.100000*%
G04 APERTURE END LIST*
D10*
X100000000Y-100500000D02*
G75*
G02X100500000Y-100000000I500000J0D01*
G01*
X100500000Y-132000000D02*
G75*
G02X100000000Y-131500000I0J500000D01*
G01*
X136000000Y-131500000D02*
G75*
G02X135500000Y-132000000I-500000J0D01*
G01*
X135500000Y-100000000D02*
G75*
G02X136000000Y-100500000I0J-500000D01*
G01*
X135500000Y-100000000D02*
X118500000Y-100000000D01*
X136000000Y-131500000D02*
X136000000Y-100500000D01*
X100500000Y-132000000D02*
X135500000Y-132000000D01*
X100000000Y-100500000D02*
X100000000Y-131500000D01*
X104500000Y-100000000D02*
X100500000Y-100000000D01*
X107000000Y-100000000D02*
X104500000Y-100000000D01*
X110000000Y-100000000D02*
X112500000Y-100000000D01*
X113000000Y-100000000D02*
X112500000Y-100000000D01*
X116500000Y-100000000D02*
X116000000Y-100000000D01*
X110000000Y-100000000D02*
X107000000Y-100000000D01*
X116000000Y-100000000D02*
X113000000Y-100000000D01*
X118499999Y-99999999D02*
G75*
G02X116500000Y-100000000I-1000000J1499998D01*
G01*
G36*
X132100000Y-130850000D02*
X130400000Y-130850000D01*
X130400000Y-129150000D01*
X132100000Y-129150000D01*
X132100000Y-130850000D01*
X132100000Y-130850000D01*
G37*
G36*
X121256630Y-129162299D02*
X121416855Y-129210903D01*
X121564520Y-129289831D01*
X121693949Y-129396051D01*
X121800169Y-129525480D01*
X121879097Y-129673145D01*
X121927701Y-129833370D01*
X121944112Y-130000000D01*
X121927701Y-130166630D01*
X121879097Y-130326855D01*
X121800169Y-130474520D01*
X121693949Y-130603949D01*
X121564520Y-130710169D01*
X121416855Y-130789097D01*
X121256630Y-130837701D01*
X121131752Y-130850000D01*
X121048248Y-130850000D01*
X120923370Y-130837701D01*
X120763145Y-130789097D01*
X120615480Y-130710169D01*
X120486051Y-130603949D01*
X120379831Y-130474520D01*
X120300903Y-130326855D01*
X120252299Y-130166630D01*
X120235888Y-130000000D01*
X120252299Y-129833370D01*
X120300903Y-129673145D01*
X120379831Y-129525480D01*
X120486051Y-129396051D01*
X120615480Y-129289831D01*
X120763145Y-129210903D01*
X120923370Y-129162299D01*
X121048248Y-129150000D01*
X121131752Y-129150000D01*
X121256630Y-129162299D01*
X121256630Y-129162299D01*
G37*
G36*
X123796630Y-129162299D02*
X123956855Y-129210903D01*
X124104520Y-129289831D01*
X124233949Y-129396051D01*
X124340169Y-129525480D01*
X124419097Y-129673145D01*
X124467701Y-129833370D01*
X124484112Y-130000000D01*
X124467701Y-130166630D01*
X124419097Y-130326855D01*
X124340169Y-130474520D01*
X124233949Y-130603949D01*
X124104520Y-130710169D01*
X123956855Y-130789097D01*
X123796630Y-130837701D01*
X123671752Y-130850000D01*
X123588248Y-130850000D01*
X123463370Y-130837701D01*
X123303145Y-130789097D01*
X123155480Y-130710169D01*
X123026051Y-130603949D01*
X122919831Y-130474520D01*
X122840903Y-130326855D01*
X122792299Y-130166630D01*
X122775888Y-130000000D01*
X122792299Y-129833370D01*
X122840903Y-129673145D01*
X122919831Y-129525480D01*
X123026051Y-129396051D01*
X123155480Y-129289831D01*
X123303145Y-129210903D01*
X123463370Y-129162299D01*
X123588248Y-129150000D01*
X123671752Y-129150000D01*
X123796630Y-129162299D01*
X123796630Y-129162299D01*
G37*
G36*
X126336630Y-129162299D02*
X126496855Y-129210903D01*
X126644520Y-129289831D01*
X126773949Y-129396051D01*
X126880169Y-129525480D01*
X126959097Y-129673145D01*
X127007701Y-129833370D01*
X127024112Y-130000000D01*
X127007701Y-130166630D01*
X126959097Y-130326855D01*
X126880169Y-130474520D01*
X126773949Y-130603949D01*
X126644520Y-130710169D01*
X126496855Y-130789097D01*
X126336630Y-130837701D01*
X126211752Y-130850000D01*
X126128248Y-130850000D01*
X126003370Y-130837701D01*
X125843145Y-130789097D01*
X125695480Y-130710169D01*
X125566051Y-130603949D01*
X125459831Y-130474520D01*
X125380903Y-130326855D01*
X125332299Y-130166630D01*
X125315888Y-130000000D01*
X125332299Y-129833370D01*
X125380903Y-129673145D01*
X125459831Y-129525480D01*
X125566051Y-129396051D01*
X125695480Y-129289831D01*
X125843145Y-129210903D01*
X126003370Y-129162299D01*
X126128248Y-129150000D01*
X126211752Y-129150000D01*
X126336630Y-129162299D01*
X126336630Y-129162299D01*
G37*
G36*
X128876630Y-129162299D02*
X129036855Y-129210903D01*
X129184520Y-129289831D01*
X129313949Y-129396051D01*
X129420169Y-129525480D01*
X129499097Y-129673145D01*
X129547701Y-129833370D01*
X129564112Y-130000000D01*
X129547701Y-130166630D01*
X129499097Y-130326855D01*
X129420169Y-130474520D01*
X129313949Y-130603949D01*
X129184520Y-130710169D01*
X129036855Y-130789097D01*
X128876630Y-130837701D01*
X128751752Y-130850000D01*
X128668248Y-130850000D01*
X128543370Y-130837701D01*
X128383145Y-130789097D01*
X128235480Y-130710169D01*
X128106051Y-130603949D01*
X127999831Y-130474520D01*
X127920903Y-130326855D01*
X127872299Y-130166630D01*
X127855888Y-130000000D01*
X127872299Y-129833370D01*
X127920903Y-129673145D01*
X127999831Y-129525480D01*
X128106051Y-129396051D01*
X128235480Y-129289831D01*
X128383145Y-129210903D01*
X128543370Y-129162299D01*
X128668248Y-129150000D01*
X128751752Y-129150000D01*
X128876630Y-129162299D01*
X128876630Y-129162299D01*
G37*
G36*
X110996630Y-129062299D02*
X111156855Y-129110903D01*
X111304520Y-129189831D01*
X111433949Y-129296051D01*
X111540169Y-129425480D01*
X111619097Y-129573145D01*
X111667701Y-129733370D01*
X111684112Y-129900000D01*
X111667701Y-130066630D01*
X111619097Y-130226855D01*
X111540169Y-130374520D01*
X111433949Y-130503949D01*
X111304520Y-130610169D01*
X111156855Y-130689097D01*
X110996630Y-130737701D01*
X110871752Y-130750000D01*
X110788248Y-130750000D01*
X110663370Y-130737701D01*
X110503145Y-130689097D01*
X110355480Y-130610169D01*
X110226051Y-130503949D01*
X110119831Y-130374520D01*
X110040903Y-130226855D01*
X109992299Y-130066630D01*
X109975888Y-129900000D01*
X109992299Y-129733370D01*
X110040903Y-129573145D01*
X110119831Y-129425480D01*
X110226051Y-129296051D01*
X110355480Y-129189831D01*
X110503145Y-129110903D01*
X110663370Y-129062299D01*
X110788248Y-129050000D01*
X110871752Y-129050000D01*
X110996630Y-129062299D01*
X110996630Y-129062299D01*
G37*
G36*
X108456630Y-129062299D02*
X108616855Y-129110903D01*
X108764520Y-129189831D01*
X108893949Y-129296051D01*
X109000169Y-129425480D01*
X109079097Y-129573145D01*
X109127701Y-129733370D01*
X109144112Y-129900000D01*
X109127701Y-130066630D01*
X109079097Y-130226855D01*
X109000169Y-130374520D01*
X108893949Y-130503949D01*
X108764520Y-130610169D01*
X108616855Y-130689097D01*
X108456630Y-130737701D01*
X108331752Y-130750000D01*
X108248248Y-130750000D01*
X108123370Y-130737701D01*
X107963145Y-130689097D01*
X107815480Y-130610169D01*
X107686051Y-130503949D01*
X107579831Y-130374520D01*
X107500903Y-130226855D01*
X107452299Y-130066630D01*
X107435888Y-129900000D01*
X107452299Y-129733370D01*
X107500903Y-129573145D01*
X107579831Y-129425480D01*
X107686051Y-129296051D01*
X107815480Y-129189831D01*
X107963145Y-129110903D01*
X108123370Y-129062299D01*
X108248248Y-129050000D01*
X108331752Y-129050000D01*
X108456630Y-129062299D01*
X108456630Y-129062299D01*
G37*
G36*
X106600000Y-130750000D02*
X104900000Y-130750000D01*
X104900000Y-129050000D01*
X106600000Y-129050000D01*
X106600000Y-130750000D01*
X106600000Y-130750000D01*
G37*
G36*
X113536630Y-129062299D02*
X113696855Y-129110903D01*
X113844520Y-129189831D01*
X113973949Y-129296051D01*
X114080169Y-129425480D01*
X114159097Y-129573145D01*
X114207701Y-129733370D01*
X114224112Y-129900000D01*
X114207701Y-130066630D01*
X114159097Y-130226855D01*
X114080169Y-130374520D01*
X113973949Y-130503949D01*
X113844520Y-130610169D01*
X113696855Y-130689097D01*
X113536630Y-130737701D01*
X113411752Y-130750000D01*
X113328248Y-130750000D01*
X113203370Y-130737701D01*
X113043145Y-130689097D01*
X112895480Y-130610169D01*
X112766051Y-130503949D01*
X112659831Y-130374520D01*
X112580903Y-130226855D01*
X112532299Y-130066630D01*
X112515888Y-129900000D01*
X112532299Y-129733370D01*
X112580903Y-129573145D01*
X112659831Y-129425480D01*
X112766051Y-129296051D01*
X112895480Y-129189831D01*
X113043145Y-129110903D01*
X113203370Y-129062299D01*
X113328248Y-129050000D01*
X113411752Y-129050000D01*
X113536630Y-129062299D01*
X113536630Y-129062299D01*
G37*
G36*
X116076630Y-129062299D02*
X116236855Y-129110903D01*
X116384520Y-129189831D01*
X116513949Y-129296051D01*
X116620169Y-129425480D01*
X116699097Y-129573145D01*
X116747701Y-129733370D01*
X116764112Y-129900000D01*
X116747701Y-130066630D01*
X116699097Y-130226855D01*
X116620169Y-130374520D01*
X116513949Y-130503949D01*
X116384520Y-130610169D01*
X116236855Y-130689097D01*
X116076630Y-130737701D01*
X115951752Y-130750000D01*
X115868248Y-130750000D01*
X115743370Y-130737701D01*
X115583145Y-130689097D01*
X115435480Y-130610169D01*
X115306051Y-130503949D01*
X115199831Y-130374520D01*
X115120903Y-130226855D01*
X115072299Y-130066630D01*
X115055888Y-129900000D01*
X115072299Y-129733370D01*
X115120903Y-129573145D01*
X115199831Y-129425480D01*
X115306051Y-129296051D01*
X115435480Y-129189831D01*
X115583145Y-129110903D01*
X115743370Y-129062299D01*
X115868248Y-129050000D01*
X115951752Y-129050000D01*
X116076630Y-129062299D01*
X116076630Y-129062299D01*
G37*
G36*
X129813015Y-126577234D02*
X129907268Y-126605825D01*
X129953697Y-126630643D01*
X129994129Y-126652254D01*
X129994131Y-126652255D01*
X129994130Y-126652255D01*
X130070264Y-126714736D01*
X130132745Y-126790870D01*
X130179175Y-126877732D01*
X130207766Y-126971985D01*
X130217419Y-127070000D01*
X130207766Y-127168015D01*
X130179175Y-127262268D01*
X130154357Y-127308697D01*
X130132746Y-127349129D01*
X130070264Y-127425264D01*
X129994129Y-127487746D01*
X129953697Y-127509357D01*
X129907268Y-127534175D01*
X129813015Y-127562766D01*
X129739564Y-127570000D01*
X128590436Y-127570000D01*
X128516985Y-127562766D01*
X128422732Y-127534175D01*
X128376303Y-127509357D01*
X128335871Y-127487746D01*
X128259736Y-127425264D01*
X128197254Y-127349129D01*
X128175643Y-127308697D01*
X128150825Y-127262268D01*
X128122234Y-127168015D01*
X128112581Y-127070000D01*
X128122234Y-126971985D01*
X128150825Y-126877732D01*
X128197255Y-126790870D01*
X128259736Y-126714736D01*
X128335870Y-126652255D01*
X128335869Y-126652255D01*
X128335871Y-126652254D01*
X128376303Y-126630643D01*
X128422732Y-126605825D01*
X128516985Y-126577234D01*
X128590436Y-126570000D01*
X129739564Y-126570000D01*
X129813015Y-126577234D01*
X129813015Y-126577234D01*
G37*
G36*
X133743015Y-126577234D02*
X133837268Y-126605825D01*
X133883697Y-126630643D01*
X133924129Y-126652254D01*
X133924131Y-126652255D01*
X133924130Y-126652255D01*
X134000264Y-126714736D01*
X134062745Y-126790870D01*
X134109175Y-126877732D01*
X134137766Y-126971985D01*
X134147419Y-127070000D01*
X134137766Y-127168015D01*
X134109175Y-127262268D01*
X134084357Y-127308697D01*
X134062746Y-127349129D01*
X134000264Y-127425264D01*
X133924129Y-127487746D01*
X133883697Y-127509357D01*
X133837268Y-127534175D01*
X133743015Y-127562766D01*
X133669564Y-127570000D01*
X133020436Y-127570000D01*
X132946985Y-127562766D01*
X132852732Y-127534175D01*
X132806303Y-127509357D01*
X132765871Y-127487746D01*
X132689736Y-127425264D01*
X132627254Y-127349129D01*
X132605643Y-127308697D01*
X132580825Y-127262268D01*
X132552234Y-127168015D01*
X132542581Y-127070000D01*
X132552234Y-126971985D01*
X132580825Y-126877732D01*
X132627255Y-126790870D01*
X132689736Y-126714736D01*
X132765870Y-126652255D01*
X132765869Y-126652255D01*
X132765871Y-126652254D01*
X132806303Y-126630643D01*
X132852732Y-126605825D01*
X132946985Y-126577234D01*
X133020436Y-126570000D01*
X133669564Y-126570000D01*
X133743015Y-126577234D01*
X133743015Y-126577234D01*
G37*
G36*
X129789799Y-125327489D02*
X129835543Y-125346437D01*
X129848941Y-125351986D01*
X129848942Y-125351987D01*
X129848945Y-125351988D01*
X129902176Y-125387556D01*
X129947444Y-125432824D01*
X129983012Y-125486055D01*
X130007511Y-125545201D01*
X130020000Y-125607990D01*
X130020000Y-125672010D01*
X130007511Y-125734799D01*
X129983012Y-125793945D01*
X129947444Y-125847176D01*
X129902176Y-125892444D01*
X129848945Y-125928012D01*
X129848942Y-125928013D01*
X129848941Y-125928014D01*
X129835543Y-125933563D01*
X129789799Y-125952511D01*
X129727010Y-125965000D01*
X129662990Y-125965000D01*
X129600201Y-125952511D01*
X129554457Y-125933563D01*
X129541059Y-125928014D01*
X129541058Y-125928013D01*
X129541055Y-125928012D01*
X129487824Y-125892444D01*
X129442556Y-125847176D01*
X129406988Y-125793945D01*
X129382489Y-125734799D01*
X129370000Y-125672010D01*
X129370000Y-125607990D01*
X129382489Y-125545201D01*
X129406988Y-125486055D01*
X129442556Y-125432824D01*
X129487824Y-125387556D01*
X129541055Y-125351988D01*
X129541058Y-125351987D01*
X129541059Y-125351986D01*
X129554457Y-125346437D01*
X129600201Y-125327489D01*
X129662990Y-125315000D01*
X129727010Y-125315000D01*
X129789799Y-125327489D01*
X129789799Y-125327489D01*
G37*
G36*
X129789799Y-119547489D02*
X129835543Y-119566437D01*
X129848941Y-119571986D01*
X129848942Y-119571987D01*
X129848945Y-119571988D01*
X129902176Y-119607556D01*
X129947444Y-119652824D01*
X129983012Y-119706055D01*
X130007511Y-119765201D01*
X130020000Y-119827990D01*
X130020000Y-119892010D01*
X130007511Y-119954799D01*
X129983012Y-120013945D01*
X129947444Y-120067176D01*
X129902176Y-120112444D01*
X129848945Y-120148012D01*
X129848942Y-120148013D01*
X129848941Y-120148014D01*
X129835543Y-120153563D01*
X129789799Y-120172511D01*
X129727010Y-120185000D01*
X129662990Y-120185000D01*
X129600201Y-120172511D01*
X129554457Y-120153563D01*
X129541059Y-120148014D01*
X129541058Y-120148013D01*
X129541055Y-120148012D01*
X129487824Y-120112444D01*
X129442556Y-120067176D01*
X129406988Y-120013945D01*
X129382489Y-119954799D01*
X129370000Y-119892010D01*
X129370000Y-119827990D01*
X129382489Y-119765201D01*
X129406988Y-119706055D01*
X129442556Y-119652824D01*
X129487824Y-119607556D01*
X129541055Y-119571988D01*
X129541058Y-119571987D01*
X129541059Y-119571986D01*
X129554457Y-119566437D01*
X129600201Y-119547489D01*
X129662990Y-119535000D01*
X129727010Y-119535000D01*
X129789799Y-119547489D01*
X129789799Y-119547489D01*
G37*
G36*
X129813015Y-117937234D02*
X129907268Y-117965825D01*
X129953697Y-117990643D01*
X129994129Y-118012254D01*
X129994131Y-118012255D01*
X129994130Y-118012255D01*
X130070264Y-118074736D01*
X130132745Y-118150870D01*
X130179175Y-118237732D01*
X130207766Y-118331985D01*
X130217419Y-118430000D01*
X130207766Y-118528015D01*
X130179175Y-118622268D01*
X130154357Y-118668697D01*
X130132746Y-118709129D01*
X130070264Y-118785264D01*
X129994129Y-118847746D01*
X129953697Y-118869357D01*
X129907268Y-118894175D01*
X129813015Y-118922766D01*
X129739564Y-118930000D01*
X128590436Y-118930000D01*
X128516985Y-118922766D01*
X128422732Y-118894175D01*
X128376303Y-118869357D01*
X128335871Y-118847746D01*
X128259736Y-118785264D01*
X128197254Y-118709129D01*
X128175643Y-118668697D01*
X128150825Y-118622268D01*
X128122234Y-118528015D01*
X128112581Y-118430000D01*
X128122234Y-118331985D01*
X128150825Y-118237732D01*
X128197255Y-118150870D01*
X128259736Y-118074736D01*
X128335870Y-118012255D01*
X128335869Y-118012255D01*
X128335871Y-118012254D01*
X128376303Y-117990643D01*
X128422732Y-117965825D01*
X128516985Y-117937234D01*
X128590436Y-117930000D01*
X129739564Y-117930000D01*
X129813015Y-117937234D01*
X129813015Y-117937234D01*
G37*
G36*
X133743015Y-117937234D02*
X133837268Y-117965825D01*
X133883697Y-117990643D01*
X133924129Y-118012254D01*
X133924131Y-118012255D01*
X133924130Y-118012255D01*
X134000264Y-118074736D01*
X134062745Y-118150870D01*
X134109175Y-118237732D01*
X134137766Y-118331985D01*
X134147419Y-118430000D01*
X134137766Y-118528015D01*
X134109175Y-118622268D01*
X134084357Y-118668697D01*
X134062746Y-118709129D01*
X134000264Y-118785264D01*
X133924129Y-118847746D01*
X133883697Y-118869357D01*
X133837268Y-118894175D01*
X133743015Y-118922766D01*
X133669564Y-118930000D01*
X133020436Y-118930000D01*
X132946985Y-118922766D01*
X132852732Y-118894175D01*
X132806303Y-118869357D01*
X132765871Y-118847746D01*
X132689736Y-118785264D01*
X132627254Y-118709129D01*
X132605643Y-118668697D01*
X132580825Y-118622268D01*
X132552234Y-118528015D01*
X132542581Y-118430000D01*
X132552234Y-118331985D01*
X132580825Y-118237732D01*
X132627255Y-118150870D01*
X132689736Y-118074736D01*
X132765870Y-118012255D01*
X132765869Y-118012255D01*
X132765871Y-118012254D01*
X132806303Y-117990643D01*
X132852732Y-117965825D01*
X132946985Y-117937234D01*
X133020436Y-117930000D01*
X133669564Y-117930000D01*
X133743015Y-117937234D01*
X133743015Y-117937234D01*
G37*
G36*
X117551377Y-102553363D02*
X117602091Y-102563450D01*
X117665787Y-102589834D01*
X117723112Y-102628137D01*
X117771863Y-102676888D01*
X117810166Y-102734213D01*
X117836550Y-102797909D01*
X117850000Y-102865528D01*
X117850000Y-102934472D01*
X117836550Y-103002091D01*
X117810166Y-103065787D01*
X117771863Y-103123112D01*
X117723112Y-103171863D01*
X117665787Y-103210166D01*
X117602091Y-103236550D01*
X117551377Y-103246638D01*
X117534473Y-103250000D01*
X117465527Y-103250000D01*
X117448623Y-103246638D01*
X117397909Y-103236550D01*
X117334213Y-103210166D01*
X117276888Y-103171863D01*
X117228137Y-103123112D01*
X117189834Y-103065787D01*
X117163450Y-103002091D01*
X117150000Y-102934472D01*
X117150000Y-102865528D01*
X117163450Y-102797909D01*
X117189834Y-102734213D01*
X117228137Y-102676888D01*
X117276888Y-102628137D01*
X117334213Y-102589834D01*
X117397909Y-102563450D01*
X117448623Y-102553363D01*
X117465527Y-102550000D01*
X117534473Y-102550000D01*
X117551377Y-102553363D01*
X117551377Y-102553363D01*
G37*
G36*
X129086630Y-101262299D02*
X129246855Y-101310903D01*
X129394520Y-101389831D01*
X129523949Y-101496051D01*
X129630169Y-101625480D01*
X129709097Y-101773145D01*
X129757701Y-101933370D01*
X129774112Y-102100000D01*
X129757701Y-102266630D01*
X129709097Y-102426855D01*
X129630169Y-102574520D01*
X129523949Y-102703949D01*
X129394520Y-102810169D01*
X129246855Y-102889097D01*
X129086630Y-102937701D01*
X128961752Y-102950000D01*
X128878248Y-102950000D01*
X128753370Y-102937701D01*
X128593145Y-102889097D01*
X128445480Y-102810169D01*
X128316051Y-102703949D01*
X128209831Y-102574520D01*
X128130903Y-102426855D01*
X128082299Y-102266630D01*
X128065888Y-102100000D01*
X128082299Y-101933370D01*
X128130903Y-101773145D01*
X128209831Y-101625480D01*
X128316051Y-101496051D01*
X128445480Y-101389831D01*
X128593145Y-101310903D01*
X128753370Y-101262299D01*
X128878248Y-101250000D01*
X128961752Y-101250000D01*
X129086630Y-101262299D01*
X129086630Y-101262299D01*
G37*
G36*
X134850000Y-102950000D02*
X133150000Y-102950000D01*
X133150000Y-101250000D01*
X134850000Y-101250000D01*
X134850000Y-102950000D01*
X134850000Y-102950000D01*
G37*
G36*
X131626630Y-101262299D02*
X131786855Y-101310903D01*
X131934520Y-101389831D01*
X132063949Y-101496051D01*
X132170169Y-101625480D01*
X132249097Y-101773145D01*
X132297701Y-101933370D01*
X132314112Y-102100000D01*
X132297701Y-102266630D01*
X132249097Y-102426855D01*
X132170169Y-102574520D01*
X132063949Y-102703949D01*
X131934520Y-102810169D01*
X131786855Y-102889097D01*
X131626630Y-102937701D01*
X131501752Y-102950000D01*
X131418248Y-102950000D01*
X131293370Y-102937701D01*
X131133145Y-102889097D01*
X130985480Y-102810169D01*
X130856051Y-102703949D01*
X130749831Y-102574520D01*
X130670903Y-102426855D01*
X130622299Y-102266630D01*
X130605888Y-102100000D01*
X130622299Y-101933370D01*
X130670903Y-101773145D01*
X130749831Y-101625480D01*
X130856051Y-101496051D01*
X130985480Y-101389831D01*
X131133145Y-101310903D01*
X131293370Y-101262299D01*
X131418248Y-101250000D01*
X131501752Y-101250000D01*
X131626630Y-101262299D01*
X131626630Y-101262299D01*
G37*
G36*
X126546630Y-101262299D02*
X126706855Y-101310903D01*
X126854520Y-101389831D01*
X126983949Y-101496051D01*
X127090169Y-101625480D01*
X127169097Y-101773145D01*
X127217701Y-101933370D01*
X127234112Y-102100000D01*
X127217701Y-102266630D01*
X127169097Y-102426855D01*
X127090169Y-102574520D01*
X126983949Y-102703949D01*
X126854520Y-102810169D01*
X126706855Y-102889097D01*
X126546630Y-102937701D01*
X126421752Y-102950000D01*
X126338248Y-102950000D01*
X126213370Y-102937701D01*
X126053145Y-102889097D01*
X125905480Y-102810169D01*
X125776051Y-102703949D01*
X125669831Y-102574520D01*
X125590903Y-102426855D01*
X125542299Y-102266630D01*
X125525888Y-102100000D01*
X125542299Y-101933370D01*
X125590903Y-101773145D01*
X125669831Y-101625480D01*
X125776051Y-101496051D01*
X125905480Y-101389831D01*
X126053145Y-101310903D01*
X126213370Y-101262299D01*
X126338248Y-101250000D01*
X126421752Y-101250000D01*
X126546630Y-101262299D01*
X126546630Y-101262299D01*
G37*
G36*
X124006630Y-101262299D02*
X124166855Y-101310903D01*
X124314520Y-101389831D01*
X124443949Y-101496051D01*
X124550169Y-101625480D01*
X124629097Y-101773145D01*
X124677701Y-101933370D01*
X124694112Y-102100000D01*
X124677701Y-102266630D01*
X124629097Y-102426855D01*
X124550169Y-102574520D01*
X124443949Y-102703949D01*
X124314520Y-102810169D01*
X124166855Y-102889097D01*
X124006630Y-102937701D01*
X123881752Y-102950000D01*
X123798248Y-102950000D01*
X123673370Y-102937701D01*
X123513145Y-102889097D01*
X123365480Y-102810169D01*
X123236051Y-102703949D01*
X123129831Y-102574520D01*
X123050903Y-102426855D01*
X123002299Y-102266630D01*
X122985888Y-102100000D01*
X123002299Y-101933370D01*
X123050903Y-101773145D01*
X123129831Y-101625480D01*
X123236051Y-101496051D01*
X123365480Y-101389831D01*
X123513145Y-101310903D01*
X123673370Y-101262299D01*
X123798248Y-101250000D01*
X123881752Y-101250000D01*
X124006630Y-101262299D01*
X124006630Y-101262299D01*
G37*
G36*
X117551377Y-100753363D02*
X117602091Y-100763450D01*
X117665787Y-100789834D01*
X117723112Y-100828137D01*
X117771863Y-100876888D01*
X117810166Y-100934213D01*
X117836550Y-100997909D01*
X117850000Y-101065528D01*
X117850000Y-101134472D01*
X117836550Y-101202091D01*
X117810166Y-101265787D01*
X117771863Y-101323112D01*
X117723112Y-101371863D01*
X117665787Y-101410166D01*
X117602091Y-101436550D01*
X117551377Y-101446637D01*
X117534473Y-101450000D01*
X117465527Y-101450000D01*
X117448623Y-101446637D01*
X117397909Y-101436550D01*
X117334213Y-101410166D01*
X117276888Y-101371863D01*
X117228137Y-101323112D01*
X117189834Y-101265787D01*
X117163450Y-101202091D01*
X117150000Y-101134472D01*
X117150000Y-101065528D01*
X117163450Y-100997909D01*
X117189834Y-100934213D01*
X117228137Y-100876888D01*
X117276888Y-100828137D01*
X117334213Y-100789834D01*
X117397909Y-100763450D01*
X117448623Y-100753363D01*
X117465527Y-100750000D01*
X117534473Y-100750000D01*
X117551377Y-100753363D01*
X117551377Y-100753363D01*
G37*
M02*
