G04 #@! TF.GenerationSoftware,KiCad,Pcbnew,5.1.0*
G04 #@! TF.CreationDate,2019-05-06T20:06:38+02:00*
G04 #@! TF.ProjectId,printer-otter,7072696e-7465-4722-9d6f-747465722e6b,rev?*
G04 #@! TF.SameCoordinates,Original*
G04 #@! TF.FileFunction,Copper,L2,Bot*
G04 #@! TF.FilePolarity,Positive*
%FSLAX46Y46*%
G04 Gerber Fmt 4.6, Leading zero omitted, Abs format (unit mm)*
G04 Created by KiCad (PCBNEW 5.1.0) date 2019-05-06 20:06:38*
%MOMM*%
%LPD*%
G04 APERTURE LIST*
%ADD10C,0.100000*%
%ADD11O,2.100000X1.000000*%
%ADD12O,1.600000X1.000000*%
%ADD13O,1.700000X1.700000*%
%ADD14R,1.700000X1.700000*%
%ADD15C,0.600000*%
%ADD16C,0.400000*%
%ADD17C,0.200000*%
%ADD18C,0.600000*%
%ADD19C,0.127000*%
G04 APERTURE END LIST*
D10*
X136000000Y-113625000D02*
X136000000Y-100500000D01*
X135500000Y-100000000D02*
X121750000Y-100000000D01*
X100000000Y-100500000D02*
G75*
G02X100500000Y-100000000I500000J0D01*
G01*
X100500000Y-132000000D02*
G75*
G02X100000000Y-131500000I0J500000D01*
G01*
X136000000Y-131500000D02*
G75*
G02X135500000Y-132000000I-500000J0D01*
G01*
X135500000Y-100000000D02*
G75*
G02X136000000Y-100500000I0J-500000D01*
G01*
X135500000Y-100000000D02*
X135500000Y-100000000D01*
X136000000Y-131500000D02*
X136000000Y-115625000D01*
X100500000Y-132000000D02*
X135500000Y-132000000D01*
X100000000Y-100500000D02*
X100000000Y-131500000D01*
X104500000Y-100000000D02*
X100500000Y-100000000D01*
X107000000Y-100000000D02*
X104500000Y-100000000D01*
X110000000Y-100000000D02*
X112500000Y-100000000D01*
X113000000Y-100000000D02*
X112500000Y-100000000D01*
X110000000Y-100000000D02*
X107000000Y-100000000D01*
X121750000Y-100000000D02*
X113000000Y-100000000D01*
X136000000Y-115625000D02*
G75*
G02X136000000Y-113625000I1499999J1000000D01*
G01*
D11*
X129165000Y-127070000D03*
X129165000Y-118430000D03*
D12*
X133345000Y-127070000D03*
X133345000Y-118430000D03*
D13*
X119515000Y-130050000D03*
X122055000Y-130050000D03*
X124595000Y-130050000D03*
X127135000Y-130050000D03*
D14*
X129675000Y-130050000D03*
D13*
X115910000Y-130050000D03*
X113370000Y-130050000D03*
X110830000Y-130050000D03*
X108290000Y-130050000D03*
D14*
X105750000Y-130050000D03*
D15*
X122750000Y-110050000D03*
X122725000Y-107325000D03*
X120175000Y-103700000D03*
X122000000Y-116000000D03*
X119000000Y-116000000D03*
X122000000Y-114000000D03*
X119000000Y-114000000D03*
X122000000Y-118000000D03*
X119000000Y-118000000D03*
X122725000Y-105075000D03*
X131162500Y-104600000D03*
X130400000Y-102675000D03*
X128425000Y-102925000D03*
X128425000Y-103675000D03*
X131250000Y-101925000D03*
X133250000Y-101925000D03*
X130175000Y-113075000D03*
X114350000Y-111325000D03*
X107700000Y-111450000D03*
X111200000Y-114375000D03*
X114050000Y-116150000D03*
X109400000Y-117650000D03*
X110375000Y-121025000D03*
X107725000Y-120950000D03*
X112000000Y-122150000D03*
X114475000Y-122425000D03*
X109200000Y-126425000D03*
X113575000Y-126125000D03*
X116125000Y-126450000D03*
X117825000Y-128225000D03*
X103075000Y-127525000D03*
X102925000Y-131225000D03*
X102100000Y-104000000D03*
X101675000Y-113975000D03*
X102275000Y-118450000D03*
X103875000Y-120300000D03*
X102875000Y-119375000D03*
X125500000Y-102875000D03*
X125500000Y-103600000D03*
X122000000Y-103450000D03*
X118275000Y-104850000D03*
X120925000Y-107850000D03*
X117050000Y-109800000D03*
X115525000Y-108750000D03*
X117925000Y-111100000D03*
X124950000Y-113750000D03*
X126900000Y-117100000D03*
X130400000Y-109050000D03*
X114650000Y-105675000D03*
X113200000Y-108850000D03*
X109675000Y-108825000D03*
X106375000Y-109425000D03*
X104875000Y-110950000D03*
X108075000Y-109975000D03*
X110800000Y-111100000D03*
X112675000Y-117300000D03*
X126725000Y-128750000D03*
X128175000Y-128925000D03*
X123050000Y-127475000D03*
X121275000Y-127450000D03*
X117275000Y-122825000D03*
X112650000Y-120450000D03*
X120175000Y-105225000D03*
X132200000Y-128300000D03*
X133200000Y-128300000D03*
X134200000Y-128300000D03*
X135200000Y-128300000D03*
X132200000Y-129300000D03*
X133200000Y-129300000D03*
X134200000Y-129300000D03*
X135200000Y-129300000D03*
X132200000Y-130300000D03*
X133200000Y-130300000D03*
X134200000Y-130300000D03*
X135200000Y-130300000D03*
X132200000Y-131300000D03*
X133200000Y-131300000D03*
X134200000Y-131300000D03*
X135200000Y-131300000D03*
X102100000Y-106800000D03*
X102200000Y-112500000D03*
X111500000Y-108600000D03*
X109300004Y-110800000D03*
X114075000Y-119150000D03*
X105625830Y-114335860D03*
X105493781Y-115078219D03*
X107620356Y-118041126D03*
X102100000Y-125100000D03*
X102100000Y-115500000D03*
X113400000Y-123100000D03*
X105500407Y-117584231D03*
X107900000Y-122200000D03*
X110300000Y-123400000D03*
X124800000Y-111500000D03*
X126900000Y-113200000D03*
X123800000Y-121800000D03*
X114400000Y-117400000D03*
X106455000Y-124550000D03*
X126925000Y-106475000D03*
X103050000Y-108800000D03*
X101154010Y-123100000D03*
X106562500Y-117150000D03*
X109000000Y-114200000D03*
X105600000Y-107400000D03*
X118800000Y-121900000D03*
X112399996Y-116000000D03*
X128400000Y-111500000D03*
X132100000Y-105650000D03*
X121200000Y-110155000D03*
X115345000Y-112800000D03*
X127000000Y-125100000D03*
X126900000Y-120400000D03*
X126400000Y-120900000D03*
X126400000Y-124600000D03*
X135400000Y-105700000D03*
X135400000Y-104800000D03*
X135400000Y-103900000D03*
X129499472Y-121684378D03*
X129550000Y-123650000D03*
X106400006Y-114000000D03*
X125170303Y-115849228D03*
X121183501Y-122466997D03*
X122600000Y-122800000D03*
X123600000Y-122800000D03*
X124950000Y-119175000D03*
X125504010Y-118175000D03*
X126050000Y-117525000D03*
X119800000Y-111650000D03*
X129050003Y-114050003D03*
D16*
X102100000Y-106800000D02*
X102100000Y-112400000D01*
X102100000Y-112400000D02*
X102200000Y-112500000D01*
D17*
X111500000Y-108600000D02*
X109300004Y-110799996D01*
X109300004Y-110799996D02*
X109300004Y-110800000D01*
X113575000Y-119150000D02*
X110225000Y-115800000D01*
X105925829Y-114635859D02*
X105625830Y-114335860D01*
X114075000Y-119150000D02*
X113575000Y-119150000D01*
X107089970Y-115800000D02*
X105925829Y-114635859D01*
X110225000Y-115800000D02*
X107089970Y-115800000D01*
X105493781Y-115078219D02*
X107620356Y-117204794D01*
X107620356Y-117616862D02*
X107620356Y-118041126D01*
X107620356Y-117204794D02*
X107620356Y-117616862D01*
D16*
X101800001Y-115799999D02*
X102100000Y-115500000D01*
X100404010Y-123354010D02*
X100404010Y-117195990D01*
X102100000Y-125050000D02*
X100404010Y-123354010D01*
X100404010Y-117195990D02*
X101800001Y-115799999D01*
X102100000Y-125100000D02*
X102100000Y-125050000D01*
D17*
X105800406Y-117884230D02*
X105500407Y-117584231D01*
X113400000Y-123100000D02*
X111016176Y-123100000D01*
X111016176Y-123100000D02*
X105800406Y-117884230D01*
X109700000Y-123400000D02*
X110300000Y-123400000D01*
X107900000Y-122200000D02*
X108500000Y-122200000D01*
X108500000Y-122200000D02*
X109700000Y-123400000D01*
D16*
X125200000Y-111500000D02*
X126900000Y-113200000D01*
X124800000Y-111500000D02*
X125200000Y-111500000D01*
X123800000Y-121000000D02*
X118100000Y-121000000D01*
X123800000Y-121800000D02*
X123800000Y-121000000D01*
X118100000Y-121000000D02*
X114500000Y-117400000D01*
X114500000Y-117400000D02*
X114400000Y-117400000D01*
X120000000Y-121000000D02*
X120650000Y-121000000D01*
X120000000Y-122400000D02*
X120000000Y-121000000D01*
X118900000Y-123500000D02*
X120000000Y-122400000D01*
X106455000Y-124550000D02*
X112950000Y-124550000D01*
X114000000Y-123500000D02*
X118900000Y-123500000D01*
X112950000Y-124550000D02*
X114000000Y-123500000D01*
X123800000Y-118725000D02*
X123800000Y-121800000D01*
X126900000Y-113200000D02*
X126900000Y-115625000D01*
X126900000Y-115625000D02*
X123800000Y-118725000D01*
D18*
X105300000Y-106500000D02*
X103050000Y-108750000D01*
X126925000Y-106475000D02*
X126900000Y-106500000D01*
X103050000Y-108750000D02*
X103050000Y-108800000D01*
X126900000Y-106500000D02*
X105300000Y-106500000D01*
X101100000Y-117600000D02*
X101100000Y-123045990D01*
X103050000Y-108800000D02*
X103050000Y-115650000D01*
X101100000Y-123045990D02*
X101154010Y-123100000D01*
X103050000Y-115650000D02*
X101100000Y-117600000D01*
D16*
X105050000Y-115600000D02*
X103050000Y-115600000D01*
X106562500Y-117150000D02*
X106562500Y-117112500D01*
X106562500Y-117112500D02*
X105050000Y-115600000D01*
D17*
X105600000Y-110800000D02*
X105600000Y-107824264D01*
X109000000Y-114200000D02*
X105600000Y-110800000D01*
X105600000Y-107824264D02*
X105600000Y-107400000D01*
X112400000Y-116200000D02*
X112400000Y-116000000D01*
X118800000Y-121900000D02*
X118100000Y-121900000D01*
X118100000Y-121900000D02*
X112400000Y-116200000D01*
X132050000Y-105650000D02*
X132100000Y-105650000D01*
X128400000Y-111500000D02*
X128400000Y-109300000D01*
X128400000Y-109300000D02*
X132050000Y-105650000D01*
D18*
X120100000Y-110155000D02*
X117455000Y-112800000D01*
X121200000Y-110155000D02*
X120100000Y-110155000D01*
X117455000Y-112800000D02*
X115345000Y-112800000D01*
X135400000Y-105700000D02*
X135400000Y-104800000D01*
X131400000Y-109700000D02*
X135100001Y-105999999D01*
X135100001Y-105999999D02*
X135400000Y-105700000D01*
X131400000Y-115300000D02*
X131400000Y-119800000D01*
X131400000Y-115900000D02*
X131400000Y-115300000D01*
X131400000Y-115300000D02*
X131400000Y-109700000D01*
X131400000Y-119800000D02*
X130400000Y-120800000D01*
X130400000Y-120800000D02*
X128500000Y-120800000D01*
X135400000Y-104800000D02*
X135400000Y-103900000D01*
X131100000Y-125700000D02*
X130000000Y-124600000D01*
X131100000Y-131000000D02*
X131100000Y-125700000D01*
X130745999Y-131354001D02*
X131100000Y-131000000D01*
X105750000Y-130050000D02*
X107054001Y-131354001D01*
X130000000Y-124600000D02*
X128300000Y-124600000D01*
X107054001Y-131354001D02*
X130745999Y-131354001D01*
D17*
X129499472Y-122108642D02*
X129500000Y-122109170D01*
X129499472Y-121684378D02*
X129499472Y-122108642D01*
X129500000Y-122109170D02*
X129500000Y-123600000D01*
X129500000Y-123600000D02*
X129550000Y-123650000D01*
X107500006Y-115100000D02*
X124421075Y-115100000D01*
X106400006Y-114000000D02*
X107500006Y-115100000D01*
X124421075Y-115100000D02*
X124870304Y-115549229D01*
X124870304Y-115549229D02*
X125170303Y-115849228D01*
X121183501Y-122716499D02*
X121183501Y-122466997D01*
X119900000Y-124000000D02*
X121183501Y-122716499D01*
X108290000Y-130050000D02*
X114340000Y-124000000D01*
X114340000Y-124000000D02*
X119900000Y-124000000D01*
X122600000Y-122800000D02*
X121045989Y-124354011D01*
X116525989Y-124354011D02*
X111679999Y-129200001D01*
X111679999Y-129200001D02*
X110830000Y-130050000D01*
X121045989Y-124354011D02*
X116525989Y-124354011D01*
X118711978Y-124708022D02*
X114219999Y-129200001D01*
X114219999Y-129200001D02*
X113370000Y-130050000D01*
X121891978Y-124708022D02*
X118711978Y-124708022D01*
X123600000Y-122800000D02*
X123600000Y-123000000D01*
X123600000Y-123000000D02*
X121891978Y-124708022D01*
X124650001Y-127454999D02*
X122904999Y-129200001D01*
X124650001Y-119474999D02*
X124650001Y-127454999D01*
X124950000Y-119175000D02*
X124650001Y-119474999D01*
X122904999Y-129200001D02*
X122055000Y-130050000D01*
X125504010Y-118599264D02*
X125504010Y-118175000D01*
X125504010Y-119570990D02*
X125504010Y-118599264D01*
X125125000Y-128317919D02*
X125125000Y-119950000D01*
X125125000Y-119950000D02*
X125504010Y-119570990D01*
X124595000Y-130050000D02*
X124595000Y-128847919D01*
X124595000Y-128847919D02*
X125125000Y-128317919D01*
X126285001Y-129200001D02*
X127135000Y-130050000D01*
X125575000Y-120075000D02*
X125575000Y-128490000D01*
X126349999Y-119300001D02*
X125575000Y-120075000D01*
X125575000Y-128490000D02*
X126285001Y-129200001D01*
X126050000Y-117525000D02*
X126349999Y-117824999D01*
X126349999Y-117824999D02*
X126349999Y-119300001D01*
X128750004Y-113750004D02*
X129050003Y-114050003D01*
X125900000Y-110900000D02*
X128750004Y-113750004D01*
X119800000Y-111650000D02*
X120550000Y-110900000D01*
X120550000Y-110900000D02*
X125900000Y-110900000D01*
D19*
G36*
X135759500Y-113564037D02*
G01*
X135619647Y-113828063D01*
X135611375Y-113848221D01*
X135602816Y-113868277D01*
X135601829Y-113871487D01*
X135500665Y-114208470D01*
X135496464Y-114229863D01*
X135491966Y-114251187D01*
X135491620Y-114254527D01*
X135457837Y-114604742D01*
X135457871Y-114626533D01*
X135457601Y-114648335D01*
X135457911Y-114651679D01*
X135492795Y-115001786D01*
X135497066Y-115023182D01*
X135501031Y-115044596D01*
X135501984Y-115047815D01*
X135604207Y-115384478D01*
X135612543Y-115404614D01*
X135620601Y-115424872D01*
X135622162Y-115427846D01*
X135759501Y-115685166D01*
X135759500Y-131488241D01*
X135753427Y-131550179D01*
X135738854Y-131598445D01*
X135715181Y-131642970D01*
X135683315Y-131682040D01*
X135644465Y-131714179D01*
X135600115Y-131738160D01*
X135551947Y-131753070D01*
X135490769Y-131759500D01*
X131067636Y-131759500D01*
X131113697Y-131721699D01*
X131129902Y-131701954D01*
X131447957Y-131383899D01*
X131467698Y-131367698D01*
X131532367Y-131288898D01*
X131580420Y-131198997D01*
X131610011Y-131101448D01*
X131615678Y-131043910D01*
X131620003Y-131000001D01*
X131617500Y-130974588D01*
X131617500Y-127310706D01*
X132397813Y-127310706D01*
X132460224Y-127461737D01*
X132547884Y-127568294D01*
X132654648Y-127655702D01*
X132776413Y-127720602D01*
X132908500Y-127760500D01*
X133208500Y-127760500D01*
X133208500Y-127206500D01*
X133481500Y-127206500D01*
X133481500Y-127760500D01*
X133781500Y-127760500D01*
X133913587Y-127720602D01*
X134035352Y-127655702D01*
X134142116Y-127568294D01*
X134229776Y-127461737D01*
X134292187Y-127310706D01*
X134273217Y-127206500D01*
X133481500Y-127206500D01*
X133208500Y-127206500D01*
X132416783Y-127206500D01*
X132397813Y-127310706D01*
X131617500Y-127310706D01*
X131617500Y-126829294D01*
X132397813Y-126829294D01*
X132416783Y-126933500D01*
X133208500Y-126933500D01*
X133208500Y-126913500D01*
X133481500Y-126913500D01*
X133481500Y-126933500D01*
X134273217Y-126933500D01*
X134292187Y-126829294D01*
X134229776Y-126678263D01*
X134142116Y-126571706D01*
X134035352Y-126484298D01*
X133913587Y-126419398D01*
X133781500Y-126379500D01*
X132908500Y-126379500D01*
X132776413Y-126419398D01*
X132654648Y-126484298D01*
X132547884Y-126571706D01*
X132460224Y-126678263D01*
X132397813Y-126829294D01*
X131617500Y-126829294D01*
X131617500Y-125725413D01*
X131620003Y-125700000D01*
X131610011Y-125598552D01*
X131580420Y-125501003D01*
X131559283Y-125461459D01*
X131532367Y-125411102D01*
X131467698Y-125332302D01*
X131447952Y-125316097D01*
X130383903Y-124252048D01*
X130367698Y-124232302D01*
X130288898Y-124167633D01*
X130198997Y-124119580D01*
X130101448Y-124089989D01*
X130025413Y-124082500D01*
X130000000Y-124079997D01*
X129974587Y-124082500D01*
X129834194Y-124082500D01*
X129879887Y-124051969D01*
X129951969Y-123979887D01*
X130008603Y-123895128D01*
X130047613Y-123800949D01*
X130067500Y-123700969D01*
X130067500Y-123599031D01*
X130047613Y-123499051D01*
X130008603Y-123404872D01*
X129951969Y-123320113D01*
X129879887Y-123248031D01*
X129817500Y-123206345D01*
X129817500Y-122124766D01*
X129819036Y-122109170D01*
X129817564Y-122094228D01*
X129829359Y-122086347D01*
X129901441Y-122014265D01*
X129958075Y-121929506D01*
X129997085Y-121835327D01*
X130016972Y-121735347D01*
X130016972Y-121633409D01*
X129997085Y-121533429D01*
X129958075Y-121439250D01*
X129901441Y-121354491D01*
X129864450Y-121317500D01*
X130374587Y-121317500D01*
X130400000Y-121320003D01*
X130425413Y-121317500D01*
X130501448Y-121310011D01*
X130598997Y-121280420D01*
X130688898Y-121232367D01*
X130767698Y-121167698D01*
X130783903Y-121147952D01*
X131747952Y-120183903D01*
X131767698Y-120167698D01*
X131832367Y-120088898D01*
X131880420Y-119998997D01*
X131910011Y-119901448D01*
X131917500Y-119825413D01*
X131920003Y-119800000D01*
X131917500Y-119774587D01*
X131917500Y-118670706D01*
X132397813Y-118670706D01*
X132460224Y-118821737D01*
X132547884Y-118928294D01*
X132654648Y-119015702D01*
X132776413Y-119080602D01*
X132908500Y-119120500D01*
X133208500Y-119120500D01*
X133208500Y-118566500D01*
X133481500Y-118566500D01*
X133481500Y-119120500D01*
X133781500Y-119120500D01*
X133913587Y-119080602D01*
X134035352Y-119015702D01*
X134142116Y-118928294D01*
X134229776Y-118821737D01*
X134292187Y-118670706D01*
X134273217Y-118566500D01*
X133481500Y-118566500D01*
X133208500Y-118566500D01*
X132416783Y-118566500D01*
X132397813Y-118670706D01*
X131917500Y-118670706D01*
X131917500Y-118189294D01*
X132397813Y-118189294D01*
X132416783Y-118293500D01*
X133208500Y-118293500D01*
X133208500Y-118273500D01*
X133481500Y-118273500D01*
X133481500Y-118293500D01*
X134273217Y-118293500D01*
X134292187Y-118189294D01*
X134229776Y-118038263D01*
X134142116Y-117931706D01*
X134035352Y-117844298D01*
X133913587Y-117779398D01*
X133781500Y-117739500D01*
X132908500Y-117739500D01*
X132776413Y-117779398D01*
X132654648Y-117844298D01*
X132547884Y-117931706D01*
X132460224Y-118038263D01*
X132397813Y-118189294D01*
X131917500Y-118189294D01*
X131917500Y-114569106D01*
X132507500Y-114569106D01*
X132507500Y-114680894D01*
X132529309Y-114790534D01*
X132572088Y-114893812D01*
X132634194Y-114986760D01*
X132713240Y-115065806D01*
X132806188Y-115127912D01*
X132909466Y-115170691D01*
X133019106Y-115192500D01*
X133130894Y-115192500D01*
X133240534Y-115170691D01*
X133343812Y-115127912D01*
X133436760Y-115065806D01*
X133515806Y-114986760D01*
X133577912Y-114893812D01*
X133620691Y-114790534D01*
X133642500Y-114680894D01*
X133642500Y-114569106D01*
X134307500Y-114569106D01*
X134307500Y-114680894D01*
X134329309Y-114790534D01*
X134372088Y-114893812D01*
X134434194Y-114986760D01*
X134513240Y-115065806D01*
X134606188Y-115127912D01*
X134709466Y-115170691D01*
X134819106Y-115192500D01*
X134930894Y-115192500D01*
X135040534Y-115170691D01*
X135143812Y-115127912D01*
X135236760Y-115065806D01*
X135315806Y-114986760D01*
X135377912Y-114893812D01*
X135420691Y-114790534D01*
X135442500Y-114680894D01*
X135442500Y-114569106D01*
X135420691Y-114459466D01*
X135377912Y-114356188D01*
X135315806Y-114263240D01*
X135236760Y-114184194D01*
X135143812Y-114122088D01*
X135040534Y-114079309D01*
X134930894Y-114057500D01*
X134819106Y-114057500D01*
X134709466Y-114079309D01*
X134606188Y-114122088D01*
X134513240Y-114184194D01*
X134434194Y-114263240D01*
X134372088Y-114356188D01*
X134329309Y-114459466D01*
X134307500Y-114569106D01*
X133642500Y-114569106D01*
X133620691Y-114459466D01*
X133577912Y-114356188D01*
X133515806Y-114263240D01*
X133436760Y-114184194D01*
X133343812Y-114122088D01*
X133240534Y-114079309D01*
X133130894Y-114057500D01*
X133019106Y-114057500D01*
X132909466Y-114079309D01*
X132806188Y-114122088D01*
X132713240Y-114184194D01*
X132634194Y-114263240D01*
X132572088Y-114356188D01*
X132529309Y-114459466D01*
X132507500Y-114569106D01*
X131917500Y-114569106D01*
X131917500Y-109914355D01*
X135483898Y-106347957D01*
X135483898Y-106347956D01*
X135729881Y-106101973D01*
X135729887Y-106101969D01*
X135747958Y-106083898D01*
X135759501Y-106074425D01*
X135759500Y-113564037D01*
X135759500Y-113564037D01*
G37*
X135759500Y-113564037D02*
X135619647Y-113828063D01*
X135611375Y-113848221D01*
X135602816Y-113868277D01*
X135601829Y-113871487D01*
X135500665Y-114208470D01*
X135496464Y-114229863D01*
X135491966Y-114251187D01*
X135491620Y-114254527D01*
X135457837Y-114604742D01*
X135457871Y-114626533D01*
X135457601Y-114648335D01*
X135457911Y-114651679D01*
X135492795Y-115001786D01*
X135497066Y-115023182D01*
X135501031Y-115044596D01*
X135501984Y-115047815D01*
X135604207Y-115384478D01*
X135612543Y-115404614D01*
X135620601Y-115424872D01*
X135622162Y-115427846D01*
X135759501Y-115685166D01*
X135759500Y-131488241D01*
X135753427Y-131550179D01*
X135738854Y-131598445D01*
X135715181Y-131642970D01*
X135683315Y-131682040D01*
X135644465Y-131714179D01*
X135600115Y-131738160D01*
X135551947Y-131753070D01*
X135490769Y-131759500D01*
X131067636Y-131759500D01*
X131113697Y-131721699D01*
X131129902Y-131701954D01*
X131447957Y-131383899D01*
X131467698Y-131367698D01*
X131532367Y-131288898D01*
X131580420Y-131198997D01*
X131610011Y-131101448D01*
X131615678Y-131043910D01*
X131620003Y-131000001D01*
X131617500Y-130974588D01*
X131617500Y-127310706D01*
X132397813Y-127310706D01*
X132460224Y-127461737D01*
X132547884Y-127568294D01*
X132654648Y-127655702D01*
X132776413Y-127720602D01*
X132908500Y-127760500D01*
X133208500Y-127760500D01*
X133208500Y-127206500D01*
X133481500Y-127206500D01*
X133481500Y-127760500D01*
X133781500Y-127760500D01*
X133913587Y-127720602D01*
X134035352Y-127655702D01*
X134142116Y-127568294D01*
X134229776Y-127461737D01*
X134292187Y-127310706D01*
X134273217Y-127206500D01*
X133481500Y-127206500D01*
X133208500Y-127206500D01*
X132416783Y-127206500D01*
X132397813Y-127310706D01*
X131617500Y-127310706D01*
X131617500Y-126829294D01*
X132397813Y-126829294D01*
X132416783Y-126933500D01*
X133208500Y-126933500D01*
X133208500Y-126913500D01*
X133481500Y-126913500D01*
X133481500Y-126933500D01*
X134273217Y-126933500D01*
X134292187Y-126829294D01*
X134229776Y-126678263D01*
X134142116Y-126571706D01*
X134035352Y-126484298D01*
X133913587Y-126419398D01*
X133781500Y-126379500D01*
X132908500Y-126379500D01*
X132776413Y-126419398D01*
X132654648Y-126484298D01*
X132547884Y-126571706D01*
X132460224Y-126678263D01*
X132397813Y-126829294D01*
X131617500Y-126829294D01*
X131617500Y-125725413D01*
X131620003Y-125700000D01*
X131610011Y-125598552D01*
X131580420Y-125501003D01*
X131559283Y-125461459D01*
X131532367Y-125411102D01*
X131467698Y-125332302D01*
X131447952Y-125316097D01*
X130383903Y-124252048D01*
X130367698Y-124232302D01*
X130288898Y-124167633D01*
X130198997Y-124119580D01*
X130101448Y-124089989D01*
X130025413Y-124082500D01*
X130000000Y-124079997D01*
X129974587Y-124082500D01*
X129834194Y-124082500D01*
X129879887Y-124051969D01*
X129951969Y-123979887D01*
X130008603Y-123895128D01*
X130047613Y-123800949D01*
X130067500Y-123700969D01*
X130067500Y-123599031D01*
X130047613Y-123499051D01*
X130008603Y-123404872D01*
X129951969Y-123320113D01*
X129879887Y-123248031D01*
X129817500Y-123206345D01*
X129817500Y-122124766D01*
X129819036Y-122109170D01*
X129817564Y-122094228D01*
X129829359Y-122086347D01*
X129901441Y-122014265D01*
X129958075Y-121929506D01*
X129997085Y-121835327D01*
X130016972Y-121735347D01*
X130016972Y-121633409D01*
X129997085Y-121533429D01*
X129958075Y-121439250D01*
X129901441Y-121354491D01*
X129864450Y-121317500D01*
X130374587Y-121317500D01*
X130400000Y-121320003D01*
X130425413Y-121317500D01*
X130501448Y-121310011D01*
X130598997Y-121280420D01*
X130688898Y-121232367D01*
X130767698Y-121167698D01*
X130783903Y-121147952D01*
X131747952Y-120183903D01*
X131767698Y-120167698D01*
X131832367Y-120088898D01*
X131880420Y-119998997D01*
X131910011Y-119901448D01*
X131917500Y-119825413D01*
X131920003Y-119800000D01*
X131917500Y-119774587D01*
X131917500Y-118670706D01*
X132397813Y-118670706D01*
X132460224Y-118821737D01*
X132547884Y-118928294D01*
X132654648Y-119015702D01*
X132776413Y-119080602D01*
X132908500Y-119120500D01*
X133208500Y-119120500D01*
X133208500Y-118566500D01*
X133481500Y-118566500D01*
X133481500Y-119120500D01*
X133781500Y-119120500D01*
X133913587Y-119080602D01*
X134035352Y-119015702D01*
X134142116Y-118928294D01*
X134229776Y-118821737D01*
X134292187Y-118670706D01*
X134273217Y-118566500D01*
X133481500Y-118566500D01*
X133208500Y-118566500D01*
X132416783Y-118566500D01*
X132397813Y-118670706D01*
X131917500Y-118670706D01*
X131917500Y-118189294D01*
X132397813Y-118189294D01*
X132416783Y-118293500D01*
X133208500Y-118293500D01*
X133208500Y-118273500D01*
X133481500Y-118273500D01*
X133481500Y-118293500D01*
X134273217Y-118293500D01*
X134292187Y-118189294D01*
X134229776Y-118038263D01*
X134142116Y-117931706D01*
X134035352Y-117844298D01*
X133913587Y-117779398D01*
X133781500Y-117739500D01*
X132908500Y-117739500D01*
X132776413Y-117779398D01*
X132654648Y-117844298D01*
X132547884Y-117931706D01*
X132460224Y-118038263D01*
X132397813Y-118189294D01*
X131917500Y-118189294D01*
X131917500Y-114569106D01*
X132507500Y-114569106D01*
X132507500Y-114680894D01*
X132529309Y-114790534D01*
X132572088Y-114893812D01*
X132634194Y-114986760D01*
X132713240Y-115065806D01*
X132806188Y-115127912D01*
X132909466Y-115170691D01*
X133019106Y-115192500D01*
X133130894Y-115192500D01*
X133240534Y-115170691D01*
X133343812Y-115127912D01*
X133436760Y-115065806D01*
X133515806Y-114986760D01*
X133577912Y-114893812D01*
X133620691Y-114790534D01*
X133642500Y-114680894D01*
X133642500Y-114569106D01*
X134307500Y-114569106D01*
X134307500Y-114680894D01*
X134329309Y-114790534D01*
X134372088Y-114893812D01*
X134434194Y-114986760D01*
X134513240Y-115065806D01*
X134606188Y-115127912D01*
X134709466Y-115170691D01*
X134819106Y-115192500D01*
X134930894Y-115192500D01*
X135040534Y-115170691D01*
X135143812Y-115127912D01*
X135236760Y-115065806D01*
X135315806Y-114986760D01*
X135377912Y-114893812D01*
X135420691Y-114790534D01*
X135442500Y-114680894D01*
X135442500Y-114569106D01*
X135420691Y-114459466D01*
X135377912Y-114356188D01*
X135315806Y-114263240D01*
X135236760Y-114184194D01*
X135143812Y-114122088D01*
X135040534Y-114079309D01*
X134930894Y-114057500D01*
X134819106Y-114057500D01*
X134709466Y-114079309D01*
X134606188Y-114122088D01*
X134513240Y-114184194D01*
X134434194Y-114263240D01*
X134372088Y-114356188D01*
X134329309Y-114459466D01*
X134307500Y-114569106D01*
X133642500Y-114569106D01*
X133620691Y-114459466D01*
X133577912Y-114356188D01*
X133515806Y-114263240D01*
X133436760Y-114184194D01*
X133343812Y-114122088D01*
X133240534Y-114079309D01*
X133130894Y-114057500D01*
X133019106Y-114057500D01*
X132909466Y-114079309D01*
X132806188Y-114122088D01*
X132713240Y-114184194D01*
X132634194Y-114263240D01*
X132572088Y-114356188D01*
X132529309Y-114459466D01*
X132507500Y-114569106D01*
X131917500Y-114569106D01*
X131917500Y-109914355D01*
X135483898Y-106347957D01*
X135483898Y-106347956D01*
X135729881Y-106101973D01*
X135729887Y-106101969D01*
X135747958Y-106083898D01*
X135759501Y-106074425D01*
X135759500Y-113564037D01*
G36*
X135550178Y-100246573D02*
G01*
X135598446Y-100261146D01*
X135642965Y-100284816D01*
X135682040Y-100316686D01*
X135714179Y-100355535D01*
X135738159Y-100399884D01*
X135753070Y-100448053D01*
X135759501Y-100509241D01*
X135759501Y-103525575D01*
X135747958Y-103516102D01*
X135729887Y-103498031D01*
X135708637Y-103483832D01*
X135688898Y-103467633D01*
X135666379Y-103455596D01*
X135645128Y-103441397D01*
X135621516Y-103431617D01*
X135598997Y-103419580D01*
X135574562Y-103412168D01*
X135550949Y-103402387D01*
X135525882Y-103397401D01*
X135501448Y-103389989D01*
X135476036Y-103387486D01*
X135450969Y-103382500D01*
X135425413Y-103382500D01*
X135400000Y-103379997D01*
X135374587Y-103382500D01*
X135349031Y-103382500D01*
X135323963Y-103387486D01*
X135298553Y-103389989D01*
X135274121Y-103397400D01*
X135249051Y-103402387D01*
X135225435Y-103412169D01*
X135201004Y-103419580D01*
X135178488Y-103431615D01*
X135154872Y-103441397D01*
X135133617Y-103455599D01*
X135111103Y-103467633D01*
X135091368Y-103483829D01*
X135070113Y-103498031D01*
X135052038Y-103516106D01*
X135032303Y-103532302D01*
X135016107Y-103552037D01*
X134998031Y-103570113D01*
X134983828Y-103591370D01*
X134967634Y-103611102D01*
X134955601Y-103633614D01*
X134941397Y-103654872D01*
X134931613Y-103678492D01*
X134919581Y-103701003D01*
X134912171Y-103725429D01*
X134902387Y-103749051D01*
X134897399Y-103774128D01*
X134889990Y-103798552D01*
X134887488Y-103823954D01*
X134882500Y-103849031D01*
X134882500Y-103950969D01*
X134882501Y-103950974D01*
X134882500Y-104749031D01*
X134882500Y-104850969D01*
X134882501Y-104850974D01*
X134882500Y-105485645D01*
X134752044Y-105616102D01*
X134752043Y-105616102D01*
X131052043Y-109316102D01*
X131032303Y-109332302D01*
X130967634Y-109411102D01*
X130941949Y-109459156D01*
X130919580Y-109501004D01*
X130889989Y-109598553D01*
X130879997Y-109700000D01*
X130882501Y-109725423D01*
X130882500Y-115274587D01*
X130882500Y-115274588D01*
X130882501Y-119585644D01*
X130185645Y-120282500D01*
X130039158Y-120282500D01*
X130040824Y-120281387D01*
X130116387Y-120205824D01*
X130175757Y-120116970D01*
X130216652Y-120018241D01*
X130237500Y-119913432D01*
X130237500Y-119806568D01*
X130216652Y-119701759D01*
X130175757Y-119603030D01*
X130116387Y-119514176D01*
X130040824Y-119438613D01*
X129951970Y-119379243D01*
X129853241Y-119338348D01*
X129748432Y-119317500D01*
X129641568Y-119317500D01*
X129536759Y-119338348D01*
X129438030Y-119379243D01*
X129349176Y-119438613D01*
X129273613Y-119514176D01*
X129214243Y-119603030D01*
X129173348Y-119701759D01*
X129156031Y-119788817D01*
X129146393Y-119780908D01*
X129100837Y-119756558D01*
X129051406Y-119741563D01*
X129000000Y-119736500D01*
X126362513Y-119736500D01*
X126563475Y-119535538D01*
X126575592Y-119525594D01*
X126615268Y-119477248D01*
X126644750Y-119422091D01*
X126662905Y-119362242D01*
X126667499Y-119315597D01*
X126667499Y-119315595D01*
X126669035Y-119300002D01*
X126667499Y-119284409D01*
X126667499Y-118670706D01*
X127967813Y-118670706D01*
X128030224Y-118821737D01*
X128117884Y-118928294D01*
X128224648Y-119015702D01*
X128346413Y-119080602D01*
X128478500Y-119120500D01*
X129028500Y-119120500D01*
X129028500Y-118566500D01*
X129301500Y-118566500D01*
X129301500Y-119120500D01*
X129851500Y-119120500D01*
X129983587Y-119080602D01*
X130105352Y-119015702D01*
X130212116Y-118928294D01*
X130299776Y-118821737D01*
X130362187Y-118670706D01*
X130343217Y-118566500D01*
X129301500Y-118566500D01*
X129028500Y-118566500D01*
X127986783Y-118566500D01*
X127967813Y-118670706D01*
X126667499Y-118670706D01*
X126667499Y-118189294D01*
X127967813Y-118189294D01*
X127986783Y-118293500D01*
X129028500Y-118293500D01*
X129028500Y-118273500D01*
X129301500Y-118273500D01*
X129301500Y-118293500D01*
X130343217Y-118293500D01*
X130362187Y-118189294D01*
X130299776Y-118038263D01*
X130212116Y-117931706D01*
X130105352Y-117844298D01*
X129983587Y-117779398D01*
X129851500Y-117739500D01*
X128478500Y-117739500D01*
X128346413Y-117779398D01*
X128224648Y-117844298D01*
X128117884Y-117931706D01*
X128030224Y-118038263D01*
X127967813Y-118189294D01*
X126667499Y-118189294D01*
X126667499Y-117840595D01*
X126669035Y-117824999D01*
X126662905Y-117762758D01*
X126644750Y-117702909D01*
X126615268Y-117647752D01*
X126603221Y-117633073D01*
X126575592Y-117599406D01*
X126564628Y-117590408D01*
X126567500Y-117575969D01*
X126567500Y-117474031D01*
X126547613Y-117374051D01*
X126508603Y-117279872D01*
X126451969Y-117195113D01*
X126379887Y-117123031D01*
X126295128Y-117066397D01*
X126200949Y-117027387D01*
X126106779Y-117008656D01*
X127180723Y-115934712D01*
X127196645Y-115921645D01*
X127209712Y-115905723D01*
X127209719Y-115905716D01*
X127248817Y-115858074D01*
X127248818Y-115858073D01*
X127287586Y-115785543D01*
X127311459Y-115706844D01*
X127317500Y-115645509D01*
X127317500Y-115645503D01*
X127319519Y-115625001D01*
X127317500Y-115604499D01*
X127317500Y-113506643D01*
X127358603Y-113445128D01*
X127397613Y-113350949D01*
X127417500Y-113250969D01*
X127417500Y-113149031D01*
X127397613Y-113049051D01*
X127358603Y-112954872D01*
X127301969Y-112870113D01*
X127229887Y-112798031D01*
X127145128Y-112741397D01*
X127050949Y-112702387D01*
X126978389Y-112687954D01*
X125509717Y-111219283D01*
X125508254Y-111217500D01*
X125768488Y-111217500D01*
X128535409Y-113984422D01*
X128532503Y-113999034D01*
X128532503Y-114100972D01*
X128552390Y-114200952D01*
X128591400Y-114295131D01*
X128648034Y-114379890D01*
X128720116Y-114451972D01*
X128804875Y-114508606D01*
X128899054Y-114547616D01*
X128999034Y-114567503D01*
X129100972Y-114567503D01*
X129200952Y-114547616D01*
X129295131Y-114508606D01*
X129379890Y-114451972D01*
X129451972Y-114379890D01*
X129508606Y-114295131D01*
X129547616Y-114200952D01*
X129567503Y-114100972D01*
X129567503Y-113999034D01*
X129547616Y-113899054D01*
X129508606Y-113804875D01*
X129451972Y-113720116D01*
X129379890Y-113648034D01*
X129295131Y-113591400D01*
X129200952Y-113552390D01*
X129100972Y-113532503D01*
X128999034Y-113532503D01*
X128984422Y-113535409D01*
X126898044Y-111449031D01*
X127882500Y-111449031D01*
X127882500Y-111550969D01*
X127902387Y-111650949D01*
X127941397Y-111745128D01*
X127998031Y-111829887D01*
X128070113Y-111901969D01*
X128154872Y-111958603D01*
X128249051Y-111997613D01*
X128349031Y-112017500D01*
X128450969Y-112017500D01*
X128550949Y-111997613D01*
X128645128Y-111958603D01*
X128729887Y-111901969D01*
X128801969Y-111829887D01*
X128858603Y-111745128D01*
X128897613Y-111650949D01*
X128917500Y-111550969D01*
X128917500Y-111449031D01*
X128897613Y-111349051D01*
X128858603Y-111254872D01*
X128801969Y-111170113D01*
X128729887Y-111098031D01*
X128717500Y-111089754D01*
X128717500Y-109431512D01*
X131992715Y-106156298D01*
X132049031Y-106167500D01*
X132150969Y-106167500D01*
X132250949Y-106147613D01*
X132345128Y-106108603D01*
X132429887Y-106051969D01*
X132501969Y-105979887D01*
X132558603Y-105895128D01*
X132597613Y-105800949D01*
X132617500Y-105700969D01*
X132617500Y-105599031D01*
X132597613Y-105499051D01*
X132558603Y-105404872D01*
X132501969Y-105320113D01*
X132429887Y-105248031D01*
X132345128Y-105191397D01*
X132250949Y-105152387D01*
X132150969Y-105132500D01*
X132049031Y-105132500D01*
X131949051Y-105152387D01*
X131854872Y-105191397D01*
X131770113Y-105248031D01*
X131698031Y-105320113D01*
X131641397Y-105404872D01*
X131602387Y-105499051D01*
X131582500Y-105599031D01*
X131582500Y-105668487D01*
X128186525Y-109064463D01*
X128174408Y-109074407D01*
X128134732Y-109122753D01*
X128118973Y-109152236D01*
X128105249Y-109177911D01*
X128087094Y-109237760D01*
X128080964Y-109300000D01*
X128082501Y-109315606D01*
X128082500Y-111089754D01*
X128070113Y-111098031D01*
X127998031Y-111170113D01*
X127941397Y-111254872D01*
X127902387Y-111349051D01*
X127882500Y-111449031D01*
X126898044Y-111449031D01*
X126135542Y-110686530D01*
X126125593Y-110674407D01*
X126077247Y-110634731D01*
X126022090Y-110605249D01*
X125962241Y-110587094D01*
X125915596Y-110582500D01*
X125900000Y-110580964D01*
X125884404Y-110582500D01*
X121494829Y-110582500D01*
X121508637Y-110571168D01*
X121529887Y-110556969D01*
X121547958Y-110538898D01*
X121567698Y-110522698D01*
X121583898Y-110502958D01*
X121601969Y-110484887D01*
X121616168Y-110463637D01*
X121632367Y-110443898D01*
X121644404Y-110421379D01*
X121658603Y-110400128D01*
X121668383Y-110376516D01*
X121680420Y-110353997D01*
X121687832Y-110329562D01*
X121697613Y-110305949D01*
X121702599Y-110280882D01*
X121710011Y-110256448D01*
X121712514Y-110231036D01*
X121717500Y-110205969D01*
X121717500Y-110180413D01*
X121720003Y-110155000D01*
X121717500Y-110129587D01*
X121717500Y-110104031D01*
X121712514Y-110078964D01*
X121710011Y-110053552D01*
X121702599Y-110029118D01*
X121697613Y-110004051D01*
X121687832Y-109980438D01*
X121680420Y-109956003D01*
X121668383Y-109933484D01*
X121658603Y-109909872D01*
X121644404Y-109888621D01*
X121632367Y-109866102D01*
X121616168Y-109846363D01*
X121601969Y-109825113D01*
X121583898Y-109807042D01*
X121567698Y-109787302D01*
X121547958Y-109771102D01*
X121529887Y-109753031D01*
X121508637Y-109738832D01*
X121488898Y-109722633D01*
X121466379Y-109710596D01*
X121445128Y-109696397D01*
X121421516Y-109686617D01*
X121398997Y-109674580D01*
X121374562Y-109667168D01*
X121350949Y-109657387D01*
X121325882Y-109652401D01*
X121301448Y-109644989D01*
X121276036Y-109642486D01*
X121250969Y-109637500D01*
X120125413Y-109637500D01*
X120100000Y-109634997D01*
X120074587Y-109637500D01*
X119998552Y-109644989D01*
X119901003Y-109674580D01*
X119811102Y-109722633D01*
X119732302Y-109787302D01*
X119716097Y-109807048D01*
X117240645Y-112282500D01*
X115294031Y-112282500D01*
X115268964Y-112287486D01*
X115243552Y-112289989D01*
X115219118Y-112297401D01*
X115194051Y-112302387D01*
X115170438Y-112312168D01*
X115146003Y-112319580D01*
X115123484Y-112331617D01*
X115099872Y-112341397D01*
X115078621Y-112355596D01*
X115056102Y-112367633D01*
X115036363Y-112383832D01*
X115015113Y-112398031D01*
X114997042Y-112416102D01*
X114977302Y-112432302D01*
X114961102Y-112452042D01*
X114943031Y-112470113D01*
X114928832Y-112491363D01*
X114912633Y-112511102D01*
X114900596Y-112533621D01*
X114886397Y-112554872D01*
X114876617Y-112578484D01*
X114864580Y-112601003D01*
X114857168Y-112625438D01*
X114847387Y-112649051D01*
X114842401Y-112674118D01*
X114834989Y-112698552D01*
X114832486Y-112723964D01*
X114827500Y-112749031D01*
X114827500Y-112774587D01*
X114824997Y-112800000D01*
X114827500Y-112825413D01*
X114827500Y-112850969D01*
X114832486Y-112876036D01*
X114834989Y-112901448D01*
X114842401Y-112925882D01*
X114847387Y-112950949D01*
X114857168Y-112974562D01*
X114864580Y-112998997D01*
X114876617Y-113021516D01*
X114886397Y-113045128D01*
X114900596Y-113066379D01*
X114912633Y-113088898D01*
X114928832Y-113108637D01*
X114943031Y-113129887D01*
X114961102Y-113147958D01*
X114977302Y-113167698D01*
X114997041Y-113183897D01*
X115015113Y-113201969D01*
X115036363Y-113216168D01*
X115056102Y-113232367D01*
X115078621Y-113244404D01*
X115099872Y-113258603D01*
X115123484Y-113268383D01*
X115146003Y-113280420D01*
X115170438Y-113287832D01*
X115194051Y-113297613D01*
X115219118Y-113302599D01*
X115243552Y-113310011D01*
X115268964Y-113312514D01*
X115294031Y-113317500D01*
X117429587Y-113317500D01*
X117455000Y-113320003D01*
X117480413Y-113317500D01*
X117556448Y-113310011D01*
X117653997Y-113280420D01*
X117743898Y-113232367D01*
X117822698Y-113167698D01*
X117838903Y-113147952D01*
X119283062Y-111703793D01*
X119302387Y-111800949D01*
X119341397Y-111895128D01*
X119398031Y-111979887D01*
X119470113Y-112051969D01*
X119554872Y-112108603D01*
X119649051Y-112147613D01*
X119749031Y-112167500D01*
X119850969Y-112167500D01*
X119950949Y-112147613D01*
X120045128Y-112108603D01*
X120129887Y-112051969D01*
X120201969Y-111979887D01*
X120258603Y-111895128D01*
X120297613Y-111800949D01*
X120317500Y-111700969D01*
X120317500Y-111599031D01*
X120314594Y-111584419D01*
X120681513Y-111217500D01*
X124366368Y-111217500D01*
X124341397Y-111254872D01*
X124302387Y-111349051D01*
X124282500Y-111449031D01*
X124282500Y-111550969D01*
X124302387Y-111650949D01*
X124341397Y-111745128D01*
X124398031Y-111829887D01*
X124470113Y-111901969D01*
X124554872Y-111958603D01*
X124649051Y-111997613D01*
X124749031Y-112017500D01*
X124850969Y-112017500D01*
X124950949Y-111997613D01*
X125045128Y-111958603D01*
X125058940Y-111949374D01*
X126387954Y-113278389D01*
X126402387Y-113350949D01*
X126441397Y-113445128D01*
X126482500Y-113506643D01*
X126482501Y-115452064D01*
X123519283Y-118415283D01*
X123503355Y-118428355D01*
X123490284Y-118444282D01*
X123490281Y-118444285D01*
X123463290Y-118477174D01*
X123451182Y-118491928D01*
X123412414Y-118564458D01*
X123388541Y-118643157D01*
X123382500Y-118704492D01*
X123382500Y-118704498D01*
X123380481Y-118725000D01*
X123382500Y-118745502D01*
X123382501Y-120582500D01*
X120020509Y-120582500D01*
X120000000Y-120580480D01*
X119979491Y-120582500D01*
X118272934Y-120582500D01*
X114868005Y-117177571D01*
X114858603Y-117154872D01*
X114801969Y-117070113D01*
X114729887Y-116998031D01*
X114645128Y-116941397D01*
X114550949Y-116902387D01*
X114450969Y-116882500D01*
X114349031Y-116882500D01*
X114249051Y-116902387D01*
X114154872Y-116941397D01*
X114070113Y-116998031D01*
X113998031Y-117070113D01*
X113941397Y-117154872D01*
X113902387Y-117249051D01*
X113901670Y-117252657D01*
X112869009Y-116219997D01*
X112897609Y-116150949D01*
X112917496Y-116050969D01*
X112917496Y-115949031D01*
X112897609Y-115849051D01*
X112858599Y-115754872D01*
X112801965Y-115670113D01*
X112729883Y-115598031D01*
X112645124Y-115541397D01*
X112550945Y-115502387D01*
X112450965Y-115482500D01*
X112349027Y-115482500D01*
X112249047Y-115502387D01*
X112154868Y-115541397D01*
X112070109Y-115598031D01*
X111998027Y-115670113D01*
X111941393Y-115754872D01*
X111902383Y-115849051D01*
X111882496Y-115949031D01*
X111882496Y-116050969D01*
X111902383Y-116150949D01*
X111941393Y-116245128D01*
X111998027Y-116329887D01*
X112070109Y-116401969D01*
X112154868Y-116458603D01*
X112248286Y-116497298D01*
X117864463Y-122113476D01*
X117874407Y-122125593D01*
X117922753Y-122165269D01*
X117977910Y-122194751D01*
X118037759Y-122212906D01*
X118084404Y-122217500D01*
X118084406Y-122217500D01*
X118099999Y-122219036D01*
X118115592Y-122217500D01*
X118389754Y-122217500D01*
X118398031Y-122229887D01*
X118470113Y-122301969D01*
X118554872Y-122358603D01*
X118649051Y-122397613D01*
X118749031Y-122417500D01*
X118850969Y-122417500D01*
X118950949Y-122397613D01*
X119045128Y-122358603D01*
X119129887Y-122301969D01*
X119201969Y-122229887D01*
X119258603Y-122145128D01*
X119297613Y-122050949D01*
X119317500Y-121950969D01*
X119317500Y-121849031D01*
X119297613Y-121749051D01*
X119258603Y-121654872D01*
X119201969Y-121570113D01*
X119129887Y-121498031D01*
X119045128Y-121441397D01*
X118987435Y-121417500D01*
X119582501Y-121417500D01*
X119582500Y-122227066D01*
X118727066Y-123082500D01*
X114020498Y-123082500D01*
X113999999Y-123080481D01*
X113979500Y-123082500D01*
X113979491Y-123082500D01*
X113918156Y-123088541D01*
X113917500Y-123088740D01*
X113917500Y-123049031D01*
X113897613Y-122949051D01*
X113858603Y-122854872D01*
X113801969Y-122770113D01*
X113729887Y-122698031D01*
X113645128Y-122641397D01*
X113550949Y-122602387D01*
X113450969Y-122582500D01*
X113349031Y-122582500D01*
X113249051Y-122602387D01*
X113154872Y-122641397D01*
X113070113Y-122698031D01*
X112998031Y-122770113D01*
X112989754Y-122782500D01*
X111147689Y-122782500D01*
X106035945Y-117670757D01*
X106035940Y-117670751D01*
X106015001Y-117649812D01*
X106017907Y-117635200D01*
X106017907Y-117533262D01*
X105998020Y-117433282D01*
X105959010Y-117339103D01*
X105902376Y-117254344D01*
X105830294Y-117182262D01*
X105745535Y-117125628D01*
X105651356Y-117086618D01*
X105551376Y-117066731D01*
X105449438Y-117066731D01*
X105349458Y-117086618D01*
X105255279Y-117125628D01*
X105170520Y-117182262D01*
X105098438Y-117254344D01*
X105041804Y-117339103D01*
X105002794Y-117433282D01*
X104982907Y-117533262D01*
X104982907Y-117635200D01*
X105002794Y-117735180D01*
X105041804Y-117829359D01*
X105098438Y-117914118D01*
X105170520Y-117986200D01*
X105255279Y-118042834D01*
X105349458Y-118081844D01*
X105449438Y-118101731D01*
X105551376Y-118101731D01*
X105565988Y-118098825D01*
X105586927Y-118119764D01*
X105586933Y-118119769D01*
X110349663Y-122882500D01*
X110249031Y-122882500D01*
X110149051Y-122902387D01*
X110054872Y-122941397D01*
X109970113Y-122998031D01*
X109898031Y-123070113D01*
X109889754Y-123082500D01*
X109831513Y-123082500D01*
X108735542Y-121986530D01*
X108725593Y-121974407D01*
X108677247Y-121934731D01*
X108622090Y-121905249D01*
X108562241Y-121887094D01*
X108515596Y-121882500D01*
X108500000Y-121880964D01*
X108484404Y-121882500D01*
X108310246Y-121882500D01*
X108301969Y-121870113D01*
X108229887Y-121798031D01*
X108145128Y-121741397D01*
X108050949Y-121702387D01*
X107950969Y-121682500D01*
X107849031Y-121682500D01*
X107749051Y-121702387D01*
X107654872Y-121741397D01*
X107570113Y-121798031D01*
X107498031Y-121870113D01*
X107441397Y-121954872D01*
X107402387Y-122049051D01*
X107382500Y-122149031D01*
X107382500Y-122250969D01*
X107402387Y-122350949D01*
X107441397Y-122445128D01*
X107498031Y-122529887D01*
X107570113Y-122601969D01*
X107654872Y-122658603D01*
X107749051Y-122697613D01*
X107849031Y-122717500D01*
X107950969Y-122717500D01*
X108050949Y-122697613D01*
X108145128Y-122658603D01*
X108229887Y-122601969D01*
X108301969Y-122529887D01*
X108310246Y-122517500D01*
X108368488Y-122517500D01*
X109464463Y-123613476D01*
X109474407Y-123625593D01*
X109522753Y-123665269D01*
X109577910Y-123694751D01*
X109637759Y-123712906D01*
X109684404Y-123717500D01*
X109684406Y-123717500D01*
X109699999Y-123719036D01*
X109715592Y-123717500D01*
X109889754Y-123717500D01*
X109898031Y-123729887D01*
X109970113Y-123801969D01*
X110054872Y-123858603D01*
X110149051Y-123897613D01*
X110249031Y-123917500D01*
X110350969Y-123917500D01*
X110450949Y-123897613D01*
X110545128Y-123858603D01*
X110629887Y-123801969D01*
X110701969Y-123729887D01*
X110758603Y-123645128D01*
X110797613Y-123550949D01*
X110817500Y-123450969D01*
X110817500Y-123349031D01*
X110817179Y-123347420D01*
X110838929Y-123365269D01*
X110894086Y-123394751D01*
X110953935Y-123412906D01*
X111016176Y-123419036D01*
X111031772Y-123417500D01*
X112989754Y-123417500D01*
X112998031Y-123429887D01*
X113070113Y-123501969D01*
X113154872Y-123558603D01*
X113249051Y-123597613D01*
X113301517Y-123608049D01*
X112777066Y-124132500D01*
X106761643Y-124132500D01*
X106700128Y-124091397D01*
X106605949Y-124052387D01*
X106505969Y-124032500D01*
X106404031Y-124032500D01*
X106304051Y-124052387D01*
X106209872Y-124091397D01*
X106125113Y-124148031D01*
X106053031Y-124220113D01*
X105996397Y-124304872D01*
X105957387Y-124399051D01*
X105937500Y-124499031D01*
X105937500Y-124600969D01*
X105957387Y-124700949D01*
X105996397Y-124795128D01*
X106053031Y-124879887D01*
X106125113Y-124951969D01*
X106209872Y-125008603D01*
X106304051Y-125047613D01*
X106404031Y-125067500D01*
X106505969Y-125067500D01*
X106605949Y-125047613D01*
X106700128Y-125008603D01*
X106761643Y-124967500D01*
X112923487Y-124967500D01*
X108786193Y-129104795D01*
X108700491Y-129058987D01*
X108499267Y-128997946D01*
X108342441Y-128982500D01*
X108237559Y-128982500D01*
X108080733Y-128997946D01*
X107879509Y-129058987D01*
X107694059Y-129158112D01*
X107531511Y-129291511D01*
X107398112Y-129454059D01*
X107298987Y-129639509D01*
X107237946Y-129840733D01*
X107217335Y-130050000D01*
X107237946Y-130259267D01*
X107298987Y-130460491D01*
X107398112Y-130645941D01*
X107531511Y-130808489D01*
X107565644Y-130836501D01*
X107268356Y-130836501D01*
X106818552Y-130386697D01*
X106818552Y-129200000D01*
X106814353Y-129157363D01*
X106801916Y-129116364D01*
X106781719Y-129078579D01*
X106754540Y-129045460D01*
X106721421Y-129018281D01*
X106683636Y-128998084D01*
X106642637Y-128985647D01*
X106600000Y-128981448D01*
X104900000Y-128981448D01*
X104857363Y-128985647D01*
X104816364Y-128998084D01*
X104778579Y-129018281D01*
X104745460Y-129045460D01*
X104718281Y-129078579D01*
X104698084Y-129116364D01*
X104685647Y-129157363D01*
X104681448Y-129200000D01*
X104681448Y-130900000D01*
X104685647Y-130942637D01*
X104698084Y-130983636D01*
X104718281Y-131021421D01*
X104745460Y-131054540D01*
X104778579Y-131081719D01*
X104816364Y-131101916D01*
X104857363Y-131114353D01*
X104900000Y-131118552D01*
X106086697Y-131118552D01*
X106670098Y-131701953D01*
X106686303Y-131721699D01*
X106732364Y-131759500D01*
X100511759Y-131759500D01*
X100449821Y-131753427D01*
X100401555Y-131738854D01*
X100357030Y-131715181D01*
X100317960Y-131683315D01*
X100285821Y-131644465D01*
X100261840Y-131600115D01*
X100246930Y-131551947D01*
X100240500Y-131490769D01*
X100240500Y-123780934D01*
X101582500Y-125122935D01*
X101582500Y-125150969D01*
X101602387Y-125250949D01*
X101641397Y-125345128D01*
X101698031Y-125429887D01*
X101770113Y-125501969D01*
X101854872Y-125558603D01*
X101949051Y-125597613D01*
X102049031Y-125617500D01*
X102150969Y-125617500D01*
X102250949Y-125597613D01*
X102345128Y-125558603D01*
X102429887Y-125501969D01*
X102501969Y-125429887D01*
X102558603Y-125345128D01*
X102597613Y-125250949D01*
X102617500Y-125150969D01*
X102617500Y-125049031D01*
X102597613Y-124949051D01*
X102558603Y-124854872D01*
X102501969Y-124770113D01*
X102429887Y-124698031D01*
X102345128Y-124641397D01*
X102250949Y-124602387D01*
X102240804Y-124600369D01*
X101250895Y-123610460D01*
X101255458Y-123610011D01*
X101279891Y-123602599D01*
X101304959Y-123597613D01*
X101328574Y-123587831D01*
X101353006Y-123580420D01*
X101375522Y-123568385D01*
X101399138Y-123558603D01*
X101420393Y-123544401D01*
X101442907Y-123532367D01*
X101462640Y-123516173D01*
X101483897Y-123501969D01*
X101501976Y-123483890D01*
X101521707Y-123467697D01*
X101537900Y-123447966D01*
X101555979Y-123429887D01*
X101570183Y-123408630D01*
X101586377Y-123388897D01*
X101598411Y-123366383D01*
X101612613Y-123345128D01*
X101622395Y-123321512D01*
X101634430Y-123298996D01*
X101641841Y-123274564D01*
X101651623Y-123250949D01*
X101656609Y-123225881D01*
X101664021Y-123201448D01*
X101666524Y-123176036D01*
X101671510Y-123150969D01*
X101671510Y-123125413D01*
X101674013Y-123100000D01*
X101671510Y-123074587D01*
X101671510Y-123049031D01*
X101666524Y-123023963D01*
X101664021Y-122998553D01*
X101656610Y-122974122D01*
X101651623Y-122949051D01*
X101641840Y-122925433D01*
X101634430Y-122901005D01*
X101622397Y-122878492D01*
X101617500Y-122866670D01*
X101617500Y-117814355D01*
X103397957Y-116033899D01*
X103417698Y-116017698D01*
X103417860Y-116017500D01*
X104877066Y-116017500D01*
X106045000Y-117185435D01*
X106045000Y-117200969D01*
X106064887Y-117300949D01*
X106103897Y-117395128D01*
X106160531Y-117479887D01*
X106232613Y-117551969D01*
X106317372Y-117608603D01*
X106411551Y-117647613D01*
X106511531Y-117667500D01*
X106613469Y-117667500D01*
X106713449Y-117647613D01*
X106807628Y-117608603D01*
X106892387Y-117551969D01*
X106964469Y-117479887D01*
X107021103Y-117395128D01*
X107060113Y-117300949D01*
X107080000Y-117200969D01*
X107080000Y-117113451D01*
X107302856Y-117336307D01*
X107302856Y-117630880D01*
X107290469Y-117639157D01*
X107218387Y-117711239D01*
X107161753Y-117795998D01*
X107122743Y-117890177D01*
X107102856Y-117990157D01*
X107102856Y-118092095D01*
X107122743Y-118192075D01*
X107161753Y-118286254D01*
X107218387Y-118371013D01*
X107290469Y-118443095D01*
X107375228Y-118499729D01*
X107469407Y-118538739D01*
X107569387Y-118558626D01*
X107671325Y-118558626D01*
X107771305Y-118538739D01*
X107865484Y-118499729D01*
X107950243Y-118443095D01*
X108022325Y-118371013D01*
X108078959Y-118286254D01*
X108117969Y-118192075D01*
X108137856Y-118092095D01*
X108137856Y-117990157D01*
X108117969Y-117890177D01*
X108078959Y-117795998D01*
X108022325Y-117711239D01*
X107950243Y-117639157D01*
X107937856Y-117630880D01*
X107937856Y-117220386D01*
X107939392Y-117204793D01*
X107935732Y-117167633D01*
X107933262Y-117142553D01*
X107915107Y-117082704D01*
X107885625Y-117027547D01*
X107845949Y-116979201D01*
X107833833Y-116969258D01*
X106949503Y-116084928D01*
X106967141Y-116094356D01*
X106967880Y-116094751D01*
X107027729Y-116112906D01*
X107089970Y-116119036D01*
X107105566Y-116117500D01*
X110093488Y-116117500D01*
X113339463Y-119363476D01*
X113349407Y-119375593D01*
X113397753Y-119415269D01*
X113452910Y-119444751D01*
X113512759Y-119462906D01*
X113559404Y-119467500D01*
X113559406Y-119467500D01*
X113574999Y-119469036D01*
X113590592Y-119467500D01*
X113664754Y-119467500D01*
X113673031Y-119479887D01*
X113745113Y-119551969D01*
X113829872Y-119608603D01*
X113924051Y-119647613D01*
X114024031Y-119667500D01*
X114125969Y-119667500D01*
X114225949Y-119647613D01*
X114320128Y-119608603D01*
X114404887Y-119551969D01*
X114476969Y-119479887D01*
X114533603Y-119395128D01*
X114572613Y-119300949D01*
X114592500Y-119200969D01*
X114592500Y-119099031D01*
X114572613Y-118999051D01*
X114533603Y-118904872D01*
X114476969Y-118820113D01*
X114404887Y-118748031D01*
X114320128Y-118691397D01*
X114225949Y-118652387D01*
X114125969Y-118632500D01*
X114024031Y-118632500D01*
X113924051Y-118652387D01*
X113829872Y-118691397D01*
X113745113Y-118748031D01*
X113683578Y-118809566D01*
X110460542Y-115586530D01*
X110450593Y-115574407D01*
X110402247Y-115534731D01*
X110347090Y-115505249D01*
X110287241Y-115487094D01*
X110240596Y-115482500D01*
X110225000Y-115480964D01*
X110209404Y-115482500D01*
X107221483Y-115482500D01*
X106227783Y-114488801D01*
X106249057Y-114497613D01*
X106349037Y-114517500D01*
X106450975Y-114517500D01*
X106465587Y-114514593D01*
X107264469Y-115313476D01*
X107274413Y-115325593D01*
X107317683Y-115361103D01*
X107322759Y-115365269D01*
X107377916Y-115394751D01*
X107437765Y-115412906D01*
X107500006Y-115419036D01*
X107515602Y-115417500D01*
X124289563Y-115417500D01*
X124655709Y-115783647D01*
X124652803Y-115798259D01*
X124652803Y-115900197D01*
X124672690Y-116000177D01*
X124711700Y-116094356D01*
X124768334Y-116179115D01*
X124840416Y-116251197D01*
X124925175Y-116307831D01*
X125019354Y-116346841D01*
X125119334Y-116366728D01*
X125221272Y-116366728D01*
X125321252Y-116346841D01*
X125415431Y-116307831D01*
X125500190Y-116251197D01*
X125572272Y-116179115D01*
X125628906Y-116094356D01*
X125667916Y-116000177D01*
X125687803Y-115900197D01*
X125687803Y-115798259D01*
X125667916Y-115698279D01*
X125628906Y-115604100D01*
X125572272Y-115519341D01*
X125500190Y-115447259D01*
X125415431Y-115390625D01*
X125321252Y-115351615D01*
X125221272Y-115331728D01*
X125119334Y-115331728D01*
X125104722Y-115334634D01*
X124656617Y-114886529D01*
X124646668Y-114874407D01*
X124598322Y-114834731D01*
X124543165Y-114805249D01*
X124483316Y-114787094D01*
X124436671Y-114782500D01*
X124421075Y-114780964D01*
X124405479Y-114782500D01*
X107631519Y-114782500D01*
X106914599Y-114065581D01*
X106917506Y-114050969D01*
X106917506Y-113949031D01*
X106897619Y-113849051D01*
X106858609Y-113754872D01*
X106801975Y-113670113D01*
X106729893Y-113598031D01*
X106645134Y-113541397D01*
X106550955Y-113502387D01*
X106450975Y-113482500D01*
X106349037Y-113482500D01*
X106249057Y-113502387D01*
X106154878Y-113541397D01*
X106070119Y-113598031D01*
X105998037Y-113670113D01*
X105941403Y-113754872D01*
X105902393Y-113849051D01*
X105893753Y-113892488D01*
X105870958Y-113877257D01*
X105776779Y-113838247D01*
X105676799Y-113818360D01*
X105574861Y-113818360D01*
X105474881Y-113838247D01*
X105380702Y-113877257D01*
X105295943Y-113933891D01*
X105223861Y-114005973D01*
X105167227Y-114090732D01*
X105128217Y-114184911D01*
X105108330Y-114284891D01*
X105108330Y-114386829D01*
X105128217Y-114486809D01*
X105167227Y-114580988D01*
X105210204Y-114645307D01*
X105163894Y-114676250D01*
X105091812Y-114748332D01*
X105035178Y-114833091D01*
X104996168Y-114927270D01*
X104976281Y-115027250D01*
X104976281Y-115129188D01*
X104986885Y-115182500D01*
X103567500Y-115182500D01*
X103567500Y-108964355D01*
X105082500Y-107449355D01*
X105082500Y-107450969D01*
X105102387Y-107550949D01*
X105141397Y-107645128D01*
X105198031Y-107729887D01*
X105270113Y-107801969D01*
X105282500Y-107810246D01*
X105282500Y-107839859D01*
X105282501Y-107839869D01*
X105282500Y-110784400D01*
X105280964Y-110800000D01*
X105282500Y-110815595D01*
X105287094Y-110862240D01*
X105305249Y-110922089D01*
X105334731Y-110977246D01*
X105374407Y-111025593D01*
X105386530Y-111035542D01*
X108485406Y-114134419D01*
X108482500Y-114149031D01*
X108482500Y-114250969D01*
X108502387Y-114350949D01*
X108541397Y-114445128D01*
X108598031Y-114529887D01*
X108670113Y-114601969D01*
X108754872Y-114658603D01*
X108849051Y-114697613D01*
X108949031Y-114717500D01*
X109050969Y-114717500D01*
X109150949Y-114697613D01*
X109245128Y-114658603D01*
X109329887Y-114601969D01*
X109401969Y-114529887D01*
X109458603Y-114445128D01*
X109497613Y-114350949D01*
X109517500Y-114250969D01*
X109517500Y-114149031D01*
X109497613Y-114049051D01*
X109458603Y-113954872D01*
X109401969Y-113870113D01*
X109329887Y-113798031D01*
X109245128Y-113741397D01*
X109150949Y-113702387D01*
X109050969Y-113682500D01*
X108949031Y-113682500D01*
X108934419Y-113685406D01*
X105998044Y-110749031D01*
X108782504Y-110749031D01*
X108782504Y-110850969D01*
X108802391Y-110950949D01*
X108841401Y-111045128D01*
X108898035Y-111129887D01*
X108970117Y-111201969D01*
X109054876Y-111258603D01*
X109149055Y-111297613D01*
X109249035Y-111317500D01*
X109350973Y-111317500D01*
X109450953Y-111297613D01*
X109545132Y-111258603D01*
X109629891Y-111201969D01*
X109701973Y-111129887D01*
X109758607Y-111045128D01*
X109797617Y-110950949D01*
X109817504Y-110850969D01*
X109817504Y-110749031D01*
X109814597Y-110734415D01*
X111434419Y-109114594D01*
X111449031Y-109117500D01*
X111550969Y-109117500D01*
X111650949Y-109097613D01*
X111745128Y-109058603D01*
X111829887Y-109001969D01*
X111901969Y-108929887D01*
X111958603Y-108845128D01*
X111997613Y-108750949D01*
X112017500Y-108650969D01*
X112017500Y-108549031D01*
X111997613Y-108449051D01*
X111958603Y-108354872D01*
X111901969Y-108270113D01*
X111829887Y-108198031D01*
X111745128Y-108141397D01*
X111650949Y-108102387D01*
X111550969Y-108082500D01*
X111449031Y-108082500D01*
X111349051Y-108102387D01*
X111254872Y-108141397D01*
X111170113Y-108198031D01*
X111098031Y-108270113D01*
X111041397Y-108354872D01*
X111002387Y-108449051D01*
X110982500Y-108549031D01*
X110982500Y-108650969D01*
X110985406Y-108665581D01*
X109365582Y-110285406D01*
X109350973Y-110282500D01*
X109249035Y-110282500D01*
X109149055Y-110302387D01*
X109054876Y-110341397D01*
X108970117Y-110398031D01*
X108898035Y-110470113D01*
X108841401Y-110554872D01*
X108802391Y-110649051D01*
X108782504Y-110749031D01*
X105998044Y-110749031D01*
X105917500Y-110668488D01*
X105917500Y-107810246D01*
X105929887Y-107801969D01*
X106001969Y-107729887D01*
X106058603Y-107645128D01*
X106097613Y-107550949D01*
X106117500Y-107450969D01*
X106117500Y-107349031D01*
X106097613Y-107249051D01*
X106058603Y-107154872D01*
X106001969Y-107070113D01*
X105949356Y-107017500D01*
X126874587Y-107017500D01*
X126900000Y-107020003D01*
X126925413Y-107017500D01*
X127001448Y-107010011D01*
X127098997Y-106980420D01*
X127188898Y-106932367D01*
X127267698Y-106867698D01*
X127283898Y-106847958D01*
X127326969Y-106804887D01*
X127341175Y-106783627D01*
X127357366Y-106763897D01*
X127369397Y-106741388D01*
X127383603Y-106720128D01*
X127393386Y-106696510D01*
X127405420Y-106673996D01*
X127412831Y-106649564D01*
X127422613Y-106625949D01*
X127427599Y-106600881D01*
X127435011Y-106576448D01*
X127437514Y-106551036D01*
X127442500Y-106525969D01*
X127442500Y-106500414D01*
X127445003Y-106475001D01*
X127442500Y-106449588D01*
X127442500Y-106424031D01*
X127437514Y-106398963D01*
X127435011Y-106373553D01*
X127427600Y-106349122D01*
X127422613Y-106324051D01*
X127412830Y-106300433D01*
X127405420Y-106276005D01*
X127393387Y-106253494D01*
X127383603Y-106229872D01*
X127369397Y-106208611D01*
X127357366Y-106186103D01*
X127341176Y-106166375D01*
X127326969Y-106145113D01*
X127308888Y-106127032D01*
X127292697Y-106107303D01*
X127272968Y-106091112D01*
X127254887Y-106073031D01*
X127233625Y-106058824D01*
X127213897Y-106042634D01*
X127191389Y-106030603D01*
X127170128Y-106016397D01*
X127146506Y-106006613D01*
X127123995Y-105994580D01*
X127099567Y-105987170D01*
X127075949Y-105977387D01*
X127050878Y-105972400D01*
X127026447Y-105964989D01*
X127001037Y-105962486D01*
X126975969Y-105957500D01*
X126950412Y-105957500D01*
X126924999Y-105954997D01*
X126899586Y-105957500D01*
X126874031Y-105957500D01*
X126848964Y-105962486D01*
X126823552Y-105964989D01*
X126799119Y-105972401D01*
X126774051Y-105977387D01*
X126761707Y-105982500D01*
X105325413Y-105982500D01*
X105300000Y-105979997D01*
X105274587Y-105982500D01*
X105198552Y-105989989D01*
X105101003Y-106019580D01*
X105011102Y-106067633D01*
X104932302Y-106132302D01*
X104916097Y-106152048D01*
X102702048Y-108366097D01*
X102682302Y-108382302D01*
X102617633Y-108461102D01*
X102590908Y-108511102D01*
X102569580Y-108551004D01*
X102539989Y-108648553D01*
X102529997Y-108750000D01*
X102532500Y-108775413D01*
X102532500Y-112100644D01*
X102529887Y-112098031D01*
X102517500Y-112089754D01*
X102517500Y-107106643D01*
X102558603Y-107045128D01*
X102597613Y-106950949D01*
X102617500Y-106850969D01*
X102617500Y-106749031D01*
X102597613Y-106649051D01*
X102558603Y-106554872D01*
X102501969Y-106470113D01*
X102429887Y-106398031D01*
X102345128Y-106341397D01*
X102250949Y-106302387D01*
X102150969Y-106282500D01*
X102049031Y-106282500D01*
X101949051Y-106302387D01*
X101854872Y-106341397D01*
X101770113Y-106398031D01*
X101698031Y-106470113D01*
X101641397Y-106554872D01*
X101602387Y-106649051D01*
X101582500Y-106749031D01*
X101582500Y-106850969D01*
X101602387Y-106950949D01*
X101641397Y-107045128D01*
X101682500Y-107106643D01*
X101682501Y-112379488D01*
X101680481Y-112400000D01*
X101684379Y-112439584D01*
X101682500Y-112449031D01*
X101682500Y-112550969D01*
X101702387Y-112650949D01*
X101741397Y-112745128D01*
X101798031Y-112829887D01*
X101870113Y-112901969D01*
X101954872Y-112958603D01*
X102049051Y-112997613D01*
X102149031Y-113017500D01*
X102250969Y-113017500D01*
X102350949Y-112997613D01*
X102445128Y-112958603D01*
X102529887Y-112901969D01*
X102532501Y-112899355D01*
X102532501Y-115215807D01*
X102501969Y-115170113D01*
X102429887Y-115098031D01*
X102345128Y-115041397D01*
X102250949Y-115002387D01*
X102150969Y-114982500D01*
X102049031Y-114982500D01*
X101949051Y-115002387D01*
X101854872Y-115041397D01*
X101770113Y-115098031D01*
X101698031Y-115170113D01*
X101641397Y-115254872D01*
X101602387Y-115349051D01*
X101587954Y-115421612D01*
X100240500Y-116769066D01*
X100240500Y-100511759D01*
X100246573Y-100449822D01*
X100261146Y-100401554D01*
X100284816Y-100357035D01*
X100316686Y-100317960D01*
X100355535Y-100285821D01*
X100399884Y-100261841D01*
X100448053Y-100246930D01*
X100509232Y-100240500D01*
X135488241Y-100240500D01*
X135550178Y-100246573D01*
X135550178Y-100246573D01*
G37*
X135550178Y-100246573D02*
X135598446Y-100261146D01*
X135642965Y-100284816D01*
X135682040Y-100316686D01*
X135714179Y-100355535D01*
X135738159Y-100399884D01*
X135753070Y-100448053D01*
X135759501Y-100509241D01*
X135759501Y-103525575D01*
X135747958Y-103516102D01*
X135729887Y-103498031D01*
X135708637Y-103483832D01*
X135688898Y-103467633D01*
X135666379Y-103455596D01*
X135645128Y-103441397D01*
X135621516Y-103431617D01*
X135598997Y-103419580D01*
X135574562Y-103412168D01*
X135550949Y-103402387D01*
X135525882Y-103397401D01*
X135501448Y-103389989D01*
X135476036Y-103387486D01*
X135450969Y-103382500D01*
X135425413Y-103382500D01*
X135400000Y-103379997D01*
X135374587Y-103382500D01*
X135349031Y-103382500D01*
X135323963Y-103387486D01*
X135298553Y-103389989D01*
X135274121Y-103397400D01*
X135249051Y-103402387D01*
X135225435Y-103412169D01*
X135201004Y-103419580D01*
X135178488Y-103431615D01*
X135154872Y-103441397D01*
X135133617Y-103455599D01*
X135111103Y-103467633D01*
X135091368Y-103483829D01*
X135070113Y-103498031D01*
X135052038Y-103516106D01*
X135032303Y-103532302D01*
X135016107Y-103552037D01*
X134998031Y-103570113D01*
X134983828Y-103591370D01*
X134967634Y-103611102D01*
X134955601Y-103633614D01*
X134941397Y-103654872D01*
X134931613Y-103678492D01*
X134919581Y-103701003D01*
X134912171Y-103725429D01*
X134902387Y-103749051D01*
X134897399Y-103774128D01*
X134889990Y-103798552D01*
X134887488Y-103823954D01*
X134882500Y-103849031D01*
X134882500Y-103950969D01*
X134882501Y-103950974D01*
X134882500Y-104749031D01*
X134882500Y-104850969D01*
X134882501Y-104850974D01*
X134882500Y-105485645D01*
X134752044Y-105616102D01*
X134752043Y-105616102D01*
X131052043Y-109316102D01*
X131032303Y-109332302D01*
X130967634Y-109411102D01*
X130941949Y-109459156D01*
X130919580Y-109501004D01*
X130889989Y-109598553D01*
X130879997Y-109700000D01*
X130882501Y-109725423D01*
X130882500Y-115274587D01*
X130882500Y-115274588D01*
X130882501Y-119585644D01*
X130185645Y-120282500D01*
X130039158Y-120282500D01*
X130040824Y-120281387D01*
X130116387Y-120205824D01*
X130175757Y-120116970D01*
X130216652Y-120018241D01*
X130237500Y-119913432D01*
X130237500Y-119806568D01*
X130216652Y-119701759D01*
X130175757Y-119603030D01*
X130116387Y-119514176D01*
X130040824Y-119438613D01*
X129951970Y-119379243D01*
X129853241Y-119338348D01*
X129748432Y-119317500D01*
X129641568Y-119317500D01*
X129536759Y-119338348D01*
X129438030Y-119379243D01*
X129349176Y-119438613D01*
X129273613Y-119514176D01*
X129214243Y-119603030D01*
X129173348Y-119701759D01*
X129156031Y-119788817D01*
X129146393Y-119780908D01*
X129100837Y-119756558D01*
X129051406Y-119741563D01*
X129000000Y-119736500D01*
X126362513Y-119736500D01*
X126563475Y-119535538D01*
X126575592Y-119525594D01*
X126615268Y-119477248D01*
X126644750Y-119422091D01*
X126662905Y-119362242D01*
X126667499Y-119315597D01*
X126667499Y-119315595D01*
X126669035Y-119300002D01*
X126667499Y-119284409D01*
X126667499Y-118670706D01*
X127967813Y-118670706D01*
X128030224Y-118821737D01*
X128117884Y-118928294D01*
X128224648Y-119015702D01*
X128346413Y-119080602D01*
X128478500Y-119120500D01*
X129028500Y-119120500D01*
X129028500Y-118566500D01*
X129301500Y-118566500D01*
X129301500Y-119120500D01*
X129851500Y-119120500D01*
X129983587Y-119080602D01*
X130105352Y-119015702D01*
X130212116Y-118928294D01*
X130299776Y-118821737D01*
X130362187Y-118670706D01*
X130343217Y-118566500D01*
X129301500Y-118566500D01*
X129028500Y-118566500D01*
X127986783Y-118566500D01*
X127967813Y-118670706D01*
X126667499Y-118670706D01*
X126667499Y-118189294D01*
X127967813Y-118189294D01*
X127986783Y-118293500D01*
X129028500Y-118293500D01*
X129028500Y-118273500D01*
X129301500Y-118273500D01*
X129301500Y-118293500D01*
X130343217Y-118293500D01*
X130362187Y-118189294D01*
X130299776Y-118038263D01*
X130212116Y-117931706D01*
X130105352Y-117844298D01*
X129983587Y-117779398D01*
X129851500Y-117739500D01*
X128478500Y-117739500D01*
X128346413Y-117779398D01*
X128224648Y-117844298D01*
X128117884Y-117931706D01*
X128030224Y-118038263D01*
X127967813Y-118189294D01*
X126667499Y-118189294D01*
X126667499Y-117840595D01*
X126669035Y-117824999D01*
X126662905Y-117762758D01*
X126644750Y-117702909D01*
X126615268Y-117647752D01*
X126603221Y-117633073D01*
X126575592Y-117599406D01*
X126564628Y-117590408D01*
X126567500Y-117575969D01*
X126567500Y-117474031D01*
X126547613Y-117374051D01*
X126508603Y-117279872D01*
X126451969Y-117195113D01*
X126379887Y-117123031D01*
X126295128Y-117066397D01*
X126200949Y-117027387D01*
X126106779Y-117008656D01*
X127180723Y-115934712D01*
X127196645Y-115921645D01*
X127209712Y-115905723D01*
X127209719Y-115905716D01*
X127248817Y-115858074D01*
X127248818Y-115858073D01*
X127287586Y-115785543D01*
X127311459Y-115706844D01*
X127317500Y-115645509D01*
X127317500Y-115645503D01*
X127319519Y-115625001D01*
X127317500Y-115604499D01*
X127317500Y-113506643D01*
X127358603Y-113445128D01*
X127397613Y-113350949D01*
X127417500Y-113250969D01*
X127417500Y-113149031D01*
X127397613Y-113049051D01*
X127358603Y-112954872D01*
X127301969Y-112870113D01*
X127229887Y-112798031D01*
X127145128Y-112741397D01*
X127050949Y-112702387D01*
X126978389Y-112687954D01*
X125509717Y-111219283D01*
X125508254Y-111217500D01*
X125768488Y-111217500D01*
X128535409Y-113984422D01*
X128532503Y-113999034D01*
X128532503Y-114100972D01*
X128552390Y-114200952D01*
X128591400Y-114295131D01*
X128648034Y-114379890D01*
X128720116Y-114451972D01*
X128804875Y-114508606D01*
X128899054Y-114547616D01*
X128999034Y-114567503D01*
X129100972Y-114567503D01*
X129200952Y-114547616D01*
X129295131Y-114508606D01*
X129379890Y-114451972D01*
X129451972Y-114379890D01*
X129508606Y-114295131D01*
X129547616Y-114200952D01*
X129567503Y-114100972D01*
X129567503Y-113999034D01*
X129547616Y-113899054D01*
X129508606Y-113804875D01*
X129451972Y-113720116D01*
X129379890Y-113648034D01*
X129295131Y-113591400D01*
X129200952Y-113552390D01*
X129100972Y-113532503D01*
X128999034Y-113532503D01*
X128984422Y-113535409D01*
X126898044Y-111449031D01*
X127882500Y-111449031D01*
X127882500Y-111550969D01*
X127902387Y-111650949D01*
X127941397Y-111745128D01*
X127998031Y-111829887D01*
X128070113Y-111901969D01*
X128154872Y-111958603D01*
X128249051Y-111997613D01*
X128349031Y-112017500D01*
X128450969Y-112017500D01*
X128550949Y-111997613D01*
X128645128Y-111958603D01*
X128729887Y-111901969D01*
X128801969Y-111829887D01*
X128858603Y-111745128D01*
X128897613Y-111650949D01*
X128917500Y-111550969D01*
X128917500Y-111449031D01*
X128897613Y-111349051D01*
X128858603Y-111254872D01*
X128801969Y-111170113D01*
X128729887Y-111098031D01*
X128717500Y-111089754D01*
X128717500Y-109431512D01*
X131992715Y-106156298D01*
X132049031Y-106167500D01*
X132150969Y-106167500D01*
X132250949Y-106147613D01*
X132345128Y-106108603D01*
X132429887Y-106051969D01*
X132501969Y-105979887D01*
X132558603Y-105895128D01*
X132597613Y-105800949D01*
X132617500Y-105700969D01*
X132617500Y-105599031D01*
X132597613Y-105499051D01*
X132558603Y-105404872D01*
X132501969Y-105320113D01*
X132429887Y-105248031D01*
X132345128Y-105191397D01*
X132250949Y-105152387D01*
X132150969Y-105132500D01*
X132049031Y-105132500D01*
X131949051Y-105152387D01*
X131854872Y-105191397D01*
X131770113Y-105248031D01*
X131698031Y-105320113D01*
X131641397Y-105404872D01*
X131602387Y-105499051D01*
X131582500Y-105599031D01*
X131582500Y-105668487D01*
X128186525Y-109064463D01*
X128174408Y-109074407D01*
X128134732Y-109122753D01*
X128118973Y-109152236D01*
X128105249Y-109177911D01*
X128087094Y-109237760D01*
X128080964Y-109300000D01*
X128082501Y-109315606D01*
X128082500Y-111089754D01*
X128070113Y-111098031D01*
X127998031Y-111170113D01*
X127941397Y-111254872D01*
X127902387Y-111349051D01*
X127882500Y-111449031D01*
X126898044Y-111449031D01*
X126135542Y-110686530D01*
X126125593Y-110674407D01*
X126077247Y-110634731D01*
X126022090Y-110605249D01*
X125962241Y-110587094D01*
X125915596Y-110582500D01*
X125900000Y-110580964D01*
X125884404Y-110582500D01*
X121494829Y-110582500D01*
X121508637Y-110571168D01*
X121529887Y-110556969D01*
X121547958Y-110538898D01*
X121567698Y-110522698D01*
X121583898Y-110502958D01*
X121601969Y-110484887D01*
X121616168Y-110463637D01*
X121632367Y-110443898D01*
X121644404Y-110421379D01*
X121658603Y-110400128D01*
X121668383Y-110376516D01*
X121680420Y-110353997D01*
X121687832Y-110329562D01*
X121697613Y-110305949D01*
X121702599Y-110280882D01*
X121710011Y-110256448D01*
X121712514Y-110231036D01*
X121717500Y-110205969D01*
X121717500Y-110180413D01*
X121720003Y-110155000D01*
X121717500Y-110129587D01*
X121717500Y-110104031D01*
X121712514Y-110078964D01*
X121710011Y-110053552D01*
X121702599Y-110029118D01*
X121697613Y-110004051D01*
X121687832Y-109980438D01*
X121680420Y-109956003D01*
X121668383Y-109933484D01*
X121658603Y-109909872D01*
X121644404Y-109888621D01*
X121632367Y-109866102D01*
X121616168Y-109846363D01*
X121601969Y-109825113D01*
X121583898Y-109807042D01*
X121567698Y-109787302D01*
X121547958Y-109771102D01*
X121529887Y-109753031D01*
X121508637Y-109738832D01*
X121488898Y-109722633D01*
X121466379Y-109710596D01*
X121445128Y-109696397D01*
X121421516Y-109686617D01*
X121398997Y-109674580D01*
X121374562Y-109667168D01*
X121350949Y-109657387D01*
X121325882Y-109652401D01*
X121301448Y-109644989D01*
X121276036Y-109642486D01*
X121250969Y-109637500D01*
X120125413Y-109637500D01*
X120100000Y-109634997D01*
X120074587Y-109637500D01*
X119998552Y-109644989D01*
X119901003Y-109674580D01*
X119811102Y-109722633D01*
X119732302Y-109787302D01*
X119716097Y-109807048D01*
X117240645Y-112282500D01*
X115294031Y-112282500D01*
X115268964Y-112287486D01*
X115243552Y-112289989D01*
X115219118Y-112297401D01*
X115194051Y-112302387D01*
X115170438Y-112312168D01*
X115146003Y-112319580D01*
X115123484Y-112331617D01*
X115099872Y-112341397D01*
X115078621Y-112355596D01*
X115056102Y-112367633D01*
X115036363Y-112383832D01*
X115015113Y-112398031D01*
X114997042Y-112416102D01*
X114977302Y-112432302D01*
X114961102Y-112452042D01*
X114943031Y-112470113D01*
X114928832Y-112491363D01*
X114912633Y-112511102D01*
X114900596Y-112533621D01*
X114886397Y-112554872D01*
X114876617Y-112578484D01*
X114864580Y-112601003D01*
X114857168Y-112625438D01*
X114847387Y-112649051D01*
X114842401Y-112674118D01*
X114834989Y-112698552D01*
X114832486Y-112723964D01*
X114827500Y-112749031D01*
X114827500Y-112774587D01*
X114824997Y-112800000D01*
X114827500Y-112825413D01*
X114827500Y-112850969D01*
X114832486Y-112876036D01*
X114834989Y-112901448D01*
X114842401Y-112925882D01*
X114847387Y-112950949D01*
X114857168Y-112974562D01*
X114864580Y-112998997D01*
X114876617Y-113021516D01*
X114886397Y-113045128D01*
X114900596Y-113066379D01*
X114912633Y-113088898D01*
X114928832Y-113108637D01*
X114943031Y-113129887D01*
X114961102Y-113147958D01*
X114977302Y-113167698D01*
X114997041Y-113183897D01*
X115015113Y-113201969D01*
X115036363Y-113216168D01*
X115056102Y-113232367D01*
X115078621Y-113244404D01*
X115099872Y-113258603D01*
X115123484Y-113268383D01*
X115146003Y-113280420D01*
X115170438Y-113287832D01*
X115194051Y-113297613D01*
X115219118Y-113302599D01*
X115243552Y-113310011D01*
X115268964Y-113312514D01*
X115294031Y-113317500D01*
X117429587Y-113317500D01*
X117455000Y-113320003D01*
X117480413Y-113317500D01*
X117556448Y-113310011D01*
X117653997Y-113280420D01*
X117743898Y-113232367D01*
X117822698Y-113167698D01*
X117838903Y-113147952D01*
X119283062Y-111703793D01*
X119302387Y-111800949D01*
X119341397Y-111895128D01*
X119398031Y-111979887D01*
X119470113Y-112051969D01*
X119554872Y-112108603D01*
X119649051Y-112147613D01*
X119749031Y-112167500D01*
X119850969Y-112167500D01*
X119950949Y-112147613D01*
X120045128Y-112108603D01*
X120129887Y-112051969D01*
X120201969Y-111979887D01*
X120258603Y-111895128D01*
X120297613Y-111800949D01*
X120317500Y-111700969D01*
X120317500Y-111599031D01*
X120314594Y-111584419D01*
X120681513Y-111217500D01*
X124366368Y-111217500D01*
X124341397Y-111254872D01*
X124302387Y-111349051D01*
X124282500Y-111449031D01*
X124282500Y-111550969D01*
X124302387Y-111650949D01*
X124341397Y-111745128D01*
X124398031Y-111829887D01*
X124470113Y-111901969D01*
X124554872Y-111958603D01*
X124649051Y-111997613D01*
X124749031Y-112017500D01*
X124850969Y-112017500D01*
X124950949Y-111997613D01*
X125045128Y-111958603D01*
X125058940Y-111949374D01*
X126387954Y-113278389D01*
X126402387Y-113350949D01*
X126441397Y-113445128D01*
X126482500Y-113506643D01*
X126482501Y-115452064D01*
X123519283Y-118415283D01*
X123503355Y-118428355D01*
X123490284Y-118444282D01*
X123490281Y-118444285D01*
X123463290Y-118477174D01*
X123451182Y-118491928D01*
X123412414Y-118564458D01*
X123388541Y-118643157D01*
X123382500Y-118704492D01*
X123382500Y-118704498D01*
X123380481Y-118725000D01*
X123382500Y-118745502D01*
X123382501Y-120582500D01*
X120020509Y-120582500D01*
X120000000Y-120580480D01*
X119979491Y-120582500D01*
X118272934Y-120582500D01*
X114868005Y-117177571D01*
X114858603Y-117154872D01*
X114801969Y-117070113D01*
X114729887Y-116998031D01*
X114645128Y-116941397D01*
X114550949Y-116902387D01*
X114450969Y-116882500D01*
X114349031Y-116882500D01*
X114249051Y-116902387D01*
X114154872Y-116941397D01*
X114070113Y-116998031D01*
X113998031Y-117070113D01*
X113941397Y-117154872D01*
X113902387Y-117249051D01*
X113901670Y-117252657D01*
X112869009Y-116219997D01*
X112897609Y-116150949D01*
X112917496Y-116050969D01*
X112917496Y-115949031D01*
X112897609Y-115849051D01*
X112858599Y-115754872D01*
X112801965Y-115670113D01*
X112729883Y-115598031D01*
X112645124Y-115541397D01*
X112550945Y-115502387D01*
X112450965Y-115482500D01*
X112349027Y-115482500D01*
X112249047Y-115502387D01*
X112154868Y-115541397D01*
X112070109Y-115598031D01*
X111998027Y-115670113D01*
X111941393Y-115754872D01*
X111902383Y-115849051D01*
X111882496Y-115949031D01*
X111882496Y-116050969D01*
X111902383Y-116150949D01*
X111941393Y-116245128D01*
X111998027Y-116329887D01*
X112070109Y-116401969D01*
X112154868Y-116458603D01*
X112248286Y-116497298D01*
X117864463Y-122113476D01*
X117874407Y-122125593D01*
X117922753Y-122165269D01*
X117977910Y-122194751D01*
X118037759Y-122212906D01*
X118084404Y-122217500D01*
X118084406Y-122217500D01*
X118099999Y-122219036D01*
X118115592Y-122217500D01*
X118389754Y-122217500D01*
X118398031Y-122229887D01*
X118470113Y-122301969D01*
X118554872Y-122358603D01*
X118649051Y-122397613D01*
X118749031Y-122417500D01*
X118850969Y-122417500D01*
X118950949Y-122397613D01*
X119045128Y-122358603D01*
X119129887Y-122301969D01*
X119201969Y-122229887D01*
X119258603Y-122145128D01*
X119297613Y-122050949D01*
X119317500Y-121950969D01*
X119317500Y-121849031D01*
X119297613Y-121749051D01*
X119258603Y-121654872D01*
X119201969Y-121570113D01*
X119129887Y-121498031D01*
X119045128Y-121441397D01*
X118987435Y-121417500D01*
X119582501Y-121417500D01*
X119582500Y-122227066D01*
X118727066Y-123082500D01*
X114020498Y-123082500D01*
X113999999Y-123080481D01*
X113979500Y-123082500D01*
X113979491Y-123082500D01*
X113918156Y-123088541D01*
X113917500Y-123088740D01*
X113917500Y-123049031D01*
X113897613Y-122949051D01*
X113858603Y-122854872D01*
X113801969Y-122770113D01*
X113729887Y-122698031D01*
X113645128Y-122641397D01*
X113550949Y-122602387D01*
X113450969Y-122582500D01*
X113349031Y-122582500D01*
X113249051Y-122602387D01*
X113154872Y-122641397D01*
X113070113Y-122698031D01*
X112998031Y-122770113D01*
X112989754Y-122782500D01*
X111147689Y-122782500D01*
X106035945Y-117670757D01*
X106035940Y-117670751D01*
X106015001Y-117649812D01*
X106017907Y-117635200D01*
X106017907Y-117533262D01*
X105998020Y-117433282D01*
X105959010Y-117339103D01*
X105902376Y-117254344D01*
X105830294Y-117182262D01*
X105745535Y-117125628D01*
X105651356Y-117086618D01*
X105551376Y-117066731D01*
X105449438Y-117066731D01*
X105349458Y-117086618D01*
X105255279Y-117125628D01*
X105170520Y-117182262D01*
X105098438Y-117254344D01*
X105041804Y-117339103D01*
X105002794Y-117433282D01*
X104982907Y-117533262D01*
X104982907Y-117635200D01*
X105002794Y-117735180D01*
X105041804Y-117829359D01*
X105098438Y-117914118D01*
X105170520Y-117986200D01*
X105255279Y-118042834D01*
X105349458Y-118081844D01*
X105449438Y-118101731D01*
X105551376Y-118101731D01*
X105565988Y-118098825D01*
X105586927Y-118119764D01*
X105586933Y-118119769D01*
X110349663Y-122882500D01*
X110249031Y-122882500D01*
X110149051Y-122902387D01*
X110054872Y-122941397D01*
X109970113Y-122998031D01*
X109898031Y-123070113D01*
X109889754Y-123082500D01*
X109831513Y-123082500D01*
X108735542Y-121986530D01*
X108725593Y-121974407D01*
X108677247Y-121934731D01*
X108622090Y-121905249D01*
X108562241Y-121887094D01*
X108515596Y-121882500D01*
X108500000Y-121880964D01*
X108484404Y-121882500D01*
X108310246Y-121882500D01*
X108301969Y-121870113D01*
X108229887Y-121798031D01*
X108145128Y-121741397D01*
X108050949Y-121702387D01*
X107950969Y-121682500D01*
X107849031Y-121682500D01*
X107749051Y-121702387D01*
X107654872Y-121741397D01*
X107570113Y-121798031D01*
X107498031Y-121870113D01*
X107441397Y-121954872D01*
X107402387Y-122049051D01*
X107382500Y-122149031D01*
X107382500Y-122250969D01*
X107402387Y-122350949D01*
X107441397Y-122445128D01*
X107498031Y-122529887D01*
X107570113Y-122601969D01*
X107654872Y-122658603D01*
X107749051Y-122697613D01*
X107849031Y-122717500D01*
X107950969Y-122717500D01*
X108050949Y-122697613D01*
X108145128Y-122658603D01*
X108229887Y-122601969D01*
X108301969Y-122529887D01*
X108310246Y-122517500D01*
X108368488Y-122517500D01*
X109464463Y-123613476D01*
X109474407Y-123625593D01*
X109522753Y-123665269D01*
X109577910Y-123694751D01*
X109637759Y-123712906D01*
X109684404Y-123717500D01*
X109684406Y-123717500D01*
X109699999Y-123719036D01*
X109715592Y-123717500D01*
X109889754Y-123717500D01*
X109898031Y-123729887D01*
X109970113Y-123801969D01*
X110054872Y-123858603D01*
X110149051Y-123897613D01*
X110249031Y-123917500D01*
X110350969Y-123917500D01*
X110450949Y-123897613D01*
X110545128Y-123858603D01*
X110629887Y-123801969D01*
X110701969Y-123729887D01*
X110758603Y-123645128D01*
X110797613Y-123550949D01*
X110817500Y-123450969D01*
X110817500Y-123349031D01*
X110817179Y-123347420D01*
X110838929Y-123365269D01*
X110894086Y-123394751D01*
X110953935Y-123412906D01*
X111016176Y-123419036D01*
X111031772Y-123417500D01*
X112989754Y-123417500D01*
X112998031Y-123429887D01*
X113070113Y-123501969D01*
X113154872Y-123558603D01*
X113249051Y-123597613D01*
X113301517Y-123608049D01*
X112777066Y-124132500D01*
X106761643Y-124132500D01*
X106700128Y-124091397D01*
X106605949Y-124052387D01*
X106505969Y-124032500D01*
X106404031Y-124032500D01*
X106304051Y-124052387D01*
X106209872Y-124091397D01*
X106125113Y-124148031D01*
X106053031Y-124220113D01*
X105996397Y-124304872D01*
X105957387Y-124399051D01*
X105937500Y-124499031D01*
X105937500Y-124600969D01*
X105957387Y-124700949D01*
X105996397Y-124795128D01*
X106053031Y-124879887D01*
X106125113Y-124951969D01*
X106209872Y-125008603D01*
X106304051Y-125047613D01*
X106404031Y-125067500D01*
X106505969Y-125067500D01*
X106605949Y-125047613D01*
X106700128Y-125008603D01*
X106761643Y-124967500D01*
X112923487Y-124967500D01*
X108786193Y-129104795D01*
X108700491Y-129058987D01*
X108499267Y-128997946D01*
X108342441Y-128982500D01*
X108237559Y-128982500D01*
X108080733Y-128997946D01*
X107879509Y-129058987D01*
X107694059Y-129158112D01*
X107531511Y-129291511D01*
X107398112Y-129454059D01*
X107298987Y-129639509D01*
X107237946Y-129840733D01*
X107217335Y-130050000D01*
X107237946Y-130259267D01*
X107298987Y-130460491D01*
X107398112Y-130645941D01*
X107531511Y-130808489D01*
X107565644Y-130836501D01*
X107268356Y-130836501D01*
X106818552Y-130386697D01*
X106818552Y-129200000D01*
X106814353Y-129157363D01*
X106801916Y-129116364D01*
X106781719Y-129078579D01*
X106754540Y-129045460D01*
X106721421Y-129018281D01*
X106683636Y-128998084D01*
X106642637Y-128985647D01*
X106600000Y-128981448D01*
X104900000Y-128981448D01*
X104857363Y-128985647D01*
X104816364Y-128998084D01*
X104778579Y-129018281D01*
X104745460Y-129045460D01*
X104718281Y-129078579D01*
X104698084Y-129116364D01*
X104685647Y-129157363D01*
X104681448Y-129200000D01*
X104681448Y-130900000D01*
X104685647Y-130942637D01*
X104698084Y-130983636D01*
X104718281Y-131021421D01*
X104745460Y-131054540D01*
X104778579Y-131081719D01*
X104816364Y-131101916D01*
X104857363Y-131114353D01*
X104900000Y-131118552D01*
X106086697Y-131118552D01*
X106670098Y-131701953D01*
X106686303Y-131721699D01*
X106732364Y-131759500D01*
X100511759Y-131759500D01*
X100449821Y-131753427D01*
X100401555Y-131738854D01*
X100357030Y-131715181D01*
X100317960Y-131683315D01*
X100285821Y-131644465D01*
X100261840Y-131600115D01*
X100246930Y-131551947D01*
X100240500Y-131490769D01*
X100240500Y-123780934D01*
X101582500Y-125122935D01*
X101582500Y-125150969D01*
X101602387Y-125250949D01*
X101641397Y-125345128D01*
X101698031Y-125429887D01*
X101770113Y-125501969D01*
X101854872Y-125558603D01*
X101949051Y-125597613D01*
X102049031Y-125617500D01*
X102150969Y-125617500D01*
X102250949Y-125597613D01*
X102345128Y-125558603D01*
X102429887Y-125501969D01*
X102501969Y-125429887D01*
X102558603Y-125345128D01*
X102597613Y-125250949D01*
X102617500Y-125150969D01*
X102617500Y-125049031D01*
X102597613Y-124949051D01*
X102558603Y-124854872D01*
X102501969Y-124770113D01*
X102429887Y-124698031D01*
X102345128Y-124641397D01*
X102250949Y-124602387D01*
X102240804Y-124600369D01*
X101250895Y-123610460D01*
X101255458Y-123610011D01*
X101279891Y-123602599D01*
X101304959Y-123597613D01*
X101328574Y-123587831D01*
X101353006Y-123580420D01*
X101375522Y-123568385D01*
X101399138Y-123558603D01*
X101420393Y-123544401D01*
X101442907Y-123532367D01*
X101462640Y-123516173D01*
X101483897Y-123501969D01*
X101501976Y-123483890D01*
X101521707Y-123467697D01*
X101537900Y-123447966D01*
X101555979Y-123429887D01*
X101570183Y-123408630D01*
X101586377Y-123388897D01*
X101598411Y-123366383D01*
X101612613Y-123345128D01*
X101622395Y-123321512D01*
X101634430Y-123298996D01*
X101641841Y-123274564D01*
X101651623Y-123250949D01*
X101656609Y-123225881D01*
X101664021Y-123201448D01*
X101666524Y-123176036D01*
X101671510Y-123150969D01*
X101671510Y-123125413D01*
X101674013Y-123100000D01*
X101671510Y-123074587D01*
X101671510Y-123049031D01*
X101666524Y-123023963D01*
X101664021Y-122998553D01*
X101656610Y-122974122D01*
X101651623Y-122949051D01*
X101641840Y-122925433D01*
X101634430Y-122901005D01*
X101622397Y-122878492D01*
X101617500Y-122866670D01*
X101617500Y-117814355D01*
X103397957Y-116033899D01*
X103417698Y-116017698D01*
X103417860Y-116017500D01*
X104877066Y-116017500D01*
X106045000Y-117185435D01*
X106045000Y-117200969D01*
X106064887Y-117300949D01*
X106103897Y-117395128D01*
X106160531Y-117479887D01*
X106232613Y-117551969D01*
X106317372Y-117608603D01*
X106411551Y-117647613D01*
X106511531Y-117667500D01*
X106613469Y-117667500D01*
X106713449Y-117647613D01*
X106807628Y-117608603D01*
X106892387Y-117551969D01*
X106964469Y-117479887D01*
X107021103Y-117395128D01*
X107060113Y-117300949D01*
X107080000Y-117200969D01*
X107080000Y-117113451D01*
X107302856Y-117336307D01*
X107302856Y-117630880D01*
X107290469Y-117639157D01*
X107218387Y-117711239D01*
X107161753Y-117795998D01*
X107122743Y-117890177D01*
X107102856Y-117990157D01*
X107102856Y-118092095D01*
X107122743Y-118192075D01*
X107161753Y-118286254D01*
X107218387Y-118371013D01*
X107290469Y-118443095D01*
X107375228Y-118499729D01*
X107469407Y-118538739D01*
X107569387Y-118558626D01*
X107671325Y-118558626D01*
X107771305Y-118538739D01*
X107865484Y-118499729D01*
X107950243Y-118443095D01*
X108022325Y-118371013D01*
X108078959Y-118286254D01*
X108117969Y-118192075D01*
X108137856Y-118092095D01*
X108137856Y-117990157D01*
X108117969Y-117890177D01*
X108078959Y-117795998D01*
X108022325Y-117711239D01*
X107950243Y-117639157D01*
X107937856Y-117630880D01*
X107937856Y-117220386D01*
X107939392Y-117204793D01*
X107935732Y-117167633D01*
X107933262Y-117142553D01*
X107915107Y-117082704D01*
X107885625Y-117027547D01*
X107845949Y-116979201D01*
X107833833Y-116969258D01*
X106949503Y-116084928D01*
X106967141Y-116094356D01*
X106967880Y-116094751D01*
X107027729Y-116112906D01*
X107089970Y-116119036D01*
X107105566Y-116117500D01*
X110093488Y-116117500D01*
X113339463Y-119363476D01*
X113349407Y-119375593D01*
X113397753Y-119415269D01*
X113452910Y-119444751D01*
X113512759Y-119462906D01*
X113559404Y-119467500D01*
X113559406Y-119467500D01*
X113574999Y-119469036D01*
X113590592Y-119467500D01*
X113664754Y-119467500D01*
X113673031Y-119479887D01*
X113745113Y-119551969D01*
X113829872Y-119608603D01*
X113924051Y-119647613D01*
X114024031Y-119667500D01*
X114125969Y-119667500D01*
X114225949Y-119647613D01*
X114320128Y-119608603D01*
X114404887Y-119551969D01*
X114476969Y-119479887D01*
X114533603Y-119395128D01*
X114572613Y-119300949D01*
X114592500Y-119200969D01*
X114592500Y-119099031D01*
X114572613Y-118999051D01*
X114533603Y-118904872D01*
X114476969Y-118820113D01*
X114404887Y-118748031D01*
X114320128Y-118691397D01*
X114225949Y-118652387D01*
X114125969Y-118632500D01*
X114024031Y-118632500D01*
X113924051Y-118652387D01*
X113829872Y-118691397D01*
X113745113Y-118748031D01*
X113683578Y-118809566D01*
X110460542Y-115586530D01*
X110450593Y-115574407D01*
X110402247Y-115534731D01*
X110347090Y-115505249D01*
X110287241Y-115487094D01*
X110240596Y-115482500D01*
X110225000Y-115480964D01*
X110209404Y-115482500D01*
X107221483Y-115482500D01*
X106227783Y-114488801D01*
X106249057Y-114497613D01*
X106349037Y-114517500D01*
X106450975Y-114517500D01*
X106465587Y-114514593D01*
X107264469Y-115313476D01*
X107274413Y-115325593D01*
X107317683Y-115361103D01*
X107322759Y-115365269D01*
X107377916Y-115394751D01*
X107437765Y-115412906D01*
X107500006Y-115419036D01*
X107515602Y-115417500D01*
X124289563Y-115417500D01*
X124655709Y-115783647D01*
X124652803Y-115798259D01*
X124652803Y-115900197D01*
X124672690Y-116000177D01*
X124711700Y-116094356D01*
X124768334Y-116179115D01*
X124840416Y-116251197D01*
X124925175Y-116307831D01*
X125019354Y-116346841D01*
X125119334Y-116366728D01*
X125221272Y-116366728D01*
X125321252Y-116346841D01*
X125415431Y-116307831D01*
X125500190Y-116251197D01*
X125572272Y-116179115D01*
X125628906Y-116094356D01*
X125667916Y-116000177D01*
X125687803Y-115900197D01*
X125687803Y-115798259D01*
X125667916Y-115698279D01*
X125628906Y-115604100D01*
X125572272Y-115519341D01*
X125500190Y-115447259D01*
X125415431Y-115390625D01*
X125321252Y-115351615D01*
X125221272Y-115331728D01*
X125119334Y-115331728D01*
X125104722Y-115334634D01*
X124656617Y-114886529D01*
X124646668Y-114874407D01*
X124598322Y-114834731D01*
X124543165Y-114805249D01*
X124483316Y-114787094D01*
X124436671Y-114782500D01*
X124421075Y-114780964D01*
X124405479Y-114782500D01*
X107631519Y-114782500D01*
X106914599Y-114065581D01*
X106917506Y-114050969D01*
X106917506Y-113949031D01*
X106897619Y-113849051D01*
X106858609Y-113754872D01*
X106801975Y-113670113D01*
X106729893Y-113598031D01*
X106645134Y-113541397D01*
X106550955Y-113502387D01*
X106450975Y-113482500D01*
X106349037Y-113482500D01*
X106249057Y-113502387D01*
X106154878Y-113541397D01*
X106070119Y-113598031D01*
X105998037Y-113670113D01*
X105941403Y-113754872D01*
X105902393Y-113849051D01*
X105893753Y-113892488D01*
X105870958Y-113877257D01*
X105776779Y-113838247D01*
X105676799Y-113818360D01*
X105574861Y-113818360D01*
X105474881Y-113838247D01*
X105380702Y-113877257D01*
X105295943Y-113933891D01*
X105223861Y-114005973D01*
X105167227Y-114090732D01*
X105128217Y-114184911D01*
X105108330Y-114284891D01*
X105108330Y-114386829D01*
X105128217Y-114486809D01*
X105167227Y-114580988D01*
X105210204Y-114645307D01*
X105163894Y-114676250D01*
X105091812Y-114748332D01*
X105035178Y-114833091D01*
X104996168Y-114927270D01*
X104976281Y-115027250D01*
X104976281Y-115129188D01*
X104986885Y-115182500D01*
X103567500Y-115182500D01*
X103567500Y-108964355D01*
X105082500Y-107449355D01*
X105082500Y-107450969D01*
X105102387Y-107550949D01*
X105141397Y-107645128D01*
X105198031Y-107729887D01*
X105270113Y-107801969D01*
X105282500Y-107810246D01*
X105282500Y-107839859D01*
X105282501Y-107839869D01*
X105282500Y-110784400D01*
X105280964Y-110800000D01*
X105282500Y-110815595D01*
X105287094Y-110862240D01*
X105305249Y-110922089D01*
X105334731Y-110977246D01*
X105374407Y-111025593D01*
X105386530Y-111035542D01*
X108485406Y-114134419D01*
X108482500Y-114149031D01*
X108482500Y-114250969D01*
X108502387Y-114350949D01*
X108541397Y-114445128D01*
X108598031Y-114529887D01*
X108670113Y-114601969D01*
X108754872Y-114658603D01*
X108849051Y-114697613D01*
X108949031Y-114717500D01*
X109050969Y-114717500D01*
X109150949Y-114697613D01*
X109245128Y-114658603D01*
X109329887Y-114601969D01*
X109401969Y-114529887D01*
X109458603Y-114445128D01*
X109497613Y-114350949D01*
X109517500Y-114250969D01*
X109517500Y-114149031D01*
X109497613Y-114049051D01*
X109458603Y-113954872D01*
X109401969Y-113870113D01*
X109329887Y-113798031D01*
X109245128Y-113741397D01*
X109150949Y-113702387D01*
X109050969Y-113682500D01*
X108949031Y-113682500D01*
X108934419Y-113685406D01*
X105998044Y-110749031D01*
X108782504Y-110749031D01*
X108782504Y-110850969D01*
X108802391Y-110950949D01*
X108841401Y-111045128D01*
X108898035Y-111129887D01*
X108970117Y-111201969D01*
X109054876Y-111258603D01*
X109149055Y-111297613D01*
X109249035Y-111317500D01*
X109350973Y-111317500D01*
X109450953Y-111297613D01*
X109545132Y-111258603D01*
X109629891Y-111201969D01*
X109701973Y-111129887D01*
X109758607Y-111045128D01*
X109797617Y-110950949D01*
X109817504Y-110850969D01*
X109817504Y-110749031D01*
X109814597Y-110734415D01*
X111434419Y-109114594D01*
X111449031Y-109117500D01*
X111550969Y-109117500D01*
X111650949Y-109097613D01*
X111745128Y-109058603D01*
X111829887Y-109001969D01*
X111901969Y-108929887D01*
X111958603Y-108845128D01*
X111997613Y-108750949D01*
X112017500Y-108650969D01*
X112017500Y-108549031D01*
X111997613Y-108449051D01*
X111958603Y-108354872D01*
X111901969Y-108270113D01*
X111829887Y-108198031D01*
X111745128Y-108141397D01*
X111650949Y-108102387D01*
X111550969Y-108082500D01*
X111449031Y-108082500D01*
X111349051Y-108102387D01*
X111254872Y-108141397D01*
X111170113Y-108198031D01*
X111098031Y-108270113D01*
X111041397Y-108354872D01*
X111002387Y-108449051D01*
X110982500Y-108549031D01*
X110982500Y-108650969D01*
X110985406Y-108665581D01*
X109365582Y-110285406D01*
X109350973Y-110282500D01*
X109249035Y-110282500D01*
X109149055Y-110302387D01*
X109054876Y-110341397D01*
X108970117Y-110398031D01*
X108898035Y-110470113D01*
X108841401Y-110554872D01*
X108802391Y-110649051D01*
X108782504Y-110749031D01*
X105998044Y-110749031D01*
X105917500Y-110668488D01*
X105917500Y-107810246D01*
X105929887Y-107801969D01*
X106001969Y-107729887D01*
X106058603Y-107645128D01*
X106097613Y-107550949D01*
X106117500Y-107450969D01*
X106117500Y-107349031D01*
X106097613Y-107249051D01*
X106058603Y-107154872D01*
X106001969Y-107070113D01*
X105949356Y-107017500D01*
X126874587Y-107017500D01*
X126900000Y-107020003D01*
X126925413Y-107017500D01*
X127001448Y-107010011D01*
X127098997Y-106980420D01*
X127188898Y-106932367D01*
X127267698Y-106867698D01*
X127283898Y-106847958D01*
X127326969Y-106804887D01*
X127341175Y-106783627D01*
X127357366Y-106763897D01*
X127369397Y-106741388D01*
X127383603Y-106720128D01*
X127393386Y-106696510D01*
X127405420Y-106673996D01*
X127412831Y-106649564D01*
X127422613Y-106625949D01*
X127427599Y-106600881D01*
X127435011Y-106576448D01*
X127437514Y-106551036D01*
X127442500Y-106525969D01*
X127442500Y-106500414D01*
X127445003Y-106475001D01*
X127442500Y-106449588D01*
X127442500Y-106424031D01*
X127437514Y-106398963D01*
X127435011Y-106373553D01*
X127427600Y-106349122D01*
X127422613Y-106324051D01*
X127412830Y-106300433D01*
X127405420Y-106276005D01*
X127393387Y-106253494D01*
X127383603Y-106229872D01*
X127369397Y-106208611D01*
X127357366Y-106186103D01*
X127341176Y-106166375D01*
X127326969Y-106145113D01*
X127308888Y-106127032D01*
X127292697Y-106107303D01*
X127272968Y-106091112D01*
X127254887Y-106073031D01*
X127233625Y-106058824D01*
X127213897Y-106042634D01*
X127191389Y-106030603D01*
X127170128Y-106016397D01*
X127146506Y-106006613D01*
X127123995Y-105994580D01*
X127099567Y-105987170D01*
X127075949Y-105977387D01*
X127050878Y-105972400D01*
X127026447Y-105964989D01*
X127001037Y-105962486D01*
X126975969Y-105957500D01*
X126950412Y-105957500D01*
X126924999Y-105954997D01*
X126899586Y-105957500D01*
X126874031Y-105957500D01*
X126848964Y-105962486D01*
X126823552Y-105964989D01*
X126799119Y-105972401D01*
X126774051Y-105977387D01*
X126761707Y-105982500D01*
X105325413Y-105982500D01*
X105300000Y-105979997D01*
X105274587Y-105982500D01*
X105198552Y-105989989D01*
X105101003Y-106019580D01*
X105011102Y-106067633D01*
X104932302Y-106132302D01*
X104916097Y-106152048D01*
X102702048Y-108366097D01*
X102682302Y-108382302D01*
X102617633Y-108461102D01*
X102590908Y-108511102D01*
X102569580Y-108551004D01*
X102539989Y-108648553D01*
X102529997Y-108750000D01*
X102532500Y-108775413D01*
X102532500Y-112100644D01*
X102529887Y-112098031D01*
X102517500Y-112089754D01*
X102517500Y-107106643D01*
X102558603Y-107045128D01*
X102597613Y-106950949D01*
X102617500Y-106850969D01*
X102617500Y-106749031D01*
X102597613Y-106649051D01*
X102558603Y-106554872D01*
X102501969Y-106470113D01*
X102429887Y-106398031D01*
X102345128Y-106341397D01*
X102250949Y-106302387D01*
X102150969Y-106282500D01*
X102049031Y-106282500D01*
X101949051Y-106302387D01*
X101854872Y-106341397D01*
X101770113Y-106398031D01*
X101698031Y-106470113D01*
X101641397Y-106554872D01*
X101602387Y-106649051D01*
X101582500Y-106749031D01*
X101582500Y-106850969D01*
X101602387Y-106950949D01*
X101641397Y-107045128D01*
X101682500Y-107106643D01*
X101682501Y-112379488D01*
X101680481Y-112400000D01*
X101684379Y-112439584D01*
X101682500Y-112449031D01*
X101682500Y-112550969D01*
X101702387Y-112650949D01*
X101741397Y-112745128D01*
X101798031Y-112829887D01*
X101870113Y-112901969D01*
X101954872Y-112958603D01*
X102049051Y-112997613D01*
X102149031Y-113017500D01*
X102250969Y-113017500D01*
X102350949Y-112997613D01*
X102445128Y-112958603D01*
X102529887Y-112901969D01*
X102532501Y-112899355D01*
X102532501Y-115215807D01*
X102501969Y-115170113D01*
X102429887Y-115098031D01*
X102345128Y-115041397D01*
X102250949Y-115002387D01*
X102150969Y-114982500D01*
X102049031Y-114982500D01*
X101949051Y-115002387D01*
X101854872Y-115041397D01*
X101770113Y-115098031D01*
X101698031Y-115170113D01*
X101641397Y-115254872D01*
X101602387Y-115349051D01*
X101587954Y-115421612D01*
X100240500Y-116769066D01*
X100240500Y-100511759D01*
X100246573Y-100449822D01*
X100261146Y-100401554D01*
X100284816Y-100357035D01*
X100316686Y-100317960D01*
X100355535Y-100285821D01*
X100399884Y-100261841D01*
X100448053Y-100246930D01*
X100509232Y-100240500D01*
X135488241Y-100240500D01*
X135550178Y-100246573D01*
G36*
X114006526Y-128964462D02*
G01*
X114006520Y-128964467D01*
X113866192Y-129104795D01*
X113780491Y-129058987D01*
X113579267Y-128997946D01*
X113422441Y-128982500D01*
X113317559Y-128982500D01*
X113160733Y-128997946D01*
X112959509Y-129058987D01*
X112774059Y-129158112D01*
X112611511Y-129291511D01*
X112478112Y-129454059D01*
X112378987Y-129639509D01*
X112317946Y-129840733D01*
X112297335Y-130050000D01*
X112317946Y-130259267D01*
X112378987Y-130460491D01*
X112478112Y-130645941D01*
X112611511Y-130808489D01*
X112645644Y-130836501D01*
X111554356Y-130836501D01*
X111588489Y-130808489D01*
X111721888Y-130645941D01*
X111821013Y-130460491D01*
X111882054Y-130259267D01*
X111902665Y-130050000D01*
X111882054Y-129840733D01*
X111821013Y-129639509D01*
X111775205Y-129553808D01*
X111915533Y-129413480D01*
X111915538Y-129413474D01*
X116657502Y-124671511D01*
X118299476Y-124671511D01*
X114006526Y-128964462D01*
X114006526Y-128964462D01*
G37*
X114006526Y-128964462D02*
X114006520Y-128964467D01*
X113866192Y-129104795D01*
X113780491Y-129058987D01*
X113579267Y-128997946D01*
X113422441Y-128982500D01*
X113317559Y-128982500D01*
X113160733Y-128997946D01*
X112959509Y-129058987D01*
X112774059Y-129158112D01*
X112611511Y-129291511D01*
X112478112Y-129454059D01*
X112378987Y-129639509D01*
X112317946Y-129840733D01*
X112297335Y-130050000D01*
X112317946Y-130259267D01*
X112378987Y-130460491D01*
X112478112Y-130645941D01*
X112611511Y-130808489D01*
X112645644Y-130836501D01*
X111554356Y-130836501D01*
X111588489Y-130808489D01*
X111721888Y-130645941D01*
X111821013Y-130460491D01*
X111882054Y-130259267D01*
X111902665Y-130050000D01*
X111882054Y-129840733D01*
X111821013Y-129639509D01*
X111775205Y-129553808D01*
X111915533Y-129413480D01*
X111915538Y-129413474D01*
X116657502Y-124671511D01*
X118299476Y-124671511D01*
X114006526Y-128964462D01*
G36*
X111466526Y-128964462D02*
G01*
X111466520Y-128964467D01*
X111326192Y-129104795D01*
X111240491Y-129058987D01*
X111039267Y-128997946D01*
X110882441Y-128982500D01*
X110777559Y-128982500D01*
X110620733Y-128997946D01*
X110419509Y-129058987D01*
X110234059Y-129158112D01*
X110071511Y-129291511D01*
X109938112Y-129454059D01*
X109838987Y-129639509D01*
X109777946Y-129840733D01*
X109757335Y-130050000D01*
X109777946Y-130259267D01*
X109838987Y-130460491D01*
X109938112Y-130645941D01*
X110071511Y-130808489D01*
X110105644Y-130836501D01*
X109014356Y-130836501D01*
X109048489Y-130808489D01*
X109181888Y-130645941D01*
X109281013Y-130460491D01*
X109342054Y-130259267D01*
X109362665Y-130050000D01*
X109342054Y-129840733D01*
X109281013Y-129639509D01*
X109235205Y-129553807D01*
X114471513Y-124317500D01*
X116113487Y-124317500D01*
X111466526Y-128964462D01*
X111466526Y-128964462D01*
G37*
X111466526Y-128964462D02*
X111466520Y-128964467D01*
X111326192Y-129104795D01*
X111240491Y-129058987D01*
X111039267Y-128997946D01*
X110882441Y-128982500D01*
X110777559Y-128982500D01*
X110620733Y-128997946D01*
X110419509Y-129058987D01*
X110234059Y-129158112D01*
X110071511Y-129291511D01*
X109938112Y-129454059D01*
X109838987Y-129639509D01*
X109777946Y-129840733D01*
X109757335Y-130050000D01*
X109777946Y-130259267D01*
X109838987Y-130460491D01*
X109938112Y-130645941D01*
X110071511Y-130808489D01*
X110105644Y-130836501D01*
X109014356Y-130836501D01*
X109048489Y-130808489D01*
X109181888Y-130645941D01*
X109281013Y-130460491D01*
X109342054Y-130259267D01*
X109362665Y-130050000D01*
X109342054Y-129840733D01*
X109281013Y-129639509D01*
X109235205Y-129553807D01*
X114471513Y-124317500D01*
X116113487Y-124317500D01*
X111466526Y-128964462D01*
G36*
X124986510Y-118225969D02*
G01*
X125006397Y-118325949D01*
X125045407Y-118420128D01*
X125102041Y-118504887D01*
X125174123Y-118576969D01*
X125186510Y-118585246D01*
X125186510Y-118614859D01*
X125186511Y-118614869D01*
X125186511Y-118712828D01*
X125100949Y-118677387D01*
X125000969Y-118657500D01*
X124899031Y-118657500D01*
X124799051Y-118677387D01*
X124704872Y-118716397D01*
X124620113Y-118773031D01*
X124548031Y-118845113D01*
X124491397Y-118929872D01*
X124452387Y-119024051D01*
X124432500Y-119124031D01*
X124432500Y-119225969D01*
X124435372Y-119240408D01*
X124424408Y-119249406D01*
X124384732Y-119297753D01*
X124363034Y-119338348D01*
X124355250Y-119352910D01*
X124337095Y-119412759D01*
X124330965Y-119474999D01*
X124332501Y-119490595D01*
X124332502Y-127323485D01*
X122691526Y-128964462D01*
X122691520Y-128964467D01*
X122551192Y-129104795D01*
X122465491Y-129058987D01*
X122264267Y-128997946D01*
X122107441Y-128982500D01*
X122002559Y-128982500D01*
X121845733Y-128997946D01*
X121644509Y-129058987D01*
X121459059Y-129158112D01*
X121296511Y-129291511D01*
X121163112Y-129454059D01*
X121063987Y-129639509D01*
X121002946Y-129840733D01*
X120982335Y-130050000D01*
X121002946Y-130259267D01*
X121063987Y-130460491D01*
X121163112Y-130645941D01*
X121296511Y-130808489D01*
X121330644Y-130836501D01*
X120193572Y-130836501D01*
X120323190Y-130705350D01*
X120435513Y-130535088D01*
X120512462Y-130346184D01*
X120498890Y-130186500D01*
X119651500Y-130186500D01*
X119651500Y-130206500D01*
X119378500Y-130206500D01*
X119378500Y-130186500D01*
X118531110Y-130186500D01*
X118517538Y-130346184D01*
X118594487Y-130535088D01*
X118706810Y-130705350D01*
X118836428Y-130836501D01*
X116588572Y-130836501D01*
X116718190Y-130705350D01*
X116830513Y-130535088D01*
X116907462Y-130346184D01*
X116893890Y-130186500D01*
X116046500Y-130186500D01*
X116046500Y-130206500D01*
X115773500Y-130206500D01*
X115773500Y-130186500D01*
X114926110Y-130186500D01*
X114912538Y-130346184D01*
X114989487Y-130535088D01*
X115101810Y-130705350D01*
X115231428Y-130836501D01*
X114094356Y-130836501D01*
X114128489Y-130808489D01*
X114261888Y-130645941D01*
X114361013Y-130460491D01*
X114422054Y-130259267D01*
X114442665Y-130050000D01*
X114422054Y-129840733D01*
X114395688Y-129753816D01*
X114912538Y-129753816D01*
X114926110Y-129913500D01*
X115773500Y-129913500D01*
X115773500Y-129066553D01*
X116046500Y-129066553D01*
X116046500Y-129913500D01*
X116893890Y-129913500D01*
X116907462Y-129753816D01*
X118517538Y-129753816D01*
X118531110Y-129913500D01*
X119378500Y-129913500D01*
X119378500Y-129066553D01*
X119651500Y-129066553D01*
X119651500Y-129913500D01*
X120498890Y-129913500D01*
X120512462Y-129753816D01*
X120435513Y-129564912D01*
X120323190Y-129394650D01*
X120179808Y-129249572D01*
X120010878Y-129135254D01*
X119822892Y-129056090D01*
X119811183Y-129052545D01*
X119651500Y-129066553D01*
X119378500Y-129066553D01*
X119218817Y-129052545D01*
X119207108Y-129056090D01*
X119019122Y-129135254D01*
X118850192Y-129249572D01*
X118706810Y-129394650D01*
X118594487Y-129564912D01*
X118517538Y-129753816D01*
X116907462Y-129753816D01*
X116830513Y-129564912D01*
X116718190Y-129394650D01*
X116574808Y-129249572D01*
X116405878Y-129135254D01*
X116217892Y-129056090D01*
X116206183Y-129052545D01*
X116046500Y-129066553D01*
X115773500Y-129066553D01*
X115613817Y-129052545D01*
X115602108Y-129056090D01*
X115414122Y-129135254D01*
X115245192Y-129249572D01*
X115101810Y-129394650D01*
X114989487Y-129564912D01*
X114912538Y-129753816D01*
X114395688Y-129753816D01*
X114361013Y-129639509D01*
X114315205Y-129553808D01*
X114455533Y-129413480D01*
X114455538Y-129413474D01*
X118843491Y-125025522D01*
X121876382Y-125025522D01*
X121891978Y-125027058D01*
X121907574Y-125025522D01*
X121954219Y-125020928D01*
X122014068Y-125002773D01*
X122069225Y-124973291D01*
X122117571Y-124933615D01*
X122127520Y-124921492D01*
X123751719Y-123297294D01*
X123845128Y-123258603D01*
X123929887Y-123201969D01*
X124001969Y-123129887D01*
X124058603Y-123045128D01*
X124097613Y-122950949D01*
X124117500Y-122850969D01*
X124117500Y-122749031D01*
X124097613Y-122649051D01*
X124058603Y-122554872D01*
X124001969Y-122470113D01*
X123929887Y-122398031D01*
X123845128Y-122341397D01*
X123787435Y-122317500D01*
X123850969Y-122317500D01*
X123950949Y-122297613D01*
X124045128Y-122258603D01*
X124129887Y-122201969D01*
X124201969Y-122129887D01*
X124258603Y-122045128D01*
X124297613Y-121950949D01*
X124317500Y-121850969D01*
X124317500Y-121749031D01*
X124297613Y-121649051D01*
X124258603Y-121554872D01*
X124217500Y-121493357D01*
X124217500Y-121020509D01*
X124219520Y-121000000D01*
X124217500Y-120979491D01*
X124217500Y-118897934D01*
X124986510Y-118128924D01*
X124986510Y-118225969D01*
X124986510Y-118225969D01*
G37*
X124986510Y-118225969D02*
X125006397Y-118325949D01*
X125045407Y-118420128D01*
X125102041Y-118504887D01*
X125174123Y-118576969D01*
X125186510Y-118585246D01*
X125186510Y-118614859D01*
X125186511Y-118614869D01*
X125186511Y-118712828D01*
X125100949Y-118677387D01*
X125000969Y-118657500D01*
X124899031Y-118657500D01*
X124799051Y-118677387D01*
X124704872Y-118716397D01*
X124620113Y-118773031D01*
X124548031Y-118845113D01*
X124491397Y-118929872D01*
X124452387Y-119024051D01*
X124432500Y-119124031D01*
X124432500Y-119225969D01*
X124435372Y-119240408D01*
X124424408Y-119249406D01*
X124384732Y-119297753D01*
X124363034Y-119338348D01*
X124355250Y-119352910D01*
X124337095Y-119412759D01*
X124330965Y-119474999D01*
X124332501Y-119490595D01*
X124332502Y-127323485D01*
X122691526Y-128964462D01*
X122691520Y-128964467D01*
X122551192Y-129104795D01*
X122465491Y-129058987D01*
X122264267Y-128997946D01*
X122107441Y-128982500D01*
X122002559Y-128982500D01*
X121845733Y-128997946D01*
X121644509Y-129058987D01*
X121459059Y-129158112D01*
X121296511Y-129291511D01*
X121163112Y-129454059D01*
X121063987Y-129639509D01*
X121002946Y-129840733D01*
X120982335Y-130050000D01*
X121002946Y-130259267D01*
X121063987Y-130460491D01*
X121163112Y-130645941D01*
X121296511Y-130808489D01*
X121330644Y-130836501D01*
X120193572Y-130836501D01*
X120323190Y-130705350D01*
X120435513Y-130535088D01*
X120512462Y-130346184D01*
X120498890Y-130186500D01*
X119651500Y-130186500D01*
X119651500Y-130206500D01*
X119378500Y-130206500D01*
X119378500Y-130186500D01*
X118531110Y-130186500D01*
X118517538Y-130346184D01*
X118594487Y-130535088D01*
X118706810Y-130705350D01*
X118836428Y-130836501D01*
X116588572Y-130836501D01*
X116718190Y-130705350D01*
X116830513Y-130535088D01*
X116907462Y-130346184D01*
X116893890Y-130186500D01*
X116046500Y-130186500D01*
X116046500Y-130206500D01*
X115773500Y-130206500D01*
X115773500Y-130186500D01*
X114926110Y-130186500D01*
X114912538Y-130346184D01*
X114989487Y-130535088D01*
X115101810Y-130705350D01*
X115231428Y-130836501D01*
X114094356Y-130836501D01*
X114128489Y-130808489D01*
X114261888Y-130645941D01*
X114361013Y-130460491D01*
X114422054Y-130259267D01*
X114442665Y-130050000D01*
X114422054Y-129840733D01*
X114395688Y-129753816D01*
X114912538Y-129753816D01*
X114926110Y-129913500D01*
X115773500Y-129913500D01*
X115773500Y-129066553D01*
X116046500Y-129066553D01*
X116046500Y-129913500D01*
X116893890Y-129913500D01*
X116907462Y-129753816D01*
X118517538Y-129753816D01*
X118531110Y-129913500D01*
X119378500Y-129913500D01*
X119378500Y-129066553D01*
X119651500Y-129066553D01*
X119651500Y-129913500D01*
X120498890Y-129913500D01*
X120512462Y-129753816D01*
X120435513Y-129564912D01*
X120323190Y-129394650D01*
X120179808Y-129249572D01*
X120010878Y-129135254D01*
X119822892Y-129056090D01*
X119811183Y-129052545D01*
X119651500Y-129066553D01*
X119378500Y-129066553D01*
X119218817Y-129052545D01*
X119207108Y-129056090D01*
X119019122Y-129135254D01*
X118850192Y-129249572D01*
X118706810Y-129394650D01*
X118594487Y-129564912D01*
X118517538Y-129753816D01*
X116907462Y-129753816D01*
X116830513Y-129564912D01*
X116718190Y-129394650D01*
X116574808Y-129249572D01*
X116405878Y-129135254D01*
X116217892Y-129056090D01*
X116206183Y-129052545D01*
X116046500Y-129066553D01*
X115773500Y-129066553D01*
X115613817Y-129052545D01*
X115602108Y-129056090D01*
X115414122Y-129135254D01*
X115245192Y-129249572D01*
X115101810Y-129394650D01*
X114989487Y-129564912D01*
X114912538Y-129753816D01*
X114395688Y-129753816D01*
X114361013Y-129639509D01*
X114315205Y-129553808D01*
X114455533Y-129413480D01*
X114455538Y-129413474D01*
X118843491Y-125025522D01*
X121876382Y-125025522D01*
X121891978Y-125027058D01*
X121907574Y-125025522D01*
X121954219Y-125020928D01*
X122014068Y-125002773D01*
X122069225Y-124973291D01*
X122117571Y-124933615D01*
X122127520Y-124921492D01*
X123751719Y-123297294D01*
X123845128Y-123258603D01*
X123929887Y-123201969D01*
X124001969Y-123129887D01*
X124058603Y-123045128D01*
X124097613Y-122950949D01*
X124117500Y-122850969D01*
X124117500Y-122749031D01*
X124097613Y-122649051D01*
X124058603Y-122554872D01*
X124001969Y-122470113D01*
X123929887Y-122398031D01*
X123845128Y-122341397D01*
X123787435Y-122317500D01*
X123850969Y-122317500D01*
X123950949Y-122297613D01*
X124045128Y-122258603D01*
X124129887Y-122201969D01*
X124201969Y-122129887D01*
X124258603Y-122045128D01*
X124297613Y-121950949D01*
X124317500Y-121850969D01*
X124317500Y-121749031D01*
X124297613Y-121649051D01*
X124258603Y-121554872D01*
X124217500Y-121493357D01*
X124217500Y-121020509D01*
X124219520Y-121000000D01*
X124217500Y-120979491D01*
X124217500Y-118897934D01*
X124986510Y-118128924D01*
X124986510Y-118225969D01*
G36*
X130582501Y-125914356D02*
G01*
X130582500Y-128990156D01*
X130567637Y-128985647D01*
X130525000Y-128981448D01*
X128825000Y-128981448D01*
X128782363Y-128985647D01*
X128741364Y-128998084D01*
X128703579Y-129018281D01*
X128670460Y-129045460D01*
X128643281Y-129078579D01*
X128623084Y-129116364D01*
X128610647Y-129157363D01*
X128606448Y-129200000D01*
X128606448Y-130836501D01*
X127859356Y-130836501D01*
X127893489Y-130808489D01*
X128026888Y-130645941D01*
X128126013Y-130460491D01*
X128187054Y-130259267D01*
X128207665Y-130050000D01*
X128187054Y-129840733D01*
X128126013Y-129639509D01*
X128026888Y-129454059D01*
X127893489Y-129291511D01*
X127730941Y-129158112D01*
X127545491Y-129058987D01*
X127344267Y-128997946D01*
X127187441Y-128982500D01*
X127082559Y-128982500D01*
X126925733Y-128997946D01*
X126724509Y-129058987D01*
X126638808Y-129104795D01*
X126520539Y-128986527D01*
X126520535Y-128986522D01*
X125892500Y-128358488D01*
X125892500Y-127310706D01*
X127967813Y-127310706D01*
X128030224Y-127461737D01*
X128117884Y-127568294D01*
X128224648Y-127655702D01*
X128346413Y-127720602D01*
X128478500Y-127760500D01*
X129028500Y-127760500D01*
X129028500Y-127206500D01*
X129301500Y-127206500D01*
X129301500Y-127760500D01*
X129851500Y-127760500D01*
X129983587Y-127720602D01*
X130105352Y-127655702D01*
X130212116Y-127568294D01*
X130299776Y-127461737D01*
X130362187Y-127310706D01*
X130343217Y-127206500D01*
X129301500Y-127206500D01*
X129028500Y-127206500D01*
X127986783Y-127206500D01*
X127967813Y-127310706D01*
X125892500Y-127310706D01*
X125892500Y-126829294D01*
X127967813Y-126829294D01*
X127986783Y-126933500D01*
X129028500Y-126933500D01*
X129028500Y-126913500D01*
X129301500Y-126913500D01*
X129301500Y-126933500D01*
X130343217Y-126933500D01*
X130362187Y-126829294D01*
X130299776Y-126678263D01*
X130212116Y-126571706D01*
X130105352Y-126484298D01*
X129983587Y-126419398D01*
X129851500Y-126379500D01*
X128478500Y-126379500D01*
X128346413Y-126419398D01*
X128224648Y-126484298D01*
X128117884Y-126571706D01*
X128030224Y-126678263D01*
X127967813Y-126829294D01*
X125892500Y-126829294D01*
X125892500Y-125739881D01*
X125899163Y-125743442D01*
X125948594Y-125758437D01*
X126000000Y-125763500D01*
X129000000Y-125763500D01*
X129051406Y-125758437D01*
X129100837Y-125743442D01*
X129146393Y-125719092D01*
X129156031Y-125711183D01*
X129173348Y-125798241D01*
X129214243Y-125896970D01*
X129273613Y-125985824D01*
X129349176Y-126061387D01*
X129438030Y-126120757D01*
X129536759Y-126161652D01*
X129641568Y-126182500D01*
X129748432Y-126182500D01*
X129853241Y-126161652D01*
X129951970Y-126120757D01*
X130040824Y-126061387D01*
X130116387Y-125985824D01*
X130175757Y-125896970D01*
X130216652Y-125798241D01*
X130237500Y-125693432D01*
X130237500Y-125586568D01*
X130233226Y-125565081D01*
X130582501Y-125914356D01*
X130582501Y-125914356D01*
G37*
X130582501Y-125914356D02*
X130582500Y-128990156D01*
X130567637Y-128985647D01*
X130525000Y-128981448D01*
X128825000Y-128981448D01*
X128782363Y-128985647D01*
X128741364Y-128998084D01*
X128703579Y-129018281D01*
X128670460Y-129045460D01*
X128643281Y-129078579D01*
X128623084Y-129116364D01*
X128610647Y-129157363D01*
X128606448Y-129200000D01*
X128606448Y-130836501D01*
X127859356Y-130836501D01*
X127893489Y-130808489D01*
X128026888Y-130645941D01*
X128126013Y-130460491D01*
X128187054Y-130259267D01*
X128207665Y-130050000D01*
X128187054Y-129840733D01*
X128126013Y-129639509D01*
X128026888Y-129454059D01*
X127893489Y-129291511D01*
X127730941Y-129158112D01*
X127545491Y-129058987D01*
X127344267Y-128997946D01*
X127187441Y-128982500D01*
X127082559Y-128982500D01*
X126925733Y-128997946D01*
X126724509Y-129058987D01*
X126638808Y-129104795D01*
X126520539Y-128986527D01*
X126520535Y-128986522D01*
X125892500Y-128358488D01*
X125892500Y-127310706D01*
X127967813Y-127310706D01*
X128030224Y-127461737D01*
X128117884Y-127568294D01*
X128224648Y-127655702D01*
X128346413Y-127720602D01*
X128478500Y-127760500D01*
X129028500Y-127760500D01*
X129028500Y-127206500D01*
X129301500Y-127206500D01*
X129301500Y-127760500D01*
X129851500Y-127760500D01*
X129983587Y-127720602D01*
X130105352Y-127655702D01*
X130212116Y-127568294D01*
X130299776Y-127461737D01*
X130362187Y-127310706D01*
X130343217Y-127206500D01*
X129301500Y-127206500D01*
X129028500Y-127206500D01*
X127986783Y-127206500D01*
X127967813Y-127310706D01*
X125892500Y-127310706D01*
X125892500Y-126829294D01*
X127967813Y-126829294D01*
X127986783Y-126933500D01*
X129028500Y-126933500D01*
X129028500Y-126913500D01*
X129301500Y-126913500D01*
X129301500Y-126933500D01*
X130343217Y-126933500D01*
X130362187Y-126829294D01*
X130299776Y-126678263D01*
X130212116Y-126571706D01*
X130105352Y-126484298D01*
X129983587Y-126419398D01*
X129851500Y-126379500D01*
X128478500Y-126379500D01*
X128346413Y-126419398D01*
X128224648Y-126484298D01*
X128117884Y-126571706D01*
X128030224Y-126678263D01*
X127967813Y-126829294D01*
X125892500Y-126829294D01*
X125892500Y-125739881D01*
X125899163Y-125743442D01*
X125948594Y-125758437D01*
X126000000Y-125763500D01*
X129000000Y-125763500D01*
X129051406Y-125758437D01*
X129100837Y-125743442D01*
X129146393Y-125719092D01*
X129156031Y-125711183D01*
X129173348Y-125798241D01*
X129214243Y-125896970D01*
X129273613Y-125985824D01*
X129349176Y-126061387D01*
X129438030Y-126120757D01*
X129536759Y-126161652D01*
X129641568Y-126182500D01*
X129748432Y-126182500D01*
X129853241Y-126161652D01*
X129951970Y-126120757D01*
X130040824Y-126061387D01*
X130116387Y-125985824D01*
X130175757Y-125896970D01*
X130216652Y-125798241D01*
X130237500Y-125693432D01*
X130237500Y-125586568D01*
X130233226Y-125565081D01*
X130582501Y-125914356D01*
G36*
X128936500Y-121626224D02*
G01*
X128935972Y-121628878D01*
X128935972Y-121739878D01*
X128936500Y-121742532D01*
X128936500Y-125436500D01*
X126063500Y-125436500D01*
X126063500Y-120100566D01*
X126100566Y-120063500D01*
X128936500Y-120063500D01*
X128936500Y-121626224D01*
X128936500Y-121626224D01*
G37*
X128936500Y-121626224D02*
X128935972Y-121628878D01*
X128935972Y-121739878D01*
X128936500Y-121742532D01*
X128936500Y-125436500D01*
X126063500Y-125436500D01*
X126063500Y-120100566D01*
X126100566Y-120063500D01*
X128936500Y-120063500D01*
X128936500Y-121626224D01*
M02*
