G04 #@! TF.GenerationSoftware,KiCad,Pcbnew,5.1.0*
G04 #@! TF.CreationDate,2019-05-06T20:06:38+02:00*
G04 #@! TF.ProjectId,printer-otter,7072696e-7465-4722-9d6f-747465722e6b,rev?*
G04 #@! TF.SameCoordinates,Original*
G04 #@! TF.FileFunction,Soldermask,Top*
G04 #@! TF.FilePolarity,Negative*
%FSLAX46Y46*%
G04 Gerber Fmt 4.6, Leading zero omitted, Abs format (unit mm)*
G04 Created by KiCad (PCBNEW 5.1.0) date 2019-05-06 20:06:38*
%MOMM*%
%LPD*%
G04 APERTURE LIST*
%ADD10C,0.100000*%
G04 APERTURE END LIST*
D10*
X136000000Y-113625000D02*
X136000000Y-100500000D01*
X135500000Y-100000000D02*
X121750000Y-100000000D01*
X100000000Y-100500000D02*
G75*
G02X100500000Y-100000000I500000J0D01*
G01*
X100500000Y-132000000D02*
G75*
G02X100000000Y-131500000I0J500000D01*
G01*
X136000000Y-131500000D02*
G75*
G02X135500000Y-132000000I-500000J0D01*
G01*
X135500000Y-100000000D02*
G75*
G02X136000000Y-100500000I0J-500000D01*
G01*
X135500000Y-100000000D02*
X135500000Y-100000000D01*
X136000000Y-131500000D02*
X136000000Y-115625000D01*
X100500000Y-132000000D02*
X135500000Y-132000000D01*
X100000000Y-100500000D02*
X100000000Y-131500000D01*
X104500000Y-100000000D02*
X100500000Y-100000000D01*
X107000000Y-100000000D02*
X104500000Y-100000000D01*
X110000000Y-100000000D02*
X112500000Y-100000000D01*
X113000000Y-100000000D02*
X112500000Y-100000000D01*
X110000000Y-100000000D02*
X107000000Y-100000000D01*
X121750000Y-100000000D02*
X113000000Y-100000000D01*
X136000000Y-115625000D02*
G75*
G02X136000000Y-113625000I1499999J1000000D01*
G01*
G36*
X135900000Y-132000000D02*
G01*
X131800000Y-132000000D01*
X131800000Y-127900000D01*
X135900000Y-127900000D01*
X135900000Y-132000000D01*
X135900000Y-132000000D01*
G37*
G36*
X122221627Y-129212299D02*
G01*
X122301742Y-129236601D01*
X122381855Y-129260903D01*
X122381857Y-129260904D01*
X122529518Y-129339831D01*
X122658949Y-129446051D01*
X122765169Y-129575482D01*
X122844096Y-129723143D01*
X122892701Y-129883373D01*
X122909112Y-130050000D01*
X122892701Y-130216627D01*
X122844096Y-130376857D01*
X122765169Y-130524518D01*
X122658949Y-130653949D01*
X122529518Y-130760169D01*
X122381857Y-130839096D01*
X122381855Y-130839097D01*
X122301742Y-130863399D01*
X122221627Y-130887701D01*
X122096752Y-130900000D01*
X122013248Y-130900000D01*
X121888373Y-130887701D01*
X121808258Y-130863399D01*
X121728145Y-130839097D01*
X121728143Y-130839096D01*
X121580482Y-130760169D01*
X121451051Y-130653949D01*
X121344831Y-130524518D01*
X121265904Y-130376857D01*
X121217299Y-130216627D01*
X121200888Y-130050000D01*
X121217299Y-129883373D01*
X121265904Y-129723143D01*
X121344831Y-129575482D01*
X121451051Y-129446051D01*
X121580482Y-129339831D01*
X121728143Y-129260904D01*
X121728145Y-129260903D01*
X121808258Y-129236601D01*
X121888373Y-129212299D01*
X122013248Y-129200000D01*
X122096752Y-129200000D01*
X122221627Y-129212299D01*
X122221627Y-129212299D01*
G37*
G36*
X119681627Y-129212299D02*
G01*
X119761742Y-129236601D01*
X119841855Y-129260903D01*
X119841857Y-129260904D01*
X119989518Y-129339831D01*
X120118949Y-129446051D01*
X120225169Y-129575482D01*
X120304096Y-129723143D01*
X120352701Y-129883373D01*
X120369112Y-130050000D01*
X120352701Y-130216627D01*
X120304096Y-130376857D01*
X120225169Y-130524518D01*
X120118949Y-130653949D01*
X119989518Y-130760169D01*
X119841857Y-130839096D01*
X119841855Y-130839097D01*
X119761742Y-130863399D01*
X119681627Y-130887701D01*
X119556752Y-130900000D01*
X119473248Y-130900000D01*
X119348373Y-130887701D01*
X119268258Y-130863399D01*
X119188145Y-130839097D01*
X119188143Y-130839096D01*
X119040482Y-130760169D01*
X118911051Y-130653949D01*
X118804831Y-130524518D01*
X118725904Y-130376857D01*
X118677299Y-130216627D01*
X118660888Y-130050000D01*
X118677299Y-129883373D01*
X118725904Y-129723143D01*
X118804831Y-129575482D01*
X118911051Y-129446051D01*
X119040482Y-129339831D01*
X119188143Y-129260904D01*
X119188145Y-129260903D01*
X119268258Y-129236601D01*
X119348373Y-129212299D01*
X119473248Y-129200000D01*
X119556752Y-129200000D01*
X119681627Y-129212299D01*
X119681627Y-129212299D01*
G37*
G36*
X124761627Y-129212299D02*
G01*
X124841742Y-129236601D01*
X124921855Y-129260903D01*
X124921857Y-129260904D01*
X125069518Y-129339831D01*
X125198949Y-129446051D01*
X125305169Y-129575482D01*
X125384096Y-129723143D01*
X125432701Y-129883373D01*
X125449112Y-130050000D01*
X125432701Y-130216627D01*
X125384096Y-130376857D01*
X125305169Y-130524518D01*
X125198949Y-130653949D01*
X125069518Y-130760169D01*
X124921857Y-130839096D01*
X124921855Y-130839097D01*
X124841742Y-130863399D01*
X124761627Y-130887701D01*
X124636752Y-130900000D01*
X124553248Y-130900000D01*
X124428373Y-130887701D01*
X124348258Y-130863399D01*
X124268145Y-130839097D01*
X124268143Y-130839096D01*
X124120482Y-130760169D01*
X123991051Y-130653949D01*
X123884831Y-130524518D01*
X123805904Y-130376857D01*
X123757299Y-130216627D01*
X123740888Y-130050000D01*
X123757299Y-129883373D01*
X123805904Y-129723143D01*
X123884831Y-129575482D01*
X123991051Y-129446051D01*
X124120482Y-129339831D01*
X124268143Y-129260904D01*
X124268145Y-129260903D01*
X124348258Y-129236601D01*
X124428373Y-129212299D01*
X124553248Y-129200000D01*
X124636752Y-129200000D01*
X124761627Y-129212299D01*
X124761627Y-129212299D01*
G37*
G36*
X127301627Y-129212299D02*
G01*
X127381742Y-129236601D01*
X127461855Y-129260903D01*
X127461857Y-129260904D01*
X127609518Y-129339831D01*
X127738949Y-129446051D01*
X127845169Y-129575482D01*
X127924096Y-129723143D01*
X127972701Y-129883373D01*
X127989112Y-130050000D01*
X127972701Y-130216627D01*
X127924096Y-130376857D01*
X127845169Y-130524518D01*
X127738949Y-130653949D01*
X127609518Y-130760169D01*
X127461857Y-130839096D01*
X127461855Y-130839097D01*
X127381742Y-130863399D01*
X127301627Y-130887701D01*
X127176752Y-130900000D01*
X127093248Y-130900000D01*
X126968373Y-130887701D01*
X126888258Y-130863399D01*
X126808145Y-130839097D01*
X126808143Y-130839096D01*
X126660482Y-130760169D01*
X126531051Y-130653949D01*
X126424831Y-130524518D01*
X126345904Y-130376857D01*
X126297299Y-130216627D01*
X126280888Y-130050000D01*
X126297299Y-129883373D01*
X126345904Y-129723143D01*
X126424831Y-129575482D01*
X126531051Y-129446051D01*
X126660482Y-129339831D01*
X126808143Y-129260904D01*
X126808145Y-129260903D01*
X126888258Y-129236601D01*
X126968373Y-129212299D01*
X127093248Y-129200000D01*
X127176752Y-129200000D01*
X127301627Y-129212299D01*
X127301627Y-129212299D01*
G37*
G36*
X116076627Y-129212299D02*
G01*
X116156742Y-129236601D01*
X116236855Y-129260903D01*
X116236857Y-129260904D01*
X116384518Y-129339831D01*
X116513949Y-129446051D01*
X116620169Y-129575482D01*
X116699096Y-129723143D01*
X116747701Y-129883373D01*
X116764112Y-130050000D01*
X116747701Y-130216627D01*
X116699096Y-130376857D01*
X116620169Y-130524518D01*
X116513949Y-130653949D01*
X116384518Y-130760169D01*
X116236857Y-130839096D01*
X116236855Y-130839097D01*
X116156742Y-130863399D01*
X116076627Y-130887701D01*
X115951752Y-130900000D01*
X115868248Y-130900000D01*
X115743373Y-130887701D01*
X115663258Y-130863399D01*
X115583145Y-130839097D01*
X115583143Y-130839096D01*
X115435482Y-130760169D01*
X115306051Y-130653949D01*
X115199831Y-130524518D01*
X115120904Y-130376857D01*
X115072299Y-130216627D01*
X115055888Y-130050000D01*
X115072299Y-129883373D01*
X115120904Y-129723143D01*
X115199831Y-129575482D01*
X115306051Y-129446051D01*
X115435482Y-129339831D01*
X115583143Y-129260904D01*
X115583145Y-129260903D01*
X115663258Y-129236601D01*
X115743373Y-129212299D01*
X115868248Y-129200000D01*
X115951752Y-129200000D01*
X116076627Y-129212299D01*
X116076627Y-129212299D01*
G37*
G36*
X113536627Y-129212299D02*
G01*
X113616742Y-129236601D01*
X113696855Y-129260903D01*
X113696857Y-129260904D01*
X113844518Y-129339831D01*
X113973949Y-129446051D01*
X114080169Y-129575482D01*
X114159096Y-129723143D01*
X114207701Y-129883373D01*
X114224112Y-130050000D01*
X114207701Y-130216627D01*
X114159096Y-130376857D01*
X114080169Y-130524518D01*
X113973949Y-130653949D01*
X113844518Y-130760169D01*
X113696857Y-130839096D01*
X113696855Y-130839097D01*
X113616742Y-130863399D01*
X113536627Y-130887701D01*
X113411752Y-130900000D01*
X113328248Y-130900000D01*
X113203373Y-130887701D01*
X113123258Y-130863399D01*
X113043145Y-130839097D01*
X113043143Y-130839096D01*
X112895482Y-130760169D01*
X112766051Y-130653949D01*
X112659831Y-130524518D01*
X112580904Y-130376857D01*
X112532299Y-130216627D01*
X112515888Y-130050000D01*
X112532299Y-129883373D01*
X112580904Y-129723143D01*
X112659831Y-129575482D01*
X112766051Y-129446051D01*
X112895482Y-129339831D01*
X113043143Y-129260904D01*
X113043145Y-129260903D01*
X113123258Y-129236601D01*
X113203373Y-129212299D01*
X113328248Y-129200000D01*
X113411752Y-129200000D01*
X113536627Y-129212299D01*
X113536627Y-129212299D01*
G37*
G36*
X110996627Y-129212299D02*
G01*
X111076742Y-129236601D01*
X111156855Y-129260903D01*
X111156857Y-129260904D01*
X111304518Y-129339831D01*
X111433949Y-129446051D01*
X111540169Y-129575482D01*
X111619096Y-129723143D01*
X111667701Y-129883373D01*
X111684112Y-130050000D01*
X111667701Y-130216627D01*
X111619096Y-130376857D01*
X111540169Y-130524518D01*
X111433949Y-130653949D01*
X111304518Y-130760169D01*
X111156857Y-130839096D01*
X111156855Y-130839097D01*
X111076742Y-130863399D01*
X110996627Y-130887701D01*
X110871752Y-130900000D01*
X110788248Y-130900000D01*
X110663373Y-130887701D01*
X110583258Y-130863399D01*
X110503145Y-130839097D01*
X110503143Y-130839096D01*
X110355482Y-130760169D01*
X110226051Y-130653949D01*
X110119831Y-130524518D01*
X110040904Y-130376857D01*
X109992299Y-130216627D01*
X109975888Y-130050000D01*
X109992299Y-129883373D01*
X110040904Y-129723143D01*
X110119831Y-129575482D01*
X110226051Y-129446051D01*
X110355482Y-129339831D01*
X110503143Y-129260904D01*
X110503145Y-129260903D01*
X110583258Y-129236601D01*
X110663373Y-129212299D01*
X110788248Y-129200000D01*
X110871752Y-129200000D01*
X110996627Y-129212299D01*
X110996627Y-129212299D01*
G37*
G36*
X108456627Y-129212299D02*
G01*
X108536742Y-129236601D01*
X108616855Y-129260903D01*
X108616857Y-129260904D01*
X108764518Y-129339831D01*
X108893949Y-129446051D01*
X109000169Y-129575482D01*
X109079096Y-129723143D01*
X109127701Y-129883373D01*
X109144112Y-130050000D01*
X109127701Y-130216627D01*
X109079096Y-130376857D01*
X109000169Y-130524518D01*
X108893949Y-130653949D01*
X108764518Y-130760169D01*
X108616857Y-130839096D01*
X108616855Y-130839097D01*
X108536742Y-130863399D01*
X108456627Y-130887701D01*
X108331752Y-130900000D01*
X108248248Y-130900000D01*
X108123373Y-130887701D01*
X108043258Y-130863399D01*
X107963145Y-130839097D01*
X107963143Y-130839096D01*
X107815482Y-130760169D01*
X107686051Y-130653949D01*
X107579831Y-130524518D01*
X107500904Y-130376857D01*
X107452299Y-130216627D01*
X107435888Y-130050000D01*
X107452299Y-129883373D01*
X107500904Y-129723143D01*
X107579831Y-129575482D01*
X107686051Y-129446051D01*
X107815482Y-129339831D01*
X107963143Y-129260904D01*
X107963145Y-129260903D01*
X108043258Y-129236601D01*
X108123373Y-129212299D01*
X108248248Y-129200000D01*
X108331752Y-129200000D01*
X108456627Y-129212299D01*
X108456627Y-129212299D01*
G37*
G36*
X106600000Y-130900000D02*
G01*
X104900000Y-130900000D01*
X104900000Y-129200000D01*
X106600000Y-129200000D01*
X106600000Y-130900000D01*
X106600000Y-130900000D01*
G37*
G36*
X130525000Y-130900000D02*
G01*
X128825000Y-130900000D01*
X128825000Y-129200000D01*
X130525000Y-129200000D01*
X130525000Y-130900000D01*
X130525000Y-130900000D01*
G37*
G36*
X103199116Y-129628595D02*
G01*
X103228311Y-129637452D01*
X103255223Y-129651837D01*
X103278808Y-129671192D01*
X103298163Y-129694777D01*
X103312548Y-129721689D01*
X103321405Y-129750884D01*
X103325000Y-129787390D01*
X103325000Y-130412610D01*
X103321405Y-130449116D01*
X103312548Y-130478311D01*
X103298163Y-130505223D01*
X103278808Y-130528808D01*
X103255223Y-130548163D01*
X103228311Y-130562548D01*
X103199116Y-130571405D01*
X103162610Y-130575000D01*
X102612390Y-130575000D01*
X102575884Y-130571405D01*
X102546689Y-130562548D01*
X102519777Y-130548163D01*
X102496192Y-130528808D01*
X102476837Y-130505223D01*
X102462452Y-130478311D01*
X102453595Y-130449116D01*
X102450000Y-130412610D01*
X102450000Y-129787390D01*
X102453595Y-129750884D01*
X102462452Y-129721689D01*
X102476837Y-129694777D01*
X102496192Y-129671192D01*
X102519777Y-129651837D01*
X102546689Y-129637452D01*
X102575884Y-129628595D01*
X102612390Y-129625000D01*
X103162610Y-129625000D01*
X103199116Y-129628595D01*
X103199116Y-129628595D01*
G37*
G36*
X101624116Y-129628595D02*
G01*
X101653311Y-129637452D01*
X101680223Y-129651837D01*
X101703808Y-129671192D01*
X101723163Y-129694777D01*
X101737548Y-129721689D01*
X101746405Y-129750884D01*
X101750000Y-129787390D01*
X101750000Y-130412610D01*
X101746405Y-130449116D01*
X101737548Y-130478311D01*
X101723163Y-130505223D01*
X101703808Y-130528808D01*
X101680223Y-130548163D01*
X101653311Y-130562548D01*
X101624116Y-130571405D01*
X101587610Y-130575000D01*
X101037390Y-130575000D01*
X101000884Y-130571405D01*
X100971689Y-130562548D01*
X100944777Y-130548163D01*
X100921192Y-130528808D01*
X100901837Y-130505223D01*
X100887452Y-130478311D01*
X100878595Y-130449116D01*
X100875000Y-130412610D01*
X100875000Y-129787390D01*
X100878595Y-129750884D01*
X100887452Y-129721689D01*
X100901837Y-129694777D01*
X100921192Y-129671192D01*
X100944777Y-129651837D01*
X100971689Y-129637452D01*
X101000884Y-129628595D01*
X101037390Y-129625000D01*
X101587610Y-129625000D01*
X101624116Y-129628595D01*
X101624116Y-129628595D01*
G37*
G36*
X101550000Y-129050000D02*
G01*
X100750000Y-129050000D01*
X100750000Y-128150000D01*
X101550000Y-128150000D01*
X101550000Y-129050000D01*
X101550000Y-129050000D01*
G37*
G36*
X103450000Y-129050000D02*
G01*
X102650000Y-129050000D01*
X102650000Y-128150000D01*
X103450000Y-128150000D01*
X103450000Y-129050000D01*
X103450000Y-129050000D01*
G37*
G36*
X104999116Y-126853595D02*
G01*
X105028311Y-126862452D01*
X105055223Y-126876837D01*
X105078808Y-126896192D01*
X105098163Y-126919777D01*
X105112548Y-126946689D01*
X105121405Y-126975884D01*
X105125000Y-127012390D01*
X105125000Y-127562610D01*
X105121405Y-127599116D01*
X105112548Y-127628311D01*
X105098163Y-127655223D01*
X105078808Y-127678808D01*
X105055223Y-127698163D01*
X105028311Y-127712548D01*
X104999116Y-127721405D01*
X104962610Y-127725000D01*
X104337390Y-127725000D01*
X104300884Y-127721405D01*
X104271689Y-127712548D01*
X104244777Y-127698163D01*
X104221192Y-127678808D01*
X104201837Y-127655223D01*
X104187452Y-127628311D01*
X104178595Y-127599116D01*
X104175000Y-127562610D01*
X104175000Y-127012390D01*
X104178595Y-126975884D01*
X104187452Y-126946689D01*
X104201837Y-126919777D01*
X104221192Y-126896192D01*
X104244777Y-126876837D01*
X104271689Y-126862452D01*
X104300884Y-126853595D01*
X104337390Y-126850000D01*
X104962610Y-126850000D01*
X104999116Y-126853595D01*
X104999116Y-126853595D01*
G37*
G36*
X120058581Y-126726351D02*
G01*
X120087776Y-126735208D01*
X120114688Y-126749593D01*
X120138273Y-126768948D01*
X120157628Y-126792533D01*
X120172013Y-126819445D01*
X120180870Y-126848640D01*
X120184465Y-126885146D01*
X120184465Y-127435366D01*
X120180870Y-127471872D01*
X120172013Y-127501067D01*
X120157628Y-127527979D01*
X120138273Y-127551564D01*
X120114688Y-127570919D01*
X120087776Y-127585304D01*
X120058581Y-127594161D01*
X120022075Y-127597756D01*
X119396855Y-127597756D01*
X119360349Y-127594161D01*
X119331154Y-127585304D01*
X119304242Y-127570919D01*
X119280657Y-127551564D01*
X119261302Y-127527979D01*
X119246917Y-127501067D01*
X119238060Y-127471872D01*
X119234465Y-127435366D01*
X119234465Y-126885146D01*
X119238060Y-126848640D01*
X119246917Y-126819445D01*
X119261302Y-126792533D01*
X119280657Y-126768948D01*
X119304242Y-126749593D01*
X119331154Y-126735208D01*
X119360349Y-126726351D01*
X119396855Y-126722756D01*
X120022075Y-126722756D01*
X120058581Y-126726351D01*
X120058581Y-126726351D01*
G37*
G36*
X118208579Y-126713852D02*
G01*
X118237774Y-126722709D01*
X118264686Y-126737094D01*
X118288271Y-126756449D01*
X118307626Y-126780034D01*
X118322011Y-126806946D01*
X118330868Y-126836141D01*
X118334463Y-126872647D01*
X118334463Y-127422867D01*
X118330868Y-127459373D01*
X118322011Y-127488568D01*
X118307626Y-127515480D01*
X118288271Y-127539065D01*
X118264686Y-127558420D01*
X118237774Y-127572805D01*
X118208579Y-127581662D01*
X118172073Y-127585257D01*
X117546853Y-127585257D01*
X117510347Y-127581662D01*
X117481152Y-127572805D01*
X117454240Y-127558420D01*
X117430655Y-127539065D01*
X117411300Y-127515480D01*
X117396915Y-127488568D01*
X117388058Y-127459373D01*
X117384463Y-127422867D01*
X117384463Y-126872647D01*
X117388058Y-126836141D01*
X117396915Y-126806946D01*
X117411300Y-126780034D01*
X117430655Y-126756449D01*
X117454240Y-126737094D01*
X117481152Y-126722709D01*
X117510347Y-126713852D01*
X117546853Y-126710257D01*
X118172073Y-126710257D01*
X118208579Y-126713852D01*
X118208579Y-126713852D01*
G37*
G36*
X133743015Y-126577234D02*
G01*
X133837270Y-126605826D01*
X133924128Y-126652253D01*
X134000264Y-126714736D01*
X134062747Y-126790872D01*
X134109174Y-126877730D01*
X134137766Y-126971985D01*
X134147419Y-127070000D01*
X134137766Y-127168015D01*
X134109174Y-127262270D01*
X134062747Y-127349128D01*
X134000264Y-127425264D01*
X133924128Y-127487747D01*
X133837270Y-127534174D01*
X133743015Y-127562766D01*
X133669564Y-127570000D01*
X133020436Y-127570000D01*
X132946985Y-127562766D01*
X132852730Y-127534174D01*
X132765872Y-127487747D01*
X132689736Y-127425264D01*
X132627253Y-127349128D01*
X132580826Y-127262270D01*
X132552234Y-127168015D01*
X132542581Y-127070000D01*
X132552234Y-126971985D01*
X132580826Y-126877730D01*
X132627253Y-126790872D01*
X132689736Y-126714736D01*
X132765872Y-126652253D01*
X132852730Y-126605826D01*
X132946985Y-126577234D01*
X133020436Y-126570000D01*
X133669564Y-126570000D01*
X133743015Y-126577234D01*
X133743015Y-126577234D01*
G37*
G36*
X129813015Y-126577234D02*
G01*
X129907270Y-126605826D01*
X129994128Y-126652253D01*
X130070264Y-126714736D01*
X130132747Y-126790872D01*
X130179174Y-126877730D01*
X130207766Y-126971985D01*
X130217419Y-127070000D01*
X130207766Y-127168015D01*
X130179174Y-127262270D01*
X130132747Y-127349128D01*
X130070264Y-127425264D01*
X129994128Y-127487747D01*
X129907270Y-127534174D01*
X129813015Y-127562766D01*
X129739564Y-127570000D01*
X128590436Y-127570000D01*
X128516985Y-127562766D01*
X128422730Y-127534174D01*
X128335872Y-127487747D01*
X128259736Y-127425264D01*
X128197253Y-127349128D01*
X128150826Y-127262270D01*
X128122234Y-127168015D01*
X128112581Y-127070000D01*
X128122234Y-126971985D01*
X128150826Y-126877730D01*
X128197253Y-126790872D01*
X128259736Y-126714736D01*
X128335872Y-126652253D01*
X128422730Y-126605826D01*
X128516985Y-126577234D01*
X128590436Y-126570000D01*
X129739564Y-126570000D01*
X129813015Y-126577234D01*
X129813015Y-126577234D01*
G37*
G36*
X102500000Y-127050000D02*
G01*
X101700000Y-127050000D01*
X101700000Y-126150000D01*
X102500000Y-126150000D01*
X102500000Y-127050000D01*
X102500000Y-127050000D01*
G37*
G36*
X108311616Y-125978595D02*
G01*
X108340811Y-125987452D01*
X108367723Y-126001837D01*
X108391308Y-126021192D01*
X108410663Y-126044777D01*
X108425048Y-126071689D01*
X108433905Y-126100884D01*
X108437500Y-126137390D01*
X108437500Y-126762610D01*
X108433905Y-126799116D01*
X108425048Y-126828311D01*
X108410663Y-126855223D01*
X108391308Y-126878808D01*
X108367723Y-126898163D01*
X108340811Y-126912548D01*
X108311616Y-126921405D01*
X108275110Y-126925000D01*
X107724890Y-126925000D01*
X107688384Y-126921405D01*
X107659189Y-126912548D01*
X107632277Y-126898163D01*
X107608692Y-126878808D01*
X107589337Y-126855223D01*
X107574952Y-126828311D01*
X107566095Y-126799116D01*
X107562500Y-126762610D01*
X107562500Y-126137390D01*
X107566095Y-126100884D01*
X107574952Y-126071689D01*
X107589337Y-126044777D01*
X107608692Y-126021192D01*
X107632277Y-126001837D01*
X107659189Y-125987452D01*
X107688384Y-125978595D01*
X107724890Y-125975000D01*
X108275110Y-125975000D01*
X108311616Y-125978595D01*
X108311616Y-125978595D01*
G37*
G36*
X106736616Y-125978595D02*
G01*
X106765811Y-125987452D01*
X106792723Y-126001837D01*
X106816308Y-126021192D01*
X106835663Y-126044777D01*
X106850048Y-126071689D01*
X106858905Y-126100884D01*
X106862500Y-126137390D01*
X106862500Y-126762610D01*
X106858905Y-126799116D01*
X106850048Y-126828311D01*
X106835663Y-126855223D01*
X106816308Y-126878808D01*
X106792723Y-126898163D01*
X106765811Y-126912548D01*
X106736616Y-126921405D01*
X106700110Y-126925000D01*
X106149890Y-126925000D01*
X106113384Y-126921405D01*
X106084189Y-126912548D01*
X106057277Y-126898163D01*
X106033692Y-126878808D01*
X106014337Y-126855223D01*
X105999952Y-126828311D01*
X105991095Y-126799116D01*
X105987500Y-126762610D01*
X105987500Y-126137390D01*
X105991095Y-126100884D01*
X105999952Y-126071689D01*
X106014337Y-126044777D01*
X106033692Y-126021192D01*
X106057277Y-126001837D01*
X106084189Y-125987452D01*
X106113384Y-125978595D01*
X106149890Y-125975000D01*
X106700110Y-125975000D01*
X106736616Y-125978595D01*
X106736616Y-125978595D01*
G37*
G36*
X123149116Y-125653595D02*
G01*
X123178311Y-125662452D01*
X123205223Y-125676837D01*
X123228808Y-125696192D01*
X123248163Y-125719777D01*
X123262548Y-125746689D01*
X123271405Y-125775884D01*
X123275000Y-125812390D01*
X123275000Y-126362610D01*
X123271405Y-126399116D01*
X123262548Y-126428311D01*
X123248163Y-126455223D01*
X123228808Y-126478808D01*
X123205223Y-126498163D01*
X123178311Y-126512548D01*
X123149116Y-126521405D01*
X123112610Y-126525000D01*
X122487390Y-126525000D01*
X122450884Y-126521405D01*
X122421689Y-126512548D01*
X122394777Y-126498163D01*
X122371192Y-126478808D01*
X122351837Y-126455223D01*
X122337452Y-126428311D01*
X122328595Y-126399116D01*
X122325000Y-126362610D01*
X122325000Y-125812390D01*
X122328595Y-125775884D01*
X122337452Y-125746689D01*
X122351837Y-125719777D01*
X122371192Y-125696192D01*
X122394777Y-125676837D01*
X122421689Y-125662452D01*
X122450884Y-125653595D01*
X122487390Y-125650000D01*
X123112610Y-125650000D01*
X123149116Y-125653595D01*
X123149116Y-125653595D01*
G37*
G36*
X128975000Y-126250000D02*
G01*
X127525000Y-126250000D01*
X127525000Y-119250000D01*
X128975000Y-119250000D01*
X128975000Y-126250000D01*
X128975000Y-126250000D01*
G37*
G36*
X104999116Y-125278595D02*
G01*
X105028311Y-125287452D01*
X105055223Y-125301837D01*
X105078808Y-125321192D01*
X105098163Y-125344777D01*
X105112548Y-125371689D01*
X105121405Y-125400884D01*
X105125000Y-125437390D01*
X105125000Y-125987610D01*
X105121405Y-126024116D01*
X105112548Y-126053311D01*
X105098163Y-126080223D01*
X105078808Y-126103808D01*
X105055223Y-126123163D01*
X105028311Y-126137548D01*
X104999116Y-126146405D01*
X104962610Y-126150000D01*
X104337390Y-126150000D01*
X104300884Y-126146405D01*
X104271689Y-126137548D01*
X104244777Y-126123163D01*
X104221192Y-126103808D01*
X104201837Y-126080223D01*
X104187452Y-126053311D01*
X104178595Y-126024116D01*
X104175000Y-125987610D01*
X104175000Y-125437390D01*
X104178595Y-125400884D01*
X104187452Y-125371689D01*
X104201837Y-125344777D01*
X104221192Y-125321192D01*
X104244777Y-125301837D01*
X104271689Y-125287452D01*
X104300884Y-125278595D01*
X104337390Y-125275000D01*
X104962610Y-125275000D01*
X104999116Y-125278595D01*
X104999116Y-125278595D01*
G37*
G36*
X120058581Y-125151351D02*
G01*
X120087776Y-125160208D01*
X120114688Y-125174593D01*
X120138273Y-125193948D01*
X120157628Y-125217533D01*
X120172013Y-125244445D01*
X120180870Y-125273640D01*
X120184465Y-125310146D01*
X120184465Y-125860366D01*
X120180870Y-125896872D01*
X120172013Y-125926067D01*
X120157628Y-125952979D01*
X120138273Y-125976564D01*
X120114688Y-125995919D01*
X120087776Y-126010304D01*
X120058581Y-126019161D01*
X120022075Y-126022756D01*
X119396855Y-126022756D01*
X119360349Y-126019161D01*
X119331154Y-126010304D01*
X119304242Y-125995919D01*
X119280657Y-125976564D01*
X119261302Y-125952979D01*
X119246917Y-125926067D01*
X119238060Y-125896872D01*
X119234465Y-125860366D01*
X119234465Y-125310146D01*
X119238060Y-125273640D01*
X119246917Y-125244445D01*
X119261302Y-125217533D01*
X119280657Y-125193948D01*
X119304242Y-125174593D01*
X119331154Y-125160208D01*
X119360349Y-125151351D01*
X119396855Y-125147756D01*
X120022075Y-125147756D01*
X120058581Y-125151351D01*
X120058581Y-125151351D01*
G37*
G36*
X118208579Y-125138852D02*
G01*
X118237774Y-125147709D01*
X118264686Y-125162094D01*
X118288271Y-125181449D01*
X118307626Y-125205034D01*
X118322011Y-125231946D01*
X118330868Y-125261141D01*
X118334463Y-125297647D01*
X118334463Y-125847867D01*
X118330868Y-125884373D01*
X118322011Y-125913568D01*
X118307626Y-125940480D01*
X118288271Y-125964065D01*
X118264686Y-125983420D01*
X118237774Y-125997805D01*
X118208579Y-126006662D01*
X118172073Y-126010257D01*
X117546853Y-126010257D01*
X117510347Y-126006662D01*
X117481152Y-125997805D01*
X117454240Y-125983420D01*
X117430655Y-125964065D01*
X117411300Y-125940480D01*
X117396915Y-125913568D01*
X117388058Y-125884373D01*
X117384463Y-125847867D01*
X117384463Y-125297647D01*
X117388058Y-125261141D01*
X117396915Y-125231946D01*
X117411300Y-125205034D01*
X117430655Y-125181449D01*
X117454240Y-125162094D01*
X117481152Y-125147709D01*
X117510347Y-125138852D01*
X117546853Y-125135257D01*
X118172073Y-125135257D01*
X118208579Y-125138852D01*
X118208579Y-125138852D01*
G37*
G36*
X129789799Y-125327489D02*
G01*
X129848945Y-125351988D01*
X129902176Y-125387556D01*
X129947444Y-125432824D01*
X129983012Y-125486055D01*
X130007511Y-125545201D01*
X130020000Y-125607990D01*
X130020000Y-125672010D01*
X130007511Y-125734799D01*
X129983012Y-125793945D01*
X129947444Y-125847176D01*
X129902176Y-125892444D01*
X129848945Y-125928012D01*
X129789799Y-125952511D01*
X129727010Y-125965000D01*
X129662990Y-125965000D01*
X129600201Y-125952511D01*
X129541055Y-125928012D01*
X129487824Y-125892444D01*
X129442556Y-125847176D01*
X129406988Y-125793945D01*
X129382489Y-125734799D01*
X129370000Y-125672010D01*
X129370000Y-125607990D01*
X129382489Y-125545201D01*
X129406988Y-125486055D01*
X129442556Y-125432824D01*
X129487824Y-125387556D01*
X129541055Y-125351988D01*
X129600201Y-125327489D01*
X129662990Y-125315000D01*
X129727010Y-125315000D01*
X129789799Y-125327489D01*
X129789799Y-125327489D01*
G37*
G36*
X125599116Y-124903595D02*
G01*
X125628311Y-124912452D01*
X125655223Y-124926837D01*
X125678808Y-124946192D01*
X125698163Y-124969777D01*
X125712548Y-124996689D01*
X125721405Y-125025884D01*
X125725000Y-125062390D01*
X125725000Y-125612610D01*
X125721405Y-125649116D01*
X125712548Y-125678311D01*
X125698163Y-125705223D01*
X125678808Y-125728808D01*
X125655223Y-125748163D01*
X125628311Y-125762548D01*
X125599116Y-125771405D01*
X125562610Y-125775000D01*
X124937390Y-125775000D01*
X124900884Y-125771405D01*
X124871689Y-125762548D01*
X124844777Y-125748163D01*
X124821192Y-125728808D01*
X124801837Y-125705223D01*
X124787452Y-125678311D01*
X124778595Y-125649116D01*
X124775000Y-125612610D01*
X124775000Y-125062390D01*
X124778595Y-125025884D01*
X124787452Y-124996689D01*
X124801837Y-124969777D01*
X124821192Y-124946192D01*
X124844777Y-124926837D01*
X124871689Y-124912452D01*
X124900884Y-124903595D01*
X124937390Y-124900000D01*
X125562610Y-124900000D01*
X125599116Y-124903595D01*
X125599116Y-124903595D01*
G37*
G36*
X121649116Y-124853595D02*
G01*
X121678311Y-124862452D01*
X121705223Y-124876837D01*
X121728808Y-124896192D01*
X121748163Y-124919777D01*
X121762548Y-124946689D01*
X121771405Y-124975884D01*
X121775000Y-125012390D01*
X121775000Y-125562610D01*
X121771405Y-125599116D01*
X121762548Y-125628311D01*
X121748163Y-125655223D01*
X121728808Y-125678808D01*
X121705223Y-125698163D01*
X121678311Y-125712548D01*
X121649116Y-125721405D01*
X121612610Y-125725000D01*
X120987390Y-125725000D01*
X120950884Y-125721405D01*
X120921689Y-125712548D01*
X120894777Y-125698163D01*
X120871192Y-125678808D01*
X120851837Y-125655223D01*
X120837452Y-125628311D01*
X120828595Y-125599116D01*
X120825000Y-125562610D01*
X120825000Y-125012390D01*
X120828595Y-124975884D01*
X120837452Y-124946689D01*
X120851837Y-124919777D01*
X120871192Y-124896192D01*
X120894777Y-124876837D01*
X120921689Y-124862452D01*
X120950884Y-124853595D01*
X120987390Y-124850000D01*
X121612610Y-124850000D01*
X121649116Y-124853595D01*
X121649116Y-124853595D01*
G37*
G36*
X102500000Y-125550000D02*
G01*
X101700000Y-125550000D01*
X101700000Y-124650000D01*
X102500000Y-124650000D01*
X102500000Y-125550000D01*
X102500000Y-125550000D01*
G37*
G36*
X110565000Y-125300000D02*
G01*
X109965000Y-125300000D01*
X109965000Y-123800000D01*
X110565000Y-123800000D01*
X110565000Y-125300000D01*
X110565000Y-125300000D01*
G37*
G36*
X106755000Y-125300000D02*
G01*
X106155000Y-125300000D01*
X106155000Y-123800000D01*
X106755000Y-123800000D01*
X106755000Y-125300000D01*
X106755000Y-125300000D01*
G37*
G36*
X109295000Y-125300000D02*
G01*
X108695000Y-125300000D01*
X108695000Y-123800000D01*
X109295000Y-123800000D01*
X109295000Y-125300000D01*
X109295000Y-125300000D01*
G37*
G36*
X111835000Y-125300000D02*
G01*
X111235000Y-125300000D01*
X111235000Y-123800000D01*
X111835000Y-123800000D01*
X111835000Y-125300000D01*
X111835000Y-125300000D01*
G37*
G36*
X113105000Y-125300000D02*
G01*
X112505000Y-125300000D01*
X112505000Y-123800000D01*
X113105000Y-123800000D01*
X113105000Y-125300000D01*
X113105000Y-125300000D01*
G37*
G36*
X114375000Y-125300000D02*
G01*
X113775000Y-125300000D01*
X113775000Y-123800000D01*
X114375000Y-123800000D01*
X114375000Y-125300000D01*
X114375000Y-125300000D01*
G37*
G36*
X115645000Y-125300000D02*
G01*
X115045000Y-125300000D01*
X115045000Y-123800000D01*
X115645000Y-123800000D01*
X115645000Y-125300000D01*
X115645000Y-125300000D01*
G37*
G36*
X108025000Y-125300000D02*
G01*
X107425000Y-125300000D01*
X107425000Y-123800000D01*
X108025000Y-123800000D01*
X108025000Y-125300000D01*
X108025000Y-125300000D01*
G37*
G36*
X123149116Y-124078595D02*
G01*
X123178311Y-124087452D01*
X123205223Y-124101837D01*
X123228808Y-124121192D01*
X123248163Y-124144777D01*
X123262548Y-124171689D01*
X123271405Y-124200884D01*
X123275000Y-124237390D01*
X123275000Y-124787610D01*
X123271405Y-124824116D01*
X123262548Y-124853311D01*
X123248163Y-124880223D01*
X123228808Y-124903808D01*
X123205223Y-124923163D01*
X123178311Y-124937548D01*
X123149116Y-124946405D01*
X123112610Y-124950000D01*
X122487390Y-124950000D01*
X122450884Y-124946405D01*
X122421689Y-124937548D01*
X122394777Y-124923163D01*
X122371192Y-124903808D01*
X122351837Y-124880223D01*
X122337452Y-124853311D01*
X122328595Y-124824116D01*
X122325000Y-124787610D01*
X122325000Y-124237390D01*
X122328595Y-124200884D01*
X122337452Y-124171689D01*
X122351837Y-124144777D01*
X122371192Y-124121192D01*
X122394777Y-124101837D01*
X122421689Y-124087452D01*
X122450884Y-124078595D01*
X122487390Y-124075000D01*
X123112610Y-124075000D01*
X123149116Y-124078595D01*
X123149116Y-124078595D01*
G37*
G36*
X104999116Y-123803595D02*
G01*
X105028311Y-123812452D01*
X105055223Y-123826837D01*
X105078808Y-123846192D01*
X105098163Y-123869777D01*
X105112548Y-123896689D01*
X105121405Y-123925884D01*
X105125000Y-123962390D01*
X105125000Y-124512610D01*
X105121405Y-124549116D01*
X105112548Y-124578311D01*
X105098163Y-124605223D01*
X105078808Y-124628808D01*
X105055223Y-124648163D01*
X105028311Y-124662548D01*
X104999116Y-124671405D01*
X104962610Y-124675000D01*
X104337390Y-124675000D01*
X104300884Y-124671405D01*
X104271689Y-124662548D01*
X104244777Y-124648163D01*
X104221192Y-124628808D01*
X104201837Y-124605223D01*
X104187452Y-124578311D01*
X104178595Y-124549116D01*
X104175000Y-124512610D01*
X104175000Y-123962390D01*
X104178595Y-123925884D01*
X104187452Y-123896689D01*
X104201837Y-123869777D01*
X104221192Y-123846192D01*
X104244777Y-123826837D01*
X104271689Y-123812452D01*
X104300884Y-123803595D01*
X104337390Y-123800000D01*
X104962610Y-123800000D01*
X104999116Y-123803595D01*
X104999116Y-123803595D01*
G37*
G36*
X125599116Y-123328595D02*
G01*
X125628311Y-123337452D01*
X125655223Y-123351837D01*
X125678808Y-123371192D01*
X125698163Y-123394777D01*
X125712548Y-123421689D01*
X125721405Y-123450884D01*
X125725000Y-123487390D01*
X125725000Y-124037610D01*
X125721405Y-124074116D01*
X125712548Y-124103311D01*
X125698163Y-124130223D01*
X125678808Y-124153808D01*
X125655223Y-124173163D01*
X125628311Y-124187548D01*
X125599116Y-124196405D01*
X125562610Y-124200000D01*
X124937390Y-124200000D01*
X124900884Y-124196405D01*
X124871689Y-124187548D01*
X124844777Y-124173163D01*
X124821192Y-124153808D01*
X124801837Y-124130223D01*
X124787452Y-124103311D01*
X124778595Y-124074116D01*
X124775000Y-124037610D01*
X124775000Y-123487390D01*
X124778595Y-123450884D01*
X124787452Y-123421689D01*
X124801837Y-123394777D01*
X124821192Y-123371192D01*
X124844777Y-123351837D01*
X124871689Y-123337452D01*
X124900884Y-123328595D01*
X124937390Y-123325000D01*
X125562610Y-123325000D01*
X125599116Y-123328595D01*
X125599116Y-123328595D01*
G37*
G36*
X121649116Y-123278595D02*
G01*
X121678311Y-123287452D01*
X121705223Y-123301837D01*
X121728808Y-123321192D01*
X121748163Y-123344777D01*
X121762548Y-123371689D01*
X121771405Y-123400884D01*
X121775000Y-123437390D01*
X121775000Y-123987610D01*
X121771405Y-124024116D01*
X121762548Y-124053311D01*
X121748163Y-124080223D01*
X121728808Y-124103808D01*
X121705223Y-124123163D01*
X121678311Y-124137548D01*
X121649116Y-124146405D01*
X121612610Y-124150000D01*
X120987390Y-124150000D01*
X120950884Y-124146405D01*
X120921689Y-124137548D01*
X120894777Y-124123163D01*
X120871192Y-124103808D01*
X120851837Y-124080223D01*
X120837452Y-124053311D01*
X120828595Y-124024116D01*
X120825000Y-123987610D01*
X120825000Y-123437390D01*
X120828595Y-123400884D01*
X120837452Y-123371689D01*
X120851837Y-123344777D01*
X120871192Y-123321192D01*
X120894777Y-123301837D01*
X120921689Y-123287452D01*
X120950884Y-123278595D01*
X120987390Y-123275000D01*
X121612610Y-123275000D01*
X121649116Y-123278595D01*
X121649116Y-123278595D01*
G37*
G36*
X101550000Y-123550000D02*
G01*
X100750000Y-123550000D01*
X100750000Y-122650000D01*
X101550000Y-122650000D01*
X101550000Y-123550000D01*
X101550000Y-123550000D01*
G37*
G36*
X103450000Y-123550000D02*
G01*
X102650000Y-123550000D01*
X102650000Y-122650000D01*
X103450000Y-122650000D01*
X103450000Y-123550000D01*
X103450000Y-123550000D01*
G37*
G36*
X104999116Y-122228595D02*
G01*
X105028311Y-122237452D01*
X105055223Y-122251837D01*
X105078808Y-122271192D01*
X105098163Y-122294777D01*
X105112548Y-122321689D01*
X105121405Y-122350884D01*
X105125000Y-122387390D01*
X105125000Y-122937610D01*
X105121405Y-122974116D01*
X105112548Y-123003311D01*
X105098163Y-123030223D01*
X105078808Y-123053808D01*
X105055223Y-123073163D01*
X105028311Y-123087548D01*
X104999116Y-123096405D01*
X104962610Y-123100000D01*
X104337390Y-123100000D01*
X104300884Y-123096405D01*
X104271689Y-123087548D01*
X104244777Y-123073163D01*
X104221192Y-123053808D01*
X104201837Y-123030223D01*
X104187452Y-123003311D01*
X104178595Y-122974116D01*
X104175000Y-122937610D01*
X104175000Y-122387390D01*
X104178595Y-122350884D01*
X104187452Y-122321689D01*
X104201837Y-122294777D01*
X104221192Y-122271192D01*
X104244777Y-122251837D01*
X104271689Y-122237452D01*
X104300884Y-122228595D01*
X104337390Y-122225000D01*
X104962610Y-122225000D01*
X104999116Y-122228595D01*
X104999116Y-122228595D01*
G37*
G36*
X125599116Y-121853595D02*
G01*
X125628311Y-121862452D01*
X125655223Y-121876837D01*
X125678808Y-121896192D01*
X125698163Y-121919777D01*
X125712548Y-121946689D01*
X125721405Y-121975884D01*
X125725000Y-122012390D01*
X125725000Y-122562610D01*
X125721405Y-122599116D01*
X125712548Y-122628311D01*
X125698163Y-122655223D01*
X125678808Y-122678808D01*
X125655223Y-122698163D01*
X125628311Y-122712548D01*
X125599116Y-122721405D01*
X125562610Y-122725000D01*
X124937390Y-122725000D01*
X124900884Y-122721405D01*
X124871689Y-122712548D01*
X124844777Y-122698163D01*
X124821192Y-122678808D01*
X124801837Y-122655223D01*
X124787452Y-122628311D01*
X124778595Y-122599116D01*
X124775000Y-122562610D01*
X124775000Y-122012390D01*
X124778595Y-121975884D01*
X124787452Y-121946689D01*
X124801837Y-121919777D01*
X124821192Y-121896192D01*
X124844777Y-121876837D01*
X124871689Y-121862452D01*
X124900884Y-121853595D01*
X124937390Y-121850000D01*
X125562610Y-121850000D01*
X125599116Y-121853595D01*
X125599116Y-121853595D01*
G37*
G36*
X103300000Y-122000000D02*
G01*
X100300000Y-122000000D01*
X100300000Y-120000000D01*
X103300000Y-120000000D01*
X103300000Y-122000000D01*
X103300000Y-122000000D01*
G37*
G36*
X122624116Y-120628595D02*
G01*
X122653311Y-120637452D01*
X122680223Y-120651837D01*
X122703808Y-120671192D01*
X122723163Y-120694777D01*
X122737548Y-120721689D01*
X122746405Y-120750884D01*
X122750000Y-120787390D01*
X122750000Y-121412610D01*
X122746405Y-121449116D01*
X122737548Y-121478311D01*
X122723163Y-121505223D01*
X122703808Y-121528808D01*
X122680223Y-121548163D01*
X122653311Y-121562548D01*
X122624116Y-121571405D01*
X122587610Y-121575000D01*
X122037390Y-121575000D01*
X122000884Y-121571405D01*
X121971689Y-121562548D01*
X121944777Y-121548163D01*
X121921192Y-121528808D01*
X121901837Y-121505223D01*
X121887452Y-121478311D01*
X121878595Y-121449116D01*
X121875000Y-121412610D01*
X121875000Y-120787390D01*
X121878595Y-120750884D01*
X121887452Y-120721689D01*
X121901837Y-120694777D01*
X121921192Y-120671192D01*
X121944777Y-120651837D01*
X121971689Y-120637452D01*
X122000884Y-120628595D01*
X122037390Y-120625000D01*
X122587610Y-120625000D01*
X122624116Y-120628595D01*
X122624116Y-120628595D01*
G37*
G36*
X124199116Y-120628595D02*
G01*
X124228311Y-120637452D01*
X124255223Y-120651837D01*
X124278808Y-120671192D01*
X124298163Y-120694777D01*
X124312548Y-120721689D01*
X124321405Y-120750884D01*
X124325000Y-120787390D01*
X124325000Y-121412610D01*
X124321405Y-121449116D01*
X124312548Y-121478311D01*
X124298163Y-121505223D01*
X124278808Y-121528808D01*
X124255223Y-121548163D01*
X124228311Y-121562548D01*
X124199116Y-121571405D01*
X124162610Y-121575000D01*
X123612390Y-121575000D01*
X123575884Y-121571405D01*
X123546689Y-121562548D01*
X123519777Y-121548163D01*
X123496192Y-121528808D01*
X123476837Y-121505223D01*
X123462452Y-121478311D01*
X123453595Y-121449116D01*
X123450000Y-121412610D01*
X123450000Y-120787390D01*
X123453595Y-120750884D01*
X123462452Y-120721689D01*
X123476837Y-120694777D01*
X123496192Y-120671192D01*
X123519777Y-120651837D01*
X123546689Y-120637452D01*
X123575884Y-120628595D01*
X123612390Y-120625000D01*
X124162610Y-120625000D01*
X124199116Y-120628595D01*
X124199116Y-120628595D01*
G37*
G36*
X125599116Y-120278595D02*
G01*
X125628311Y-120287452D01*
X125655223Y-120301837D01*
X125678808Y-120321192D01*
X125698163Y-120344777D01*
X125712548Y-120371689D01*
X125721405Y-120400884D01*
X125725000Y-120437390D01*
X125725000Y-120987610D01*
X125721405Y-121024116D01*
X125712548Y-121053311D01*
X125698163Y-121080223D01*
X125678808Y-121103808D01*
X125655223Y-121123163D01*
X125628311Y-121137548D01*
X125599116Y-121146405D01*
X125562610Y-121150000D01*
X124937390Y-121150000D01*
X124900884Y-121146405D01*
X124871689Y-121137548D01*
X124844777Y-121123163D01*
X124821192Y-121103808D01*
X124801837Y-121080223D01*
X124787452Y-121053311D01*
X124778595Y-121024116D01*
X124775000Y-120987610D01*
X124775000Y-120437390D01*
X124778595Y-120400884D01*
X124787452Y-120371689D01*
X124801837Y-120344777D01*
X124821192Y-120321192D01*
X124844777Y-120301837D01*
X124871689Y-120287452D01*
X124900884Y-120278595D01*
X124937390Y-120275000D01*
X125562610Y-120275000D01*
X125599116Y-120278595D01*
X125599116Y-120278595D01*
G37*
G36*
X129789799Y-119547489D02*
G01*
X129848945Y-119571988D01*
X129902176Y-119607556D01*
X129947444Y-119652824D01*
X129983012Y-119706055D01*
X130007511Y-119765201D01*
X130020000Y-119827990D01*
X130020000Y-119892010D01*
X130007511Y-119954799D01*
X129983012Y-120013945D01*
X129947444Y-120067176D01*
X129902176Y-120112444D01*
X129848945Y-120148012D01*
X129789799Y-120172511D01*
X129727010Y-120185000D01*
X129662990Y-120185000D01*
X129600201Y-120172511D01*
X129541055Y-120148012D01*
X129487824Y-120112444D01*
X129442556Y-120067176D01*
X129406988Y-120013945D01*
X129382489Y-119954799D01*
X129370000Y-119892010D01*
X129370000Y-119827990D01*
X129382489Y-119765201D01*
X129406988Y-119706055D01*
X129442556Y-119652824D01*
X129487824Y-119607556D01*
X129541055Y-119571988D01*
X129600201Y-119547489D01*
X129662990Y-119535000D01*
X129727010Y-119535000D01*
X129789799Y-119547489D01*
X129789799Y-119547489D01*
G37*
G36*
X109295000Y-119900000D02*
G01*
X108695000Y-119900000D01*
X108695000Y-118400000D01*
X109295000Y-118400000D01*
X109295000Y-119900000D01*
X109295000Y-119900000D01*
G37*
G36*
X110565000Y-119900000D02*
G01*
X109965000Y-119900000D01*
X109965000Y-118400000D01*
X110565000Y-118400000D01*
X110565000Y-119900000D01*
X110565000Y-119900000D01*
G37*
G36*
X108025000Y-119900000D02*
G01*
X107425000Y-119900000D01*
X107425000Y-118400000D01*
X108025000Y-118400000D01*
X108025000Y-119900000D01*
X108025000Y-119900000D01*
G37*
G36*
X106755000Y-119900000D02*
G01*
X106155000Y-119900000D01*
X106155000Y-118400000D01*
X106755000Y-118400000D01*
X106755000Y-119900000D01*
X106755000Y-119900000D01*
G37*
G36*
X115645000Y-119900000D02*
G01*
X115045000Y-119900000D01*
X115045000Y-118400000D01*
X115645000Y-118400000D01*
X115645000Y-119900000D01*
X115645000Y-119900000D01*
G37*
G36*
X114375000Y-119900000D02*
G01*
X113775000Y-119900000D01*
X113775000Y-118400000D01*
X114375000Y-118400000D01*
X114375000Y-119900000D01*
X114375000Y-119900000D01*
G37*
G36*
X113105000Y-119900000D02*
G01*
X112505000Y-119900000D01*
X112505000Y-118400000D01*
X113105000Y-118400000D01*
X113105000Y-119900000D01*
X113105000Y-119900000D01*
G37*
G36*
X111835000Y-119900000D02*
G01*
X111235000Y-119900000D01*
X111235000Y-118400000D01*
X111835000Y-118400000D01*
X111835000Y-119900000D01*
X111835000Y-119900000D01*
G37*
G36*
X117874449Y-112125551D02*
G01*
X117875000Y-112131141D01*
X117875000Y-112993859D01*
X117874413Y-112999822D01*
X117872079Y-113004187D01*
X117864136Y-113016075D01*
X117854758Y-113038714D01*
X117849977Y-113062747D01*
X117849977Y-113087251D01*
X117854757Y-113111285D01*
X117864134Y-113133924D01*
X117877747Y-113154298D01*
X117895074Y-113171625D01*
X117915448Y-113185239D01*
X117938087Y-113194617D01*
X117962120Y-113199398D01*
X117974374Y-113200000D01*
X118025626Y-113200000D01*
X118050012Y-113197598D01*
X118073461Y-113190485D01*
X118095072Y-113178934D01*
X118114014Y-113163389D01*
X118129559Y-113144447D01*
X118141110Y-113122836D01*
X118148223Y-113099387D01*
X118150625Y-113075001D01*
X118148223Y-113050615D01*
X118141110Y-113027166D01*
X118129559Y-113005555D01*
X118126311Y-113001176D01*
X118125587Y-112999822D01*
X118125000Y-112993859D01*
X118125000Y-112131141D01*
X118125551Y-112125551D01*
X118131141Y-112125000D01*
X118368859Y-112125000D01*
X118374449Y-112125551D01*
X118375000Y-112131141D01*
X118375000Y-112993859D01*
X118374413Y-112999822D01*
X118372079Y-113004187D01*
X118364136Y-113016075D01*
X118354758Y-113038714D01*
X118349977Y-113062747D01*
X118349977Y-113087251D01*
X118354757Y-113111285D01*
X118364134Y-113133924D01*
X118377747Y-113154298D01*
X118395074Y-113171625D01*
X118415448Y-113185239D01*
X118438087Y-113194617D01*
X118462120Y-113199398D01*
X118474374Y-113200000D01*
X118525627Y-113200000D01*
X118550013Y-113197598D01*
X118573462Y-113190485D01*
X118595073Y-113178934D01*
X118614015Y-113163389D01*
X118629560Y-113144447D01*
X118641111Y-113122836D01*
X118648224Y-113099387D01*
X118650626Y-113075001D01*
X118648224Y-113050615D01*
X118641111Y-113027166D01*
X118629560Y-113005555D01*
X118626312Y-113001176D01*
X118625588Y-112999822D01*
X118625001Y-112993859D01*
X118625001Y-112131141D01*
X118625552Y-112125551D01*
X118631142Y-112125000D01*
X118868860Y-112125000D01*
X118874450Y-112125551D01*
X118875001Y-112131141D01*
X118875001Y-112993859D01*
X118874414Y-112999822D01*
X118872080Y-113004187D01*
X118864137Y-113016075D01*
X118854759Y-113038714D01*
X118849978Y-113062747D01*
X118849978Y-113087251D01*
X118854758Y-113111285D01*
X118864135Y-113133924D01*
X118877748Y-113154298D01*
X118895075Y-113171625D01*
X118915449Y-113185239D01*
X118938088Y-113194617D01*
X118962121Y-113199398D01*
X118974375Y-113200000D01*
X119025626Y-113200000D01*
X119050012Y-113197598D01*
X119073461Y-113190485D01*
X119095072Y-113178934D01*
X119114014Y-113163389D01*
X119129559Y-113144447D01*
X119141110Y-113122836D01*
X119148223Y-113099387D01*
X119150625Y-113075001D01*
X119148223Y-113050615D01*
X119141110Y-113027166D01*
X119129559Y-113005555D01*
X119126311Y-113001176D01*
X119125587Y-112999822D01*
X119125000Y-112993859D01*
X119125000Y-112131141D01*
X119125551Y-112125551D01*
X119131141Y-112125000D01*
X119368859Y-112125000D01*
X119374449Y-112125551D01*
X119375000Y-112131141D01*
X119375000Y-112993859D01*
X119374413Y-112999822D01*
X119372079Y-113004187D01*
X119364136Y-113016075D01*
X119354758Y-113038714D01*
X119349977Y-113062747D01*
X119349977Y-113087251D01*
X119354757Y-113111285D01*
X119364134Y-113133924D01*
X119377747Y-113154298D01*
X119395074Y-113171625D01*
X119415448Y-113185239D01*
X119438087Y-113194617D01*
X119462120Y-113199398D01*
X119474374Y-113200000D01*
X119525625Y-113200000D01*
X119550011Y-113197598D01*
X119573460Y-113190485D01*
X119595071Y-113178934D01*
X119614013Y-113163389D01*
X119629558Y-113144447D01*
X119641109Y-113122836D01*
X119648222Y-113099387D01*
X119650624Y-113075001D01*
X119648222Y-113050615D01*
X119641109Y-113027166D01*
X119629558Y-113005555D01*
X119626310Y-113001176D01*
X119625586Y-112999822D01*
X119624999Y-112993859D01*
X119624999Y-112131141D01*
X119625550Y-112125551D01*
X119631140Y-112125000D01*
X119868858Y-112125000D01*
X119874448Y-112125551D01*
X119874999Y-112131141D01*
X119874999Y-112993859D01*
X119874412Y-112999822D01*
X119872078Y-113004187D01*
X119864135Y-113016075D01*
X119854757Y-113038714D01*
X119849976Y-113062747D01*
X119849976Y-113087251D01*
X119854756Y-113111285D01*
X119864133Y-113133924D01*
X119877746Y-113154298D01*
X119895073Y-113171625D01*
X119915447Y-113185239D01*
X119938086Y-113194617D01*
X119962119Y-113199398D01*
X119974373Y-113200000D01*
X120025626Y-113200000D01*
X120050012Y-113197598D01*
X120073461Y-113190485D01*
X120095072Y-113178934D01*
X120114014Y-113163389D01*
X120129559Y-113144447D01*
X120141110Y-113122836D01*
X120148223Y-113099387D01*
X120150625Y-113075001D01*
X120148223Y-113050615D01*
X120141110Y-113027166D01*
X120129559Y-113005555D01*
X120126311Y-113001176D01*
X120125587Y-112999822D01*
X120125000Y-112993859D01*
X120125000Y-112131141D01*
X120125551Y-112125551D01*
X120131141Y-112125000D01*
X120368859Y-112125000D01*
X120374449Y-112125551D01*
X120375000Y-112131141D01*
X120375000Y-112993859D01*
X120374413Y-112999822D01*
X120372079Y-113004187D01*
X120364136Y-113016075D01*
X120354758Y-113038714D01*
X120349977Y-113062747D01*
X120349977Y-113087251D01*
X120354757Y-113111285D01*
X120364134Y-113133924D01*
X120377747Y-113154298D01*
X120395074Y-113171625D01*
X120415448Y-113185239D01*
X120438087Y-113194617D01*
X120462120Y-113199398D01*
X120474374Y-113200000D01*
X120525626Y-113200000D01*
X120550012Y-113197598D01*
X120573461Y-113190485D01*
X120595072Y-113178934D01*
X120614014Y-113163389D01*
X120629559Y-113144447D01*
X120641110Y-113122836D01*
X120648223Y-113099387D01*
X120650625Y-113075001D01*
X120648223Y-113050615D01*
X120641110Y-113027166D01*
X120629559Y-113005555D01*
X120626311Y-113001176D01*
X120625587Y-112999822D01*
X120625000Y-112993859D01*
X120625000Y-112131141D01*
X120625551Y-112125551D01*
X120631141Y-112125000D01*
X120868859Y-112125000D01*
X120874449Y-112125551D01*
X120875000Y-112131141D01*
X120875000Y-112993859D01*
X120874413Y-112999822D01*
X120872079Y-113004187D01*
X120864136Y-113016075D01*
X120854758Y-113038714D01*
X120849977Y-113062747D01*
X120849977Y-113087251D01*
X120854757Y-113111285D01*
X120864134Y-113133924D01*
X120877747Y-113154298D01*
X120895074Y-113171625D01*
X120915448Y-113185239D01*
X120938087Y-113194617D01*
X120962120Y-113199398D01*
X120974374Y-113200000D01*
X121025627Y-113200000D01*
X121050013Y-113197598D01*
X121073462Y-113190485D01*
X121095073Y-113178934D01*
X121114015Y-113163389D01*
X121129560Y-113144447D01*
X121141111Y-113122836D01*
X121148224Y-113099387D01*
X121150626Y-113075001D01*
X121148224Y-113050615D01*
X121141111Y-113027166D01*
X121129560Y-113005555D01*
X121126312Y-113001176D01*
X121125588Y-112999822D01*
X121125001Y-112993859D01*
X121125001Y-112131141D01*
X121125552Y-112125551D01*
X121131142Y-112125000D01*
X121368860Y-112125000D01*
X121374450Y-112125551D01*
X121375001Y-112131141D01*
X121375001Y-112993859D01*
X121374414Y-112999822D01*
X121372080Y-113004187D01*
X121364137Y-113016075D01*
X121354759Y-113038714D01*
X121349978Y-113062747D01*
X121349978Y-113087251D01*
X121354758Y-113111285D01*
X121364135Y-113133924D01*
X121377748Y-113154298D01*
X121395075Y-113171625D01*
X121415449Y-113185239D01*
X121438088Y-113194617D01*
X121462121Y-113199398D01*
X121474375Y-113200000D01*
X121525626Y-113200000D01*
X121550012Y-113197598D01*
X121573461Y-113190485D01*
X121595072Y-113178934D01*
X121614014Y-113163389D01*
X121629559Y-113144447D01*
X121641110Y-113122836D01*
X121648223Y-113099387D01*
X121650625Y-113075001D01*
X121648223Y-113050615D01*
X121641110Y-113027166D01*
X121629559Y-113005555D01*
X121626311Y-113001176D01*
X121625587Y-112999822D01*
X121625000Y-112993859D01*
X121625000Y-112131141D01*
X121625551Y-112125551D01*
X121631141Y-112125000D01*
X121868859Y-112125000D01*
X121874449Y-112125551D01*
X121875000Y-112131141D01*
X121875000Y-112993859D01*
X121874413Y-112999822D01*
X121872079Y-113004187D01*
X121864136Y-113016075D01*
X121854758Y-113038714D01*
X121849977Y-113062747D01*
X121849977Y-113087251D01*
X121854757Y-113111285D01*
X121864134Y-113133924D01*
X121877747Y-113154298D01*
X121895074Y-113171625D01*
X121915448Y-113185239D01*
X121938087Y-113194617D01*
X121962120Y-113199398D01*
X121974374Y-113200000D01*
X122025625Y-113200000D01*
X122050011Y-113197598D01*
X122073460Y-113190485D01*
X122095071Y-113178934D01*
X122114013Y-113163389D01*
X122129558Y-113144447D01*
X122141109Y-113122836D01*
X122148222Y-113099387D01*
X122150624Y-113075001D01*
X122148222Y-113050615D01*
X122141109Y-113027166D01*
X122129558Y-113005555D01*
X122126310Y-113001176D01*
X122125586Y-112999822D01*
X122124999Y-112993859D01*
X122124999Y-112131141D01*
X122125550Y-112125551D01*
X122131140Y-112125000D01*
X122368858Y-112125000D01*
X122374448Y-112125551D01*
X122374999Y-112131141D01*
X122374999Y-112993859D01*
X122374412Y-112999822D01*
X122372078Y-113004187D01*
X122364135Y-113016075D01*
X122354757Y-113038714D01*
X122349976Y-113062747D01*
X122349976Y-113087251D01*
X122354756Y-113111285D01*
X122364133Y-113133924D01*
X122377746Y-113154298D01*
X122395073Y-113171625D01*
X122415447Y-113185239D01*
X122438086Y-113194617D01*
X122462119Y-113199398D01*
X122474373Y-113200000D01*
X122525626Y-113200000D01*
X122550012Y-113197598D01*
X122573461Y-113190485D01*
X122595072Y-113178934D01*
X122614014Y-113163389D01*
X122629559Y-113144447D01*
X122641110Y-113122836D01*
X122648223Y-113099387D01*
X122650625Y-113075001D01*
X122648223Y-113050615D01*
X122641110Y-113027166D01*
X122629559Y-113005555D01*
X122626311Y-113001176D01*
X122625587Y-112999822D01*
X122625000Y-112993859D01*
X122625000Y-112131141D01*
X122625551Y-112125551D01*
X122631141Y-112125000D01*
X122868859Y-112125000D01*
X122874449Y-112125551D01*
X122875000Y-112131141D01*
X122875000Y-112993859D01*
X122874413Y-112999822D01*
X122872079Y-113004187D01*
X122864136Y-113016075D01*
X122854758Y-113038714D01*
X122849977Y-113062747D01*
X122849977Y-113087251D01*
X122854757Y-113111285D01*
X122864134Y-113133924D01*
X122877747Y-113154298D01*
X122895074Y-113171625D01*
X122915448Y-113185239D01*
X122938087Y-113194617D01*
X122962120Y-113199398D01*
X122974374Y-113200000D01*
X123025626Y-113200000D01*
X123050012Y-113197598D01*
X123073461Y-113190485D01*
X123095072Y-113178934D01*
X123114014Y-113163389D01*
X123129559Y-113144447D01*
X123141110Y-113122836D01*
X123148223Y-113099387D01*
X123150625Y-113075001D01*
X123148223Y-113050615D01*
X123141110Y-113027166D01*
X123129559Y-113005555D01*
X123126311Y-113001176D01*
X123125587Y-112999822D01*
X123125000Y-112993859D01*
X123125000Y-112131141D01*
X123125551Y-112125551D01*
X123131141Y-112125000D01*
X123368859Y-112125000D01*
X123374449Y-112125551D01*
X123375000Y-112131141D01*
X123375000Y-113000000D01*
X123316223Y-113000000D01*
X123291837Y-113002402D01*
X123268388Y-113009515D01*
X123246777Y-113021066D01*
X123227835Y-113036611D01*
X123212290Y-113055553D01*
X123200739Y-113077164D01*
X123193626Y-113100613D01*
X123191224Y-113124999D01*
X123193626Y-113149385D01*
X123200739Y-113172834D01*
X123212290Y-113194445D01*
X123227835Y-113213387D01*
X123236926Y-113221626D01*
X123259691Y-113240309D01*
X123278374Y-113263074D01*
X123295701Y-113280401D01*
X123316075Y-113294015D01*
X123338714Y-113303393D01*
X123362747Y-113308174D01*
X123387251Y-113308174D01*
X123411285Y-113303394D01*
X123433924Y-113294017D01*
X123454298Y-113280404D01*
X123471625Y-113263077D01*
X123485239Y-113242703D01*
X123494617Y-113220064D01*
X123499398Y-113196031D01*
X123500000Y-113183777D01*
X123500000Y-113125000D01*
X124368859Y-113125000D01*
X124374449Y-113125551D01*
X124375000Y-113131141D01*
X124375000Y-113368859D01*
X124374449Y-113374449D01*
X124368859Y-113375000D01*
X123506141Y-113375000D01*
X123500178Y-113374413D01*
X123495813Y-113372079D01*
X123483925Y-113364136D01*
X123461286Y-113354758D01*
X123437253Y-113349977D01*
X123412749Y-113349977D01*
X123388715Y-113354757D01*
X123366076Y-113364134D01*
X123345702Y-113377747D01*
X123328375Y-113395074D01*
X123314761Y-113415448D01*
X123305383Y-113438087D01*
X123300602Y-113462120D01*
X123300000Y-113474374D01*
X123300000Y-113525626D01*
X123302402Y-113550012D01*
X123309515Y-113573461D01*
X123321066Y-113595072D01*
X123336611Y-113614014D01*
X123355553Y-113629559D01*
X123377164Y-113641110D01*
X123400613Y-113648223D01*
X123424999Y-113650625D01*
X123449385Y-113648223D01*
X123472834Y-113641110D01*
X123494445Y-113629559D01*
X123498824Y-113626311D01*
X123500178Y-113625587D01*
X123506141Y-113625000D01*
X124368859Y-113625000D01*
X124374449Y-113625551D01*
X124375000Y-113631141D01*
X124375000Y-113868859D01*
X124374449Y-113874449D01*
X124368859Y-113875000D01*
X123506141Y-113875000D01*
X123500178Y-113874413D01*
X123495813Y-113872079D01*
X123483925Y-113864136D01*
X123461286Y-113854758D01*
X123437253Y-113849977D01*
X123412749Y-113849977D01*
X123388715Y-113854757D01*
X123366076Y-113864134D01*
X123345702Y-113877747D01*
X123328375Y-113895074D01*
X123314761Y-113915448D01*
X123305383Y-113938087D01*
X123300602Y-113962120D01*
X123300000Y-113974374D01*
X123300000Y-114025627D01*
X123302402Y-114050013D01*
X123309515Y-114073462D01*
X123321066Y-114095073D01*
X123336611Y-114114015D01*
X123355553Y-114129560D01*
X123377164Y-114141111D01*
X123400613Y-114148224D01*
X123424999Y-114150626D01*
X123449385Y-114148224D01*
X123472834Y-114141111D01*
X123494445Y-114129560D01*
X123498824Y-114126312D01*
X123500178Y-114125588D01*
X123506141Y-114125001D01*
X124368859Y-114125001D01*
X124374449Y-114125552D01*
X124375000Y-114131142D01*
X124375000Y-114368860D01*
X124374449Y-114374450D01*
X124368859Y-114375001D01*
X123506141Y-114375001D01*
X123500178Y-114374414D01*
X123495813Y-114372080D01*
X123483925Y-114364137D01*
X123461286Y-114354759D01*
X123437253Y-114349978D01*
X123412749Y-114349978D01*
X123388715Y-114354758D01*
X123366076Y-114364135D01*
X123345702Y-114377748D01*
X123328375Y-114395075D01*
X123314761Y-114415449D01*
X123305383Y-114438088D01*
X123300602Y-114462121D01*
X123300000Y-114474375D01*
X123300000Y-114525626D01*
X123302402Y-114550012D01*
X123309515Y-114573461D01*
X123321066Y-114595072D01*
X123336611Y-114614014D01*
X123355553Y-114629559D01*
X123377164Y-114641110D01*
X123400613Y-114648223D01*
X123424999Y-114650625D01*
X123449385Y-114648223D01*
X123472834Y-114641110D01*
X123494445Y-114629559D01*
X123498824Y-114626311D01*
X123500178Y-114625587D01*
X123506141Y-114625000D01*
X124368859Y-114625000D01*
X124374449Y-114625551D01*
X124375000Y-114631141D01*
X124375000Y-114868859D01*
X124374449Y-114874449D01*
X124368859Y-114875000D01*
X123506141Y-114875000D01*
X123500178Y-114874413D01*
X123495813Y-114872079D01*
X123483925Y-114864136D01*
X123461286Y-114854758D01*
X123437253Y-114849977D01*
X123412749Y-114849977D01*
X123388715Y-114854757D01*
X123366076Y-114864134D01*
X123345702Y-114877747D01*
X123328375Y-114895074D01*
X123314761Y-114915448D01*
X123305383Y-114938087D01*
X123300602Y-114962120D01*
X123300000Y-114974374D01*
X123300000Y-115025625D01*
X123302402Y-115050011D01*
X123309515Y-115073460D01*
X123321066Y-115095071D01*
X123336611Y-115114013D01*
X123355553Y-115129558D01*
X123377164Y-115141109D01*
X123400613Y-115148222D01*
X123424999Y-115150624D01*
X123449385Y-115148222D01*
X123472834Y-115141109D01*
X123494445Y-115129558D01*
X123498824Y-115126310D01*
X123500178Y-115125586D01*
X123506141Y-115124999D01*
X124368859Y-115124999D01*
X124374449Y-115125550D01*
X124375000Y-115131140D01*
X124375000Y-115368858D01*
X124374449Y-115374448D01*
X124368859Y-115374999D01*
X123506141Y-115374999D01*
X123500178Y-115374412D01*
X123495813Y-115372078D01*
X123483925Y-115364135D01*
X123461286Y-115354757D01*
X123437253Y-115349976D01*
X123412749Y-115349976D01*
X123388715Y-115354756D01*
X123366076Y-115364133D01*
X123345702Y-115377746D01*
X123328375Y-115395073D01*
X123314761Y-115415447D01*
X123305383Y-115438086D01*
X123300602Y-115462119D01*
X123300000Y-115474373D01*
X123300000Y-115525626D01*
X123302402Y-115550012D01*
X123309515Y-115573461D01*
X123321066Y-115595072D01*
X123336611Y-115614014D01*
X123355553Y-115629559D01*
X123377164Y-115641110D01*
X123400613Y-115648223D01*
X123424999Y-115650625D01*
X123449385Y-115648223D01*
X123472834Y-115641110D01*
X123494445Y-115629559D01*
X123498824Y-115626311D01*
X123500178Y-115625587D01*
X123506141Y-115625000D01*
X124368859Y-115625000D01*
X124374449Y-115625551D01*
X124375000Y-115631141D01*
X124375000Y-115868859D01*
X124374449Y-115874449D01*
X124368859Y-115875000D01*
X123506141Y-115875000D01*
X123500178Y-115874413D01*
X123495813Y-115872079D01*
X123483925Y-115864136D01*
X123461286Y-115854758D01*
X123437253Y-115849977D01*
X123412749Y-115849977D01*
X123388715Y-115854757D01*
X123366076Y-115864134D01*
X123345702Y-115877747D01*
X123328375Y-115895074D01*
X123314761Y-115915448D01*
X123305383Y-115938087D01*
X123300602Y-115962120D01*
X123300000Y-115974374D01*
X123300000Y-116025626D01*
X123302402Y-116050012D01*
X123309515Y-116073461D01*
X123321066Y-116095072D01*
X123336611Y-116114014D01*
X123355553Y-116129559D01*
X123377164Y-116141110D01*
X123400613Y-116148223D01*
X123424999Y-116150625D01*
X123449385Y-116148223D01*
X123472834Y-116141110D01*
X123494445Y-116129559D01*
X123498824Y-116126311D01*
X123500178Y-116125587D01*
X123506141Y-116125000D01*
X124368859Y-116125000D01*
X124374449Y-116125551D01*
X124375000Y-116131141D01*
X124375000Y-116368859D01*
X124374449Y-116374449D01*
X124368859Y-116375000D01*
X123506141Y-116375000D01*
X123500178Y-116374413D01*
X123495813Y-116372079D01*
X123483925Y-116364136D01*
X123461286Y-116354758D01*
X123437253Y-116349977D01*
X123412749Y-116349977D01*
X123388715Y-116354757D01*
X123366076Y-116364134D01*
X123345702Y-116377747D01*
X123328375Y-116395074D01*
X123314761Y-116415448D01*
X123305383Y-116438087D01*
X123300602Y-116462120D01*
X123300000Y-116474374D01*
X123300000Y-116525627D01*
X123302402Y-116550013D01*
X123309515Y-116573462D01*
X123321066Y-116595073D01*
X123336611Y-116614015D01*
X123355553Y-116629560D01*
X123377164Y-116641111D01*
X123400613Y-116648224D01*
X123424999Y-116650626D01*
X123449385Y-116648224D01*
X123472834Y-116641111D01*
X123494445Y-116629560D01*
X123498824Y-116626312D01*
X123500178Y-116625588D01*
X123506141Y-116625001D01*
X124368859Y-116625001D01*
X124374449Y-116625552D01*
X124375000Y-116631142D01*
X124375000Y-116868860D01*
X124374449Y-116874450D01*
X124368859Y-116875001D01*
X123506141Y-116875001D01*
X123500178Y-116874414D01*
X123495813Y-116872080D01*
X123483925Y-116864137D01*
X123461286Y-116854759D01*
X123437253Y-116849978D01*
X123412749Y-116849978D01*
X123388715Y-116854758D01*
X123366076Y-116864135D01*
X123345702Y-116877748D01*
X123328375Y-116895075D01*
X123314761Y-116915449D01*
X123305383Y-116938088D01*
X123300602Y-116962121D01*
X123300000Y-116974375D01*
X123300000Y-117025626D01*
X123302402Y-117050012D01*
X123309515Y-117073461D01*
X123321066Y-117095072D01*
X123336611Y-117114014D01*
X123355553Y-117129559D01*
X123377164Y-117141110D01*
X123400613Y-117148223D01*
X123424999Y-117150625D01*
X123449385Y-117148223D01*
X123472834Y-117141110D01*
X123494445Y-117129559D01*
X123498824Y-117126311D01*
X123500178Y-117125587D01*
X123506141Y-117125000D01*
X124368859Y-117125000D01*
X124374449Y-117125551D01*
X124375000Y-117131141D01*
X124375000Y-117368859D01*
X124374449Y-117374449D01*
X124368859Y-117375000D01*
X123506141Y-117375000D01*
X123500178Y-117374413D01*
X123495813Y-117372079D01*
X123483925Y-117364136D01*
X123461286Y-117354758D01*
X123437253Y-117349977D01*
X123412749Y-117349977D01*
X123388715Y-117354757D01*
X123366076Y-117364134D01*
X123345702Y-117377747D01*
X123328375Y-117395074D01*
X123314761Y-117415448D01*
X123305383Y-117438087D01*
X123300602Y-117462120D01*
X123300000Y-117474374D01*
X123300000Y-117525625D01*
X123302402Y-117550011D01*
X123309515Y-117573460D01*
X123321066Y-117595071D01*
X123336611Y-117614013D01*
X123355553Y-117629558D01*
X123377164Y-117641109D01*
X123400613Y-117648222D01*
X123424999Y-117650624D01*
X123449385Y-117648222D01*
X123472834Y-117641109D01*
X123494445Y-117629558D01*
X123498824Y-117626310D01*
X123500178Y-117625586D01*
X123506141Y-117624999D01*
X124368859Y-117624999D01*
X124374449Y-117625550D01*
X124375000Y-117631140D01*
X124375000Y-117868858D01*
X124374449Y-117874448D01*
X124368859Y-117874999D01*
X123506141Y-117874999D01*
X123500178Y-117874412D01*
X123495813Y-117872078D01*
X123483925Y-117864135D01*
X123461286Y-117854757D01*
X123437253Y-117849976D01*
X123412749Y-117849976D01*
X123388715Y-117854756D01*
X123366076Y-117864133D01*
X123345702Y-117877746D01*
X123328375Y-117895073D01*
X123314761Y-117915447D01*
X123305383Y-117938086D01*
X123300602Y-117962119D01*
X123300000Y-117974373D01*
X123300000Y-118025626D01*
X123302402Y-118050012D01*
X123309515Y-118073461D01*
X123321066Y-118095072D01*
X123336611Y-118114014D01*
X123355553Y-118129559D01*
X123377164Y-118141110D01*
X123400613Y-118148223D01*
X123424999Y-118150625D01*
X123449385Y-118148223D01*
X123472834Y-118141110D01*
X123494445Y-118129559D01*
X123498824Y-118126311D01*
X123500178Y-118125587D01*
X123506141Y-118125000D01*
X124368859Y-118125000D01*
X124374449Y-118125551D01*
X124375000Y-118131141D01*
X124375000Y-118368859D01*
X124374449Y-118374449D01*
X124368859Y-118375000D01*
X123506141Y-118375000D01*
X123500178Y-118374413D01*
X123495813Y-118372079D01*
X123483925Y-118364136D01*
X123461286Y-118354758D01*
X123437253Y-118349977D01*
X123412749Y-118349977D01*
X123388715Y-118354757D01*
X123366076Y-118364134D01*
X123345702Y-118377747D01*
X123328375Y-118395074D01*
X123314761Y-118415448D01*
X123305383Y-118438087D01*
X123300602Y-118462120D01*
X123300000Y-118474374D01*
X123300000Y-118525626D01*
X123302402Y-118550012D01*
X123309515Y-118573461D01*
X123321066Y-118595072D01*
X123336611Y-118614014D01*
X123355553Y-118629559D01*
X123377164Y-118641110D01*
X123400613Y-118648223D01*
X123424999Y-118650625D01*
X123449385Y-118648223D01*
X123472834Y-118641110D01*
X123494445Y-118629559D01*
X123498824Y-118626311D01*
X123500178Y-118625587D01*
X123506141Y-118625000D01*
X124368859Y-118625000D01*
X124374449Y-118625551D01*
X124375000Y-118631141D01*
X124375000Y-118868859D01*
X124374449Y-118874449D01*
X124368859Y-118875000D01*
X123500000Y-118875000D01*
X123500000Y-118816223D01*
X123497598Y-118791837D01*
X123490485Y-118768388D01*
X123478934Y-118746777D01*
X123463389Y-118727835D01*
X123444447Y-118712290D01*
X123422836Y-118700739D01*
X123399387Y-118693626D01*
X123375001Y-118691224D01*
X123350615Y-118693626D01*
X123327166Y-118700739D01*
X123305555Y-118712290D01*
X123286613Y-118727835D01*
X123278374Y-118736926D01*
X123259691Y-118759691D01*
X123236926Y-118778374D01*
X123219599Y-118795701D01*
X123205985Y-118816075D01*
X123196607Y-118838714D01*
X123191826Y-118862747D01*
X123191826Y-118887251D01*
X123196606Y-118911285D01*
X123205983Y-118933924D01*
X123219596Y-118954298D01*
X123236923Y-118971625D01*
X123257297Y-118985239D01*
X123279936Y-118994617D01*
X123303969Y-118999398D01*
X123316223Y-119000000D01*
X123375000Y-119000000D01*
X123375000Y-119868859D01*
X123374449Y-119874449D01*
X123368859Y-119875000D01*
X123131141Y-119875000D01*
X123125551Y-119874449D01*
X123125000Y-119868859D01*
X123125000Y-119006141D01*
X123125587Y-119000178D01*
X123127921Y-118995813D01*
X123135864Y-118983925D01*
X123145242Y-118961286D01*
X123150023Y-118937253D01*
X123150023Y-118912749D01*
X123145243Y-118888715D01*
X123135866Y-118866076D01*
X123122253Y-118845702D01*
X123104926Y-118828375D01*
X123084552Y-118814761D01*
X123061913Y-118805383D01*
X123037880Y-118800602D01*
X123025626Y-118800000D01*
X122974374Y-118800000D01*
X122949988Y-118802402D01*
X122926539Y-118809515D01*
X122904928Y-118821066D01*
X122885986Y-118836611D01*
X122870441Y-118855553D01*
X122858890Y-118877164D01*
X122851777Y-118900613D01*
X122849375Y-118924999D01*
X122851777Y-118949385D01*
X122858890Y-118972834D01*
X122870441Y-118994445D01*
X122873689Y-118998824D01*
X122874413Y-119000178D01*
X122875000Y-119006141D01*
X122875000Y-119868859D01*
X122874449Y-119874449D01*
X122868859Y-119875000D01*
X122631141Y-119875000D01*
X122625551Y-119874449D01*
X122625000Y-119868859D01*
X122625000Y-119006141D01*
X122625587Y-119000178D01*
X122627921Y-118995813D01*
X122635864Y-118983925D01*
X122645242Y-118961286D01*
X122650023Y-118937253D01*
X122650023Y-118912749D01*
X122645243Y-118888715D01*
X122635866Y-118866076D01*
X122622253Y-118845702D01*
X122604926Y-118828375D01*
X122584552Y-118814761D01*
X122561913Y-118805383D01*
X122537880Y-118800602D01*
X122525626Y-118800000D01*
X122474373Y-118800000D01*
X122449987Y-118802402D01*
X122426538Y-118809515D01*
X122404927Y-118821066D01*
X122385985Y-118836611D01*
X122370440Y-118855553D01*
X122358889Y-118877164D01*
X122351776Y-118900613D01*
X122349374Y-118924999D01*
X122351776Y-118949385D01*
X122358889Y-118972834D01*
X122370440Y-118994445D01*
X122373688Y-118998824D01*
X122374412Y-119000178D01*
X122374999Y-119006141D01*
X122374999Y-119868859D01*
X122374448Y-119874449D01*
X122368858Y-119875000D01*
X122131140Y-119875000D01*
X122125550Y-119874449D01*
X122124999Y-119868859D01*
X122124999Y-119006141D01*
X122125586Y-119000178D01*
X122127920Y-118995813D01*
X122135863Y-118983925D01*
X122145241Y-118961286D01*
X122150022Y-118937253D01*
X122150022Y-118912749D01*
X122145242Y-118888715D01*
X122135865Y-118866076D01*
X122122252Y-118845702D01*
X122104925Y-118828375D01*
X122084551Y-118814761D01*
X122061912Y-118805383D01*
X122037879Y-118800602D01*
X122025625Y-118800000D01*
X121974374Y-118800000D01*
X121949988Y-118802402D01*
X121926539Y-118809515D01*
X121904928Y-118821066D01*
X121885986Y-118836611D01*
X121870441Y-118855553D01*
X121858890Y-118877164D01*
X121851777Y-118900613D01*
X121849375Y-118924999D01*
X121851777Y-118949385D01*
X121858890Y-118972834D01*
X121870441Y-118994445D01*
X121873689Y-118998824D01*
X121874413Y-119000178D01*
X121875000Y-119006141D01*
X121875000Y-119868859D01*
X121874449Y-119874449D01*
X121868859Y-119875000D01*
X121631141Y-119875000D01*
X121625551Y-119874449D01*
X121625000Y-119868859D01*
X121625000Y-119006141D01*
X121625587Y-119000178D01*
X121627921Y-118995813D01*
X121635864Y-118983925D01*
X121645242Y-118961286D01*
X121650023Y-118937253D01*
X121650023Y-118912749D01*
X121645243Y-118888715D01*
X121635866Y-118866076D01*
X121622253Y-118845702D01*
X121604926Y-118828375D01*
X121584552Y-118814761D01*
X121561913Y-118805383D01*
X121537880Y-118800602D01*
X121525626Y-118800000D01*
X121474375Y-118800000D01*
X121449989Y-118802402D01*
X121426540Y-118809515D01*
X121404929Y-118821066D01*
X121385987Y-118836611D01*
X121370442Y-118855553D01*
X121358891Y-118877164D01*
X121351778Y-118900613D01*
X121349376Y-118924999D01*
X121351778Y-118949385D01*
X121358891Y-118972834D01*
X121370442Y-118994445D01*
X121373690Y-118998824D01*
X121374414Y-119000178D01*
X121375001Y-119006141D01*
X121375001Y-119868859D01*
X121374450Y-119874449D01*
X121368860Y-119875000D01*
X121131142Y-119875000D01*
X121125552Y-119874449D01*
X121125001Y-119868859D01*
X121125001Y-119006141D01*
X121125588Y-119000178D01*
X121127922Y-118995813D01*
X121135865Y-118983925D01*
X121145243Y-118961286D01*
X121150024Y-118937253D01*
X121150024Y-118912749D01*
X121145244Y-118888715D01*
X121135867Y-118866076D01*
X121122254Y-118845702D01*
X121104927Y-118828375D01*
X121084553Y-118814761D01*
X121061914Y-118805383D01*
X121037881Y-118800602D01*
X121025627Y-118800000D01*
X120974374Y-118800000D01*
X120949988Y-118802402D01*
X120926539Y-118809515D01*
X120904928Y-118821066D01*
X120885986Y-118836611D01*
X120870441Y-118855553D01*
X120858890Y-118877164D01*
X120851777Y-118900613D01*
X120849375Y-118924999D01*
X120851777Y-118949385D01*
X120858890Y-118972834D01*
X120870441Y-118994445D01*
X120873689Y-118998824D01*
X120874413Y-119000178D01*
X120875000Y-119006141D01*
X120875000Y-119868859D01*
X120874449Y-119874449D01*
X120868859Y-119875000D01*
X120631141Y-119875000D01*
X120625551Y-119874449D01*
X120625000Y-119868859D01*
X120625000Y-119006141D01*
X120625587Y-119000178D01*
X120627921Y-118995813D01*
X120635864Y-118983925D01*
X120645242Y-118961286D01*
X120650023Y-118937253D01*
X120650023Y-118912749D01*
X120645243Y-118888715D01*
X120635866Y-118866076D01*
X120622253Y-118845702D01*
X120604926Y-118828375D01*
X120584552Y-118814761D01*
X120561913Y-118805383D01*
X120537880Y-118800602D01*
X120525626Y-118800000D01*
X120474374Y-118800000D01*
X120449988Y-118802402D01*
X120426539Y-118809515D01*
X120404928Y-118821066D01*
X120385986Y-118836611D01*
X120370441Y-118855553D01*
X120358890Y-118877164D01*
X120351777Y-118900613D01*
X120349375Y-118924999D01*
X120351777Y-118949385D01*
X120358890Y-118972834D01*
X120370441Y-118994445D01*
X120373689Y-118998824D01*
X120374413Y-119000178D01*
X120375000Y-119006141D01*
X120375000Y-119868859D01*
X120374449Y-119874449D01*
X120368859Y-119875000D01*
X120131141Y-119875000D01*
X120125551Y-119874449D01*
X120125000Y-119868859D01*
X120125000Y-119006141D01*
X120125587Y-119000178D01*
X120127921Y-118995813D01*
X120135864Y-118983925D01*
X120145242Y-118961286D01*
X120150023Y-118937253D01*
X120150023Y-118912749D01*
X120145243Y-118888715D01*
X120135866Y-118866076D01*
X120122253Y-118845702D01*
X120104926Y-118828375D01*
X120084552Y-118814761D01*
X120061913Y-118805383D01*
X120037880Y-118800602D01*
X120025626Y-118800000D01*
X119974373Y-118800000D01*
X119949987Y-118802402D01*
X119926538Y-118809515D01*
X119904927Y-118821066D01*
X119885985Y-118836611D01*
X119870440Y-118855553D01*
X119858889Y-118877164D01*
X119851776Y-118900613D01*
X119849374Y-118924999D01*
X119851776Y-118949385D01*
X119858889Y-118972834D01*
X119870440Y-118994445D01*
X119873688Y-118998824D01*
X119874412Y-119000178D01*
X119874999Y-119006141D01*
X119874999Y-119868859D01*
X119874448Y-119874449D01*
X119868858Y-119875000D01*
X119631140Y-119875000D01*
X119625550Y-119874449D01*
X119624999Y-119868859D01*
X119624999Y-119006141D01*
X119625586Y-119000178D01*
X119627920Y-118995813D01*
X119635863Y-118983925D01*
X119645241Y-118961286D01*
X119650022Y-118937253D01*
X119650022Y-118912749D01*
X119645242Y-118888715D01*
X119635865Y-118866076D01*
X119622252Y-118845702D01*
X119604925Y-118828375D01*
X119584551Y-118814761D01*
X119561912Y-118805383D01*
X119537879Y-118800602D01*
X119525625Y-118800000D01*
X119474374Y-118800000D01*
X119449988Y-118802402D01*
X119426539Y-118809515D01*
X119404928Y-118821066D01*
X119385986Y-118836611D01*
X119370441Y-118855553D01*
X119358890Y-118877164D01*
X119351777Y-118900613D01*
X119349375Y-118924999D01*
X119351777Y-118949385D01*
X119358890Y-118972834D01*
X119370441Y-118994445D01*
X119373689Y-118998824D01*
X119374413Y-119000178D01*
X119375000Y-119006141D01*
X119375000Y-119868859D01*
X119374449Y-119874449D01*
X119368859Y-119875000D01*
X119131141Y-119875000D01*
X119125551Y-119874449D01*
X119125000Y-119868859D01*
X119125000Y-119006141D01*
X119125587Y-119000178D01*
X119127921Y-118995813D01*
X119135864Y-118983925D01*
X119145242Y-118961286D01*
X119150023Y-118937253D01*
X119150023Y-118912749D01*
X119145243Y-118888715D01*
X119135866Y-118866076D01*
X119122253Y-118845702D01*
X119104926Y-118828375D01*
X119084552Y-118814761D01*
X119061913Y-118805383D01*
X119037880Y-118800602D01*
X119025626Y-118800000D01*
X118974375Y-118800000D01*
X118949989Y-118802402D01*
X118926540Y-118809515D01*
X118904929Y-118821066D01*
X118885987Y-118836611D01*
X118870442Y-118855553D01*
X118858891Y-118877164D01*
X118851778Y-118900613D01*
X118849376Y-118924999D01*
X118851778Y-118949385D01*
X118858891Y-118972834D01*
X118870442Y-118994445D01*
X118873690Y-118998824D01*
X118874414Y-119000178D01*
X118875001Y-119006141D01*
X118875001Y-119868859D01*
X118874450Y-119874449D01*
X118868860Y-119875000D01*
X118631142Y-119875000D01*
X118625552Y-119874449D01*
X118625001Y-119868859D01*
X118625001Y-119006141D01*
X118625588Y-119000178D01*
X118627922Y-118995813D01*
X118635865Y-118983925D01*
X118645243Y-118961286D01*
X118650024Y-118937253D01*
X118650024Y-118912749D01*
X118645244Y-118888715D01*
X118635867Y-118866076D01*
X118622254Y-118845702D01*
X118604927Y-118828375D01*
X118584553Y-118814761D01*
X118561914Y-118805383D01*
X118537881Y-118800602D01*
X118525627Y-118800000D01*
X118474374Y-118800000D01*
X118449988Y-118802402D01*
X118426539Y-118809515D01*
X118404928Y-118821066D01*
X118385986Y-118836611D01*
X118370441Y-118855553D01*
X118358890Y-118877164D01*
X118351777Y-118900613D01*
X118349375Y-118924999D01*
X118351777Y-118949385D01*
X118358890Y-118972834D01*
X118370441Y-118994445D01*
X118373689Y-118998824D01*
X118374413Y-119000178D01*
X118375000Y-119006141D01*
X118375000Y-119868859D01*
X118374449Y-119874449D01*
X118368859Y-119875000D01*
X118131141Y-119875000D01*
X118125551Y-119874449D01*
X118125000Y-119868859D01*
X118125000Y-119006141D01*
X118125587Y-119000178D01*
X118127921Y-118995813D01*
X118135864Y-118983925D01*
X118145242Y-118961286D01*
X118150023Y-118937253D01*
X118150023Y-118912749D01*
X118145243Y-118888715D01*
X118135866Y-118866076D01*
X118122253Y-118845702D01*
X118104926Y-118828375D01*
X118084552Y-118814761D01*
X118061913Y-118805383D01*
X118037880Y-118800602D01*
X118025626Y-118800000D01*
X117974374Y-118800000D01*
X117949988Y-118802402D01*
X117926539Y-118809515D01*
X117904928Y-118821066D01*
X117885986Y-118836611D01*
X117870441Y-118855553D01*
X117858890Y-118877164D01*
X117851777Y-118900613D01*
X117849375Y-118924999D01*
X117851777Y-118949385D01*
X117858890Y-118972834D01*
X117870441Y-118994445D01*
X117873689Y-118998824D01*
X117874413Y-119000178D01*
X117875000Y-119006141D01*
X117875000Y-119868859D01*
X117874449Y-119874449D01*
X117868859Y-119875000D01*
X117631141Y-119875000D01*
X117625551Y-119874449D01*
X117625000Y-119868859D01*
X117625000Y-119000000D01*
X117683777Y-119000000D01*
X117708163Y-118997598D01*
X117731612Y-118990485D01*
X117753223Y-118978934D01*
X117772165Y-118963389D01*
X117787710Y-118944447D01*
X117799261Y-118922836D01*
X117806374Y-118899387D01*
X117808776Y-118875001D01*
X117806374Y-118850615D01*
X117799261Y-118827166D01*
X117787710Y-118805555D01*
X117772165Y-118786613D01*
X117763074Y-118778374D01*
X117740309Y-118759691D01*
X117721626Y-118736926D01*
X117704299Y-118719599D01*
X117683925Y-118705985D01*
X117661286Y-118696607D01*
X117637253Y-118691826D01*
X117612749Y-118691826D01*
X117588715Y-118696606D01*
X117566076Y-118705983D01*
X117545702Y-118719596D01*
X117528375Y-118736923D01*
X117514761Y-118757297D01*
X117505383Y-118779936D01*
X117500602Y-118803969D01*
X117500000Y-118816223D01*
X117500000Y-118875000D01*
X116631141Y-118875000D01*
X116625551Y-118874449D01*
X116625000Y-118868859D01*
X116625000Y-118631141D01*
X116625551Y-118625551D01*
X116631141Y-118625000D01*
X117493859Y-118625000D01*
X117499822Y-118625587D01*
X117504187Y-118627921D01*
X117516075Y-118635864D01*
X117538714Y-118645242D01*
X117562747Y-118650023D01*
X117587251Y-118650023D01*
X117611285Y-118645243D01*
X117633924Y-118635866D01*
X117654298Y-118622253D01*
X117671625Y-118604926D01*
X117685239Y-118584552D01*
X117694617Y-118561913D01*
X117699398Y-118537880D01*
X117700000Y-118525626D01*
X117700000Y-118474374D01*
X117697598Y-118449988D01*
X117690485Y-118426539D01*
X117678934Y-118404928D01*
X117663389Y-118385986D01*
X117644447Y-118370441D01*
X117622836Y-118358890D01*
X117599387Y-118351777D01*
X117575001Y-118349375D01*
X117550615Y-118351777D01*
X117527166Y-118358890D01*
X117505555Y-118370441D01*
X117501176Y-118373689D01*
X117499822Y-118374413D01*
X117493859Y-118375000D01*
X116631141Y-118375000D01*
X116625551Y-118374449D01*
X116625000Y-118368859D01*
X116625000Y-118131141D01*
X116625551Y-118125551D01*
X116631141Y-118125000D01*
X117493859Y-118125000D01*
X117499822Y-118125587D01*
X117504187Y-118127921D01*
X117516075Y-118135864D01*
X117538714Y-118145242D01*
X117562747Y-118150023D01*
X117587251Y-118150023D01*
X117611285Y-118145243D01*
X117633924Y-118135866D01*
X117654298Y-118122253D01*
X117671625Y-118104926D01*
X117685239Y-118084552D01*
X117694617Y-118061913D01*
X117699398Y-118037880D01*
X117700000Y-118025626D01*
X117700000Y-117974373D01*
X117697598Y-117949987D01*
X117690485Y-117926538D01*
X117678934Y-117904927D01*
X117663389Y-117885985D01*
X117644447Y-117870440D01*
X117622836Y-117858889D01*
X117599387Y-117851776D01*
X117575001Y-117849374D01*
X117550615Y-117851776D01*
X117527166Y-117858889D01*
X117505555Y-117870440D01*
X117501176Y-117873688D01*
X117499822Y-117874412D01*
X117493859Y-117874999D01*
X116631141Y-117874999D01*
X116625551Y-117874448D01*
X116625000Y-117868858D01*
X116625000Y-117631140D01*
X116625551Y-117625550D01*
X116631141Y-117624999D01*
X117493859Y-117624999D01*
X117499822Y-117625586D01*
X117504187Y-117627920D01*
X117516075Y-117635863D01*
X117538714Y-117645241D01*
X117562747Y-117650022D01*
X117587251Y-117650022D01*
X117611285Y-117645242D01*
X117633924Y-117635865D01*
X117654298Y-117622252D01*
X117671625Y-117604925D01*
X117685239Y-117584551D01*
X117694617Y-117561912D01*
X117699398Y-117537879D01*
X117700000Y-117525625D01*
X117700000Y-117474374D01*
X117697598Y-117449988D01*
X117690485Y-117426539D01*
X117678934Y-117404928D01*
X117663389Y-117385986D01*
X117644447Y-117370441D01*
X117622836Y-117358890D01*
X117599387Y-117351777D01*
X117575001Y-117349375D01*
X117550615Y-117351777D01*
X117527166Y-117358890D01*
X117505555Y-117370441D01*
X117501176Y-117373689D01*
X117499822Y-117374413D01*
X117493859Y-117375000D01*
X116631141Y-117375000D01*
X116625551Y-117374449D01*
X116625000Y-117368859D01*
X116625000Y-117131141D01*
X116625551Y-117125551D01*
X116631141Y-117125000D01*
X117493859Y-117125000D01*
X117499822Y-117125587D01*
X117504187Y-117127921D01*
X117516075Y-117135864D01*
X117538714Y-117145242D01*
X117562747Y-117150023D01*
X117587251Y-117150023D01*
X117611285Y-117145243D01*
X117633924Y-117135866D01*
X117654298Y-117122253D01*
X117671625Y-117104926D01*
X117685239Y-117084552D01*
X117694617Y-117061913D01*
X117699398Y-117037880D01*
X117700000Y-117025626D01*
X117700000Y-116974375D01*
X117697598Y-116949989D01*
X117690485Y-116926540D01*
X117678934Y-116904929D01*
X117663389Y-116885987D01*
X117644447Y-116870442D01*
X117622836Y-116858891D01*
X117599387Y-116851778D01*
X117575001Y-116849376D01*
X117550615Y-116851778D01*
X117527166Y-116858891D01*
X117505555Y-116870442D01*
X117501176Y-116873690D01*
X117499822Y-116874414D01*
X117493859Y-116875001D01*
X116631141Y-116875001D01*
X116625551Y-116874450D01*
X116625000Y-116868860D01*
X116625000Y-116631142D01*
X116625551Y-116625552D01*
X116631141Y-116625001D01*
X117493859Y-116625001D01*
X117499822Y-116625588D01*
X117504187Y-116627922D01*
X117516075Y-116635865D01*
X117538714Y-116645243D01*
X117562747Y-116650024D01*
X117587251Y-116650024D01*
X117611285Y-116645244D01*
X117633924Y-116635867D01*
X117654298Y-116622254D01*
X117671625Y-116604927D01*
X117685239Y-116584553D01*
X117694617Y-116561914D01*
X117699398Y-116537881D01*
X117700000Y-116525627D01*
X117700000Y-116474374D01*
X117697598Y-116449988D01*
X117690485Y-116426539D01*
X117678934Y-116404928D01*
X117663389Y-116385986D01*
X117644447Y-116370441D01*
X117622836Y-116358890D01*
X117599387Y-116351777D01*
X117575001Y-116349375D01*
X117550615Y-116351777D01*
X117527166Y-116358890D01*
X117505555Y-116370441D01*
X117501176Y-116373689D01*
X117499822Y-116374413D01*
X117493859Y-116375000D01*
X116631141Y-116375000D01*
X116625551Y-116374449D01*
X116625000Y-116368859D01*
X116625000Y-116131141D01*
X116625551Y-116125551D01*
X116631141Y-116125000D01*
X117493859Y-116125000D01*
X117499822Y-116125587D01*
X117504187Y-116127921D01*
X117516075Y-116135864D01*
X117538714Y-116145242D01*
X117562747Y-116150023D01*
X117587251Y-116150023D01*
X117611285Y-116145243D01*
X117633924Y-116135866D01*
X117654298Y-116122253D01*
X117671625Y-116104926D01*
X117685239Y-116084552D01*
X117694617Y-116061913D01*
X117699398Y-116037880D01*
X117700000Y-116025626D01*
X117700000Y-115974374D01*
X117697598Y-115949988D01*
X117690485Y-115926539D01*
X117678934Y-115904928D01*
X117663389Y-115885986D01*
X117644447Y-115870441D01*
X117622836Y-115858890D01*
X117599387Y-115851777D01*
X117575001Y-115849375D01*
X117550615Y-115851777D01*
X117527166Y-115858890D01*
X117505555Y-115870441D01*
X117501176Y-115873689D01*
X117499822Y-115874413D01*
X117493859Y-115875000D01*
X116631141Y-115875000D01*
X116625551Y-115874449D01*
X116625000Y-115868859D01*
X116625000Y-115631141D01*
X116625551Y-115625551D01*
X116631141Y-115625000D01*
X117493859Y-115625000D01*
X117499822Y-115625587D01*
X117504187Y-115627921D01*
X117516075Y-115635864D01*
X117538714Y-115645242D01*
X117562747Y-115650023D01*
X117587251Y-115650023D01*
X117611285Y-115645243D01*
X117633924Y-115635866D01*
X117654298Y-115622253D01*
X117671625Y-115604926D01*
X117685239Y-115584552D01*
X117694617Y-115561913D01*
X117699398Y-115537880D01*
X117700000Y-115525626D01*
X117700000Y-115474373D01*
X117697598Y-115449987D01*
X117690485Y-115426538D01*
X117678934Y-115404927D01*
X117663389Y-115385985D01*
X117644447Y-115370440D01*
X117622836Y-115358889D01*
X117599387Y-115351776D01*
X117575001Y-115349374D01*
X117550615Y-115351776D01*
X117527166Y-115358889D01*
X117505555Y-115370440D01*
X117501176Y-115373688D01*
X117499822Y-115374412D01*
X117493859Y-115374999D01*
X116631141Y-115374999D01*
X116625551Y-115374448D01*
X116625000Y-115368858D01*
X116625000Y-115131140D01*
X116625551Y-115125550D01*
X116631141Y-115124999D01*
X117493859Y-115124999D01*
X117499822Y-115125586D01*
X117504187Y-115127920D01*
X117516075Y-115135863D01*
X117538714Y-115145241D01*
X117562747Y-115150022D01*
X117587251Y-115150022D01*
X117611285Y-115145242D01*
X117633924Y-115135865D01*
X117654298Y-115122252D01*
X117671625Y-115104925D01*
X117685239Y-115084551D01*
X117694617Y-115061912D01*
X117699398Y-115037879D01*
X117700000Y-115025625D01*
X117700000Y-114974374D01*
X117697598Y-114949988D01*
X117690485Y-114926539D01*
X117678934Y-114904928D01*
X117663389Y-114885986D01*
X117644447Y-114870441D01*
X117622836Y-114858890D01*
X117599387Y-114851777D01*
X117575001Y-114849375D01*
X117550615Y-114851777D01*
X117527166Y-114858890D01*
X117505555Y-114870441D01*
X117501176Y-114873689D01*
X117499822Y-114874413D01*
X117493859Y-114875000D01*
X116631141Y-114875000D01*
X116625551Y-114874449D01*
X116625000Y-114868859D01*
X116625000Y-114631141D01*
X116625551Y-114625551D01*
X116631141Y-114625000D01*
X117493859Y-114625000D01*
X117499822Y-114625587D01*
X117504187Y-114627921D01*
X117516075Y-114635864D01*
X117538714Y-114645242D01*
X117562747Y-114650023D01*
X117587251Y-114650023D01*
X117611285Y-114645243D01*
X117633924Y-114635866D01*
X117654298Y-114622253D01*
X117671625Y-114604926D01*
X117685239Y-114584552D01*
X117694617Y-114561913D01*
X117699398Y-114537880D01*
X117700000Y-114525626D01*
X117700000Y-114474375D01*
X117697598Y-114449989D01*
X117690485Y-114426540D01*
X117678934Y-114404929D01*
X117663389Y-114385987D01*
X117644447Y-114370442D01*
X117622836Y-114358891D01*
X117599387Y-114351778D01*
X117575001Y-114349376D01*
X117550615Y-114351778D01*
X117527166Y-114358891D01*
X117505555Y-114370442D01*
X117501176Y-114373690D01*
X117499822Y-114374414D01*
X117493859Y-114375001D01*
X116631141Y-114375001D01*
X116625551Y-114374450D01*
X116625000Y-114368860D01*
X116625000Y-114131142D01*
X116625551Y-114125552D01*
X116631141Y-114125001D01*
X117493859Y-114125001D01*
X117499822Y-114125588D01*
X117504187Y-114127922D01*
X117516075Y-114135865D01*
X117538714Y-114145243D01*
X117562747Y-114150024D01*
X117587251Y-114150024D01*
X117611285Y-114145244D01*
X117633924Y-114135867D01*
X117654298Y-114122254D01*
X117671625Y-114104927D01*
X117685239Y-114084553D01*
X117694617Y-114061914D01*
X117699398Y-114037881D01*
X117700000Y-114025627D01*
X117700000Y-113974374D01*
X117697598Y-113949988D01*
X117690485Y-113926539D01*
X117678934Y-113904928D01*
X117663389Y-113885986D01*
X117644447Y-113870441D01*
X117622836Y-113858890D01*
X117599387Y-113851777D01*
X117575001Y-113849375D01*
X117550615Y-113851777D01*
X117527166Y-113858890D01*
X117505555Y-113870441D01*
X117501176Y-113873689D01*
X117499822Y-113874413D01*
X117493859Y-113875000D01*
X116631141Y-113875000D01*
X116625551Y-113874449D01*
X116625000Y-113868859D01*
X116625000Y-113631141D01*
X116625551Y-113625551D01*
X116631141Y-113625000D01*
X117493859Y-113625000D01*
X117499822Y-113625587D01*
X117504187Y-113627921D01*
X117516075Y-113635864D01*
X117538714Y-113645242D01*
X117562747Y-113650023D01*
X117587251Y-113650023D01*
X117611285Y-113645243D01*
X117633924Y-113635866D01*
X117654298Y-113622253D01*
X117671625Y-113604926D01*
X117685239Y-113584552D01*
X117694617Y-113561913D01*
X117699398Y-113537880D01*
X117700000Y-113525626D01*
X117700000Y-113474374D01*
X117697598Y-113449988D01*
X117690485Y-113426539D01*
X117678934Y-113404928D01*
X117663389Y-113385986D01*
X117644447Y-113370441D01*
X117622836Y-113358890D01*
X117599387Y-113351777D01*
X117575001Y-113349375D01*
X117550615Y-113351777D01*
X117527166Y-113358890D01*
X117505555Y-113370441D01*
X117501176Y-113373689D01*
X117499822Y-113374413D01*
X117493859Y-113375000D01*
X116631141Y-113375000D01*
X116625551Y-113374449D01*
X116625000Y-113368859D01*
X116625000Y-113131141D01*
X116625551Y-113125551D01*
X116631141Y-113125000D01*
X117500000Y-113125000D01*
X117500000Y-113183777D01*
X117502402Y-113208163D01*
X117509515Y-113231612D01*
X117521066Y-113253223D01*
X117536611Y-113272165D01*
X117555553Y-113287710D01*
X117577164Y-113299261D01*
X117600613Y-113306374D01*
X117624999Y-113308776D01*
X117649385Y-113306374D01*
X117672834Y-113299261D01*
X117694445Y-113287710D01*
X117713387Y-113272165D01*
X117721626Y-113263074D01*
X117740309Y-113240309D01*
X117763074Y-113221626D01*
X117780401Y-113204299D01*
X117794015Y-113183925D01*
X117803393Y-113161286D01*
X117808174Y-113137253D01*
X117808174Y-113112749D01*
X117803394Y-113088715D01*
X117794017Y-113066076D01*
X117780404Y-113045702D01*
X117763077Y-113028375D01*
X117742703Y-113014761D01*
X117720064Y-113005383D01*
X117696031Y-113000602D01*
X117683777Y-113000000D01*
X117625000Y-113000000D01*
X117625000Y-112131141D01*
X117625551Y-112125551D01*
X117631141Y-112125000D01*
X117868859Y-112125000D01*
X117874449Y-112125551D01*
X117874449Y-112125551D01*
G37*
G36*
X105025000Y-119650000D02*
G01*
X103575000Y-119650000D01*
X103575000Y-112350000D01*
X105025000Y-112350000D01*
X105025000Y-119650000D01*
X105025000Y-119650000D01*
G37*
G36*
X133743015Y-117937234D02*
G01*
X133837270Y-117965826D01*
X133924128Y-118012253D01*
X134000264Y-118074736D01*
X134062747Y-118150872D01*
X134109174Y-118237730D01*
X134137766Y-118331985D01*
X134147419Y-118430000D01*
X134137766Y-118528015D01*
X134109174Y-118622270D01*
X134062747Y-118709128D01*
X134000264Y-118785264D01*
X133924128Y-118847747D01*
X133837270Y-118894174D01*
X133743015Y-118922766D01*
X133669564Y-118930000D01*
X133020436Y-118930000D01*
X132946985Y-118922766D01*
X132852730Y-118894174D01*
X132765872Y-118847747D01*
X132689736Y-118785264D01*
X132627253Y-118709128D01*
X132580826Y-118622270D01*
X132552234Y-118528015D01*
X132542581Y-118430000D01*
X132552234Y-118331985D01*
X132580826Y-118237730D01*
X132627253Y-118150872D01*
X132689736Y-118074736D01*
X132765872Y-118012253D01*
X132852730Y-117965826D01*
X132946985Y-117937234D01*
X133020436Y-117930000D01*
X133669564Y-117930000D01*
X133743015Y-117937234D01*
X133743015Y-117937234D01*
G37*
G36*
X129813015Y-117937234D02*
G01*
X129907270Y-117965826D01*
X129994128Y-118012253D01*
X130070264Y-118074736D01*
X130132747Y-118150872D01*
X130179174Y-118237730D01*
X130207766Y-118331985D01*
X130217419Y-118430000D01*
X130207766Y-118528015D01*
X130179174Y-118622270D01*
X130132747Y-118709128D01*
X130070264Y-118785264D01*
X129994128Y-118847747D01*
X129907270Y-118894174D01*
X129813015Y-118922766D01*
X129739564Y-118930000D01*
X128590436Y-118930000D01*
X128516985Y-118922766D01*
X128422730Y-118894174D01*
X128335872Y-118847747D01*
X128259736Y-118785264D01*
X128197253Y-118709128D01*
X128150826Y-118622270D01*
X128122234Y-118528015D01*
X128112581Y-118430000D01*
X128122234Y-118331985D01*
X128150826Y-118237730D01*
X128197253Y-118150872D01*
X128259736Y-118074736D01*
X128335872Y-118012253D01*
X128422730Y-117965826D01*
X128516985Y-117937234D01*
X128590436Y-117930000D01*
X129739564Y-117930000D01*
X129813015Y-117937234D01*
X129813015Y-117937234D01*
G37*
G36*
X115849116Y-116928595D02*
G01*
X115878311Y-116937452D01*
X115905223Y-116951837D01*
X115928808Y-116971192D01*
X115948163Y-116994777D01*
X115962548Y-117021689D01*
X115971405Y-117050884D01*
X115975000Y-117087390D01*
X115975000Y-117637610D01*
X115971405Y-117674116D01*
X115962548Y-117703311D01*
X115948163Y-117730223D01*
X115928808Y-117753808D01*
X115905223Y-117773163D01*
X115878311Y-117787548D01*
X115849116Y-117796405D01*
X115812610Y-117800000D01*
X115187390Y-117800000D01*
X115150884Y-117796405D01*
X115121689Y-117787548D01*
X115094777Y-117773163D01*
X115071192Y-117753808D01*
X115051837Y-117730223D01*
X115037452Y-117703311D01*
X115028595Y-117674116D01*
X115025000Y-117637610D01*
X115025000Y-117087390D01*
X115028595Y-117050884D01*
X115037452Y-117021689D01*
X115051837Y-116994777D01*
X115071192Y-116971192D01*
X115094777Y-116951837D01*
X115121689Y-116937452D01*
X115150884Y-116928595D01*
X115187390Y-116925000D01*
X115812610Y-116925000D01*
X115849116Y-116928595D01*
X115849116Y-116928595D01*
G37*
G36*
X106874116Y-116678595D02*
G01*
X106903311Y-116687452D01*
X106930223Y-116701837D01*
X106953808Y-116721192D01*
X106973163Y-116744777D01*
X106987548Y-116771689D01*
X106996405Y-116800884D01*
X107000000Y-116837390D01*
X107000000Y-117462610D01*
X106996405Y-117499116D01*
X106987548Y-117528311D01*
X106973163Y-117555223D01*
X106953808Y-117578808D01*
X106930223Y-117598163D01*
X106903311Y-117612548D01*
X106874116Y-117621405D01*
X106837610Y-117625000D01*
X106287390Y-117625000D01*
X106250884Y-117621405D01*
X106221689Y-117612548D01*
X106194777Y-117598163D01*
X106171192Y-117578808D01*
X106151837Y-117555223D01*
X106137452Y-117528311D01*
X106128595Y-117499116D01*
X106125000Y-117462610D01*
X106125000Y-116837390D01*
X106128595Y-116800884D01*
X106137452Y-116771689D01*
X106151837Y-116744777D01*
X106171192Y-116721192D01*
X106194777Y-116701837D01*
X106221689Y-116687452D01*
X106250884Y-116678595D01*
X106287390Y-116675000D01*
X106837610Y-116675000D01*
X106874116Y-116678595D01*
X106874116Y-116678595D01*
G37*
G36*
X108449116Y-116678595D02*
G01*
X108478311Y-116687452D01*
X108505223Y-116701837D01*
X108528808Y-116721192D01*
X108548163Y-116744777D01*
X108562548Y-116771689D01*
X108571405Y-116800884D01*
X108575000Y-116837390D01*
X108575000Y-117462610D01*
X108571405Y-117499116D01*
X108562548Y-117528311D01*
X108548163Y-117555223D01*
X108528808Y-117578808D01*
X108505223Y-117598163D01*
X108478311Y-117612548D01*
X108449116Y-117621405D01*
X108412610Y-117625000D01*
X107862390Y-117625000D01*
X107825884Y-117621405D01*
X107796689Y-117612548D01*
X107769777Y-117598163D01*
X107746192Y-117578808D01*
X107726837Y-117555223D01*
X107712452Y-117528311D01*
X107703595Y-117499116D01*
X107700000Y-117462610D01*
X107700000Y-116837390D01*
X107703595Y-116800884D01*
X107712452Y-116771689D01*
X107726837Y-116744777D01*
X107746192Y-116721192D01*
X107769777Y-116701837D01*
X107796689Y-116687452D01*
X107825884Y-116678595D01*
X107862390Y-116675000D01*
X108412610Y-116675000D01*
X108449116Y-116678595D01*
X108449116Y-116678595D01*
G37*
G36*
X135220000Y-117125000D02*
G01*
X134170000Y-117125000D01*
X134170000Y-115725000D01*
X135220000Y-115725000D01*
X135220000Y-117125000D01*
X135220000Y-117125000D01*
G37*
G36*
X133780000Y-117125000D02*
G01*
X132730000Y-117125000D01*
X132730000Y-115725000D01*
X133780000Y-115725000D01*
X133780000Y-117125000D01*
X133780000Y-117125000D01*
G37*
G36*
X126275000Y-116630000D02*
G01*
X125625000Y-116630000D01*
X125625000Y-115570000D01*
X126275000Y-115570000D01*
X126275000Y-116630000D01*
X126275000Y-116630000D01*
G37*
G36*
X128175000Y-116630000D02*
G01*
X127525000Y-116630000D01*
X127525000Y-115570000D01*
X128175000Y-115570000D01*
X128175000Y-116630000D01*
X128175000Y-116630000D01*
G37*
G36*
X127225000Y-116629999D02*
G01*
X126575000Y-116629999D01*
X126575000Y-115569999D01*
X127225000Y-115569999D01*
X127225000Y-116629999D01*
X127225000Y-116629999D01*
G37*
G36*
X115849116Y-115353595D02*
G01*
X115878311Y-115362452D01*
X115905223Y-115376837D01*
X115928808Y-115396192D01*
X115948163Y-115419777D01*
X115962548Y-115446689D01*
X115971405Y-115475884D01*
X115975000Y-115512390D01*
X115975000Y-116062610D01*
X115971405Y-116099116D01*
X115962548Y-116128311D01*
X115948163Y-116155223D01*
X115928808Y-116178808D01*
X115905223Y-116198163D01*
X115878311Y-116212548D01*
X115849116Y-116221405D01*
X115812610Y-116225000D01*
X115187390Y-116225000D01*
X115150884Y-116221405D01*
X115121689Y-116212548D01*
X115094777Y-116198163D01*
X115071192Y-116178808D01*
X115051837Y-116155223D01*
X115037452Y-116128311D01*
X115028595Y-116099116D01*
X115025000Y-116062610D01*
X115025000Y-115512390D01*
X115028595Y-115475884D01*
X115037452Y-115446689D01*
X115051837Y-115419777D01*
X115071192Y-115396192D01*
X115094777Y-115376837D01*
X115121689Y-115362452D01*
X115150884Y-115353595D01*
X115187390Y-115350000D01*
X115812610Y-115350000D01*
X115849116Y-115353595D01*
X115849116Y-115353595D01*
G37*
G36*
X131724116Y-115103595D02*
G01*
X131753311Y-115112452D01*
X131780223Y-115126837D01*
X131803808Y-115146192D01*
X131823163Y-115169777D01*
X131837548Y-115196689D01*
X131846405Y-115225884D01*
X131850000Y-115262390D01*
X131850000Y-115812610D01*
X131846405Y-115849116D01*
X131837548Y-115878311D01*
X131823163Y-115905223D01*
X131803808Y-115928808D01*
X131780223Y-115948163D01*
X131753311Y-115962548D01*
X131724116Y-115971405D01*
X131687610Y-115975000D01*
X131062390Y-115975000D01*
X131025884Y-115971405D01*
X130996689Y-115962548D01*
X130969777Y-115948163D01*
X130946192Y-115928808D01*
X130926837Y-115905223D01*
X130912452Y-115878311D01*
X130903595Y-115849116D01*
X130900000Y-115812610D01*
X130900000Y-115262390D01*
X130903595Y-115225884D01*
X130912452Y-115196689D01*
X130926837Y-115169777D01*
X130946192Y-115146192D01*
X130969777Y-115126837D01*
X130996689Y-115112452D01*
X131025884Y-115103595D01*
X131062390Y-115100000D01*
X131687610Y-115100000D01*
X131724116Y-115103595D01*
X131724116Y-115103595D01*
G37*
G36*
X114299116Y-114178595D02*
G01*
X114328311Y-114187452D01*
X114355223Y-114201837D01*
X114378808Y-114221192D01*
X114398163Y-114244777D01*
X114412548Y-114271689D01*
X114421405Y-114300884D01*
X114425000Y-114337390D01*
X114425000Y-114962610D01*
X114421405Y-114999116D01*
X114412548Y-115028311D01*
X114398163Y-115055223D01*
X114378808Y-115078808D01*
X114355223Y-115098163D01*
X114328311Y-115112548D01*
X114299116Y-115121405D01*
X114262610Y-115125000D01*
X113712390Y-115125000D01*
X113675884Y-115121405D01*
X113646689Y-115112548D01*
X113619777Y-115098163D01*
X113596192Y-115078808D01*
X113576837Y-115055223D01*
X113562452Y-115028311D01*
X113553595Y-114999116D01*
X113550000Y-114962610D01*
X113550000Y-114337390D01*
X113553595Y-114300884D01*
X113562452Y-114271689D01*
X113576837Y-114244777D01*
X113596192Y-114221192D01*
X113619777Y-114201837D01*
X113646689Y-114187452D01*
X113675884Y-114178595D01*
X113712390Y-114175000D01*
X114262610Y-114175000D01*
X114299116Y-114178595D01*
X114299116Y-114178595D01*
G37*
G36*
X112724116Y-114178595D02*
G01*
X112753311Y-114187452D01*
X112780223Y-114201837D01*
X112803808Y-114221192D01*
X112823163Y-114244777D01*
X112837548Y-114271689D01*
X112846405Y-114300884D01*
X112850000Y-114337390D01*
X112850000Y-114962610D01*
X112846405Y-114999116D01*
X112837548Y-115028311D01*
X112823163Y-115055223D01*
X112803808Y-115078808D01*
X112780223Y-115098163D01*
X112753311Y-115112548D01*
X112724116Y-115121405D01*
X112687610Y-115125000D01*
X112137390Y-115125000D01*
X112100884Y-115121405D01*
X112071689Y-115112548D01*
X112044777Y-115098163D01*
X112021192Y-115078808D01*
X112001837Y-115055223D01*
X111987452Y-115028311D01*
X111978595Y-114999116D01*
X111975000Y-114962610D01*
X111975000Y-114337390D01*
X111978595Y-114300884D01*
X111987452Y-114271689D01*
X112001837Y-114244777D01*
X112021192Y-114221192D01*
X112044777Y-114201837D01*
X112071689Y-114187452D01*
X112100884Y-114178595D01*
X112137390Y-114175000D01*
X112687610Y-114175000D01*
X112724116Y-114178595D01*
X112724116Y-114178595D01*
G37*
G36*
X134926377Y-114278363D02*
G01*
X134977091Y-114288450D01*
X135040787Y-114314834D01*
X135098112Y-114353137D01*
X135146863Y-114401888D01*
X135185166Y-114459213D01*
X135211550Y-114522909D01*
X135216941Y-114550012D01*
X135225000Y-114590527D01*
X135225000Y-114659473D01*
X135221850Y-114675307D01*
X135211550Y-114727091D01*
X135185166Y-114790787D01*
X135146863Y-114848112D01*
X135098112Y-114896863D01*
X135040787Y-114935166D01*
X134977091Y-114961550D01*
X134926377Y-114971637D01*
X134909473Y-114975000D01*
X134840527Y-114975000D01*
X134823623Y-114971637D01*
X134772909Y-114961550D01*
X134709213Y-114935166D01*
X134651888Y-114896863D01*
X134603137Y-114848112D01*
X134564834Y-114790787D01*
X134538450Y-114727091D01*
X134528150Y-114675307D01*
X134525000Y-114659473D01*
X134525000Y-114590527D01*
X134533059Y-114550012D01*
X134538450Y-114522909D01*
X134564834Y-114459213D01*
X134603137Y-114401888D01*
X134651888Y-114353137D01*
X134709213Y-114314834D01*
X134772909Y-114288450D01*
X134823623Y-114278363D01*
X134840527Y-114275000D01*
X134909473Y-114275000D01*
X134926377Y-114278363D01*
X134926377Y-114278363D01*
G37*
G36*
X133126377Y-114278363D02*
G01*
X133177091Y-114288450D01*
X133240787Y-114314834D01*
X133298112Y-114353137D01*
X133346863Y-114401888D01*
X133385166Y-114459213D01*
X133411550Y-114522909D01*
X133416941Y-114550012D01*
X133425000Y-114590527D01*
X133425000Y-114659473D01*
X133421850Y-114675307D01*
X133411550Y-114727091D01*
X133385166Y-114790787D01*
X133346863Y-114848112D01*
X133298112Y-114896863D01*
X133240787Y-114935166D01*
X133177091Y-114961550D01*
X133126377Y-114971637D01*
X133109473Y-114975000D01*
X133040527Y-114975000D01*
X133023623Y-114971637D01*
X132972909Y-114961550D01*
X132909213Y-114935166D01*
X132851888Y-114896863D01*
X132803137Y-114848112D01*
X132764834Y-114790787D01*
X132738450Y-114727091D01*
X132728150Y-114675307D01*
X132725000Y-114659473D01*
X132725000Y-114590527D01*
X132733059Y-114550012D01*
X132738450Y-114522909D01*
X132764834Y-114459213D01*
X132803137Y-114401888D01*
X132851888Y-114353137D01*
X132909213Y-114314834D01*
X132972909Y-114288450D01*
X133023623Y-114278363D01*
X133040527Y-114275000D01*
X133109473Y-114275000D01*
X133126377Y-114278363D01*
X133126377Y-114278363D01*
G37*
G36*
X127225000Y-114430001D02*
G01*
X126575000Y-114430001D01*
X126575000Y-113370001D01*
X127225000Y-113370001D01*
X127225000Y-114430001D01*
X127225000Y-114430001D01*
G37*
G36*
X126275000Y-114430000D02*
G01*
X125625000Y-114430000D01*
X125625000Y-113370000D01*
X126275000Y-113370000D01*
X126275000Y-114430000D01*
X126275000Y-114430000D01*
G37*
G36*
X128175000Y-114430000D02*
G01*
X127525000Y-114430000D01*
X127525000Y-113370000D01*
X128175000Y-113370000D01*
X128175000Y-114430000D01*
X128175000Y-114430000D01*
G37*
G36*
X131724116Y-113528595D02*
G01*
X131753311Y-113537452D01*
X131780223Y-113551837D01*
X131803808Y-113571192D01*
X131823163Y-113594777D01*
X131837548Y-113621689D01*
X131846405Y-113650884D01*
X131850000Y-113687390D01*
X131850000Y-114237610D01*
X131846405Y-114274116D01*
X131837548Y-114303311D01*
X131823163Y-114330223D01*
X131803808Y-114353808D01*
X131780223Y-114373163D01*
X131753311Y-114387548D01*
X131724116Y-114396405D01*
X131687610Y-114400000D01*
X131062390Y-114400000D01*
X131025884Y-114396405D01*
X130996689Y-114387548D01*
X130969777Y-114373163D01*
X130946192Y-114353808D01*
X130926837Y-114330223D01*
X130912452Y-114303311D01*
X130903595Y-114274116D01*
X130900000Y-114237610D01*
X130900000Y-113687390D01*
X130903595Y-113650884D01*
X130912452Y-113621689D01*
X130926837Y-113594777D01*
X130946192Y-113571192D01*
X130969777Y-113551837D01*
X130996689Y-113537452D01*
X131025884Y-113528595D01*
X131062390Y-113525000D01*
X131687610Y-113525000D01*
X131724116Y-113528595D01*
X131724116Y-113528595D01*
G37*
G36*
X110565000Y-113550000D02*
G01*
X109965000Y-113550000D01*
X109965000Y-112050000D01*
X110565000Y-112050000D01*
X110565000Y-113550000D01*
X110565000Y-113550000D01*
G37*
G36*
X109295000Y-113550000D02*
G01*
X108695000Y-113550000D01*
X108695000Y-112050000D01*
X109295000Y-112050000D01*
X109295000Y-113550000D01*
X109295000Y-113550000D01*
G37*
G36*
X111835000Y-113550000D02*
G01*
X111235000Y-113550000D01*
X111235000Y-112050000D01*
X111835000Y-112050000D01*
X111835000Y-113550000D01*
X111835000Y-113550000D01*
G37*
G36*
X113105000Y-113550000D02*
G01*
X112505000Y-113550000D01*
X112505000Y-112050000D01*
X113105000Y-112050000D01*
X113105000Y-113550000D01*
X113105000Y-113550000D01*
G37*
G36*
X114375000Y-113550000D02*
G01*
X113775000Y-113550000D01*
X113775000Y-112050000D01*
X114375000Y-112050000D01*
X114375000Y-113550000D01*
X114375000Y-113550000D01*
G37*
G36*
X115645000Y-113550000D02*
G01*
X115045000Y-113550000D01*
X115045000Y-112050000D01*
X115645000Y-112050000D01*
X115645000Y-113550000D01*
X115645000Y-113550000D01*
G37*
G36*
X108025000Y-113550000D02*
G01*
X107425000Y-113550000D01*
X107425000Y-112050000D01*
X108025000Y-112050000D01*
X108025000Y-113550000D01*
X108025000Y-113550000D01*
G37*
G36*
X106755000Y-113550000D02*
G01*
X106155000Y-113550000D01*
X106155000Y-112050000D01*
X106755000Y-112050000D01*
X106755000Y-113550000D01*
X106755000Y-113550000D01*
G37*
G36*
X135220000Y-113525000D02*
G01*
X134170000Y-113525000D01*
X134170000Y-112125000D01*
X135220000Y-112125000D01*
X135220000Y-113525000D01*
X135220000Y-113525000D01*
G37*
G36*
X133780000Y-113525000D02*
G01*
X132730000Y-113525000D01*
X132730000Y-112125000D01*
X133780000Y-112125000D01*
X133780000Y-113525000D01*
X133780000Y-113525000D01*
G37*
G36*
X129774116Y-111653595D02*
G01*
X129803311Y-111662452D01*
X129830223Y-111676837D01*
X129853808Y-111696192D01*
X129873163Y-111719777D01*
X129887548Y-111746689D01*
X129896405Y-111775884D01*
X129900000Y-111812390D01*
X129900000Y-112437610D01*
X129896405Y-112474116D01*
X129887548Y-112503311D01*
X129873163Y-112530223D01*
X129853808Y-112553808D01*
X129830223Y-112573163D01*
X129803311Y-112587548D01*
X129774116Y-112596405D01*
X129737610Y-112600000D01*
X129187390Y-112600000D01*
X129150884Y-112596405D01*
X129121689Y-112587548D01*
X129094777Y-112573163D01*
X129071192Y-112553808D01*
X129051837Y-112530223D01*
X129037452Y-112503311D01*
X129028595Y-112474116D01*
X129025000Y-112437610D01*
X129025000Y-111812390D01*
X129028595Y-111775884D01*
X129037452Y-111746689D01*
X129051837Y-111719777D01*
X129071192Y-111696192D01*
X129094777Y-111676837D01*
X129121689Y-111662452D01*
X129150884Y-111653595D01*
X129187390Y-111650000D01*
X129737610Y-111650000D01*
X129774116Y-111653595D01*
X129774116Y-111653595D01*
G37*
G36*
X131349116Y-111653595D02*
G01*
X131378311Y-111662452D01*
X131405223Y-111676837D01*
X131428808Y-111696192D01*
X131448163Y-111719777D01*
X131462548Y-111746689D01*
X131471405Y-111775884D01*
X131475000Y-111812390D01*
X131475000Y-112437610D01*
X131471405Y-112474116D01*
X131462548Y-112503311D01*
X131448163Y-112530223D01*
X131428808Y-112553808D01*
X131405223Y-112573163D01*
X131378311Y-112587548D01*
X131349116Y-112596405D01*
X131312610Y-112600000D01*
X130762390Y-112600000D01*
X130725884Y-112596405D01*
X130696689Y-112587548D01*
X130669777Y-112573163D01*
X130646192Y-112553808D01*
X130626837Y-112530223D01*
X130612452Y-112503311D01*
X130603595Y-112474116D01*
X130600000Y-112437610D01*
X130600000Y-111812390D01*
X130603595Y-111775884D01*
X130612452Y-111746689D01*
X130626837Y-111719777D01*
X130646192Y-111696192D01*
X130669777Y-111676837D01*
X130696689Y-111662452D01*
X130725884Y-111653595D01*
X130762390Y-111650000D01*
X131312610Y-111650000D01*
X131349116Y-111653595D01*
X131349116Y-111653595D01*
G37*
G36*
X127186616Y-111428595D02*
G01*
X127215811Y-111437452D01*
X127242723Y-111451837D01*
X127266308Y-111471192D01*
X127285663Y-111494777D01*
X127300048Y-111521689D01*
X127308905Y-111550884D01*
X127312500Y-111587390D01*
X127312500Y-112212610D01*
X127308905Y-112249116D01*
X127300048Y-112278311D01*
X127285663Y-112305223D01*
X127266308Y-112328808D01*
X127242723Y-112348163D01*
X127215811Y-112362548D01*
X127186616Y-112371405D01*
X127150110Y-112375000D01*
X126599890Y-112375000D01*
X126563384Y-112371405D01*
X126534189Y-112362548D01*
X126507277Y-112348163D01*
X126483692Y-112328808D01*
X126464337Y-112305223D01*
X126449952Y-112278311D01*
X126441095Y-112249116D01*
X126437500Y-112212610D01*
X126437500Y-111587390D01*
X126441095Y-111550884D01*
X126449952Y-111521689D01*
X126464337Y-111494777D01*
X126483692Y-111471192D01*
X126507277Y-111451837D01*
X126534189Y-111437452D01*
X126563384Y-111428595D01*
X126599890Y-111425000D01*
X127150110Y-111425000D01*
X127186616Y-111428595D01*
X127186616Y-111428595D01*
G37*
G36*
X125611616Y-111428595D02*
G01*
X125640811Y-111437452D01*
X125667723Y-111451837D01*
X125691308Y-111471192D01*
X125710663Y-111494777D01*
X125725048Y-111521689D01*
X125733905Y-111550884D01*
X125737500Y-111587390D01*
X125737500Y-112212610D01*
X125733905Y-112249116D01*
X125725048Y-112278311D01*
X125710663Y-112305223D01*
X125691308Y-112328808D01*
X125667723Y-112348163D01*
X125640811Y-112362548D01*
X125611616Y-112371405D01*
X125575110Y-112375000D01*
X125024890Y-112375000D01*
X124988384Y-112371405D01*
X124959189Y-112362548D01*
X124932277Y-112348163D01*
X124908692Y-112328808D01*
X124889337Y-112305223D01*
X124874952Y-112278311D01*
X124866095Y-112249116D01*
X124862500Y-112212610D01*
X124862500Y-111587390D01*
X124866095Y-111550884D01*
X124874952Y-111521689D01*
X124889337Y-111494777D01*
X124908692Y-111471192D01*
X124932277Y-111451837D01*
X124959189Y-111437452D01*
X124988384Y-111428595D01*
X125024890Y-111425000D01*
X125575110Y-111425000D01*
X125611616Y-111428595D01*
X125611616Y-111428595D01*
G37*
G36*
X103300000Y-112000000D02*
G01*
X100300000Y-112000000D01*
X100300000Y-110000000D01*
X103300000Y-110000000D01*
X103300000Y-112000000D01*
X103300000Y-112000000D01*
G37*
G36*
X118899116Y-110628595D02*
G01*
X118928311Y-110637452D01*
X118955223Y-110651837D01*
X118978808Y-110671192D01*
X118998163Y-110694777D01*
X119012548Y-110721689D01*
X119021405Y-110750884D01*
X119025000Y-110787390D01*
X119025000Y-111412610D01*
X119021405Y-111449116D01*
X119012548Y-111478311D01*
X118998163Y-111505223D01*
X118978808Y-111528808D01*
X118955223Y-111548163D01*
X118928311Y-111562548D01*
X118899116Y-111571405D01*
X118862610Y-111575000D01*
X118312390Y-111575000D01*
X118275884Y-111571405D01*
X118246689Y-111562548D01*
X118219777Y-111548163D01*
X118196192Y-111528808D01*
X118176837Y-111505223D01*
X118162452Y-111478311D01*
X118153595Y-111449116D01*
X118150000Y-111412610D01*
X118150000Y-110787390D01*
X118153595Y-110750884D01*
X118162452Y-110721689D01*
X118176837Y-110694777D01*
X118196192Y-110671192D01*
X118219777Y-110651837D01*
X118246689Y-110637452D01*
X118275884Y-110628595D01*
X118312390Y-110625000D01*
X118862610Y-110625000D01*
X118899116Y-110628595D01*
X118899116Y-110628595D01*
G37*
G36*
X117324116Y-110628595D02*
G01*
X117353311Y-110637452D01*
X117380223Y-110651837D01*
X117403808Y-110671192D01*
X117423163Y-110694777D01*
X117437548Y-110721689D01*
X117446405Y-110750884D01*
X117450000Y-110787390D01*
X117450000Y-111412610D01*
X117446405Y-111449116D01*
X117437548Y-111478311D01*
X117423163Y-111505223D01*
X117403808Y-111528808D01*
X117380223Y-111548163D01*
X117353311Y-111562548D01*
X117324116Y-111571405D01*
X117287610Y-111575000D01*
X116737390Y-111575000D01*
X116700884Y-111571405D01*
X116671689Y-111562548D01*
X116644777Y-111548163D01*
X116621192Y-111528808D01*
X116601837Y-111505223D01*
X116587452Y-111478311D01*
X116578595Y-111449116D01*
X116575000Y-111412610D01*
X116575000Y-110787390D01*
X116578595Y-110750884D01*
X116587452Y-110721689D01*
X116601837Y-110694777D01*
X116621192Y-110671192D01*
X116644777Y-110651837D01*
X116671689Y-110637452D01*
X116700884Y-110628595D01*
X116737390Y-110625000D01*
X117287610Y-110625000D01*
X117324116Y-110628595D01*
X117324116Y-110628595D01*
G37*
G36*
X130525000Y-111000000D02*
G01*
X129325000Y-111000000D01*
X129325000Y-110100000D01*
X130525000Y-110100000D01*
X130525000Y-111000000D01*
X130525000Y-111000000D01*
G37*
G36*
X128299116Y-110116095D02*
G01*
X128328311Y-110124952D01*
X128355223Y-110139337D01*
X128378808Y-110158692D01*
X128398163Y-110182277D01*
X128412548Y-110209189D01*
X128421405Y-110238384D01*
X128425000Y-110274890D01*
X128425000Y-110825110D01*
X128421405Y-110861616D01*
X128412548Y-110890811D01*
X128398163Y-110917723D01*
X128378808Y-110941308D01*
X128355223Y-110960663D01*
X128328311Y-110975048D01*
X128299116Y-110983905D01*
X128262610Y-110987500D01*
X127637390Y-110987500D01*
X127600884Y-110983905D01*
X127571689Y-110975048D01*
X127544777Y-110960663D01*
X127521192Y-110941308D01*
X127501837Y-110917723D01*
X127487452Y-110890811D01*
X127478595Y-110861616D01*
X127475000Y-110825110D01*
X127475000Y-110274890D01*
X127478595Y-110238384D01*
X127487452Y-110209189D01*
X127501837Y-110182277D01*
X127521192Y-110158692D01*
X127544777Y-110139337D01*
X127571689Y-110124952D01*
X127600884Y-110116095D01*
X127637390Y-110112500D01*
X128262610Y-110112500D01*
X128299116Y-110116095D01*
X128299116Y-110116095D01*
G37*
G36*
X123754532Y-106368586D02*
G01*
X123770557Y-106387123D01*
X123789891Y-106402178D01*
X123801443Y-106407978D01*
X123802402Y-106417712D01*
X123809515Y-106441161D01*
X123822879Y-106465411D01*
X123830823Y-106476664D01*
X123821066Y-106488553D01*
X123809515Y-106510164D01*
X123802402Y-106533613D01*
X123800000Y-106557999D01*
X123800000Y-108126201D01*
X123802402Y-108150587D01*
X123809515Y-108174036D01*
X123821066Y-108195647D01*
X123830684Y-108207367D01*
X123822596Y-108218921D01*
X123810579Y-108240276D01*
X123802959Y-108263565D01*
X123801653Y-108275496D01*
X123788426Y-108282566D01*
X123769484Y-108298111D01*
X123755469Y-108314817D01*
X123222596Y-109076064D01*
X123210579Y-109097419D01*
X123202959Y-109120708D01*
X123200000Y-109147746D01*
X123200000Y-110908500D01*
X122200000Y-110908500D01*
X122200000Y-109147746D01*
X122197598Y-109123360D01*
X122190485Y-109099911D01*
X122177404Y-109076064D01*
X121644531Y-108314817D01*
X121628579Y-108296216D01*
X121609305Y-108281085D01*
X121598524Y-108275620D01*
X121597598Y-108266217D01*
X121590485Y-108242768D01*
X121577404Y-108218921D01*
X121569316Y-108207367D01*
X121578934Y-108195647D01*
X121590485Y-108174036D01*
X121597598Y-108150587D01*
X121600000Y-108126201D01*
X121600000Y-106557999D01*
X121597598Y-106533613D01*
X121590485Y-106510164D01*
X121578934Y-106488553D01*
X121569177Y-106476664D01*
X121577121Y-106465411D01*
X121589222Y-106444103D01*
X121596933Y-106420844D01*
X121598347Y-106408156D01*
X121612794Y-106400434D01*
X121631736Y-106384889D01*
X121645468Y-106368586D01*
X122200000Y-105583000D01*
X123200000Y-105583000D01*
X123754532Y-106368586D01*
X123754532Y-106368586D01*
G37*
G36*
X124700000Y-110905000D02*
G01*
X123700000Y-110905000D01*
X123700000Y-109405000D01*
X124700000Y-109405000D01*
X124700000Y-110905000D01*
X124700000Y-110905000D01*
G37*
G36*
X121700000Y-110905000D02*
G01*
X120700000Y-110905000D01*
X120700000Y-109405000D01*
X121700000Y-109405000D01*
X121700000Y-110905000D01*
X121700000Y-110905000D01*
G37*
G36*
X135425000Y-110675000D02*
G01*
X134225000Y-110675000D01*
X134225000Y-106975000D01*
X135425000Y-106975000D01*
X135425000Y-110675000D01*
X135425000Y-110675000D01*
G37*
G36*
X132625000Y-110675000D02*
G01*
X131425000Y-110675000D01*
X131425000Y-106975000D01*
X132625000Y-106975000D01*
X132625000Y-110675000D01*
X132625000Y-110675000D01*
G37*
G36*
X119649116Y-108978595D02*
G01*
X119678311Y-108987452D01*
X119705223Y-109001837D01*
X119728808Y-109021192D01*
X119748163Y-109044777D01*
X119762548Y-109071689D01*
X119771405Y-109100884D01*
X119775000Y-109137390D01*
X119775000Y-109687610D01*
X119771405Y-109724116D01*
X119762548Y-109753311D01*
X119748163Y-109780223D01*
X119728808Y-109803808D01*
X119705223Y-109823163D01*
X119678311Y-109837548D01*
X119649116Y-109846405D01*
X119612610Y-109850000D01*
X118987390Y-109850000D01*
X118950884Y-109846405D01*
X118921689Y-109837548D01*
X118894777Y-109823163D01*
X118871192Y-109803808D01*
X118851837Y-109780223D01*
X118837452Y-109753311D01*
X118828595Y-109724116D01*
X118825000Y-109687610D01*
X118825000Y-109137390D01*
X118828595Y-109100884D01*
X118837452Y-109071689D01*
X118851837Y-109044777D01*
X118871192Y-109021192D01*
X118894777Y-109001837D01*
X118921689Y-108987452D01*
X118950884Y-108978595D01*
X118987390Y-108975000D01*
X119612610Y-108975000D01*
X119649116Y-108978595D01*
X119649116Y-108978595D01*
G37*
G36*
X128299116Y-108541095D02*
G01*
X128328311Y-108549952D01*
X128355223Y-108564337D01*
X128378808Y-108583692D01*
X128398163Y-108607277D01*
X128412548Y-108634189D01*
X128421405Y-108663384D01*
X128425000Y-108699890D01*
X128425000Y-109250110D01*
X128421405Y-109286616D01*
X128412548Y-109315811D01*
X128398163Y-109342723D01*
X128378808Y-109366308D01*
X128355223Y-109385663D01*
X128328311Y-109400048D01*
X128299116Y-109408905D01*
X128262610Y-109412500D01*
X127637390Y-109412500D01*
X127600884Y-109408905D01*
X127571689Y-109400048D01*
X127544777Y-109385663D01*
X127521192Y-109366308D01*
X127501837Y-109342723D01*
X127487452Y-109315811D01*
X127478595Y-109286616D01*
X127475000Y-109250110D01*
X127475000Y-108699890D01*
X127478595Y-108663384D01*
X127487452Y-108634189D01*
X127501837Y-108607277D01*
X127521192Y-108583692D01*
X127544777Y-108564337D01*
X127571689Y-108549952D01*
X127600884Y-108541095D01*
X127637390Y-108537500D01*
X128262610Y-108537500D01*
X128299116Y-108541095D01*
X128299116Y-108541095D01*
G37*
G36*
X104999116Y-108403595D02*
G01*
X105028311Y-108412452D01*
X105055223Y-108426837D01*
X105078808Y-108446192D01*
X105098163Y-108469777D01*
X105112548Y-108496689D01*
X105121405Y-108525884D01*
X105125000Y-108562390D01*
X105125000Y-109112610D01*
X105121405Y-109149116D01*
X105112548Y-109178311D01*
X105098163Y-109205223D01*
X105078808Y-109228808D01*
X105055223Y-109248163D01*
X105028311Y-109262548D01*
X104999116Y-109271405D01*
X104962610Y-109275000D01*
X104337390Y-109275000D01*
X104300884Y-109271405D01*
X104271689Y-109262548D01*
X104244777Y-109248163D01*
X104221192Y-109228808D01*
X104201837Y-109205223D01*
X104187452Y-109178311D01*
X104178595Y-109149116D01*
X104175000Y-109112610D01*
X104175000Y-108562390D01*
X104178595Y-108525884D01*
X104187452Y-108496689D01*
X104201837Y-108469777D01*
X104221192Y-108446192D01*
X104244777Y-108426837D01*
X104271689Y-108412452D01*
X104300884Y-108403595D01*
X104337390Y-108400000D01*
X104962610Y-108400000D01*
X104999116Y-108403595D01*
X104999116Y-108403595D01*
G37*
G36*
X103450000Y-109250000D02*
G01*
X102650000Y-109250000D01*
X102650000Y-108350000D01*
X103450000Y-108350000D01*
X103450000Y-109250000D01*
X103450000Y-109250000D01*
G37*
G36*
X101550000Y-109250000D02*
G01*
X100750000Y-109250000D01*
X100750000Y-108350000D01*
X101550000Y-108350000D01*
X101550000Y-109250000D01*
X101550000Y-109250000D01*
G37*
G36*
X117424116Y-108278595D02*
G01*
X117453311Y-108287452D01*
X117480223Y-108301837D01*
X117503808Y-108321192D01*
X117523163Y-108344777D01*
X117537548Y-108371689D01*
X117546405Y-108400884D01*
X117550000Y-108437390D01*
X117550000Y-108987610D01*
X117546405Y-109024116D01*
X117537548Y-109053311D01*
X117523163Y-109080223D01*
X117503808Y-109103808D01*
X117480223Y-109123163D01*
X117453311Y-109137548D01*
X117424116Y-109146405D01*
X117387610Y-109150000D01*
X116762390Y-109150000D01*
X116725884Y-109146405D01*
X116696689Y-109137548D01*
X116669777Y-109123163D01*
X116646192Y-109103808D01*
X116626837Y-109080223D01*
X116612452Y-109053311D01*
X116603595Y-109024116D01*
X116600000Y-108987610D01*
X116600000Y-108437390D01*
X116603595Y-108400884D01*
X116612452Y-108371689D01*
X116626837Y-108344777D01*
X116646192Y-108321192D01*
X116669777Y-108301837D01*
X116696689Y-108287452D01*
X116725884Y-108278595D01*
X116762390Y-108275000D01*
X117387610Y-108275000D01*
X117424116Y-108278595D01*
X117424116Y-108278595D01*
G37*
G36*
X119649116Y-107403595D02*
G01*
X119678311Y-107412452D01*
X119705223Y-107426837D01*
X119728808Y-107446192D01*
X119748163Y-107469777D01*
X119762548Y-107496689D01*
X119771405Y-107525884D01*
X119775000Y-107562390D01*
X119775000Y-108112610D01*
X119771405Y-108149116D01*
X119762548Y-108178311D01*
X119748163Y-108205223D01*
X119728808Y-108228808D01*
X119705223Y-108248163D01*
X119678311Y-108262548D01*
X119649116Y-108271405D01*
X119612610Y-108275000D01*
X118987390Y-108275000D01*
X118950884Y-108271405D01*
X118921689Y-108262548D01*
X118894777Y-108248163D01*
X118871192Y-108228808D01*
X118851837Y-108205223D01*
X118837452Y-108178311D01*
X118828595Y-108149116D01*
X118825000Y-108112610D01*
X118825000Y-107562390D01*
X118828595Y-107525884D01*
X118837452Y-107496689D01*
X118851837Y-107469777D01*
X118871192Y-107446192D01*
X118894777Y-107426837D01*
X118921689Y-107412452D01*
X118950884Y-107403595D01*
X118987390Y-107400000D01*
X119612610Y-107400000D01*
X119649116Y-107403595D01*
X119649116Y-107403595D01*
G37*
G36*
X109295000Y-108150000D02*
G01*
X108695000Y-108150000D01*
X108695000Y-106650000D01*
X109295000Y-106650000D01*
X109295000Y-108150000D01*
X109295000Y-108150000D01*
G37*
G36*
X115645000Y-108150000D02*
G01*
X115045000Y-108150000D01*
X115045000Y-106650000D01*
X115645000Y-106650000D01*
X115645000Y-108150000D01*
X115645000Y-108150000D01*
G37*
G36*
X114375000Y-108150000D02*
G01*
X113775000Y-108150000D01*
X113775000Y-106650000D01*
X114375000Y-106650000D01*
X114375000Y-108150000D01*
X114375000Y-108150000D01*
G37*
G36*
X113105000Y-108150000D02*
G01*
X112505000Y-108150000D01*
X112505000Y-106650000D01*
X113105000Y-106650000D01*
X113105000Y-108150000D01*
X113105000Y-108150000D01*
G37*
G36*
X111835000Y-108150000D02*
G01*
X111235000Y-108150000D01*
X111235000Y-106650000D01*
X111835000Y-106650000D01*
X111835000Y-108150000D01*
X111835000Y-108150000D01*
G37*
G36*
X110565000Y-108150000D02*
G01*
X109965000Y-108150000D01*
X109965000Y-106650000D01*
X110565000Y-106650000D01*
X110565000Y-108150000D01*
X110565000Y-108150000D01*
G37*
G36*
X106755000Y-108150000D02*
G01*
X106155000Y-108150000D01*
X106155000Y-106650000D01*
X106755000Y-106650000D01*
X106755000Y-108150000D01*
X106755000Y-108150000D01*
G37*
G36*
X108025000Y-108150000D02*
G01*
X107425000Y-108150000D01*
X107425000Y-106650000D01*
X108025000Y-106650000D01*
X108025000Y-108150000D01*
X108025000Y-108150000D01*
G37*
G36*
X127725000Y-107775000D02*
G01*
X126125000Y-107775000D01*
X126125000Y-105175000D01*
X127725000Y-105175000D01*
X127725000Y-107775000D01*
X127725000Y-107775000D01*
G37*
G36*
X104999116Y-106828595D02*
G01*
X105028311Y-106837452D01*
X105055223Y-106851837D01*
X105078808Y-106871192D01*
X105098163Y-106894777D01*
X105112548Y-106921689D01*
X105121405Y-106950884D01*
X105125000Y-106987390D01*
X105125000Y-107537610D01*
X105121405Y-107574116D01*
X105112548Y-107603311D01*
X105098163Y-107630223D01*
X105078808Y-107653808D01*
X105055223Y-107673163D01*
X105028311Y-107687548D01*
X104999116Y-107696405D01*
X104962610Y-107700000D01*
X104337390Y-107700000D01*
X104300884Y-107696405D01*
X104271689Y-107687548D01*
X104244777Y-107673163D01*
X104221192Y-107653808D01*
X104201837Y-107630223D01*
X104187452Y-107603311D01*
X104178595Y-107574116D01*
X104175000Y-107537610D01*
X104175000Y-106987390D01*
X104178595Y-106950884D01*
X104187452Y-106921689D01*
X104201837Y-106894777D01*
X104221192Y-106871192D01*
X104244777Y-106851837D01*
X104271689Y-106837452D01*
X104300884Y-106828595D01*
X104337390Y-106825000D01*
X104962610Y-106825000D01*
X104999116Y-106828595D01*
X104999116Y-106828595D01*
G37*
G36*
X130525000Y-107700000D02*
G01*
X129325000Y-107700000D01*
X129325000Y-106800000D01*
X130525000Y-106800000D01*
X130525000Y-107700000D01*
X130525000Y-107700000D01*
G37*
G36*
X117424116Y-106703595D02*
G01*
X117453311Y-106712452D01*
X117480223Y-106726837D01*
X117503808Y-106746192D01*
X117523163Y-106769777D01*
X117537548Y-106796689D01*
X117546405Y-106825884D01*
X117550000Y-106862390D01*
X117550000Y-107412610D01*
X117546405Y-107449116D01*
X117537548Y-107478311D01*
X117523163Y-107505223D01*
X117503808Y-107528808D01*
X117480223Y-107548163D01*
X117453311Y-107562548D01*
X117424116Y-107571405D01*
X117387610Y-107575000D01*
X116762390Y-107575000D01*
X116725884Y-107571405D01*
X116696689Y-107562548D01*
X116669777Y-107548163D01*
X116646192Y-107528808D01*
X116626837Y-107505223D01*
X116612452Y-107478311D01*
X116603595Y-107449116D01*
X116600000Y-107412610D01*
X116600000Y-106862390D01*
X116603595Y-106825884D01*
X116612452Y-106796689D01*
X116626837Y-106769777D01*
X116646192Y-106746192D01*
X116669777Y-106726837D01*
X116696689Y-106712452D01*
X116725884Y-106703595D01*
X116762390Y-106700000D01*
X117387610Y-106700000D01*
X117424116Y-106703595D01*
X117424116Y-106703595D01*
G37*
G36*
X102500000Y-107250000D02*
G01*
X101700000Y-107250000D01*
X101700000Y-106350000D01*
X102500000Y-106350000D01*
X102500000Y-107250000D01*
X102500000Y-107250000D01*
G37*
G36*
X120675000Y-103052254D02*
G01*
X120677402Y-103076640D01*
X120684515Y-103100089D01*
X120697596Y-103123936D01*
X121230469Y-103885183D01*
X121246421Y-103903784D01*
X121265695Y-103918915D01*
X121276476Y-103924380D01*
X121277402Y-103933783D01*
X121284515Y-103957232D01*
X121297596Y-103981079D01*
X121305684Y-103992633D01*
X121296066Y-104004353D01*
X121284515Y-104025964D01*
X121277402Y-104049413D01*
X121275000Y-104073799D01*
X121275000Y-105642001D01*
X121277402Y-105666387D01*
X121284515Y-105689836D01*
X121296066Y-105711447D01*
X121305823Y-105723336D01*
X121297879Y-105734589D01*
X121285778Y-105755897D01*
X121278067Y-105779156D01*
X121276653Y-105791844D01*
X121262206Y-105799566D01*
X121243264Y-105815111D01*
X121229532Y-105831414D01*
X120675000Y-106617000D01*
X119675000Y-106617000D01*
X119120468Y-105831414D01*
X119104443Y-105812877D01*
X119085109Y-105797822D01*
X119073557Y-105792022D01*
X119072598Y-105782288D01*
X119065485Y-105758839D01*
X119052121Y-105734589D01*
X119044177Y-105723336D01*
X119053934Y-105711447D01*
X119065485Y-105689836D01*
X119072598Y-105666387D01*
X119075000Y-105642001D01*
X119075000Y-104073799D01*
X119072598Y-104049413D01*
X119065485Y-104025964D01*
X119053934Y-104004353D01*
X119044316Y-103992633D01*
X119052404Y-103981079D01*
X119064421Y-103959724D01*
X119072041Y-103936435D01*
X119073347Y-103924504D01*
X119086574Y-103917434D01*
X119105516Y-103901889D01*
X119119531Y-103885183D01*
X119652404Y-103123936D01*
X119664421Y-103102581D01*
X119672041Y-103079292D01*
X119675000Y-103052254D01*
X119675000Y-101291500D01*
X120675000Y-101291500D01*
X120675000Y-103052254D01*
X120675000Y-103052254D01*
G37*
G36*
X104999116Y-105318595D02*
G01*
X105028311Y-105327452D01*
X105055223Y-105341837D01*
X105078808Y-105361192D01*
X105098163Y-105384777D01*
X105112548Y-105411689D01*
X105121405Y-105440884D01*
X105125000Y-105477390D01*
X105125000Y-106027610D01*
X105121405Y-106064116D01*
X105112548Y-106093311D01*
X105098163Y-106120223D01*
X105078808Y-106143808D01*
X105055223Y-106163163D01*
X105028311Y-106177548D01*
X104999116Y-106186405D01*
X104962610Y-106190000D01*
X104337390Y-106190000D01*
X104300884Y-106186405D01*
X104271689Y-106177548D01*
X104244777Y-106163163D01*
X104221192Y-106143808D01*
X104201837Y-106120223D01*
X104187452Y-106093311D01*
X104178595Y-106064116D01*
X104175000Y-106027610D01*
X104175000Y-105477390D01*
X104178595Y-105440884D01*
X104187452Y-105411689D01*
X104201837Y-105384777D01*
X104221192Y-105361192D01*
X104244777Y-105341837D01*
X104271689Y-105327452D01*
X104300884Y-105318595D01*
X104337390Y-105315000D01*
X104962610Y-105315000D01*
X104999116Y-105318595D01*
X104999116Y-105318595D01*
G37*
G36*
X130928991Y-105204075D02*
G01*
X130962879Y-105214355D01*
X130994112Y-105231050D01*
X131021486Y-105253514D01*
X131043950Y-105280888D01*
X131060645Y-105312121D01*
X131070925Y-105346009D01*
X131075000Y-105387388D01*
X131075000Y-105987612D01*
X131070925Y-106028991D01*
X131060645Y-106062879D01*
X131043950Y-106094112D01*
X131021486Y-106121486D01*
X130994112Y-106143950D01*
X130962879Y-106160645D01*
X130928991Y-106170925D01*
X130887612Y-106175000D01*
X129862388Y-106175000D01*
X129821009Y-106170925D01*
X129787121Y-106160645D01*
X129755888Y-106143950D01*
X129728514Y-106121486D01*
X129706050Y-106094112D01*
X129689355Y-106062879D01*
X129679075Y-106028991D01*
X129675000Y-105987612D01*
X129675000Y-105387388D01*
X129679075Y-105346009D01*
X129689355Y-105312121D01*
X129706050Y-105280888D01*
X129728514Y-105253514D01*
X129755888Y-105231050D01*
X129787121Y-105214355D01*
X129821009Y-105204075D01*
X129862388Y-105200000D01*
X130887612Y-105200000D01*
X130928991Y-105204075D01*
X130928991Y-105204075D01*
G37*
G36*
X134830000Y-105975000D02*
G01*
X133770000Y-105975000D01*
X133770000Y-105325000D01*
X134830000Y-105325000D01*
X134830000Y-105975000D01*
X134830000Y-105975000D01*
G37*
G36*
X132630000Y-105975000D02*
G01*
X131570000Y-105975000D01*
X131570000Y-105325000D01*
X132630000Y-105325000D01*
X132630000Y-105975000D01*
X132630000Y-105975000D01*
G37*
G36*
X102500000Y-105750000D02*
G01*
X101700000Y-105750000D01*
X101700000Y-104850000D01*
X102500000Y-104850000D01*
X102500000Y-105750000D01*
X102500000Y-105750000D01*
G37*
G36*
X117199116Y-104478595D02*
G01*
X117228311Y-104487452D01*
X117255223Y-104501837D01*
X117278808Y-104521192D01*
X117298163Y-104544777D01*
X117312548Y-104571689D01*
X117321405Y-104600884D01*
X117325000Y-104637390D01*
X117325000Y-105187610D01*
X117321405Y-105224116D01*
X117312548Y-105253311D01*
X117298163Y-105280223D01*
X117278808Y-105303808D01*
X117255223Y-105323163D01*
X117228311Y-105337548D01*
X117199116Y-105346405D01*
X117162610Y-105350000D01*
X116537390Y-105350000D01*
X116500884Y-105346405D01*
X116471689Y-105337548D01*
X116444777Y-105323163D01*
X116421192Y-105303808D01*
X116401837Y-105280223D01*
X116387452Y-105253311D01*
X116378595Y-105224116D01*
X116375000Y-105187610D01*
X116375000Y-104637390D01*
X116378595Y-104600884D01*
X116387452Y-104571689D01*
X116401837Y-104544777D01*
X116421192Y-104521192D01*
X116444777Y-104501837D01*
X116471689Y-104487452D01*
X116500884Y-104478595D01*
X116537390Y-104475000D01*
X117162610Y-104475000D01*
X117199116Y-104478595D01*
X117199116Y-104478595D01*
G37*
G36*
X132630000Y-105025000D02*
G01*
X131570000Y-105025000D01*
X131570000Y-104375000D01*
X132630000Y-104375000D01*
X132630000Y-105025000D01*
X132630000Y-105025000D01*
G37*
G36*
X134830000Y-105025000D02*
G01*
X133770000Y-105025000D01*
X133770000Y-104375000D01*
X134830000Y-104375000D01*
X134830000Y-105025000D01*
X134830000Y-105025000D01*
G37*
G36*
X104999116Y-103743595D02*
G01*
X105028311Y-103752452D01*
X105055223Y-103766837D01*
X105078808Y-103786192D01*
X105098163Y-103809777D01*
X105112548Y-103836689D01*
X105121405Y-103865884D01*
X105125000Y-103902390D01*
X105125000Y-104452610D01*
X105121405Y-104489116D01*
X105112548Y-104518311D01*
X105098163Y-104545223D01*
X105078808Y-104568808D01*
X105055223Y-104588163D01*
X105028311Y-104602548D01*
X104999116Y-104611405D01*
X104962610Y-104615000D01*
X104337390Y-104615000D01*
X104300884Y-104611405D01*
X104271689Y-104602548D01*
X104244777Y-104588163D01*
X104221192Y-104568808D01*
X104201837Y-104545223D01*
X104187452Y-104518311D01*
X104178595Y-104489116D01*
X104175000Y-104452610D01*
X104175000Y-103902390D01*
X104178595Y-103865884D01*
X104187452Y-103836689D01*
X104201837Y-103809777D01*
X104221192Y-103786192D01*
X104244777Y-103766837D01*
X104271689Y-103752452D01*
X104300884Y-103743595D01*
X104337390Y-103740000D01*
X104962610Y-103740000D01*
X104999116Y-103743595D01*
X104999116Y-103743595D01*
G37*
G36*
X130928991Y-103329075D02*
G01*
X130962879Y-103339355D01*
X130994112Y-103356050D01*
X131021486Y-103378514D01*
X131043950Y-103405888D01*
X131060645Y-103437121D01*
X131070925Y-103471009D01*
X131075000Y-103512388D01*
X131075000Y-104112612D01*
X131070925Y-104153991D01*
X131060645Y-104187879D01*
X131043950Y-104219112D01*
X131021486Y-104246486D01*
X130994112Y-104268950D01*
X130962879Y-104285645D01*
X130928991Y-104295925D01*
X130887612Y-104300000D01*
X129862388Y-104300000D01*
X129821009Y-104295925D01*
X129787121Y-104285645D01*
X129755888Y-104268950D01*
X129728514Y-104246486D01*
X129706050Y-104219112D01*
X129689355Y-104187879D01*
X129679075Y-104153991D01*
X129675000Y-104112612D01*
X129675000Y-103512388D01*
X129679075Y-103471009D01*
X129689355Y-103437121D01*
X129706050Y-103405888D01*
X129728514Y-103378514D01*
X129755888Y-103356050D01*
X129787121Y-103339355D01*
X129821009Y-103329075D01*
X129862388Y-103325000D01*
X130887612Y-103325000D01*
X130928991Y-103329075D01*
X130928991Y-103329075D01*
G37*
G36*
X127725000Y-104175000D02*
G01*
X126125000Y-104175000D01*
X126125000Y-101575000D01*
X127725000Y-101575000D01*
X127725000Y-104175000D01*
X127725000Y-104175000D01*
G37*
G36*
X134830000Y-104075000D02*
G01*
X133770000Y-104075000D01*
X133770000Y-103425000D01*
X134830000Y-103425000D01*
X134830000Y-104075000D01*
X134830000Y-104075000D01*
G37*
G36*
X132630000Y-104075000D02*
G01*
X131570000Y-104075000D01*
X131570000Y-103425000D01*
X132630000Y-103425000D01*
X132630000Y-104075000D01*
X132630000Y-104075000D01*
G37*
G36*
X123924116Y-102903595D02*
G01*
X123953311Y-102912452D01*
X123980223Y-102926837D01*
X124003808Y-102946192D01*
X124023163Y-102969777D01*
X124037548Y-102996689D01*
X124046405Y-103025884D01*
X124050000Y-103062390D01*
X124050000Y-103612610D01*
X124046405Y-103649116D01*
X124037548Y-103678311D01*
X124023163Y-103705223D01*
X124003808Y-103728808D01*
X123980223Y-103748163D01*
X123953311Y-103762548D01*
X123924116Y-103771405D01*
X123887610Y-103775000D01*
X123262390Y-103775000D01*
X123225884Y-103771405D01*
X123196689Y-103762548D01*
X123169777Y-103748163D01*
X123146192Y-103728808D01*
X123126837Y-103705223D01*
X123112452Y-103678311D01*
X123103595Y-103649116D01*
X123100000Y-103612610D01*
X123100000Y-103062390D01*
X123103595Y-103025884D01*
X123112452Y-102996689D01*
X123126837Y-102969777D01*
X123146192Y-102946192D01*
X123169777Y-102926837D01*
X123196689Y-102912452D01*
X123225884Y-102903595D01*
X123262390Y-102900000D01*
X123887610Y-102900000D01*
X123924116Y-102903595D01*
X123924116Y-102903595D01*
G37*
G36*
X117199116Y-102903595D02*
G01*
X117228311Y-102912452D01*
X117255223Y-102926837D01*
X117278808Y-102946192D01*
X117298163Y-102969777D01*
X117312548Y-102996689D01*
X117321405Y-103025884D01*
X117325000Y-103062390D01*
X117325000Y-103612610D01*
X117321405Y-103649116D01*
X117312548Y-103678311D01*
X117298163Y-103705223D01*
X117278808Y-103728808D01*
X117255223Y-103748163D01*
X117228311Y-103762548D01*
X117199116Y-103771405D01*
X117162610Y-103775000D01*
X116537390Y-103775000D01*
X116500884Y-103771405D01*
X116471689Y-103762548D01*
X116444777Y-103748163D01*
X116421192Y-103728808D01*
X116401837Y-103705223D01*
X116387452Y-103678311D01*
X116378595Y-103649116D01*
X116375000Y-103612610D01*
X116375000Y-103062390D01*
X116378595Y-103025884D01*
X116387452Y-102996689D01*
X116401837Y-102969777D01*
X116421192Y-102946192D01*
X116444777Y-102926837D01*
X116471689Y-102912452D01*
X116500884Y-102903595D01*
X116537390Y-102900000D01*
X117162610Y-102900000D01*
X117199116Y-102903595D01*
X117199116Y-102903595D01*
G37*
G36*
X103450000Y-103750000D02*
G01*
X102650000Y-103750000D01*
X102650000Y-102850000D01*
X103450000Y-102850000D01*
X103450000Y-103750000D01*
X103450000Y-103750000D01*
G37*
G36*
X101550000Y-103750000D02*
G01*
X100750000Y-103750000D01*
X100750000Y-102850000D01*
X101550000Y-102850000D01*
X101550000Y-103750000D01*
X101550000Y-103750000D01*
G37*
G36*
X119175000Y-102795000D02*
G01*
X118175000Y-102795000D01*
X118175000Y-101295000D01*
X119175000Y-101295000D01*
X119175000Y-102795000D01*
X119175000Y-102795000D01*
G37*
G36*
X122175000Y-102795000D02*
G01*
X121175000Y-102795000D01*
X121175000Y-101295000D01*
X122175000Y-101295000D01*
X122175000Y-102795000D01*
X122175000Y-102795000D01*
G37*
G36*
X134566491Y-101229075D02*
G01*
X134600379Y-101239355D01*
X134631612Y-101256050D01*
X134658986Y-101278514D01*
X134681450Y-101305888D01*
X134698145Y-101337121D01*
X134708425Y-101371009D01*
X134712500Y-101412388D01*
X134712500Y-102437612D01*
X134708425Y-102478991D01*
X134698145Y-102512879D01*
X134681450Y-102544112D01*
X134658986Y-102571486D01*
X134631612Y-102593950D01*
X134600379Y-102610645D01*
X134566491Y-102620925D01*
X134525112Y-102625000D01*
X133924888Y-102625000D01*
X133883509Y-102620925D01*
X133849621Y-102610645D01*
X133818388Y-102593950D01*
X133791014Y-102571486D01*
X133768550Y-102544112D01*
X133751855Y-102512879D01*
X133741575Y-102478991D01*
X133737500Y-102437612D01*
X133737500Y-101412388D01*
X133741575Y-101371009D01*
X133751855Y-101337121D01*
X133768550Y-101305888D01*
X133791014Y-101278514D01*
X133818388Y-101256050D01*
X133849621Y-101239355D01*
X133883509Y-101229075D01*
X133924888Y-101225000D01*
X134525112Y-101225000D01*
X134566491Y-101229075D01*
X134566491Y-101229075D01*
G37*
G36*
X132691491Y-101229075D02*
G01*
X132725379Y-101239355D01*
X132756612Y-101256050D01*
X132783986Y-101278514D01*
X132806450Y-101305888D01*
X132823145Y-101337121D01*
X132833425Y-101371009D01*
X132837500Y-101412388D01*
X132837500Y-102437612D01*
X132833425Y-102478991D01*
X132823145Y-102512879D01*
X132806450Y-102544112D01*
X132783986Y-102571486D01*
X132756612Y-102593950D01*
X132725379Y-102610645D01*
X132691491Y-102620925D01*
X132650112Y-102625000D01*
X132049888Y-102625000D01*
X132008509Y-102620925D01*
X131974621Y-102610645D01*
X131943388Y-102593950D01*
X131916014Y-102571486D01*
X131893550Y-102544112D01*
X131876855Y-102512879D01*
X131866575Y-102478991D01*
X131862500Y-102437612D01*
X131862500Y-101412388D01*
X131866575Y-101371009D01*
X131876855Y-101337121D01*
X131893550Y-101305888D01*
X131916014Y-101278514D01*
X131943388Y-101256050D01*
X131974621Y-101239355D01*
X132008509Y-101229075D01*
X132049888Y-101225000D01*
X132650112Y-101225000D01*
X132691491Y-101229075D01*
X132691491Y-101229075D01*
G37*
G36*
X101624116Y-101378595D02*
G01*
X101653311Y-101387452D01*
X101680223Y-101401837D01*
X101703808Y-101421192D01*
X101723163Y-101444777D01*
X101737548Y-101471689D01*
X101746405Y-101500884D01*
X101750000Y-101537390D01*
X101750000Y-102162610D01*
X101746405Y-102199116D01*
X101737548Y-102228311D01*
X101723163Y-102255223D01*
X101703808Y-102278808D01*
X101680223Y-102298163D01*
X101653311Y-102312548D01*
X101624116Y-102321405D01*
X101587610Y-102325000D01*
X101037390Y-102325000D01*
X101000884Y-102321405D01*
X100971689Y-102312548D01*
X100944777Y-102298163D01*
X100921192Y-102278808D01*
X100901837Y-102255223D01*
X100887452Y-102228311D01*
X100878595Y-102199116D01*
X100875000Y-102162610D01*
X100875000Y-101537390D01*
X100878595Y-101500884D01*
X100887452Y-101471689D01*
X100901837Y-101444777D01*
X100921192Y-101421192D01*
X100944777Y-101401837D01*
X100971689Y-101387452D01*
X101000884Y-101378595D01*
X101037390Y-101375000D01*
X101587610Y-101375000D01*
X101624116Y-101378595D01*
X101624116Y-101378595D01*
G37*
G36*
X103199116Y-101378595D02*
G01*
X103228311Y-101387452D01*
X103255223Y-101401837D01*
X103278808Y-101421192D01*
X103298163Y-101444777D01*
X103312548Y-101471689D01*
X103321405Y-101500884D01*
X103325000Y-101537390D01*
X103325000Y-102162610D01*
X103321405Y-102199116D01*
X103312548Y-102228311D01*
X103298163Y-102255223D01*
X103278808Y-102278808D01*
X103255223Y-102298163D01*
X103228311Y-102312548D01*
X103199116Y-102321405D01*
X103162610Y-102325000D01*
X102612390Y-102325000D01*
X102575884Y-102321405D01*
X102546689Y-102312548D01*
X102519777Y-102298163D01*
X102496192Y-102278808D01*
X102476837Y-102255223D01*
X102462452Y-102228311D01*
X102453595Y-102199116D01*
X102450000Y-102162610D01*
X102450000Y-101537390D01*
X102453595Y-101500884D01*
X102462452Y-101471689D01*
X102476837Y-101444777D01*
X102496192Y-101421192D01*
X102519777Y-101401837D01*
X102546689Y-101387452D01*
X102575884Y-101378595D01*
X102612390Y-101375000D01*
X103162610Y-101375000D01*
X103199116Y-101378595D01*
X103199116Y-101378595D01*
G37*
G36*
X123924116Y-101328595D02*
G01*
X123953311Y-101337452D01*
X123980223Y-101351837D01*
X124003808Y-101371192D01*
X124023163Y-101394777D01*
X124037548Y-101421689D01*
X124046405Y-101450884D01*
X124050000Y-101487390D01*
X124050000Y-102037610D01*
X124046405Y-102074116D01*
X124037548Y-102103311D01*
X124023163Y-102130223D01*
X124003808Y-102153808D01*
X123980223Y-102173163D01*
X123953311Y-102187548D01*
X123924116Y-102196405D01*
X123887610Y-102200000D01*
X123262390Y-102200000D01*
X123225884Y-102196405D01*
X123196689Y-102187548D01*
X123169777Y-102173163D01*
X123146192Y-102153808D01*
X123126837Y-102130223D01*
X123112452Y-102103311D01*
X123103595Y-102074116D01*
X123100000Y-102037610D01*
X123100000Y-101487390D01*
X123103595Y-101450884D01*
X123112452Y-101421689D01*
X123126837Y-101394777D01*
X123146192Y-101371192D01*
X123169777Y-101351837D01*
X123196689Y-101337452D01*
X123225884Y-101328595D01*
X123262390Y-101325000D01*
X123887610Y-101325000D01*
X123924116Y-101328595D01*
X123924116Y-101328595D01*
G37*
M02*
