G04 #@! TF.GenerationSoftware,KiCad,Pcbnew,5.1.0*
G04 #@! TF.CreationDate,2019-05-06T20:06:38+02:00*
G04 #@! TF.ProjectId,printer-otter,7072696e-7465-4722-9d6f-747465722e6b,rev?*
G04 #@! TF.SameCoordinates,Original*
G04 #@! TF.FileFunction,Legend,Top*
G04 #@! TF.FilePolarity,Positive*
%FSLAX46Y46*%
G04 Gerber Fmt 4.6, Leading zero omitted, Abs format (unit mm)*
G04 Created by KiCad (PCBNEW 5.1.0) date 2019-05-06 20:06:38*
%MOMM*%
%LPD*%
G04 APERTURE LIST*
%ADD10C,0.100000*%
%ADD11C,0.140000*%
%ADD12C,0.250000*%
%ADD13C,0.120000*%
%ADD14C,0.150000*%
G04 APERTURE END LIST*
D10*
X136000000Y-113625000D02*
X136000000Y-100500000D01*
X135500000Y-100000000D02*
X121750000Y-100000000D01*
X130586904Y-115646428D02*
X129786904Y-115646428D01*
X129786904Y-115455952D01*
X129825000Y-115341666D01*
X129901190Y-115265476D01*
X129977380Y-115227380D01*
X130129761Y-115189285D01*
X130244047Y-115189285D01*
X130396428Y-115227380D01*
X130472619Y-115265476D01*
X130548809Y-115341666D01*
X130586904Y-115455952D01*
X130586904Y-115646428D01*
X130167857Y-114579761D02*
X130167857Y-114846428D01*
X130586904Y-114846428D02*
X129786904Y-114846428D01*
X129786904Y-114465476D01*
X129786904Y-114160714D02*
X130434523Y-114160714D01*
X130510714Y-114122619D01*
X130548809Y-114084523D01*
X130586904Y-114008333D01*
X130586904Y-113855952D01*
X130548809Y-113779761D01*
X130510714Y-113741666D01*
X130434523Y-113703571D01*
X129786904Y-113703571D01*
D11*
X132552619Y-125840476D02*
X131452619Y-125840476D01*
X131819285Y-125473809D02*
X131819285Y-125054761D01*
X131452619Y-125316666D02*
X132395476Y-125316666D01*
X132500238Y-125264285D01*
X132552619Y-125159523D01*
X132552619Y-125054761D01*
X131819285Y-123850000D02*
X132919285Y-123850000D01*
X131871666Y-123850000D02*
X131819285Y-123745238D01*
X131819285Y-123535714D01*
X131871666Y-123430952D01*
X131924047Y-123378571D01*
X132028809Y-123326190D01*
X132343095Y-123326190D01*
X132447857Y-123378571D01*
X132500238Y-123430952D01*
X132552619Y-123535714D01*
X132552619Y-123745238D01*
X132500238Y-123850000D01*
X132552619Y-122854761D02*
X131819285Y-122854761D01*
X132028809Y-122854761D02*
X131924047Y-122802380D01*
X131871666Y-122750000D01*
X131819285Y-122645238D01*
X131819285Y-122540476D01*
X132552619Y-122173809D02*
X131819285Y-122173809D01*
X131452619Y-122173809D02*
X131505000Y-122226190D01*
X131557380Y-122173809D01*
X131505000Y-122121428D01*
X131452619Y-122173809D01*
X131557380Y-122173809D01*
X131819285Y-121650000D02*
X132552619Y-121650000D01*
X131924047Y-121650000D02*
X131871666Y-121597619D01*
X131819285Y-121492857D01*
X131819285Y-121335714D01*
X131871666Y-121230952D01*
X131976428Y-121178571D01*
X132552619Y-121178571D01*
X131819285Y-120811904D02*
X131819285Y-120392857D01*
X131452619Y-120654761D02*
X132395476Y-120654761D01*
X132500238Y-120602380D01*
X132552619Y-120497619D01*
X132552619Y-120392857D01*
X132500238Y-120078571D02*
X132552619Y-119973809D01*
X132552619Y-119764285D01*
X132500238Y-119659523D01*
X132395476Y-119607142D01*
X132343095Y-119607142D01*
X132238333Y-119659523D01*
X132185952Y-119764285D01*
X132185952Y-119921428D01*
X132133571Y-120026190D01*
X132028809Y-120078571D01*
X131976428Y-120078571D01*
X131871666Y-120026190D01*
X131819285Y-119921428D01*
X131819285Y-119764285D01*
X131871666Y-119659523D01*
X133242619Y-124557142D02*
X133242619Y-124347619D01*
X133295000Y-124242857D01*
X133399761Y-124138095D01*
X133609285Y-124085714D01*
X133975952Y-124085714D01*
X134185476Y-124138095D01*
X134290238Y-124242857D01*
X134342619Y-124347619D01*
X134342619Y-124557142D01*
X134290238Y-124661904D01*
X134185476Y-124766666D01*
X133975952Y-124819047D01*
X133609285Y-124819047D01*
X133399761Y-124766666D01*
X133295000Y-124661904D01*
X133242619Y-124557142D01*
X133609285Y-123771428D02*
X133609285Y-123352380D01*
X133242619Y-123614285D02*
X134185476Y-123614285D01*
X134290238Y-123561904D01*
X134342619Y-123457142D01*
X134342619Y-123352380D01*
X133609285Y-123142857D02*
X133609285Y-122723809D01*
X133242619Y-122985714D02*
X134185476Y-122985714D01*
X134290238Y-122933333D01*
X134342619Y-122828571D01*
X134342619Y-122723809D01*
X134290238Y-121938095D02*
X134342619Y-122042857D01*
X134342619Y-122252380D01*
X134290238Y-122357142D01*
X134185476Y-122409523D01*
X133766428Y-122409523D01*
X133661666Y-122357142D01*
X133609285Y-122252380D01*
X133609285Y-122042857D01*
X133661666Y-121938095D01*
X133766428Y-121885714D01*
X133871190Y-121885714D01*
X133975952Y-122409523D01*
X134342619Y-121414285D02*
X133609285Y-121414285D01*
X133818809Y-121414285D02*
X133714047Y-121361904D01*
X133661666Y-121309523D01*
X133609285Y-121204761D01*
X133609285Y-121100000D01*
X134237857Y-120733333D02*
X134290238Y-120680952D01*
X134342619Y-120733333D01*
X134290238Y-120785714D01*
X134237857Y-120733333D01*
X134342619Y-120733333D01*
X133923571Y-120733333D02*
X133295000Y-120785714D01*
X133242619Y-120733333D01*
X133295000Y-120680952D01*
X133923571Y-120733333D01*
X133242619Y-120733333D01*
D12*
X107211904Y-100898809D02*
X107516666Y-100898809D01*
X107669047Y-100975000D01*
X107821428Y-101127380D01*
X107897619Y-101432142D01*
X107897619Y-101965476D01*
X107821428Y-102270238D01*
X107669047Y-102422619D01*
X107516666Y-102498809D01*
X107211904Y-102498809D01*
X107059523Y-102422619D01*
X106907142Y-102270238D01*
X106830952Y-101965476D01*
X106830952Y-101432142D01*
X106907142Y-101127380D01*
X107059523Y-100975000D01*
X107211904Y-100898809D01*
X108354761Y-101432142D02*
X108964285Y-101432142D01*
X108583333Y-100898809D02*
X108583333Y-102270238D01*
X108659523Y-102422619D01*
X108811904Y-102498809D01*
X108964285Y-102498809D01*
X109269047Y-101432142D02*
X109878571Y-101432142D01*
X109497619Y-100898809D02*
X109497619Y-102270238D01*
X109573809Y-102422619D01*
X109726190Y-102498809D01*
X109878571Y-102498809D01*
X111021428Y-102422619D02*
X110869047Y-102498809D01*
X110564285Y-102498809D01*
X110411904Y-102422619D01*
X110335714Y-102270238D01*
X110335714Y-101660714D01*
X110411904Y-101508333D01*
X110564285Y-101432142D01*
X110869047Y-101432142D01*
X111021428Y-101508333D01*
X111097619Y-101660714D01*
X111097619Y-101813095D01*
X110335714Y-101965476D01*
X111783333Y-102498809D02*
X111783333Y-101432142D01*
X111783333Y-101736904D02*
X111859523Y-101584523D01*
X111935714Y-101508333D01*
X112088095Y-101432142D01*
X112240476Y-101432142D01*
X112773809Y-101889285D02*
X113992857Y-101889285D01*
X106792857Y-105148809D02*
X106792857Y-103548809D01*
X107402380Y-103548809D01*
X107554761Y-103625000D01*
X107630952Y-103701190D01*
X107707142Y-103853571D01*
X107707142Y-104082142D01*
X107630952Y-104234523D01*
X107554761Y-104310714D01*
X107402380Y-104386904D01*
X106792857Y-104386904D01*
X108392857Y-105148809D02*
X108392857Y-104082142D01*
X108392857Y-104386904D02*
X108469047Y-104234523D01*
X108545238Y-104158333D01*
X108697619Y-104082142D01*
X108850000Y-104082142D01*
X109383333Y-105148809D02*
X109383333Y-104082142D01*
X109383333Y-103548809D02*
X109307142Y-103625000D01*
X109383333Y-103701190D01*
X109459523Y-103625000D01*
X109383333Y-103548809D01*
X109383333Y-103701190D01*
X110145238Y-104082142D02*
X110145238Y-105148809D01*
X110145238Y-104234523D02*
X110221428Y-104158333D01*
X110373809Y-104082142D01*
X110602380Y-104082142D01*
X110754761Y-104158333D01*
X110830952Y-104310714D01*
X110830952Y-105148809D01*
X111364285Y-104082142D02*
X111973809Y-104082142D01*
X111592857Y-103548809D02*
X111592857Y-104920238D01*
X111669047Y-105072619D01*
X111821428Y-105148809D01*
X111973809Y-105148809D01*
X113116666Y-105072619D02*
X112964285Y-105148809D01*
X112659523Y-105148809D01*
X112507142Y-105072619D01*
X112430952Y-104920238D01*
X112430952Y-104310714D01*
X112507142Y-104158333D01*
X112659523Y-104082142D01*
X112964285Y-104082142D01*
X113116666Y-104158333D01*
X113192857Y-104310714D01*
X113192857Y-104463095D01*
X112430952Y-104615476D01*
X113878571Y-105148809D02*
X113878571Y-104082142D01*
X113878571Y-104386904D02*
X113954761Y-104234523D01*
X114030952Y-104158333D01*
X114183333Y-104082142D01*
X114335714Y-104082142D01*
D10*
X120177380Y-124626190D02*
X119177380Y-124626190D01*
X119177380Y-124245238D01*
X119225000Y-124150000D01*
X119272619Y-124102380D01*
X119367857Y-124054761D01*
X119510714Y-124054761D01*
X119605952Y-124102380D01*
X119653571Y-124150000D01*
X119701190Y-124245238D01*
X119701190Y-124626190D01*
X120177380Y-123483333D02*
X120129761Y-123578571D01*
X120082142Y-123626190D01*
X119986904Y-123673809D01*
X119701190Y-123673809D01*
X119605952Y-123626190D01*
X119558333Y-123578571D01*
X119510714Y-123483333D01*
X119510714Y-123340476D01*
X119558333Y-123245238D01*
X119605952Y-123197619D01*
X119701190Y-123150000D01*
X119986904Y-123150000D01*
X120082142Y-123197619D01*
X120129761Y-123245238D01*
X120177380Y-123340476D01*
X120177380Y-123483333D01*
X119510714Y-122816666D02*
X120177380Y-122626190D01*
X119701190Y-122435714D01*
X120177380Y-122245238D01*
X119510714Y-122054761D01*
X120129761Y-121292857D02*
X120177380Y-121388095D01*
X120177380Y-121578571D01*
X120129761Y-121673809D01*
X120034523Y-121721428D01*
X119653571Y-121721428D01*
X119558333Y-121673809D01*
X119510714Y-121578571D01*
X119510714Y-121388095D01*
X119558333Y-121292857D01*
X119653571Y-121245238D01*
X119748809Y-121245238D01*
X119844047Y-121721428D01*
X120177380Y-120816666D02*
X119510714Y-120816666D01*
X119701190Y-120816666D02*
X119605952Y-120769047D01*
X119558333Y-120721428D01*
X119510714Y-120626190D01*
X119510714Y-120530952D01*
X118279761Y-124716666D02*
X118327380Y-124573809D01*
X118327380Y-124335714D01*
X118279761Y-124240476D01*
X118232142Y-124192857D01*
X118136904Y-124145238D01*
X118041666Y-124145238D01*
X117946428Y-124192857D01*
X117898809Y-124240476D01*
X117851190Y-124335714D01*
X117803571Y-124526190D01*
X117755952Y-124621428D01*
X117708333Y-124669047D01*
X117613095Y-124716666D01*
X117517857Y-124716666D01*
X117422619Y-124669047D01*
X117375000Y-124621428D01*
X117327380Y-124526190D01*
X117327380Y-124288095D01*
X117375000Y-124145238D01*
X117660714Y-123859523D02*
X117660714Y-123478571D01*
X117327380Y-123716666D02*
X118184523Y-123716666D01*
X118279761Y-123669047D01*
X118327380Y-123573809D01*
X118327380Y-123478571D01*
X118327380Y-122716666D02*
X117803571Y-122716666D01*
X117708333Y-122764285D01*
X117660714Y-122859523D01*
X117660714Y-123050000D01*
X117708333Y-123145238D01*
X118279761Y-122716666D02*
X118327380Y-122811904D01*
X118327380Y-123050000D01*
X118279761Y-123145238D01*
X118184523Y-123192857D01*
X118089285Y-123192857D01*
X117994047Y-123145238D01*
X117946428Y-123050000D01*
X117946428Y-122811904D01*
X117898809Y-122716666D01*
X117660714Y-122383333D02*
X117660714Y-122002380D01*
X117327380Y-122240476D02*
X118184523Y-122240476D01*
X118279761Y-122192857D01*
X118327380Y-122097619D01*
X118327380Y-122002380D01*
X117660714Y-121240476D02*
X118327380Y-121240476D01*
X117660714Y-121669047D02*
X118184523Y-121669047D01*
X118279761Y-121621428D01*
X118327380Y-121526190D01*
X118327380Y-121383333D01*
X118279761Y-121288095D01*
X118232142Y-121240476D01*
X118279761Y-120811904D02*
X118327380Y-120716666D01*
X118327380Y-120526190D01*
X118279761Y-120430952D01*
X118184523Y-120383333D01*
X118136904Y-120383333D01*
X118041666Y-120430952D01*
X117994047Y-120526190D01*
X117994047Y-120669047D01*
X117946428Y-120764285D01*
X117851190Y-120811904D01*
X117803571Y-120811904D01*
X117708333Y-120764285D01*
X117660714Y-120669047D01*
X117660714Y-120526190D01*
X117708333Y-120430952D01*
X100000000Y-100500000D02*
G75*
G02X100500000Y-100000000I500000J0D01*
G01*
X100500000Y-132000000D02*
G75*
G02X100000000Y-131500000I0J500000D01*
G01*
X136000000Y-131500000D02*
G75*
G02X135500000Y-132000000I-500000J0D01*
G01*
X135500000Y-100000000D02*
G75*
G02X136000000Y-100500000I0J-500000D01*
G01*
X135500000Y-100000000D02*
X135500000Y-100000000D01*
X136000000Y-131500000D02*
X136000000Y-115625000D01*
X100500000Y-132000000D02*
X135500000Y-132000000D01*
X100000000Y-100500000D02*
X100000000Y-131500000D01*
X104500000Y-100000000D02*
X100500000Y-100000000D01*
X107000000Y-100000000D02*
X104500000Y-100000000D01*
X110000000Y-100000000D02*
X112500000Y-100000000D01*
X113000000Y-100000000D02*
X112500000Y-100000000D01*
X110000000Y-100000000D02*
X107000000Y-100000000D01*
X121750000Y-100000000D02*
X113000000Y-100000000D01*
X136000000Y-115625000D02*
G75*
G02X136000000Y-113625000I1499999J1000000D01*
G01*
D13*
X133546078Y-101215000D02*
X133028922Y-101215000D01*
X133546078Y-102635000D02*
X133028922Y-102635000D01*
X129665000Y-105008578D02*
X129665000Y-104491422D01*
X131085000Y-105008578D02*
X131085000Y-104491422D01*
X129185000Y-102415000D02*
X127985000Y-102415000D01*
X124665000Y-102415000D02*
X125865000Y-102415000D01*
X124665000Y-105870563D02*
X124665000Y-102415000D01*
X129185000Y-105870563D02*
X129185000Y-102415000D01*
X128120563Y-106935000D02*
X127985000Y-106935000D01*
X125729437Y-106935000D02*
X125865000Y-106935000D01*
X125729437Y-106935000D02*
X124665000Y-105870563D01*
X128120563Y-106935000D02*
X129185000Y-105870563D01*
X125365000Y-107675000D02*
X125365000Y-107175000D01*
X125115000Y-107425000D02*
X125615000Y-107425000D01*
X124085000Y-102387221D02*
X124085000Y-102712779D01*
X123065000Y-102387221D02*
X123065000Y-102712779D01*
X116010000Y-116737779D02*
X116010000Y-116412221D01*
X114990000Y-116737779D02*
X114990000Y-116412221D01*
X125924721Y-111390000D02*
X126250279Y-111390000D01*
X125924721Y-112410000D02*
X126250279Y-112410000D01*
X123262779Y-120590000D02*
X122937221Y-120590000D01*
X123262779Y-121610000D02*
X122937221Y-121610000D01*
X117360000Y-103962221D02*
X117360000Y-104287779D01*
X116340000Y-103962221D02*
X116340000Y-104287779D01*
X118790000Y-108787779D02*
X118790000Y-108462221D01*
X119810000Y-108787779D02*
X119810000Y-108462221D01*
X107049721Y-125940000D02*
X107375279Y-125940000D01*
X107049721Y-126960000D02*
X107375279Y-126960000D01*
X107187221Y-117660000D02*
X107512779Y-117660000D01*
X107187221Y-116640000D02*
X107512779Y-116640000D01*
X117585000Y-107762221D02*
X117585000Y-108087779D01*
X116565000Y-107762221D02*
X116565000Y-108087779D01*
X113362779Y-114140000D02*
X113037221Y-114140000D01*
X113362779Y-115160000D02*
X113037221Y-115160000D01*
X117637221Y-110590000D02*
X117962779Y-110590000D01*
X117637221Y-111610000D02*
X117962779Y-111610000D01*
X123310000Y-125137221D02*
X123310000Y-125462779D01*
X122290000Y-125137221D02*
X122290000Y-125462779D01*
X130865000Y-114587221D02*
X130865000Y-114912779D01*
X131885000Y-114587221D02*
X131885000Y-114912779D01*
X125760000Y-121337221D02*
X125760000Y-121662779D01*
X124740000Y-121337221D02*
X124740000Y-121662779D01*
X127440000Y-109599721D02*
X127440000Y-109925279D01*
X128460000Y-109599721D02*
X128460000Y-109925279D01*
X130087221Y-111615000D02*
X130412779Y-111615000D01*
X130087221Y-112635000D02*
X130412779Y-112635000D01*
X102262779Y-101340000D02*
X101937221Y-101340000D01*
X102262779Y-102360000D02*
X101937221Y-102360000D01*
X104140000Y-105127779D02*
X104140000Y-104802221D01*
X105160000Y-105127779D02*
X105160000Y-104802221D01*
X105160000Y-108212779D02*
X105160000Y-107887221D01*
X104140000Y-108212779D02*
X104140000Y-107887221D01*
X121810000Y-124337221D02*
X121810000Y-124662779D01*
X120790000Y-124337221D02*
X120790000Y-124662779D01*
X101937221Y-130610000D02*
X102262779Y-130610000D01*
X101937221Y-129590000D02*
X102262779Y-129590000D01*
X105160000Y-126337221D02*
X105160000Y-126662779D01*
X104140000Y-126337221D02*
X104140000Y-126662779D01*
X104140000Y-123287221D02*
X104140000Y-123612779D01*
X105160000Y-123287221D02*
X105160000Y-123612779D01*
X124740000Y-124712779D02*
X124740000Y-124387221D01*
X125760000Y-124712779D02*
X125760000Y-124387221D01*
D14*
X127750000Y-118750000D02*
X127750000Y-118250000D01*
X127750000Y-127250000D02*
X127750000Y-126750000D01*
X130250000Y-127250000D02*
X132250000Y-127250000D01*
X132250000Y-118250000D02*
X130250000Y-118250000D01*
X134250000Y-118250000D02*
X135945000Y-118250000D01*
X135945000Y-127250000D02*
X134250000Y-127250000D01*
X135945000Y-118250000D02*
X135945000Y-127250000D01*
X105850000Y-123925000D02*
X105850000Y-125300000D01*
X115975000Y-123925000D02*
X115975000Y-119775000D01*
X105825000Y-123925000D02*
X105825000Y-119775000D01*
X115975000Y-123925000D02*
X115870000Y-123925000D01*
X115975000Y-119775000D02*
X115870000Y-119775000D01*
X105825000Y-119775000D02*
X105930000Y-119775000D01*
X105825000Y-123925000D02*
X105850000Y-123925000D01*
X115950000Y-108025000D02*
X115950000Y-106650000D01*
X105825000Y-108025000D02*
X105825000Y-112175000D01*
X115975000Y-108025000D02*
X115975000Y-112175000D01*
X105825000Y-108025000D02*
X105930000Y-108025000D01*
X105825000Y-112175000D02*
X105930000Y-112175000D01*
X115975000Y-112175000D02*
X115870000Y-112175000D01*
X115975000Y-108025000D02*
X115950000Y-108025000D01*
D13*
X100520000Y-105060000D02*
X100520000Y-103600000D01*
X103680000Y-105060000D02*
X103680000Y-102900000D01*
X103680000Y-105060000D02*
X102750000Y-105060000D01*
X100520000Y-105060000D02*
X101450000Y-105060000D01*
X130925000Y-106650000D02*
X130925000Y-110550000D01*
X128925000Y-106650000D02*
X128925000Y-110550000D01*
X130925000Y-106650000D02*
X128925000Y-106650000D01*
X131005000Y-128720000D02*
X131005000Y-130050000D01*
X129675000Y-128720000D02*
X131005000Y-128720000D01*
X128405000Y-128720000D02*
X128405000Y-131380000D01*
X128405000Y-131380000D02*
X118185000Y-131380000D01*
X128405000Y-128720000D02*
X118185000Y-128720000D01*
X118185000Y-128720000D02*
X118185000Y-131380000D01*
X104420000Y-131380000D02*
X104420000Y-130050000D01*
X105750000Y-131380000D02*
X104420000Y-131380000D01*
X107020000Y-131380000D02*
X107020000Y-128720000D01*
X107020000Y-128720000D02*
X117240000Y-128720000D01*
X107020000Y-131380000D02*
X117240000Y-131380000D01*
X117240000Y-131380000D02*
X117240000Y-128720000D01*
X135525000Y-112875000D02*
X135525000Y-116375000D01*
X132425000Y-116375000D02*
X132425000Y-112875000D01*
X136175000Y-115575000D02*
X135525000Y-115575000D01*
X136175000Y-113675000D02*
X136175000Y-115575000D01*
X135525000Y-113675000D02*
X136175000Y-113675000D01*
X135425000Y-106725000D02*
X131425000Y-106725000D01*
X135425000Y-110925000D02*
X131425000Y-110925000D01*
X120444465Y-127857756D02*
X120444465Y-125572756D01*
X118974465Y-127857756D02*
X120444465Y-127857756D01*
X118974465Y-125572756D02*
X118974465Y-127857756D01*
X118594463Y-127845257D02*
X118594463Y-125560257D01*
X117124463Y-127845257D02*
X118594463Y-127845257D01*
X117124463Y-125560257D02*
X117124463Y-127845257D01*
X117365000Y-112390000D02*
X116890000Y-112390000D01*
X124110000Y-119610000D02*
X124110000Y-119135000D01*
X123635000Y-119610000D02*
X124110000Y-119610000D01*
X116890000Y-119610000D02*
X116890000Y-119135000D01*
X117365000Y-119610000D02*
X116890000Y-119610000D01*
X124110000Y-112390000D02*
X124110000Y-112865000D01*
X123635000Y-112390000D02*
X124110000Y-112390000D01*
X103680000Y-107040000D02*
X103680000Y-108500000D01*
X100520000Y-107040000D02*
X100520000Y-109200000D01*
X100520000Y-107040000D02*
X101450000Y-107040000D01*
X103680000Y-107040000D02*
X102750000Y-107040000D01*
X103680000Y-126840000D02*
X103680000Y-128300000D01*
X100520000Y-126840000D02*
X100520000Y-129000000D01*
X100520000Y-126840000D02*
X101450000Y-126840000D01*
X103680000Y-126840000D02*
X102750000Y-126840000D01*
X100520000Y-124860000D02*
X100520000Y-123400000D01*
X103680000Y-124860000D02*
X103680000Y-122700000D01*
X103680000Y-124860000D02*
X102750000Y-124860000D01*
X100520000Y-124860000D02*
X101450000Y-124860000D01*
X134100000Y-103090000D02*
X131650000Y-103090000D01*
X132300000Y-106310000D02*
X134100000Y-106310000D01*
X125290000Y-114100000D02*
X125290000Y-116550000D01*
X128510000Y-115900000D02*
X128510000Y-114100000D01*
X122575000Y-105305000D02*
X121375000Y-105305000D01*
X122575000Y-101305000D02*
X122575000Y-105305000D01*
X117775000Y-105305000D02*
X117775000Y-102605000D01*
X118975000Y-105305000D02*
X117775000Y-105305000D01*
X120300000Y-106895000D02*
X121500000Y-106895000D01*
X120300000Y-110895000D02*
X120300000Y-106895000D01*
X125100000Y-106895000D02*
X125100000Y-109595000D01*
X123900000Y-106895000D02*
X125100000Y-106895000D01*
D14*
X100800000Y-112500000D02*
X100800000Y-119500000D01*
X104300000Y-110500000D02*
X103800000Y-110500000D01*
X104300000Y-112000000D02*
X104300000Y-110500000D01*
X104300000Y-121500000D02*
X103800000Y-121500000D01*
X104300000Y-120000000D02*
X104300000Y-121500000D01*
D10*
X130742857Y-101417857D02*
X130723809Y-101436904D01*
X130666666Y-101455952D01*
X130628571Y-101455952D01*
X130571428Y-101436904D01*
X130533333Y-101398809D01*
X130514285Y-101360714D01*
X130495238Y-101284523D01*
X130495238Y-101227380D01*
X130514285Y-101151190D01*
X130533333Y-101113095D01*
X130571428Y-101075000D01*
X130628571Y-101055952D01*
X130666666Y-101055952D01*
X130723809Y-101075000D01*
X130742857Y-101094047D01*
X131123809Y-101455952D02*
X130895238Y-101455952D01*
X131009523Y-101455952D02*
X131009523Y-101055952D01*
X130971428Y-101113095D01*
X130933333Y-101151190D01*
X130895238Y-101170238D01*
X131504761Y-101455952D02*
X131276190Y-101455952D01*
X131390476Y-101455952D02*
X131390476Y-101055952D01*
X131352380Y-101113095D01*
X131314285Y-101151190D01*
X131276190Y-101170238D01*
X130117857Y-102892857D02*
X130098809Y-102911904D01*
X130041666Y-102930952D01*
X130003571Y-102930952D01*
X129946428Y-102911904D01*
X129908333Y-102873809D01*
X129889285Y-102835714D01*
X129870238Y-102759523D01*
X129870238Y-102702380D01*
X129889285Y-102626190D01*
X129908333Y-102588095D01*
X129946428Y-102550000D01*
X130003571Y-102530952D01*
X130041666Y-102530952D01*
X130098809Y-102550000D01*
X130117857Y-102569047D01*
X130270238Y-102569047D02*
X130289285Y-102550000D01*
X130327380Y-102530952D01*
X130422619Y-102530952D01*
X130460714Y-102550000D01*
X130479761Y-102569047D01*
X130498809Y-102607142D01*
X130498809Y-102645238D01*
X130479761Y-102702380D01*
X130251190Y-102930952D01*
X130498809Y-102930952D01*
X130746428Y-102530952D02*
X130784523Y-102530952D01*
X130822619Y-102550000D01*
X130841666Y-102569047D01*
X130860714Y-102607142D01*
X130879761Y-102683333D01*
X130879761Y-102778571D01*
X130860714Y-102854761D01*
X130841666Y-102892857D01*
X130822619Y-102911904D01*
X130784523Y-102930952D01*
X130746428Y-102930952D01*
X130708333Y-102911904D01*
X130689285Y-102892857D01*
X130670238Y-102854761D01*
X130651190Y-102778571D01*
X130651190Y-102683333D01*
X130670238Y-102607142D01*
X130689285Y-102569047D01*
X130708333Y-102550000D01*
X130746428Y-102530952D01*
X128558333Y-102017857D02*
X128539285Y-102036904D01*
X128482142Y-102055952D01*
X128444047Y-102055952D01*
X128386904Y-102036904D01*
X128348809Y-101998809D01*
X128329761Y-101960714D01*
X128310714Y-101884523D01*
X128310714Y-101827380D01*
X128329761Y-101751190D01*
X128348809Y-101713095D01*
X128386904Y-101675000D01*
X128444047Y-101655952D01*
X128482142Y-101655952D01*
X128539285Y-101675000D01*
X128558333Y-101694047D01*
X128691666Y-101655952D02*
X128939285Y-101655952D01*
X128805952Y-101808333D01*
X128863095Y-101808333D01*
X128901190Y-101827380D01*
X128920238Y-101846428D01*
X128939285Y-101884523D01*
X128939285Y-101979761D01*
X128920238Y-102017857D01*
X128901190Y-102036904D01*
X128863095Y-102055952D01*
X128748809Y-102055952D01*
X128710714Y-102036904D01*
X128691666Y-102017857D01*
X124658333Y-101967857D02*
X124639285Y-101986904D01*
X124582142Y-102005952D01*
X124544047Y-102005952D01*
X124486904Y-101986904D01*
X124448809Y-101948809D01*
X124429761Y-101910714D01*
X124410714Y-101834523D01*
X124410714Y-101777380D01*
X124429761Y-101701190D01*
X124448809Y-101663095D01*
X124486904Y-101625000D01*
X124544047Y-101605952D01*
X124582142Y-101605952D01*
X124639285Y-101625000D01*
X124658333Y-101644047D01*
X125039285Y-102005952D02*
X124810714Y-102005952D01*
X124925000Y-102005952D02*
X124925000Y-101605952D01*
X124886904Y-101663095D01*
X124848809Y-101701190D01*
X124810714Y-101720238D01*
X115033333Y-114942857D02*
X115014285Y-114961904D01*
X114957142Y-114980952D01*
X114919047Y-114980952D01*
X114861904Y-114961904D01*
X114823809Y-114923809D01*
X114804761Y-114885714D01*
X114785714Y-114809523D01*
X114785714Y-114752380D01*
X114804761Y-114676190D01*
X114823809Y-114638095D01*
X114861904Y-114600000D01*
X114919047Y-114580952D01*
X114957142Y-114580952D01*
X115014285Y-114600000D01*
X115033333Y-114619047D01*
X115185714Y-114619047D02*
X115204761Y-114600000D01*
X115242857Y-114580952D01*
X115338095Y-114580952D01*
X115376190Y-114600000D01*
X115395238Y-114619047D01*
X115414285Y-114657142D01*
X115414285Y-114695238D01*
X115395238Y-114752380D01*
X115166666Y-114980952D01*
X115414285Y-114980952D01*
X126020833Y-111167857D02*
X126001785Y-111186904D01*
X125944642Y-111205952D01*
X125906547Y-111205952D01*
X125849404Y-111186904D01*
X125811309Y-111148809D01*
X125792261Y-111110714D01*
X125773214Y-111034523D01*
X125773214Y-110977380D01*
X125792261Y-110901190D01*
X125811309Y-110863095D01*
X125849404Y-110825000D01*
X125906547Y-110805952D01*
X125944642Y-110805952D01*
X126001785Y-110825000D01*
X126020833Y-110844047D01*
X126382738Y-110805952D02*
X126192261Y-110805952D01*
X126173214Y-110996428D01*
X126192261Y-110977380D01*
X126230357Y-110958333D01*
X126325595Y-110958333D01*
X126363690Y-110977380D01*
X126382738Y-110996428D01*
X126401785Y-111034523D01*
X126401785Y-111129761D01*
X126382738Y-111167857D01*
X126363690Y-111186904D01*
X126325595Y-111205952D01*
X126230357Y-111205952D01*
X126192261Y-111186904D01*
X126173214Y-111167857D01*
X122633333Y-122192857D02*
X122614285Y-122211904D01*
X122557142Y-122230952D01*
X122519047Y-122230952D01*
X122461904Y-122211904D01*
X122423809Y-122173809D01*
X122404761Y-122135714D01*
X122385714Y-122059523D01*
X122385714Y-122002380D01*
X122404761Y-121926190D01*
X122423809Y-121888095D01*
X122461904Y-121850000D01*
X122519047Y-121830952D01*
X122557142Y-121830952D01*
X122614285Y-121850000D01*
X122633333Y-121869047D01*
X122976190Y-121830952D02*
X122900000Y-121830952D01*
X122861904Y-121850000D01*
X122842857Y-121869047D01*
X122804761Y-121926190D01*
X122785714Y-122002380D01*
X122785714Y-122154761D01*
X122804761Y-122192857D01*
X122823809Y-122211904D01*
X122861904Y-122230952D01*
X122938095Y-122230952D01*
X122976190Y-122211904D01*
X122995238Y-122192857D01*
X123014285Y-122154761D01*
X123014285Y-122059523D01*
X122995238Y-122021428D01*
X122976190Y-122002380D01*
X122938095Y-121983333D01*
X122861904Y-121983333D01*
X122823809Y-122002380D01*
X122804761Y-122021428D01*
X122785714Y-122059523D01*
X116358333Y-106067857D02*
X116339285Y-106086904D01*
X116282142Y-106105952D01*
X116244047Y-106105952D01*
X116186904Y-106086904D01*
X116148809Y-106048809D01*
X116129761Y-106010714D01*
X116110714Y-105934523D01*
X116110714Y-105877380D01*
X116129761Y-105801190D01*
X116148809Y-105763095D01*
X116186904Y-105725000D01*
X116244047Y-105705952D01*
X116282142Y-105705952D01*
X116339285Y-105725000D01*
X116358333Y-105744047D01*
X116491666Y-105705952D02*
X116758333Y-105705952D01*
X116586904Y-106105952D01*
X118767857Y-107017857D02*
X118748809Y-107036904D01*
X118691666Y-107055952D01*
X118653571Y-107055952D01*
X118596428Y-107036904D01*
X118558333Y-106998809D01*
X118539285Y-106960714D01*
X118520238Y-106884523D01*
X118520238Y-106827380D01*
X118539285Y-106751190D01*
X118558333Y-106713095D01*
X118596428Y-106675000D01*
X118653571Y-106655952D01*
X118691666Y-106655952D01*
X118748809Y-106675000D01*
X118767857Y-106694047D01*
X119148809Y-107055952D02*
X118920238Y-107055952D01*
X119034523Y-107055952D02*
X119034523Y-106655952D01*
X118996428Y-106713095D01*
X118958333Y-106751190D01*
X118920238Y-106770238D01*
X119377380Y-106827380D02*
X119339285Y-106808333D01*
X119320238Y-106789285D01*
X119301190Y-106751190D01*
X119301190Y-106732142D01*
X119320238Y-106694047D01*
X119339285Y-106675000D01*
X119377380Y-106655952D01*
X119453571Y-106655952D01*
X119491666Y-106675000D01*
X119510714Y-106694047D01*
X119529761Y-106732142D01*
X119529761Y-106751190D01*
X119510714Y-106789285D01*
X119491666Y-106808333D01*
X119453571Y-106827380D01*
X119377380Y-106827380D01*
X119339285Y-106846428D01*
X119320238Y-106865476D01*
X119301190Y-106903571D01*
X119301190Y-106979761D01*
X119320238Y-107017857D01*
X119339285Y-107036904D01*
X119377380Y-107055952D01*
X119453571Y-107055952D01*
X119491666Y-107036904D01*
X119510714Y-107017857D01*
X119529761Y-106979761D01*
X119529761Y-106903571D01*
X119510714Y-106865476D01*
X119491666Y-106846428D01*
X119453571Y-106827380D01*
X106955357Y-127517857D02*
X106936309Y-127536904D01*
X106879166Y-127555952D01*
X106841071Y-127555952D01*
X106783928Y-127536904D01*
X106745833Y-127498809D01*
X106726785Y-127460714D01*
X106707738Y-127384523D01*
X106707738Y-127327380D01*
X106726785Y-127251190D01*
X106745833Y-127213095D01*
X106783928Y-127175000D01*
X106841071Y-127155952D01*
X106879166Y-127155952D01*
X106936309Y-127175000D01*
X106955357Y-127194047D01*
X107107738Y-127194047D02*
X107126785Y-127175000D01*
X107164880Y-127155952D01*
X107260119Y-127155952D01*
X107298214Y-127175000D01*
X107317261Y-127194047D01*
X107336309Y-127232142D01*
X107336309Y-127270238D01*
X107317261Y-127327380D01*
X107088690Y-127555952D01*
X107336309Y-127555952D01*
X107717261Y-127555952D02*
X107488690Y-127555952D01*
X107602976Y-127555952D02*
X107602976Y-127155952D01*
X107564880Y-127213095D01*
X107526785Y-127251190D01*
X107488690Y-127270238D01*
X107092857Y-116342857D02*
X107073809Y-116361904D01*
X107016666Y-116380952D01*
X106978571Y-116380952D01*
X106921428Y-116361904D01*
X106883333Y-116323809D01*
X106864285Y-116285714D01*
X106845238Y-116209523D01*
X106845238Y-116152380D01*
X106864285Y-116076190D01*
X106883333Y-116038095D01*
X106921428Y-116000000D01*
X106978571Y-115980952D01*
X107016666Y-115980952D01*
X107073809Y-116000000D01*
X107092857Y-116019047D01*
X107245238Y-116019047D02*
X107264285Y-116000000D01*
X107302380Y-115980952D01*
X107397619Y-115980952D01*
X107435714Y-116000000D01*
X107454761Y-116019047D01*
X107473809Y-116057142D01*
X107473809Y-116095238D01*
X107454761Y-116152380D01*
X107226190Y-116380952D01*
X107473809Y-116380952D01*
X107626190Y-116019047D02*
X107645238Y-116000000D01*
X107683333Y-115980952D01*
X107778571Y-115980952D01*
X107816666Y-116000000D01*
X107835714Y-116019047D01*
X107854761Y-116057142D01*
X107854761Y-116095238D01*
X107835714Y-116152380D01*
X107607142Y-116380952D01*
X107854761Y-116380952D01*
X117067857Y-106292857D02*
X117048809Y-106311904D01*
X116991666Y-106330952D01*
X116953571Y-106330952D01*
X116896428Y-106311904D01*
X116858333Y-106273809D01*
X116839285Y-106235714D01*
X116820238Y-106159523D01*
X116820238Y-106102380D01*
X116839285Y-106026190D01*
X116858333Y-105988095D01*
X116896428Y-105950000D01*
X116953571Y-105930952D01*
X116991666Y-105930952D01*
X117048809Y-105950000D01*
X117067857Y-105969047D01*
X117220238Y-105969047D02*
X117239285Y-105950000D01*
X117277380Y-105930952D01*
X117372619Y-105930952D01*
X117410714Y-105950000D01*
X117429761Y-105969047D01*
X117448809Y-106007142D01*
X117448809Y-106045238D01*
X117429761Y-106102380D01*
X117201190Y-106330952D01*
X117448809Y-106330952D01*
X117582142Y-105930952D02*
X117829761Y-105930952D01*
X117696428Y-106083333D01*
X117753571Y-106083333D01*
X117791666Y-106102380D01*
X117810714Y-106121428D01*
X117829761Y-106159523D01*
X117829761Y-106254761D01*
X117810714Y-106292857D01*
X117791666Y-106311904D01*
X117753571Y-106330952D01*
X117639285Y-106330952D01*
X117601190Y-106311904D01*
X117582142Y-106292857D01*
X112942857Y-115717857D02*
X112923809Y-115736904D01*
X112866666Y-115755952D01*
X112828571Y-115755952D01*
X112771428Y-115736904D01*
X112733333Y-115698809D01*
X112714285Y-115660714D01*
X112695238Y-115584523D01*
X112695238Y-115527380D01*
X112714285Y-115451190D01*
X112733333Y-115413095D01*
X112771428Y-115375000D01*
X112828571Y-115355952D01*
X112866666Y-115355952D01*
X112923809Y-115375000D01*
X112942857Y-115394047D01*
X113095238Y-115394047D02*
X113114285Y-115375000D01*
X113152380Y-115355952D01*
X113247619Y-115355952D01*
X113285714Y-115375000D01*
X113304761Y-115394047D01*
X113323809Y-115432142D01*
X113323809Y-115470238D01*
X113304761Y-115527380D01*
X113076190Y-115755952D01*
X113323809Y-115755952D01*
X113666666Y-115489285D02*
X113666666Y-115755952D01*
X113571428Y-115336904D02*
X113476190Y-115622619D01*
X113723809Y-115622619D01*
X117733333Y-109812857D02*
X117714285Y-109831904D01*
X117657142Y-109850952D01*
X117619047Y-109850952D01*
X117561904Y-109831904D01*
X117523809Y-109793809D01*
X117504761Y-109755714D01*
X117485714Y-109679523D01*
X117485714Y-109622380D01*
X117504761Y-109546190D01*
X117523809Y-109508095D01*
X117561904Y-109470000D01*
X117619047Y-109450952D01*
X117657142Y-109450952D01*
X117714285Y-109470000D01*
X117733333Y-109489047D01*
X118076190Y-109584285D02*
X118076190Y-109850952D01*
X117980952Y-109431904D02*
X117885714Y-109717619D01*
X118133333Y-109717619D01*
X123108333Y-123730952D02*
X122975000Y-123540476D01*
X122879761Y-123730952D02*
X122879761Y-123330952D01*
X123032142Y-123330952D01*
X123070238Y-123350000D01*
X123089285Y-123369047D01*
X123108333Y-123407142D01*
X123108333Y-123464285D01*
X123089285Y-123502380D01*
X123070238Y-123521428D01*
X123032142Y-123540476D01*
X122879761Y-123540476D01*
X123298809Y-123730952D02*
X123375000Y-123730952D01*
X123413095Y-123711904D01*
X123432142Y-123692857D01*
X123470238Y-123635714D01*
X123489285Y-123559523D01*
X123489285Y-123407142D01*
X123470238Y-123369047D01*
X123451190Y-123350000D01*
X123413095Y-123330952D01*
X123336904Y-123330952D01*
X123298809Y-123350000D01*
X123279761Y-123369047D01*
X123260714Y-123407142D01*
X123260714Y-123502380D01*
X123279761Y-123540476D01*
X123298809Y-123559523D01*
X123336904Y-123578571D01*
X123413095Y-123578571D01*
X123451190Y-123559523D01*
X123470238Y-123540476D01*
X123489285Y-123502380D01*
X131808333Y-113180952D02*
X131675000Y-112990476D01*
X131579761Y-113180952D02*
X131579761Y-112780952D01*
X131732142Y-112780952D01*
X131770238Y-112800000D01*
X131789285Y-112819047D01*
X131808333Y-112857142D01*
X131808333Y-112914285D01*
X131789285Y-112952380D01*
X131770238Y-112971428D01*
X131732142Y-112990476D01*
X131579761Y-112990476D01*
X131960714Y-112819047D02*
X131979761Y-112800000D01*
X132017857Y-112780952D01*
X132113095Y-112780952D01*
X132151190Y-112800000D01*
X132170238Y-112819047D01*
X132189285Y-112857142D01*
X132189285Y-112895238D01*
X132170238Y-112952380D01*
X131941666Y-113180952D01*
X132189285Y-113180952D01*
X125583333Y-119905952D02*
X125450000Y-119715476D01*
X125354761Y-119905952D02*
X125354761Y-119505952D01*
X125507142Y-119505952D01*
X125545238Y-119525000D01*
X125564285Y-119544047D01*
X125583333Y-119582142D01*
X125583333Y-119639285D01*
X125564285Y-119677380D01*
X125545238Y-119696428D01*
X125507142Y-119715476D01*
X125354761Y-119715476D01*
X125716666Y-119505952D02*
X125964285Y-119505952D01*
X125830952Y-119658333D01*
X125888095Y-119658333D01*
X125926190Y-119677380D01*
X125945238Y-119696428D01*
X125964285Y-119734523D01*
X125964285Y-119829761D01*
X125945238Y-119867857D01*
X125926190Y-119886904D01*
X125888095Y-119905952D01*
X125773809Y-119905952D01*
X125735714Y-119886904D01*
X125716666Y-119867857D01*
X128258333Y-108205952D02*
X128125000Y-108015476D01*
X128029761Y-108205952D02*
X128029761Y-107805952D01*
X128182142Y-107805952D01*
X128220238Y-107825000D01*
X128239285Y-107844047D01*
X128258333Y-107882142D01*
X128258333Y-107939285D01*
X128239285Y-107977380D01*
X128220238Y-107996428D01*
X128182142Y-108015476D01*
X128029761Y-108015476D01*
X128601190Y-107939285D02*
X128601190Y-108205952D01*
X128505952Y-107786904D02*
X128410714Y-108072619D01*
X128658333Y-108072619D01*
X130908333Y-111305952D02*
X130775000Y-111115476D01*
X130679761Y-111305952D02*
X130679761Y-110905952D01*
X130832142Y-110905952D01*
X130870238Y-110925000D01*
X130889285Y-110944047D01*
X130908333Y-110982142D01*
X130908333Y-111039285D01*
X130889285Y-111077380D01*
X130870238Y-111096428D01*
X130832142Y-111115476D01*
X130679761Y-111115476D01*
X131270238Y-110905952D02*
X131079761Y-110905952D01*
X131060714Y-111096428D01*
X131079761Y-111077380D01*
X131117857Y-111058333D01*
X131213095Y-111058333D01*
X131251190Y-111077380D01*
X131270238Y-111096428D01*
X131289285Y-111134523D01*
X131289285Y-111229761D01*
X131270238Y-111267857D01*
X131251190Y-111286904D01*
X131213095Y-111305952D01*
X131117857Y-111305952D01*
X131079761Y-111286904D01*
X131060714Y-111267857D01*
X102033333Y-100980952D02*
X101900000Y-100790476D01*
X101804761Y-100980952D02*
X101804761Y-100580952D01*
X101957142Y-100580952D01*
X101995238Y-100600000D01*
X102014285Y-100619047D01*
X102033333Y-100657142D01*
X102033333Y-100714285D01*
X102014285Y-100752380D01*
X101995238Y-100771428D01*
X101957142Y-100790476D01*
X101804761Y-100790476D01*
X102376190Y-100580952D02*
X102300000Y-100580952D01*
X102261904Y-100600000D01*
X102242857Y-100619047D01*
X102204761Y-100676190D01*
X102185714Y-100752380D01*
X102185714Y-100904761D01*
X102204761Y-100942857D01*
X102223809Y-100961904D01*
X102261904Y-100980952D01*
X102338095Y-100980952D01*
X102376190Y-100961904D01*
X102395238Y-100942857D01*
X102414285Y-100904761D01*
X102414285Y-100809523D01*
X102395238Y-100771428D01*
X102376190Y-100752380D01*
X102338095Y-100733333D01*
X102261904Y-100733333D01*
X102223809Y-100752380D01*
X102204761Y-100771428D01*
X102185714Y-100809523D01*
X105083333Y-103380952D02*
X104950000Y-103190476D01*
X104854761Y-103380952D02*
X104854761Y-102980952D01*
X105007142Y-102980952D01*
X105045238Y-103000000D01*
X105064285Y-103019047D01*
X105083333Y-103057142D01*
X105083333Y-103114285D01*
X105064285Y-103152380D01*
X105045238Y-103171428D01*
X105007142Y-103190476D01*
X104854761Y-103190476D01*
X105216666Y-102980952D02*
X105483333Y-102980952D01*
X105311904Y-103380952D01*
X105008333Y-110030952D02*
X104875000Y-109840476D01*
X104779761Y-110030952D02*
X104779761Y-109630952D01*
X104932142Y-109630952D01*
X104970238Y-109650000D01*
X104989285Y-109669047D01*
X105008333Y-109707142D01*
X105008333Y-109764285D01*
X104989285Y-109802380D01*
X104970238Y-109821428D01*
X104932142Y-109840476D01*
X104779761Y-109840476D01*
X105236904Y-109802380D02*
X105198809Y-109783333D01*
X105179761Y-109764285D01*
X105160714Y-109726190D01*
X105160714Y-109707142D01*
X105179761Y-109669047D01*
X105198809Y-109650000D01*
X105236904Y-109630952D01*
X105313095Y-109630952D01*
X105351190Y-109650000D01*
X105370238Y-109669047D01*
X105389285Y-109707142D01*
X105389285Y-109726190D01*
X105370238Y-109764285D01*
X105351190Y-109783333D01*
X105313095Y-109802380D01*
X105236904Y-109802380D01*
X105198809Y-109821428D01*
X105179761Y-109840476D01*
X105160714Y-109878571D01*
X105160714Y-109954761D01*
X105179761Y-109992857D01*
X105198809Y-110011904D01*
X105236904Y-110030952D01*
X105313095Y-110030952D01*
X105351190Y-110011904D01*
X105370238Y-109992857D01*
X105389285Y-109954761D01*
X105389285Y-109878571D01*
X105370238Y-109840476D01*
X105351190Y-109821428D01*
X105313095Y-109802380D01*
X121517857Y-122930952D02*
X121384523Y-122740476D01*
X121289285Y-122930952D02*
X121289285Y-122530952D01*
X121441666Y-122530952D01*
X121479761Y-122550000D01*
X121498809Y-122569047D01*
X121517857Y-122607142D01*
X121517857Y-122664285D01*
X121498809Y-122702380D01*
X121479761Y-122721428D01*
X121441666Y-122740476D01*
X121289285Y-122740476D01*
X121898809Y-122930952D02*
X121670238Y-122930952D01*
X121784523Y-122930952D02*
X121784523Y-122530952D01*
X121746428Y-122588095D01*
X121708333Y-122626190D01*
X121670238Y-122645238D01*
X122146428Y-122530952D02*
X122184523Y-122530952D01*
X122222619Y-122550000D01*
X122241666Y-122569047D01*
X122260714Y-122607142D01*
X122279761Y-122683333D01*
X122279761Y-122778571D01*
X122260714Y-122854761D01*
X122241666Y-122892857D01*
X122222619Y-122911904D01*
X122184523Y-122930952D01*
X122146428Y-122930952D01*
X122108333Y-122911904D01*
X122089285Y-122892857D01*
X122070238Y-122854761D01*
X122051190Y-122778571D01*
X122051190Y-122683333D01*
X122070238Y-122607142D01*
X122089285Y-122569047D01*
X122108333Y-122550000D01*
X122146428Y-122530952D01*
X101842857Y-131205952D02*
X101709523Y-131015476D01*
X101614285Y-131205952D02*
X101614285Y-130805952D01*
X101766666Y-130805952D01*
X101804761Y-130825000D01*
X101823809Y-130844047D01*
X101842857Y-130882142D01*
X101842857Y-130939285D01*
X101823809Y-130977380D01*
X101804761Y-130996428D01*
X101766666Y-131015476D01*
X101614285Y-131015476D01*
X102223809Y-131205952D02*
X101995238Y-131205952D01*
X102109523Y-131205952D02*
X102109523Y-130805952D01*
X102071428Y-130863095D01*
X102033333Y-130901190D01*
X101995238Y-130920238D01*
X102604761Y-131205952D02*
X102376190Y-131205952D01*
X102490476Y-131205952D02*
X102490476Y-130805952D01*
X102452380Y-130863095D01*
X102414285Y-130901190D01*
X102376190Y-130920238D01*
X104642857Y-128455952D02*
X104509523Y-128265476D01*
X104414285Y-128455952D02*
X104414285Y-128055952D01*
X104566666Y-128055952D01*
X104604761Y-128075000D01*
X104623809Y-128094047D01*
X104642857Y-128132142D01*
X104642857Y-128189285D01*
X104623809Y-128227380D01*
X104604761Y-128246428D01*
X104566666Y-128265476D01*
X104414285Y-128265476D01*
X105023809Y-128455952D02*
X104795238Y-128455952D01*
X104909523Y-128455952D02*
X104909523Y-128055952D01*
X104871428Y-128113095D01*
X104833333Y-128151190D01*
X104795238Y-128170238D01*
X105176190Y-128094047D02*
X105195238Y-128075000D01*
X105233333Y-128055952D01*
X105328571Y-128055952D01*
X105366666Y-128075000D01*
X105385714Y-128094047D01*
X105404761Y-128132142D01*
X105404761Y-128170238D01*
X105385714Y-128227380D01*
X105157142Y-128455952D01*
X105404761Y-128455952D01*
X104667857Y-121855952D02*
X104534523Y-121665476D01*
X104439285Y-121855952D02*
X104439285Y-121455952D01*
X104591666Y-121455952D01*
X104629761Y-121475000D01*
X104648809Y-121494047D01*
X104667857Y-121532142D01*
X104667857Y-121589285D01*
X104648809Y-121627380D01*
X104629761Y-121646428D01*
X104591666Y-121665476D01*
X104439285Y-121665476D01*
X105048809Y-121855952D02*
X104820238Y-121855952D01*
X104934523Y-121855952D02*
X104934523Y-121455952D01*
X104896428Y-121513095D01*
X104858333Y-121551190D01*
X104820238Y-121570238D01*
X105182142Y-121455952D02*
X105429761Y-121455952D01*
X105296428Y-121608333D01*
X105353571Y-121608333D01*
X105391666Y-121627380D01*
X105410714Y-121646428D01*
X105429761Y-121684523D01*
X105429761Y-121779761D01*
X105410714Y-121817857D01*
X105391666Y-121836904D01*
X105353571Y-121855952D01*
X105239285Y-121855952D01*
X105201190Y-121836904D01*
X105182142Y-121817857D01*
X125683333Y-126530952D02*
X125550000Y-126340476D01*
X125454761Y-126530952D02*
X125454761Y-126130952D01*
X125607142Y-126130952D01*
X125645238Y-126150000D01*
X125664285Y-126169047D01*
X125683333Y-126207142D01*
X125683333Y-126264285D01*
X125664285Y-126302380D01*
X125645238Y-126321428D01*
X125607142Y-126340476D01*
X125454761Y-126340476D01*
X126064285Y-126530952D02*
X125835714Y-126530952D01*
X125950000Y-126530952D02*
X125950000Y-126130952D01*
X125911904Y-126188095D01*
X125873809Y-126226190D01*
X125835714Y-126245238D01*
X129530952Y-122883333D02*
X129816666Y-122883333D01*
X129873809Y-122902380D01*
X129911904Y-122940476D01*
X129930952Y-122997619D01*
X129930952Y-123035714D01*
X129930952Y-122483333D02*
X129930952Y-122711904D01*
X129930952Y-122597619D02*
X129530952Y-122597619D01*
X129588095Y-122635714D01*
X129626190Y-122673809D01*
X129645238Y-122711904D01*
X106145238Y-123130952D02*
X106145238Y-123454761D01*
X106164285Y-123492857D01*
X106183333Y-123511904D01*
X106221428Y-123530952D01*
X106297619Y-123530952D01*
X106335714Y-123511904D01*
X106354761Y-123492857D01*
X106373809Y-123454761D01*
X106373809Y-123130952D01*
X106735714Y-123130952D02*
X106659523Y-123130952D01*
X106621428Y-123150000D01*
X106602380Y-123169047D01*
X106564285Y-123226190D01*
X106545238Y-123302380D01*
X106545238Y-123454761D01*
X106564285Y-123492857D01*
X106583333Y-123511904D01*
X106621428Y-123530952D01*
X106697619Y-123530952D01*
X106735714Y-123511904D01*
X106754761Y-123492857D01*
X106773809Y-123454761D01*
X106773809Y-123359523D01*
X106754761Y-123321428D01*
X106735714Y-123302380D01*
X106697619Y-123283333D01*
X106621428Y-123283333D01*
X106583333Y-123302380D01*
X106564285Y-123321428D01*
X106545238Y-123359523D01*
X115020238Y-108380952D02*
X115020238Y-108704761D01*
X115039285Y-108742857D01*
X115058333Y-108761904D01*
X115096428Y-108780952D01*
X115172619Y-108780952D01*
X115210714Y-108761904D01*
X115229761Y-108742857D01*
X115248809Y-108704761D01*
X115248809Y-108380952D01*
X115401190Y-108380952D02*
X115667857Y-108380952D01*
X115496428Y-108780952D01*
X100861904Y-105669047D02*
X100823809Y-105650000D01*
X100785714Y-105611904D01*
X100728571Y-105554761D01*
X100690476Y-105535714D01*
X100652380Y-105535714D01*
X100671428Y-105630952D02*
X100633333Y-105611904D01*
X100595238Y-105573809D01*
X100576190Y-105497619D01*
X100576190Y-105364285D01*
X100595238Y-105288095D01*
X100633333Y-105250000D01*
X100671428Y-105230952D01*
X100747619Y-105230952D01*
X100785714Y-105250000D01*
X100823809Y-105288095D01*
X100842857Y-105364285D01*
X100842857Y-105497619D01*
X100823809Y-105573809D01*
X100785714Y-105611904D01*
X100747619Y-105630952D01*
X100671428Y-105630952D01*
X101223809Y-105630952D02*
X100995238Y-105630952D01*
X101109523Y-105630952D02*
X101109523Y-105230952D01*
X101071428Y-105288095D01*
X101033333Y-105326190D01*
X100995238Y-105345238D01*
X129629761Y-108580952D02*
X129629761Y-108180952D01*
X129725000Y-108180952D01*
X129782142Y-108200000D01*
X129820238Y-108238095D01*
X129839285Y-108276190D01*
X129858333Y-108352380D01*
X129858333Y-108409523D01*
X129839285Y-108485714D01*
X129820238Y-108523809D01*
X129782142Y-108561904D01*
X129725000Y-108580952D01*
X129629761Y-108580952D01*
X130010714Y-108219047D02*
X130029761Y-108200000D01*
X130067857Y-108180952D01*
X130163095Y-108180952D01*
X130201190Y-108200000D01*
X130220238Y-108219047D01*
X130239285Y-108257142D01*
X130239285Y-108295238D01*
X130220238Y-108352380D01*
X129991666Y-108580952D01*
X130239285Y-108580952D01*
X127866666Y-130805952D02*
X127866666Y-131091666D01*
X127847619Y-131148809D01*
X127809523Y-131186904D01*
X127752380Y-131205952D01*
X127714285Y-131205952D01*
X128228571Y-130939285D02*
X128228571Y-131205952D01*
X128133333Y-130786904D02*
X128038095Y-131072619D01*
X128285714Y-131072619D01*
X107291666Y-130855952D02*
X107291666Y-131141666D01*
X107272619Y-131198809D01*
X107234523Y-131236904D01*
X107177380Y-131255952D01*
X107139285Y-131255952D01*
X107672619Y-130855952D02*
X107482142Y-130855952D01*
X107463095Y-131046428D01*
X107482142Y-131027380D01*
X107520238Y-131008333D01*
X107615476Y-131008333D01*
X107653571Y-131027380D01*
X107672619Y-131046428D01*
X107691666Y-131084523D01*
X107691666Y-131179761D01*
X107672619Y-131217857D01*
X107653571Y-131236904D01*
X107615476Y-131255952D01*
X107520238Y-131255952D01*
X107482142Y-131236904D01*
X107463095Y-131217857D01*
X134086904Y-115158333D02*
X134105952Y-115101190D01*
X134105952Y-115005952D01*
X134086904Y-114967857D01*
X134067857Y-114948809D01*
X134029761Y-114929761D01*
X133991666Y-114929761D01*
X133953571Y-114948809D01*
X133934523Y-114967857D01*
X133915476Y-115005952D01*
X133896428Y-115082142D01*
X133877380Y-115120238D01*
X133858333Y-115139285D01*
X133820238Y-115158333D01*
X133782142Y-115158333D01*
X133744047Y-115139285D01*
X133725000Y-115120238D01*
X133705952Y-115082142D01*
X133705952Y-114986904D01*
X133725000Y-114929761D01*
X133705952Y-114796428D02*
X134105952Y-114701190D01*
X133820238Y-114625000D01*
X134105952Y-114548809D01*
X133705952Y-114453571D01*
X134105952Y-114091666D02*
X134105952Y-114320238D01*
X134105952Y-114205952D02*
X133705952Y-114205952D01*
X133763095Y-114244047D01*
X133801190Y-114282142D01*
X133820238Y-114320238D01*
X133358333Y-109005952D02*
X133167857Y-109005952D01*
X133167857Y-108605952D01*
X133701190Y-109005952D02*
X133472619Y-109005952D01*
X133586904Y-109005952D02*
X133586904Y-108605952D01*
X133548809Y-108663095D01*
X133510714Y-108701190D01*
X133472619Y-108720238D01*
X116770238Y-111830952D02*
X116770238Y-112154761D01*
X116789285Y-112192857D01*
X116808333Y-112211904D01*
X116846428Y-112230952D01*
X116922619Y-112230952D01*
X116960714Y-112211904D01*
X116979761Y-112192857D01*
X116998809Y-112154761D01*
X116998809Y-111830952D01*
X117170238Y-111869047D02*
X117189285Y-111850000D01*
X117227380Y-111830952D01*
X117322619Y-111830952D01*
X117360714Y-111850000D01*
X117379761Y-111869047D01*
X117398809Y-111907142D01*
X117398809Y-111945238D01*
X117379761Y-112002380D01*
X117151190Y-112230952D01*
X117398809Y-112230952D01*
X100861904Y-106869047D02*
X100823809Y-106850000D01*
X100785714Y-106811904D01*
X100728571Y-106754761D01*
X100690476Y-106735714D01*
X100652380Y-106735714D01*
X100671428Y-106830952D02*
X100633333Y-106811904D01*
X100595238Y-106773809D01*
X100576190Y-106697619D01*
X100576190Y-106564285D01*
X100595238Y-106488095D01*
X100633333Y-106450000D01*
X100671428Y-106430952D01*
X100747619Y-106430952D01*
X100785714Y-106450000D01*
X100823809Y-106488095D01*
X100842857Y-106564285D01*
X100842857Y-106697619D01*
X100823809Y-106773809D01*
X100785714Y-106811904D01*
X100747619Y-106830952D01*
X100671428Y-106830952D01*
X100995238Y-106469047D02*
X101014285Y-106450000D01*
X101052380Y-106430952D01*
X101147619Y-106430952D01*
X101185714Y-106450000D01*
X101204761Y-106469047D01*
X101223809Y-106507142D01*
X101223809Y-106545238D01*
X101204761Y-106602380D01*
X100976190Y-106830952D01*
X101223809Y-106830952D01*
X100961904Y-126619047D02*
X100923809Y-126600000D01*
X100885714Y-126561904D01*
X100828571Y-126504761D01*
X100790476Y-126485714D01*
X100752380Y-126485714D01*
X100771428Y-126580952D02*
X100733333Y-126561904D01*
X100695238Y-126523809D01*
X100676190Y-126447619D01*
X100676190Y-126314285D01*
X100695238Y-126238095D01*
X100733333Y-126200000D01*
X100771428Y-126180952D01*
X100847619Y-126180952D01*
X100885714Y-126200000D01*
X100923809Y-126238095D01*
X100942857Y-126314285D01*
X100942857Y-126447619D01*
X100923809Y-126523809D01*
X100885714Y-126561904D01*
X100847619Y-126580952D01*
X100771428Y-126580952D01*
X101076190Y-126180952D02*
X101323809Y-126180952D01*
X101190476Y-126333333D01*
X101247619Y-126333333D01*
X101285714Y-126352380D01*
X101304761Y-126371428D01*
X101323809Y-126409523D01*
X101323809Y-126504761D01*
X101304761Y-126542857D01*
X101285714Y-126561904D01*
X101247619Y-126580952D01*
X101133333Y-126580952D01*
X101095238Y-126561904D01*
X101076190Y-126542857D01*
X100911904Y-125519047D02*
X100873809Y-125500000D01*
X100835714Y-125461904D01*
X100778571Y-125404761D01*
X100740476Y-125385714D01*
X100702380Y-125385714D01*
X100721428Y-125480952D02*
X100683333Y-125461904D01*
X100645238Y-125423809D01*
X100626190Y-125347619D01*
X100626190Y-125214285D01*
X100645238Y-125138095D01*
X100683333Y-125100000D01*
X100721428Y-125080952D01*
X100797619Y-125080952D01*
X100835714Y-125100000D01*
X100873809Y-125138095D01*
X100892857Y-125214285D01*
X100892857Y-125347619D01*
X100873809Y-125423809D01*
X100835714Y-125461904D01*
X100797619Y-125480952D01*
X100721428Y-125480952D01*
X101235714Y-125214285D02*
X101235714Y-125480952D01*
X101140476Y-125061904D02*
X101045238Y-125347619D01*
X101292857Y-125347619D01*
X132895238Y-104505952D02*
X132895238Y-104829761D01*
X132914285Y-104867857D01*
X132933333Y-104886904D01*
X132971428Y-104905952D01*
X133047619Y-104905952D01*
X133085714Y-104886904D01*
X133104761Y-104867857D01*
X133123809Y-104829761D01*
X133123809Y-104505952D01*
X133523809Y-104905952D02*
X133295238Y-104905952D01*
X133409523Y-104905952D02*
X133409523Y-104505952D01*
X133371428Y-104563095D01*
X133333333Y-104601190D01*
X133295238Y-104620238D01*
X126570238Y-114755952D02*
X126570238Y-115079761D01*
X126589285Y-115117857D01*
X126608333Y-115136904D01*
X126646428Y-115155952D01*
X126722619Y-115155952D01*
X126760714Y-115136904D01*
X126779761Y-115117857D01*
X126798809Y-115079761D01*
X126798809Y-114755952D01*
X127160714Y-114889285D02*
X127160714Y-115155952D01*
X127065476Y-114736904D02*
X126970238Y-115022619D01*
X127217857Y-115022619D01*
X118070238Y-105480952D02*
X118070238Y-105804761D01*
X118089285Y-105842857D01*
X118108333Y-105861904D01*
X118146428Y-105880952D01*
X118222619Y-105880952D01*
X118260714Y-105861904D01*
X118279761Y-105842857D01*
X118298809Y-105804761D01*
X118298809Y-105480952D01*
X118451190Y-105480952D02*
X118698809Y-105480952D01*
X118565476Y-105633333D01*
X118622619Y-105633333D01*
X118660714Y-105652380D01*
X118679761Y-105671428D01*
X118698809Y-105709523D01*
X118698809Y-105804761D01*
X118679761Y-105842857D01*
X118660714Y-105861904D01*
X118622619Y-105880952D01*
X118508333Y-105880952D01*
X118470238Y-105861904D01*
X118451190Y-105842857D01*
X124145238Y-106305952D02*
X124145238Y-106629761D01*
X124164285Y-106667857D01*
X124183333Y-106686904D01*
X124221428Y-106705952D01*
X124297619Y-106705952D01*
X124335714Y-106686904D01*
X124354761Y-106667857D01*
X124373809Y-106629761D01*
X124373809Y-106305952D01*
X124754761Y-106305952D02*
X124564285Y-106305952D01*
X124545238Y-106496428D01*
X124564285Y-106477380D01*
X124602380Y-106458333D01*
X124697619Y-106458333D01*
X124735714Y-106477380D01*
X124754761Y-106496428D01*
X124773809Y-106534523D01*
X124773809Y-106629761D01*
X124754761Y-106667857D01*
X124735714Y-106686904D01*
X124697619Y-106705952D01*
X124602380Y-106705952D01*
X124564285Y-106686904D01*
X124545238Y-106667857D01*
X101330952Y-116133333D02*
X101616666Y-116133333D01*
X101673809Y-116152380D01*
X101711904Y-116190476D01*
X101730952Y-116247619D01*
X101730952Y-116285714D01*
X101369047Y-115961904D02*
X101350000Y-115942857D01*
X101330952Y-115904761D01*
X101330952Y-115809523D01*
X101350000Y-115771428D01*
X101369047Y-115752380D01*
X101407142Y-115733333D01*
X101445238Y-115733333D01*
X101502380Y-115752380D01*
X101730952Y-115980952D01*
X101730952Y-115733333D01*
M02*
