G04 #@! TF.GenerationSoftware,KiCad,Pcbnew,5.1.0*
G04 #@! TF.CreationDate,2019-05-06T20:06:38+02:00*
G04 #@! TF.ProjectId,printer-otter,7072696e-7465-4722-9d6f-747465722e6b,rev?*
G04 #@! TF.SameCoordinates,Original*
G04 #@! TF.FileFunction,Soldermask,Bot*
G04 #@! TF.FilePolarity,Negative*
%FSLAX46Y46*%
G04 Gerber Fmt 4.6, Leading zero omitted, Abs format (unit mm)*
G04 Created by KiCad (PCBNEW 5.1.0) date 2019-05-06 20:06:38*
%MOMM*%
%LPD*%
G04 APERTURE LIST*
%ADD10C,0.100000*%
G04 APERTURE END LIST*
D10*
X136000000Y-113625000D02*
X136000000Y-100500000D01*
X135500000Y-100000000D02*
X121750000Y-100000000D01*
X100000000Y-100500000D02*
G75*
G02X100500000Y-100000000I500000J0D01*
G01*
X100500000Y-132000000D02*
G75*
G02X100000000Y-131500000I0J500000D01*
G01*
X136000000Y-131500000D02*
G75*
G02X135500000Y-132000000I-500000J0D01*
G01*
X135500000Y-100000000D02*
G75*
G02X136000000Y-100500000I0J-500000D01*
G01*
X135500000Y-100000000D02*
X135500000Y-100000000D01*
X136000000Y-131500000D02*
X136000000Y-115625000D01*
X100500000Y-132000000D02*
X135500000Y-132000000D01*
X100000000Y-100500000D02*
X100000000Y-131500000D01*
X104500000Y-100000000D02*
X100500000Y-100000000D01*
X107000000Y-100000000D02*
X104500000Y-100000000D01*
X110000000Y-100000000D02*
X112500000Y-100000000D01*
X113000000Y-100000000D02*
X112500000Y-100000000D01*
X110000000Y-100000000D02*
X107000000Y-100000000D01*
X121750000Y-100000000D02*
X113000000Y-100000000D01*
X136000000Y-115625000D02*
G75*
G02X136000000Y-113625000I1499999J1000000D01*
G01*
G36*
X135900000Y-132000000D02*
G01*
X131800000Y-132000000D01*
X131800000Y-127900000D01*
X135900000Y-127900000D01*
X135900000Y-132000000D01*
X135900000Y-132000000D01*
G37*
G36*
X130525000Y-130900000D02*
G01*
X128825000Y-130900000D01*
X128825000Y-129200000D01*
X130525000Y-129200000D01*
X130525000Y-130900000D01*
X130525000Y-130900000D01*
G37*
G36*
X119681627Y-129212299D02*
G01*
X119761742Y-129236601D01*
X119841855Y-129260903D01*
X119841857Y-129260904D01*
X119989518Y-129339831D01*
X120118949Y-129446051D01*
X120225169Y-129575482D01*
X120304096Y-129723143D01*
X120352701Y-129883373D01*
X120369112Y-130050000D01*
X120352701Y-130216627D01*
X120304096Y-130376857D01*
X120225169Y-130524518D01*
X120118949Y-130653949D01*
X119989518Y-130760169D01*
X119841857Y-130839096D01*
X119841855Y-130839097D01*
X119761742Y-130863399D01*
X119681627Y-130887701D01*
X119556752Y-130900000D01*
X119473248Y-130900000D01*
X119348373Y-130887701D01*
X119268258Y-130863399D01*
X119188145Y-130839097D01*
X119188143Y-130839096D01*
X119040482Y-130760169D01*
X118911051Y-130653949D01*
X118804831Y-130524518D01*
X118725904Y-130376857D01*
X118677299Y-130216627D01*
X118660888Y-130050000D01*
X118677299Y-129883373D01*
X118725904Y-129723143D01*
X118804831Y-129575482D01*
X118911051Y-129446051D01*
X119040482Y-129339831D01*
X119188143Y-129260904D01*
X119188145Y-129260903D01*
X119268258Y-129236601D01*
X119348373Y-129212299D01*
X119473248Y-129200000D01*
X119556752Y-129200000D01*
X119681627Y-129212299D01*
X119681627Y-129212299D01*
G37*
G36*
X122221627Y-129212299D02*
G01*
X122301742Y-129236601D01*
X122381855Y-129260903D01*
X122381857Y-129260904D01*
X122529518Y-129339831D01*
X122658949Y-129446051D01*
X122765169Y-129575482D01*
X122844096Y-129723143D01*
X122892701Y-129883373D01*
X122909112Y-130050000D01*
X122892701Y-130216627D01*
X122844096Y-130376857D01*
X122765169Y-130524518D01*
X122658949Y-130653949D01*
X122529518Y-130760169D01*
X122381857Y-130839096D01*
X122381855Y-130839097D01*
X122301742Y-130863399D01*
X122221627Y-130887701D01*
X122096752Y-130900000D01*
X122013248Y-130900000D01*
X121888373Y-130887701D01*
X121808258Y-130863399D01*
X121728145Y-130839097D01*
X121728143Y-130839096D01*
X121580482Y-130760169D01*
X121451051Y-130653949D01*
X121344831Y-130524518D01*
X121265904Y-130376857D01*
X121217299Y-130216627D01*
X121200888Y-130050000D01*
X121217299Y-129883373D01*
X121265904Y-129723143D01*
X121344831Y-129575482D01*
X121451051Y-129446051D01*
X121580482Y-129339831D01*
X121728143Y-129260904D01*
X121728145Y-129260903D01*
X121808258Y-129236601D01*
X121888373Y-129212299D01*
X122013248Y-129200000D01*
X122096752Y-129200000D01*
X122221627Y-129212299D01*
X122221627Y-129212299D01*
G37*
G36*
X124761627Y-129212299D02*
G01*
X124841742Y-129236601D01*
X124921855Y-129260903D01*
X124921857Y-129260904D01*
X125069518Y-129339831D01*
X125198949Y-129446051D01*
X125305169Y-129575482D01*
X125384096Y-129723143D01*
X125432701Y-129883373D01*
X125449112Y-130050000D01*
X125432701Y-130216627D01*
X125384096Y-130376857D01*
X125305169Y-130524518D01*
X125198949Y-130653949D01*
X125069518Y-130760169D01*
X124921857Y-130839096D01*
X124921855Y-130839097D01*
X124841742Y-130863399D01*
X124761627Y-130887701D01*
X124636752Y-130900000D01*
X124553248Y-130900000D01*
X124428373Y-130887701D01*
X124348258Y-130863399D01*
X124268145Y-130839097D01*
X124268143Y-130839096D01*
X124120482Y-130760169D01*
X123991051Y-130653949D01*
X123884831Y-130524518D01*
X123805904Y-130376857D01*
X123757299Y-130216627D01*
X123740888Y-130050000D01*
X123757299Y-129883373D01*
X123805904Y-129723143D01*
X123884831Y-129575482D01*
X123991051Y-129446051D01*
X124120482Y-129339831D01*
X124268143Y-129260904D01*
X124268145Y-129260903D01*
X124348258Y-129236601D01*
X124428373Y-129212299D01*
X124553248Y-129200000D01*
X124636752Y-129200000D01*
X124761627Y-129212299D01*
X124761627Y-129212299D01*
G37*
G36*
X127301627Y-129212299D02*
G01*
X127381742Y-129236601D01*
X127461855Y-129260903D01*
X127461857Y-129260904D01*
X127609518Y-129339831D01*
X127738949Y-129446051D01*
X127845169Y-129575482D01*
X127924096Y-129723143D01*
X127972701Y-129883373D01*
X127989112Y-130050000D01*
X127972701Y-130216627D01*
X127924096Y-130376857D01*
X127845169Y-130524518D01*
X127738949Y-130653949D01*
X127609518Y-130760169D01*
X127461857Y-130839096D01*
X127461855Y-130839097D01*
X127381742Y-130863399D01*
X127301627Y-130887701D01*
X127176752Y-130900000D01*
X127093248Y-130900000D01*
X126968373Y-130887701D01*
X126888258Y-130863399D01*
X126808145Y-130839097D01*
X126808143Y-130839096D01*
X126660482Y-130760169D01*
X126531051Y-130653949D01*
X126424831Y-130524518D01*
X126345904Y-130376857D01*
X126297299Y-130216627D01*
X126280888Y-130050000D01*
X126297299Y-129883373D01*
X126345904Y-129723143D01*
X126424831Y-129575482D01*
X126531051Y-129446051D01*
X126660482Y-129339831D01*
X126808143Y-129260904D01*
X126808145Y-129260903D01*
X126888258Y-129236601D01*
X126968373Y-129212299D01*
X127093248Y-129200000D01*
X127176752Y-129200000D01*
X127301627Y-129212299D01*
X127301627Y-129212299D01*
G37*
G36*
X116076627Y-129212299D02*
G01*
X116156742Y-129236601D01*
X116236855Y-129260903D01*
X116236857Y-129260904D01*
X116384518Y-129339831D01*
X116513949Y-129446051D01*
X116620169Y-129575482D01*
X116699096Y-129723143D01*
X116747701Y-129883373D01*
X116764112Y-130050000D01*
X116747701Y-130216627D01*
X116699096Y-130376857D01*
X116620169Y-130524518D01*
X116513949Y-130653949D01*
X116384518Y-130760169D01*
X116236857Y-130839096D01*
X116236855Y-130839097D01*
X116156742Y-130863399D01*
X116076627Y-130887701D01*
X115951752Y-130900000D01*
X115868248Y-130900000D01*
X115743373Y-130887701D01*
X115663258Y-130863399D01*
X115583145Y-130839097D01*
X115583143Y-130839096D01*
X115435482Y-130760169D01*
X115306051Y-130653949D01*
X115199831Y-130524518D01*
X115120904Y-130376857D01*
X115072299Y-130216627D01*
X115055888Y-130050000D01*
X115072299Y-129883373D01*
X115120904Y-129723143D01*
X115199831Y-129575482D01*
X115306051Y-129446051D01*
X115435482Y-129339831D01*
X115583143Y-129260904D01*
X115583145Y-129260903D01*
X115663258Y-129236601D01*
X115743373Y-129212299D01*
X115868248Y-129200000D01*
X115951752Y-129200000D01*
X116076627Y-129212299D01*
X116076627Y-129212299D01*
G37*
G36*
X113536627Y-129212299D02*
G01*
X113616742Y-129236601D01*
X113696855Y-129260903D01*
X113696857Y-129260904D01*
X113844518Y-129339831D01*
X113973949Y-129446051D01*
X114080169Y-129575482D01*
X114159096Y-129723143D01*
X114207701Y-129883373D01*
X114224112Y-130050000D01*
X114207701Y-130216627D01*
X114159096Y-130376857D01*
X114080169Y-130524518D01*
X113973949Y-130653949D01*
X113844518Y-130760169D01*
X113696857Y-130839096D01*
X113696855Y-130839097D01*
X113616742Y-130863399D01*
X113536627Y-130887701D01*
X113411752Y-130900000D01*
X113328248Y-130900000D01*
X113203373Y-130887701D01*
X113123258Y-130863399D01*
X113043145Y-130839097D01*
X113043143Y-130839096D01*
X112895482Y-130760169D01*
X112766051Y-130653949D01*
X112659831Y-130524518D01*
X112580904Y-130376857D01*
X112532299Y-130216627D01*
X112515888Y-130050000D01*
X112532299Y-129883373D01*
X112580904Y-129723143D01*
X112659831Y-129575482D01*
X112766051Y-129446051D01*
X112895482Y-129339831D01*
X113043143Y-129260904D01*
X113043145Y-129260903D01*
X113123258Y-129236601D01*
X113203373Y-129212299D01*
X113328248Y-129200000D01*
X113411752Y-129200000D01*
X113536627Y-129212299D01*
X113536627Y-129212299D01*
G37*
G36*
X110996627Y-129212299D02*
G01*
X111076742Y-129236601D01*
X111156855Y-129260903D01*
X111156857Y-129260904D01*
X111304518Y-129339831D01*
X111433949Y-129446051D01*
X111540169Y-129575482D01*
X111619096Y-129723143D01*
X111667701Y-129883373D01*
X111684112Y-130050000D01*
X111667701Y-130216627D01*
X111619096Y-130376857D01*
X111540169Y-130524518D01*
X111433949Y-130653949D01*
X111304518Y-130760169D01*
X111156857Y-130839096D01*
X111156855Y-130839097D01*
X111076742Y-130863399D01*
X110996627Y-130887701D01*
X110871752Y-130900000D01*
X110788248Y-130900000D01*
X110663373Y-130887701D01*
X110583258Y-130863399D01*
X110503145Y-130839097D01*
X110503143Y-130839096D01*
X110355482Y-130760169D01*
X110226051Y-130653949D01*
X110119831Y-130524518D01*
X110040904Y-130376857D01*
X109992299Y-130216627D01*
X109975888Y-130050000D01*
X109992299Y-129883373D01*
X110040904Y-129723143D01*
X110119831Y-129575482D01*
X110226051Y-129446051D01*
X110355482Y-129339831D01*
X110503143Y-129260904D01*
X110503145Y-129260903D01*
X110583258Y-129236601D01*
X110663373Y-129212299D01*
X110788248Y-129200000D01*
X110871752Y-129200000D01*
X110996627Y-129212299D01*
X110996627Y-129212299D01*
G37*
G36*
X108456627Y-129212299D02*
G01*
X108536742Y-129236601D01*
X108616855Y-129260903D01*
X108616857Y-129260904D01*
X108764518Y-129339831D01*
X108893949Y-129446051D01*
X109000169Y-129575482D01*
X109079096Y-129723143D01*
X109127701Y-129883373D01*
X109144112Y-130050000D01*
X109127701Y-130216627D01*
X109079096Y-130376857D01*
X109000169Y-130524518D01*
X108893949Y-130653949D01*
X108764518Y-130760169D01*
X108616857Y-130839096D01*
X108616855Y-130839097D01*
X108536742Y-130863399D01*
X108456627Y-130887701D01*
X108331752Y-130900000D01*
X108248248Y-130900000D01*
X108123373Y-130887701D01*
X108043258Y-130863399D01*
X107963145Y-130839097D01*
X107963143Y-130839096D01*
X107815482Y-130760169D01*
X107686051Y-130653949D01*
X107579831Y-130524518D01*
X107500904Y-130376857D01*
X107452299Y-130216627D01*
X107435888Y-130050000D01*
X107452299Y-129883373D01*
X107500904Y-129723143D01*
X107579831Y-129575482D01*
X107686051Y-129446051D01*
X107815482Y-129339831D01*
X107963143Y-129260904D01*
X107963145Y-129260903D01*
X108043258Y-129236601D01*
X108123373Y-129212299D01*
X108248248Y-129200000D01*
X108331752Y-129200000D01*
X108456627Y-129212299D01*
X108456627Y-129212299D01*
G37*
G36*
X106600000Y-130900000D02*
G01*
X104900000Y-130900000D01*
X104900000Y-129200000D01*
X106600000Y-129200000D01*
X106600000Y-130900000D01*
X106600000Y-130900000D01*
G37*
G36*
X129813015Y-126577234D02*
G01*
X129907270Y-126605826D01*
X129994128Y-126652253D01*
X130070264Y-126714736D01*
X130132747Y-126790872D01*
X130179174Y-126877730D01*
X130207766Y-126971985D01*
X130217419Y-127070000D01*
X130207766Y-127168015D01*
X130179174Y-127262270D01*
X130132747Y-127349128D01*
X130070264Y-127425264D01*
X129994128Y-127487747D01*
X129907270Y-127534174D01*
X129813015Y-127562766D01*
X129739564Y-127570000D01*
X128590436Y-127570000D01*
X128516985Y-127562766D01*
X128422730Y-127534174D01*
X128335872Y-127487747D01*
X128259736Y-127425264D01*
X128197253Y-127349128D01*
X128150826Y-127262270D01*
X128122234Y-127168015D01*
X128112581Y-127070000D01*
X128122234Y-126971985D01*
X128150826Y-126877730D01*
X128197253Y-126790872D01*
X128259736Y-126714736D01*
X128335872Y-126652253D01*
X128422730Y-126605826D01*
X128516985Y-126577234D01*
X128590436Y-126570000D01*
X129739564Y-126570000D01*
X129813015Y-126577234D01*
X129813015Y-126577234D01*
G37*
G36*
X133743015Y-126577234D02*
G01*
X133837270Y-126605826D01*
X133924128Y-126652253D01*
X134000264Y-126714736D01*
X134062747Y-126790872D01*
X134109174Y-126877730D01*
X134137766Y-126971985D01*
X134147419Y-127070000D01*
X134137766Y-127168015D01*
X134109174Y-127262270D01*
X134062747Y-127349128D01*
X134000264Y-127425264D01*
X133924128Y-127487747D01*
X133837270Y-127534174D01*
X133743015Y-127562766D01*
X133669564Y-127570000D01*
X133020436Y-127570000D01*
X132946985Y-127562766D01*
X132852730Y-127534174D01*
X132765872Y-127487747D01*
X132689736Y-127425264D01*
X132627253Y-127349128D01*
X132580826Y-127262270D01*
X132552234Y-127168015D01*
X132542581Y-127070000D01*
X132552234Y-126971985D01*
X132580826Y-126877730D01*
X132627253Y-126790872D01*
X132689736Y-126714736D01*
X132765872Y-126652253D01*
X132852730Y-126605826D01*
X132946985Y-126577234D01*
X133020436Y-126570000D01*
X133669564Y-126570000D01*
X133743015Y-126577234D01*
X133743015Y-126577234D01*
G37*
G36*
X129789799Y-125327489D02*
G01*
X129848945Y-125351988D01*
X129902176Y-125387556D01*
X129947444Y-125432824D01*
X129983012Y-125486055D01*
X130007511Y-125545201D01*
X130020000Y-125607990D01*
X130020000Y-125672010D01*
X130007511Y-125734799D01*
X129983012Y-125793945D01*
X129947444Y-125847176D01*
X129902176Y-125892444D01*
X129848945Y-125928012D01*
X129789799Y-125952511D01*
X129727010Y-125965000D01*
X129662990Y-125965000D01*
X129600201Y-125952511D01*
X129541055Y-125928012D01*
X129487824Y-125892444D01*
X129442556Y-125847176D01*
X129406988Y-125793945D01*
X129382489Y-125734799D01*
X129370000Y-125672010D01*
X129370000Y-125607990D01*
X129382489Y-125545201D01*
X129406988Y-125486055D01*
X129442556Y-125432824D01*
X129487824Y-125387556D01*
X129541055Y-125351988D01*
X129600201Y-125327489D01*
X129662990Y-125315000D01*
X129727010Y-125315000D01*
X129789799Y-125327489D01*
X129789799Y-125327489D01*
G37*
G36*
X129789799Y-119547489D02*
G01*
X129848945Y-119571988D01*
X129902176Y-119607556D01*
X129947444Y-119652824D01*
X129983012Y-119706055D01*
X130007511Y-119765201D01*
X130020000Y-119827990D01*
X130020000Y-119892010D01*
X130007511Y-119954799D01*
X129983012Y-120013945D01*
X129947444Y-120067176D01*
X129902176Y-120112444D01*
X129848945Y-120148012D01*
X129789799Y-120172511D01*
X129727010Y-120185000D01*
X129662990Y-120185000D01*
X129600201Y-120172511D01*
X129541055Y-120148012D01*
X129487824Y-120112444D01*
X129442556Y-120067176D01*
X129406988Y-120013945D01*
X129382489Y-119954799D01*
X129370000Y-119892010D01*
X129370000Y-119827990D01*
X129382489Y-119765201D01*
X129406988Y-119706055D01*
X129442556Y-119652824D01*
X129487824Y-119607556D01*
X129541055Y-119571988D01*
X129600201Y-119547489D01*
X129662990Y-119535000D01*
X129727010Y-119535000D01*
X129789799Y-119547489D01*
X129789799Y-119547489D01*
G37*
G36*
X133743015Y-117937234D02*
G01*
X133837270Y-117965826D01*
X133924128Y-118012253D01*
X134000264Y-118074736D01*
X134062747Y-118150872D01*
X134109174Y-118237730D01*
X134137766Y-118331985D01*
X134147419Y-118430000D01*
X134137766Y-118528015D01*
X134109174Y-118622270D01*
X134062747Y-118709128D01*
X134000264Y-118785264D01*
X133924128Y-118847747D01*
X133837270Y-118894174D01*
X133743015Y-118922766D01*
X133669564Y-118930000D01*
X133020436Y-118930000D01*
X132946985Y-118922766D01*
X132852730Y-118894174D01*
X132765872Y-118847747D01*
X132689736Y-118785264D01*
X132627253Y-118709128D01*
X132580826Y-118622270D01*
X132552234Y-118528015D01*
X132542581Y-118430000D01*
X132552234Y-118331985D01*
X132580826Y-118237730D01*
X132627253Y-118150872D01*
X132689736Y-118074736D01*
X132765872Y-118012253D01*
X132852730Y-117965826D01*
X132946985Y-117937234D01*
X133020436Y-117930000D01*
X133669564Y-117930000D01*
X133743015Y-117937234D01*
X133743015Y-117937234D01*
G37*
G36*
X129813015Y-117937234D02*
G01*
X129907270Y-117965826D01*
X129994128Y-118012253D01*
X130070264Y-118074736D01*
X130132747Y-118150872D01*
X130179174Y-118237730D01*
X130207766Y-118331985D01*
X130217419Y-118430000D01*
X130207766Y-118528015D01*
X130179174Y-118622270D01*
X130132747Y-118709128D01*
X130070264Y-118785264D01*
X129994128Y-118847747D01*
X129907270Y-118894174D01*
X129813015Y-118922766D01*
X129739564Y-118930000D01*
X128590436Y-118930000D01*
X128516985Y-118922766D01*
X128422730Y-118894174D01*
X128335872Y-118847747D01*
X128259736Y-118785264D01*
X128197253Y-118709128D01*
X128150826Y-118622270D01*
X128122234Y-118528015D01*
X128112581Y-118430000D01*
X128122234Y-118331985D01*
X128150826Y-118237730D01*
X128197253Y-118150872D01*
X128259736Y-118074736D01*
X128335872Y-118012253D01*
X128422730Y-117965826D01*
X128516985Y-117937234D01*
X128590436Y-117930000D01*
X129739564Y-117930000D01*
X129813015Y-117937234D01*
X129813015Y-117937234D01*
G37*
G36*
X133126377Y-114278363D02*
G01*
X133177091Y-114288450D01*
X133240787Y-114314834D01*
X133298112Y-114353137D01*
X133346863Y-114401888D01*
X133385166Y-114459213D01*
X133411550Y-114522909D01*
X133425000Y-114590528D01*
X133425000Y-114659472D01*
X133411550Y-114727091D01*
X133385166Y-114790787D01*
X133346863Y-114848112D01*
X133298112Y-114896863D01*
X133240787Y-114935166D01*
X133177091Y-114961550D01*
X133126377Y-114971637D01*
X133109473Y-114975000D01*
X133040527Y-114975000D01*
X133023623Y-114971637D01*
X132972909Y-114961550D01*
X132909213Y-114935166D01*
X132851888Y-114896863D01*
X132803137Y-114848112D01*
X132764834Y-114790787D01*
X132738450Y-114727091D01*
X132725000Y-114659472D01*
X132725000Y-114590528D01*
X132738450Y-114522909D01*
X132764834Y-114459213D01*
X132803137Y-114401888D01*
X132851888Y-114353137D01*
X132909213Y-114314834D01*
X132972909Y-114288450D01*
X133023623Y-114278363D01*
X133040527Y-114275000D01*
X133109473Y-114275000D01*
X133126377Y-114278363D01*
X133126377Y-114278363D01*
G37*
G36*
X134926377Y-114278363D02*
G01*
X134977091Y-114288450D01*
X135040787Y-114314834D01*
X135098112Y-114353137D01*
X135146863Y-114401888D01*
X135185166Y-114459213D01*
X135211550Y-114522909D01*
X135225000Y-114590528D01*
X135225000Y-114659472D01*
X135211550Y-114727091D01*
X135185166Y-114790787D01*
X135146863Y-114848112D01*
X135098112Y-114896863D01*
X135040787Y-114935166D01*
X134977091Y-114961550D01*
X134926377Y-114971637D01*
X134909473Y-114975000D01*
X134840527Y-114975000D01*
X134823623Y-114971637D01*
X134772909Y-114961550D01*
X134709213Y-114935166D01*
X134651888Y-114896863D01*
X134603137Y-114848112D01*
X134564834Y-114790787D01*
X134538450Y-114727091D01*
X134525000Y-114659472D01*
X134525000Y-114590528D01*
X134538450Y-114522909D01*
X134564834Y-114459213D01*
X134603137Y-114401888D01*
X134651888Y-114353137D01*
X134709213Y-114314834D01*
X134772909Y-114288450D01*
X134823623Y-114278363D01*
X134840527Y-114275000D01*
X134909473Y-114275000D01*
X134926377Y-114278363D01*
X134926377Y-114278363D01*
G37*
M02*
