%TF.GenerationSoftware,KiCad,Pcbnew,(6.0.0-rc1-dev-1-g01c5bdfb8)*%
%TF.CreationDate,2019-02-26T15:43:23+01:00*%
%TF.ProjectId,printhead_connector,7072696E74686561645F636F6E6E6563,rev?*%
%TF.SameCoordinates,Original*%
%TF.FileFunction,Copper,L1,Top,Signal*%
%TF.FilePolarity,Positive*%
%FSLAX46Y46*%
G04 Gerber Fmt 4.6, Leading zero omitted, Abs format (unit mm)*
G04 Created by KiCad (PCBNEW (6.0.0-rc1-dev-1-g01c5bdfb8)) date Tue Feb 26 15:43:23 2019*
%MOMM*%
%LPD*%
G01*
G04 APERTURE LIST*
%ADD10C,0.150000*%
%ADD11C,1.400000*%
%ADD12R,2.000000X3.000000*%
%ADD13R,0.300000X1.450000*%
%ADD14C,0.250000*%
%ADD15C,0.254000*%
G04 APERTURE END LIST*
D10*
X93500000Y-85500000D02*
G75*
G02X94000000Y-85000000I500000J0D01*
G01*
X106000000Y-85000000D02*
G75*
G02X106500000Y-85500000I0J-500000D01*
G01*
X106500000Y-107500000D02*
G75*
G02X106000000Y-108000000I-500000J0D01*
G01*
X94000000Y-108000000D02*
G75*
G02X93500000Y-107500000I0J500000D01*
G01*
X93500000Y-107500000D02*
X93500000Y-85500000D01*
X106000000Y-108000000D02*
X94000000Y-108000000D01*
X106500000Y-85500000D02*
X106500000Y-107500000D01*
X94000000Y-85000000D02*
X106000000Y-85000000D01*
D11*
X103690000Y-106200000D03*
X101940000Y-106200000D03*
X101860000Y-104480000D03*
X101860000Y-102700000D03*
X101860000Y-101000000D03*
X100880000Y-99300000D03*
X102700000Y-99500000D03*
X102700000Y-97800000D03*
X102700000Y-96000000D03*
X97950000Y-94200000D03*
X98390000Y-98300000D03*
X98390000Y-99940000D03*
X98390000Y-101650000D03*
X98030000Y-104480000D03*
X97870000Y-106200000D03*
X96200000Y-106200000D03*
D12*
X95000000Y-87000000D03*
X105000000Y-87000000D03*
D13*
X96500000Y-89500000D03*
X97000000Y-89500000D03*
X97500000Y-89500000D03*
X98000000Y-89500000D03*
X98500000Y-89500000D03*
X99000000Y-89500000D03*
X99500000Y-89500000D03*
X100000000Y-89500000D03*
X100500000Y-89500000D03*
X101000000Y-89500000D03*
X101500000Y-89500000D03*
X102000000Y-89500000D03*
X102500000Y-89500000D03*
X103000000Y-89500000D03*
X103500000Y-89500000D03*
D14*
X96500000Y-92860178D02*
X95500000Y-93860178D01*
X96500000Y-89500000D02*
X96500000Y-92860178D01*
X95500000Y-103830000D02*
X97870000Y-106200000D01*
X95500000Y-93860178D02*
X95500000Y-103830000D01*
X97000000Y-92996588D02*
X96000000Y-93996588D01*
X97000000Y-89500000D02*
X97000000Y-92996588D01*
X96000000Y-102450000D02*
X98030000Y-104480000D01*
X96000000Y-93996588D02*
X96000000Y-102450000D01*
X96500000Y-94132998D02*
X96500000Y-98050000D01*
X96500000Y-98050000D02*
X97690001Y-99240001D01*
X97690001Y-99240001D02*
X98390000Y-99940000D01*
X98000000Y-92632998D02*
X96500000Y-94132998D01*
X98000000Y-89500000D02*
X98000000Y-92632998D01*
X98500000Y-93650000D02*
X97950000Y-94200000D01*
X98500000Y-89500000D02*
X98500000Y-93650000D01*
X99000000Y-96700051D02*
X99000000Y-90475000D01*
X98390000Y-98300000D02*
X98390000Y-97310051D01*
X98390000Y-97310051D02*
X99000000Y-96700051D01*
X99000000Y-90475000D02*
X99000000Y-89500000D01*
X99500000Y-97920000D02*
X100880000Y-99300000D01*
X99500000Y-89500000D02*
X99500000Y-97920000D01*
X100000000Y-96800000D02*
X102700000Y-99500000D01*
X100000000Y-89500000D02*
X100000000Y-96800000D01*
X100500000Y-95600000D02*
X102700000Y-97800000D01*
X100500000Y-89500000D02*
X100500000Y-95600000D01*
X101000000Y-94300000D02*
X102700000Y-96000000D01*
X101000000Y-89500000D02*
X101000000Y-94300000D01*
X104000000Y-95782997D02*
X104000000Y-99849949D01*
X104000000Y-99849949D02*
X102849949Y-101000000D01*
X101500000Y-93282997D02*
X104000000Y-95782997D01*
X101500000Y-89500000D02*
X101500000Y-93282997D01*
X102849949Y-101000000D02*
X101860000Y-101000000D01*
X102000000Y-89500000D02*
X102000000Y-93146586D01*
X104500000Y-95646586D02*
X104500000Y-100060000D01*
X102559999Y-102000001D02*
X101860000Y-102700000D01*
X102000000Y-93146586D02*
X104500000Y-95646586D01*
X104500000Y-100060000D02*
X102559999Y-102000001D01*
X105000000Y-101340000D02*
X101860000Y-104480000D01*
X105000000Y-95510176D02*
X105000000Y-101340000D01*
X102500000Y-89500000D02*
X102500000Y-93010176D01*
X102500000Y-93010176D02*
X105000000Y-95510176D01*
D15*
G36*
X103677732Y-85435897D02*
X103671418Y-85500000D01*
X103671418Y-88448000D01*
X103656750Y-88448000D01*
X103575000Y-88529750D01*
X103575000Y-89373000D01*
X103895250Y-89373000D01*
X103977000Y-89291250D01*
X103977000Y-88826317D01*
X104000000Y-88828582D01*
X106000000Y-88828582D01*
X106064103Y-88822268D01*
X106098000Y-88811986D01*
X106098001Y-107480325D01*
X106094242Y-107518663D01*
X106088824Y-107536609D01*
X106080021Y-107553166D01*
X106068171Y-107567695D01*
X106053722Y-107579648D01*
X106037227Y-107588567D01*
X106019319Y-107594110D01*
X105982308Y-107598000D01*
X94019665Y-107598000D01*
X93981337Y-107594242D01*
X93963391Y-107588824D01*
X93946834Y-107580021D01*
X93932305Y-107568171D01*
X93920352Y-107553722D01*
X93911433Y-107537227D01*
X93905890Y-107519319D01*
X93902000Y-107482308D01*
X93902000Y-106955681D01*
X95623924Y-106955681D01*
X95700780Y-107103183D01*
X95886575Y-107183222D01*
X96084415Y-107225476D01*
X96286696Y-107228321D01*
X96485646Y-107191648D01*
X96673618Y-107116866D01*
X96699220Y-107103183D01*
X96776076Y-106955681D01*
X96200000Y-106379605D01*
X95623924Y-106955681D01*
X93902000Y-106955681D01*
X93902000Y-106286696D01*
X95171679Y-106286696D01*
X95208352Y-106485646D01*
X95283134Y-106673618D01*
X95296817Y-106699220D01*
X95444319Y-106776076D01*
X96020395Y-106200000D01*
X95444319Y-105623924D01*
X95296817Y-105700780D01*
X95216778Y-105886575D01*
X95174524Y-106084415D01*
X95171679Y-106286696D01*
X93902000Y-106286696D01*
X93902000Y-88811986D01*
X93935897Y-88822268D01*
X94000000Y-88828582D01*
X96000000Y-88828582D01*
X96021418Y-88826472D01*
X96021418Y-90225000D01*
X96027732Y-90289103D01*
X96046430Y-90350743D01*
X96048000Y-90353681D01*
X96048001Y-92672953D01*
X95196100Y-93524855D01*
X95178841Y-93539019D01*
X95122357Y-93607846D01*
X95084426Y-93678811D01*
X95080386Y-93686369D01*
X95054540Y-93771571D01*
X95045813Y-93860178D01*
X95048000Y-93882383D01*
X95048001Y-103807785D01*
X95045813Y-103830000D01*
X95054540Y-103918607D01*
X95080386Y-104003809D01*
X95080387Y-104003810D01*
X95122358Y-104082333D01*
X95178842Y-104151159D01*
X95196096Y-104165319D01*
X96203727Y-105172951D01*
X96113304Y-105171679D01*
X95914354Y-105208352D01*
X95726382Y-105283134D01*
X95700780Y-105296817D01*
X95623924Y-105444319D01*
X96200000Y-106020395D01*
X96214143Y-106006253D01*
X96393748Y-106185858D01*
X96379605Y-106200000D01*
X96955681Y-106776076D01*
X97003212Y-106751310D01*
X97072277Y-106854674D01*
X97215326Y-106997723D01*
X97383533Y-107110115D01*
X97570435Y-107187533D01*
X97768849Y-107227000D01*
X97971151Y-107227000D01*
X98169565Y-107187533D01*
X98356467Y-107110115D01*
X98524674Y-106997723D01*
X98667723Y-106854674D01*
X98780115Y-106686467D01*
X98857533Y-106499565D01*
X98897000Y-106301151D01*
X98897000Y-106098849D01*
X98857533Y-105900435D01*
X98780115Y-105713533D01*
X98667723Y-105545326D01*
X98524674Y-105402277D01*
X98510297Y-105392671D01*
X98516467Y-105390115D01*
X98684674Y-105277723D01*
X98827723Y-105134674D01*
X98940115Y-104966467D01*
X99017533Y-104779565D01*
X99057000Y-104581151D01*
X99057000Y-104378849D01*
X99017533Y-104180435D01*
X98940115Y-103993533D01*
X98827723Y-103825326D01*
X98684674Y-103682277D01*
X98516467Y-103569885D01*
X98329565Y-103492467D01*
X98131151Y-103453000D01*
X97928849Y-103453000D01*
X97730435Y-103492467D01*
X97695968Y-103506744D01*
X96452000Y-102262777D01*
X96452000Y-98641223D01*
X97386090Y-99575314D01*
X97386095Y-99575318D01*
X97416744Y-99605967D01*
X97402467Y-99640435D01*
X97363000Y-99838849D01*
X97363000Y-100041151D01*
X97402467Y-100239565D01*
X97479885Y-100426467D01*
X97592277Y-100594674D01*
X97735326Y-100737723D01*
X97821047Y-100795000D01*
X97735326Y-100852277D01*
X97592277Y-100995326D01*
X97479885Y-101163533D01*
X97402467Y-101350435D01*
X97363000Y-101548849D01*
X97363000Y-101751151D01*
X97402467Y-101949565D01*
X97479885Y-102136467D01*
X97592277Y-102304674D01*
X97735326Y-102447723D01*
X97903533Y-102560115D01*
X98090435Y-102637533D01*
X98288849Y-102677000D01*
X98491151Y-102677000D01*
X98689565Y-102637533D01*
X98876467Y-102560115D01*
X99044674Y-102447723D01*
X99187723Y-102304674D01*
X99300115Y-102136467D01*
X99377533Y-101949565D01*
X99417000Y-101751151D01*
X99417000Y-101548849D01*
X99377533Y-101350435D01*
X99300115Y-101163533D01*
X99187723Y-100995326D01*
X99044674Y-100852277D01*
X98958953Y-100795000D01*
X99044674Y-100737723D01*
X99187723Y-100594674D01*
X99300115Y-100426467D01*
X99377533Y-100239565D01*
X99417000Y-100041151D01*
X99417000Y-99838849D01*
X99377533Y-99640435D01*
X99300115Y-99453533D01*
X99187723Y-99285326D01*
X99044674Y-99142277D01*
X99011334Y-99120000D01*
X99044674Y-99097723D01*
X99187723Y-98954674D01*
X99300115Y-98786467D01*
X99377533Y-98599565D01*
X99404545Y-98463768D01*
X99906744Y-98965968D01*
X99892467Y-99000435D01*
X99853000Y-99198849D01*
X99853000Y-99401151D01*
X99892467Y-99599565D01*
X99969885Y-99786467D01*
X100082277Y-99954674D01*
X100225326Y-100097723D01*
X100393533Y-100210115D01*
X100580435Y-100287533D01*
X100778849Y-100327000D01*
X100981151Y-100327000D01*
X101105297Y-100302306D01*
X101062277Y-100345326D01*
X100949885Y-100513533D01*
X100872467Y-100700435D01*
X100833000Y-100898849D01*
X100833000Y-101101151D01*
X100872467Y-101299565D01*
X100949885Y-101486467D01*
X101062277Y-101654674D01*
X101205326Y-101797723D01*
X101283564Y-101850000D01*
X101205326Y-101902277D01*
X101062277Y-102045326D01*
X100949885Y-102213533D01*
X100872467Y-102400435D01*
X100833000Y-102598849D01*
X100833000Y-102801151D01*
X100872467Y-102999565D01*
X100949885Y-103186467D01*
X101062277Y-103354674D01*
X101205326Y-103497723D01*
X101343429Y-103590000D01*
X101205326Y-103682277D01*
X101062277Y-103825326D01*
X100949885Y-103993533D01*
X100872467Y-104180435D01*
X100833000Y-104378849D01*
X100833000Y-104581151D01*
X100872467Y-104779565D01*
X100949885Y-104966467D01*
X101062277Y-105134674D01*
X101205326Y-105277723D01*
X101338530Y-105366727D01*
X101285326Y-105402277D01*
X101142277Y-105545326D01*
X101029885Y-105713533D01*
X100952467Y-105900435D01*
X100913000Y-106098849D01*
X100913000Y-106301151D01*
X100952467Y-106499565D01*
X101029885Y-106686467D01*
X101142277Y-106854674D01*
X101285326Y-106997723D01*
X101453533Y-107110115D01*
X101640435Y-107187533D01*
X101838849Y-107227000D01*
X102041151Y-107227000D01*
X102239565Y-107187533D01*
X102426467Y-107110115D01*
X102594674Y-106997723D01*
X102636716Y-106955681D01*
X103113924Y-106955681D01*
X103190780Y-107103183D01*
X103376575Y-107183222D01*
X103574415Y-107225476D01*
X103776696Y-107228321D01*
X103975646Y-107191648D01*
X104163618Y-107116866D01*
X104189220Y-107103183D01*
X104266076Y-106955681D01*
X103690000Y-106379605D01*
X103113924Y-106955681D01*
X102636716Y-106955681D01*
X102737723Y-106854674D01*
X102827448Y-106720391D01*
X102934319Y-106776076D01*
X103510395Y-106200000D01*
X103869605Y-106200000D01*
X104445681Y-106776076D01*
X104593183Y-106699220D01*
X104673222Y-106513425D01*
X104715476Y-106315585D01*
X104718321Y-106113304D01*
X104681648Y-105914354D01*
X104606866Y-105726382D01*
X104593183Y-105700780D01*
X104445681Y-105623924D01*
X103869605Y-106200000D01*
X103510395Y-106200000D01*
X102934319Y-105623924D01*
X102827448Y-105679609D01*
X102737723Y-105545326D01*
X102636716Y-105444319D01*
X103113924Y-105444319D01*
X103690000Y-106020395D01*
X104266076Y-105444319D01*
X104189220Y-105296817D01*
X104003425Y-105216778D01*
X103805585Y-105174524D01*
X103603304Y-105171679D01*
X103404354Y-105208352D01*
X103216382Y-105283134D01*
X103190780Y-105296817D01*
X103113924Y-105444319D01*
X102636716Y-105444319D01*
X102594674Y-105402277D01*
X102461470Y-105313273D01*
X102514674Y-105277723D01*
X102657723Y-105134674D01*
X102770115Y-104966467D01*
X102847533Y-104779565D01*
X102887000Y-104581151D01*
X102887000Y-104378849D01*
X102847533Y-104180435D01*
X102833256Y-104145967D01*
X105303905Y-101675319D01*
X105321159Y-101661159D01*
X105377643Y-101592333D01*
X105419614Y-101513810D01*
X105427908Y-101486467D01*
X105445460Y-101428608D01*
X105454187Y-101340000D01*
X105452000Y-101317795D01*
X105452000Y-95532381D01*
X105454187Y-95510176D01*
X105445460Y-95421568D01*
X105419614Y-95336366D01*
X105381301Y-95264687D01*
X105377643Y-95257843D01*
X105321159Y-95189017D01*
X105303906Y-95174858D01*
X102952000Y-92822953D01*
X102952000Y-90553582D01*
X103150000Y-90553582D01*
X103214103Y-90547268D01*
X103248408Y-90536862D01*
X103254617Y-90539434D01*
X103317793Y-90552000D01*
X103343250Y-90552000D01*
X103425000Y-90470250D01*
X103425000Y-90404194D01*
X103453570Y-90350743D01*
X103472268Y-90289103D01*
X103478582Y-90225000D01*
X103478582Y-89627000D01*
X103575000Y-89627000D01*
X103575000Y-90470250D01*
X103656750Y-90552000D01*
X103682207Y-90552000D01*
X103745383Y-90539434D01*
X103804893Y-90514784D01*
X103858451Y-90478997D01*
X103903998Y-90433450D01*
X103939784Y-90379892D01*
X103964434Y-90320382D01*
X103977000Y-90257206D01*
X103977000Y-89708750D01*
X103895250Y-89627000D01*
X103575000Y-89627000D01*
X103478582Y-89627000D01*
X103478582Y-88775000D01*
X103472268Y-88710897D01*
X103453570Y-88649257D01*
X103425000Y-88595806D01*
X103425000Y-88529750D01*
X103343250Y-88448000D01*
X103317793Y-88448000D01*
X103254617Y-88460566D01*
X103248408Y-88463138D01*
X103214103Y-88452732D01*
X103150000Y-88446418D01*
X102850000Y-88446418D01*
X102785897Y-88452732D01*
X102750000Y-88463621D01*
X102714103Y-88452732D01*
X102650000Y-88446418D01*
X102350000Y-88446418D01*
X102285897Y-88452732D01*
X102250000Y-88463621D01*
X102214103Y-88452732D01*
X102150000Y-88446418D01*
X101850000Y-88446418D01*
X101785897Y-88452732D01*
X101750000Y-88463621D01*
X101714103Y-88452732D01*
X101650000Y-88446418D01*
X101350000Y-88446418D01*
X101285897Y-88452732D01*
X101250000Y-88463621D01*
X101214103Y-88452732D01*
X101150000Y-88446418D01*
X100850000Y-88446418D01*
X100785897Y-88452732D01*
X100750000Y-88463621D01*
X100714103Y-88452732D01*
X100650000Y-88446418D01*
X100350000Y-88446418D01*
X100285897Y-88452732D01*
X100250000Y-88463621D01*
X100214103Y-88452732D01*
X100150000Y-88446418D01*
X99850000Y-88446418D01*
X99785897Y-88452732D01*
X99750000Y-88463621D01*
X99714103Y-88452732D01*
X99650000Y-88446418D01*
X99350000Y-88446418D01*
X99285897Y-88452732D01*
X99250000Y-88463621D01*
X99214103Y-88452732D01*
X99150000Y-88446418D01*
X98850000Y-88446418D01*
X98785897Y-88452732D01*
X98750000Y-88463621D01*
X98714103Y-88452732D01*
X98650000Y-88446418D01*
X98350000Y-88446418D01*
X98285897Y-88452732D01*
X98250000Y-88463621D01*
X98214103Y-88452732D01*
X98150000Y-88446418D01*
X97850000Y-88446418D01*
X97785897Y-88452732D01*
X97750000Y-88463621D01*
X97714103Y-88452732D01*
X97650000Y-88446418D01*
X97350000Y-88446418D01*
X97285897Y-88452732D01*
X97250000Y-88463621D01*
X97214103Y-88452732D01*
X97150000Y-88446418D01*
X96850000Y-88446418D01*
X96785897Y-88452732D01*
X96750000Y-88463621D01*
X96714103Y-88452732D01*
X96650000Y-88446418D01*
X96350000Y-88446418D01*
X96328582Y-88448528D01*
X96328582Y-85500000D01*
X96322268Y-85435897D01*
X96311986Y-85402000D01*
X103688014Y-85402000D01*
X103677732Y-85435897D01*
X103677732Y-85435897D01*
G37*
X103677732Y-85435897D02*
X103671418Y-85500000D01*
X103671418Y-88448000D01*
X103656750Y-88448000D01*
X103575000Y-88529750D01*
X103575000Y-89373000D01*
X103895250Y-89373000D01*
X103977000Y-89291250D01*
X103977000Y-88826317D01*
X104000000Y-88828582D01*
X106000000Y-88828582D01*
X106064103Y-88822268D01*
X106098000Y-88811986D01*
X106098001Y-107480325D01*
X106094242Y-107518663D01*
X106088824Y-107536609D01*
X106080021Y-107553166D01*
X106068171Y-107567695D01*
X106053722Y-107579648D01*
X106037227Y-107588567D01*
X106019319Y-107594110D01*
X105982308Y-107598000D01*
X94019665Y-107598000D01*
X93981337Y-107594242D01*
X93963391Y-107588824D01*
X93946834Y-107580021D01*
X93932305Y-107568171D01*
X93920352Y-107553722D01*
X93911433Y-107537227D01*
X93905890Y-107519319D01*
X93902000Y-107482308D01*
X93902000Y-106955681D01*
X95623924Y-106955681D01*
X95700780Y-107103183D01*
X95886575Y-107183222D01*
X96084415Y-107225476D01*
X96286696Y-107228321D01*
X96485646Y-107191648D01*
X96673618Y-107116866D01*
X96699220Y-107103183D01*
X96776076Y-106955681D01*
X96200000Y-106379605D01*
X95623924Y-106955681D01*
X93902000Y-106955681D01*
X93902000Y-106286696D01*
X95171679Y-106286696D01*
X95208352Y-106485646D01*
X95283134Y-106673618D01*
X95296817Y-106699220D01*
X95444319Y-106776076D01*
X96020395Y-106200000D01*
X95444319Y-105623924D01*
X95296817Y-105700780D01*
X95216778Y-105886575D01*
X95174524Y-106084415D01*
X95171679Y-106286696D01*
X93902000Y-106286696D01*
X93902000Y-88811986D01*
X93935897Y-88822268D01*
X94000000Y-88828582D01*
X96000000Y-88828582D01*
X96021418Y-88826472D01*
X96021418Y-90225000D01*
X96027732Y-90289103D01*
X96046430Y-90350743D01*
X96048000Y-90353681D01*
X96048001Y-92672953D01*
X95196100Y-93524855D01*
X95178841Y-93539019D01*
X95122357Y-93607846D01*
X95084426Y-93678811D01*
X95080386Y-93686369D01*
X95054540Y-93771571D01*
X95045813Y-93860178D01*
X95048000Y-93882383D01*
X95048001Y-103807785D01*
X95045813Y-103830000D01*
X95054540Y-103918607D01*
X95080386Y-104003809D01*
X95080387Y-104003810D01*
X95122358Y-104082333D01*
X95178842Y-104151159D01*
X95196096Y-104165319D01*
X96203727Y-105172951D01*
X96113304Y-105171679D01*
X95914354Y-105208352D01*
X95726382Y-105283134D01*
X95700780Y-105296817D01*
X95623924Y-105444319D01*
X96200000Y-106020395D01*
X96214143Y-106006253D01*
X96393748Y-106185858D01*
X96379605Y-106200000D01*
X96955681Y-106776076D01*
X97003212Y-106751310D01*
X97072277Y-106854674D01*
X97215326Y-106997723D01*
X97383533Y-107110115D01*
X97570435Y-107187533D01*
X97768849Y-107227000D01*
X97971151Y-107227000D01*
X98169565Y-107187533D01*
X98356467Y-107110115D01*
X98524674Y-106997723D01*
X98667723Y-106854674D01*
X98780115Y-106686467D01*
X98857533Y-106499565D01*
X98897000Y-106301151D01*
X98897000Y-106098849D01*
X98857533Y-105900435D01*
X98780115Y-105713533D01*
X98667723Y-105545326D01*
X98524674Y-105402277D01*
X98510297Y-105392671D01*
X98516467Y-105390115D01*
X98684674Y-105277723D01*
X98827723Y-105134674D01*
X98940115Y-104966467D01*
X99017533Y-104779565D01*
X99057000Y-104581151D01*
X99057000Y-104378849D01*
X99017533Y-104180435D01*
X98940115Y-103993533D01*
X98827723Y-103825326D01*
X98684674Y-103682277D01*
X98516467Y-103569885D01*
X98329565Y-103492467D01*
X98131151Y-103453000D01*
X97928849Y-103453000D01*
X97730435Y-103492467D01*
X97695968Y-103506744D01*
X96452000Y-102262777D01*
X96452000Y-98641223D01*
X97386090Y-99575314D01*
X97386095Y-99575318D01*
X97416744Y-99605967D01*
X97402467Y-99640435D01*
X97363000Y-99838849D01*
X97363000Y-100041151D01*
X97402467Y-100239565D01*
X97479885Y-100426467D01*
X97592277Y-100594674D01*
X97735326Y-100737723D01*
X97821047Y-100795000D01*
X97735326Y-100852277D01*
X97592277Y-100995326D01*
X97479885Y-101163533D01*
X97402467Y-101350435D01*
X97363000Y-101548849D01*
X97363000Y-101751151D01*
X97402467Y-101949565D01*
X97479885Y-102136467D01*
X97592277Y-102304674D01*
X97735326Y-102447723D01*
X97903533Y-102560115D01*
X98090435Y-102637533D01*
X98288849Y-102677000D01*
X98491151Y-102677000D01*
X98689565Y-102637533D01*
X98876467Y-102560115D01*
X99044674Y-102447723D01*
X99187723Y-102304674D01*
X99300115Y-102136467D01*
X99377533Y-101949565D01*
X99417000Y-101751151D01*
X99417000Y-101548849D01*
X99377533Y-101350435D01*
X99300115Y-101163533D01*
X99187723Y-100995326D01*
X99044674Y-100852277D01*
X98958953Y-100795000D01*
X99044674Y-100737723D01*
X99187723Y-100594674D01*
X99300115Y-100426467D01*
X99377533Y-100239565D01*
X99417000Y-100041151D01*
X99417000Y-99838849D01*
X99377533Y-99640435D01*
X99300115Y-99453533D01*
X99187723Y-99285326D01*
X99044674Y-99142277D01*
X99011334Y-99120000D01*
X99044674Y-99097723D01*
X99187723Y-98954674D01*
X99300115Y-98786467D01*
X99377533Y-98599565D01*
X99404545Y-98463768D01*
X99906744Y-98965968D01*
X99892467Y-99000435D01*
X99853000Y-99198849D01*
X99853000Y-99401151D01*
X99892467Y-99599565D01*
X99969885Y-99786467D01*
X100082277Y-99954674D01*
X100225326Y-100097723D01*
X100393533Y-100210115D01*
X100580435Y-100287533D01*
X100778849Y-100327000D01*
X100981151Y-100327000D01*
X101105297Y-100302306D01*
X101062277Y-100345326D01*
X100949885Y-100513533D01*
X100872467Y-100700435D01*
X100833000Y-100898849D01*
X100833000Y-101101151D01*
X100872467Y-101299565D01*
X100949885Y-101486467D01*
X101062277Y-101654674D01*
X101205326Y-101797723D01*
X101283564Y-101850000D01*
X101205326Y-101902277D01*
X101062277Y-102045326D01*
X100949885Y-102213533D01*
X100872467Y-102400435D01*
X100833000Y-102598849D01*
X100833000Y-102801151D01*
X100872467Y-102999565D01*
X100949885Y-103186467D01*
X101062277Y-103354674D01*
X101205326Y-103497723D01*
X101343429Y-103590000D01*
X101205326Y-103682277D01*
X101062277Y-103825326D01*
X100949885Y-103993533D01*
X100872467Y-104180435D01*
X100833000Y-104378849D01*
X100833000Y-104581151D01*
X100872467Y-104779565D01*
X100949885Y-104966467D01*
X101062277Y-105134674D01*
X101205326Y-105277723D01*
X101338530Y-105366727D01*
X101285326Y-105402277D01*
X101142277Y-105545326D01*
X101029885Y-105713533D01*
X100952467Y-105900435D01*
X100913000Y-106098849D01*
X100913000Y-106301151D01*
X100952467Y-106499565D01*
X101029885Y-106686467D01*
X101142277Y-106854674D01*
X101285326Y-106997723D01*
X101453533Y-107110115D01*
X101640435Y-107187533D01*
X101838849Y-107227000D01*
X102041151Y-107227000D01*
X102239565Y-107187533D01*
X102426467Y-107110115D01*
X102594674Y-106997723D01*
X102636716Y-106955681D01*
X103113924Y-106955681D01*
X103190780Y-107103183D01*
X103376575Y-107183222D01*
X103574415Y-107225476D01*
X103776696Y-107228321D01*
X103975646Y-107191648D01*
X104163618Y-107116866D01*
X104189220Y-107103183D01*
X104266076Y-106955681D01*
X103690000Y-106379605D01*
X103113924Y-106955681D01*
X102636716Y-106955681D01*
X102737723Y-106854674D01*
X102827448Y-106720391D01*
X102934319Y-106776076D01*
X103510395Y-106200000D01*
X103869605Y-106200000D01*
X104445681Y-106776076D01*
X104593183Y-106699220D01*
X104673222Y-106513425D01*
X104715476Y-106315585D01*
X104718321Y-106113304D01*
X104681648Y-105914354D01*
X104606866Y-105726382D01*
X104593183Y-105700780D01*
X104445681Y-105623924D01*
X103869605Y-106200000D01*
X103510395Y-106200000D01*
X102934319Y-105623924D01*
X102827448Y-105679609D01*
X102737723Y-105545326D01*
X102636716Y-105444319D01*
X103113924Y-105444319D01*
X103690000Y-106020395D01*
X104266076Y-105444319D01*
X104189220Y-105296817D01*
X104003425Y-105216778D01*
X103805585Y-105174524D01*
X103603304Y-105171679D01*
X103404354Y-105208352D01*
X103216382Y-105283134D01*
X103190780Y-105296817D01*
X103113924Y-105444319D01*
X102636716Y-105444319D01*
X102594674Y-105402277D01*
X102461470Y-105313273D01*
X102514674Y-105277723D01*
X102657723Y-105134674D01*
X102770115Y-104966467D01*
X102847533Y-104779565D01*
X102887000Y-104581151D01*
X102887000Y-104378849D01*
X102847533Y-104180435D01*
X102833256Y-104145967D01*
X105303905Y-101675319D01*
X105321159Y-101661159D01*
X105377643Y-101592333D01*
X105419614Y-101513810D01*
X105427908Y-101486467D01*
X105445460Y-101428608D01*
X105454187Y-101340000D01*
X105452000Y-101317795D01*
X105452000Y-95532381D01*
X105454187Y-95510176D01*
X105445460Y-95421568D01*
X105419614Y-95336366D01*
X105381301Y-95264687D01*
X105377643Y-95257843D01*
X105321159Y-95189017D01*
X105303906Y-95174858D01*
X102952000Y-92822953D01*
X102952000Y-90553582D01*
X103150000Y-90553582D01*
X103214103Y-90547268D01*
X103248408Y-90536862D01*
X103254617Y-90539434D01*
X103317793Y-90552000D01*
X103343250Y-90552000D01*
X103425000Y-90470250D01*
X103425000Y-90404194D01*
X103453570Y-90350743D01*
X103472268Y-90289103D01*
X103478582Y-90225000D01*
X103478582Y-89627000D01*
X103575000Y-89627000D01*
X103575000Y-90470250D01*
X103656750Y-90552000D01*
X103682207Y-90552000D01*
X103745383Y-90539434D01*
X103804893Y-90514784D01*
X103858451Y-90478997D01*
X103903998Y-90433450D01*
X103939784Y-90379892D01*
X103964434Y-90320382D01*
X103977000Y-90257206D01*
X103977000Y-89708750D01*
X103895250Y-89627000D01*
X103575000Y-89627000D01*
X103478582Y-89627000D01*
X103478582Y-88775000D01*
X103472268Y-88710897D01*
X103453570Y-88649257D01*
X103425000Y-88595806D01*
X103425000Y-88529750D01*
X103343250Y-88448000D01*
X103317793Y-88448000D01*
X103254617Y-88460566D01*
X103248408Y-88463138D01*
X103214103Y-88452732D01*
X103150000Y-88446418D01*
X102850000Y-88446418D01*
X102785897Y-88452732D01*
X102750000Y-88463621D01*
X102714103Y-88452732D01*
X102650000Y-88446418D01*
X102350000Y-88446418D01*
X102285897Y-88452732D01*
X102250000Y-88463621D01*
X102214103Y-88452732D01*
X102150000Y-88446418D01*
X101850000Y-88446418D01*
X101785897Y-88452732D01*
X101750000Y-88463621D01*
X101714103Y-88452732D01*
X101650000Y-88446418D01*
X101350000Y-88446418D01*
X101285897Y-88452732D01*
X101250000Y-88463621D01*
X101214103Y-88452732D01*
X101150000Y-88446418D01*
X100850000Y-88446418D01*
X100785897Y-88452732D01*
X100750000Y-88463621D01*
X100714103Y-88452732D01*
X100650000Y-88446418D01*
X100350000Y-88446418D01*
X100285897Y-88452732D01*
X100250000Y-88463621D01*
X100214103Y-88452732D01*
X100150000Y-88446418D01*
X99850000Y-88446418D01*
X99785897Y-88452732D01*
X99750000Y-88463621D01*
X99714103Y-88452732D01*
X99650000Y-88446418D01*
X99350000Y-88446418D01*
X99285897Y-88452732D01*
X99250000Y-88463621D01*
X99214103Y-88452732D01*
X99150000Y-88446418D01*
X98850000Y-88446418D01*
X98785897Y-88452732D01*
X98750000Y-88463621D01*
X98714103Y-88452732D01*
X98650000Y-88446418D01*
X98350000Y-88446418D01*
X98285897Y-88452732D01*
X98250000Y-88463621D01*
X98214103Y-88452732D01*
X98150000Y-88446418D01*
X97850000Y-88446418D01*
X97785897Y-88452732D01*
X97750000Y-88463621D01*
X97714103Y-88452732D01*
X97650000Y-88446418D01*
X97350000Y-88446418D01*
X97285897Y-88452732D01*
X97250000Y-88463621D01*
X97214103Y-88452732D01*
X97150000Y-88446418D01*
X96850000Y-88446418D01*
X96785897Y-88452732D01*
X96750000Y-88463621D01*
X96714103Y-88452732D01*
X96650000Y-88446418D01*
X96350000Y-88446418D01*
X96328582Y-88448528D01*
X96328582Y-85500000D01*
X96322268Y-85435897D01*
X96311986Y-85402000D01*
X103688014Y-85402000D01*
X103677732Y-85435897D01*
M02*
