%TF.GenerationSoftware,KiCad,Pcbnew,(6.0.0-rc1-dev-1-g01c5bdfb8)*%
%TF.CreationDate,2019-02-26T15:43:23+01:00*%
%TF.ProjectId,printhead_connector,7072696E74686561645F636F6E6E6563,rev?*%
%TF.SameCoordinates,Original*%
%TF.FileFunction,Copper,L2,Bot,Signal*%
%TF.FilePolarity,Positive*%
%FSLAX46Y46*%
G04 Gerber Fmt 4.6, Leading zero omitted, Abs format (unit mm)*
G04 Created by KiCad (PCBNEW (6.0.0-rc1-dev-1-g01c5bdfb8)) date Tue Feb 26 15:43:23 2019*
%MOMM*%
%LPD*%
G01*
G04 APERTURE LIST*
%ADD10C,0.150000*%
%ADD11C,1.400000*%
%ADD12C,0.254000*%
G04 APERTURE END LIST*
D10*
X93500000Y-85500000D02*
G75*
G02X94000000Y-85000000I500000J0D01*
G01*
X106000000Y-85000000D02*
G75*
G02X106500000Y-85500000I0J-500000D01*
G01*
X106500000Y-107500000D02*
G75*
G02X106000000Y-108000000I-500000J0D01*
G01*
X94000000Y-108000000D02*
G75*
G02X93500000Y-107500000I0J500000D01*
G01*
X93500000Y-107500000D02*
X93500000Y-85500000D01*
X106000000Y-108000000D02*
X94000000Y-108000000D01*
X106500000Y-85500000D02*
X106500000Y-107500000D01*
X94000000Y-85000000D02*
X106000000Y-85000000D01*
D11*
X103690000Y-106200000D03*
X101940000Y-106200000D03*
X101860000Y-104480000D03*
X101860000Y-102700000D03*
X101860000Y-101000000D03*
X100880000Y-99300000D03*
X102700000Y-99500000D03*
X102700000Y-97800000D03*
X102700000Y-96000000D03*
X97950000Y-94200000D03*
X98390000Y-98300000D03*
X98390000Y-99940000D03*
X98390000Y-101650000D03*
X98030000Y-104480000D03*
X97870000Y-106200000D03*
X96200000Y-106200000D03*
D12*
G36*
X105790001Y-107290000D02*
X104388746Y-107290000D01*
X104431664Y-107121269D01*
X103690000Y-106379605D01*
X103675858Y-106393748D01*
X103496253Y-106214143D01*
X103510395Y-106200000D01*
X103869605Y-106200000D01*
X104611269Y-106941664D01*
X104845037Y-106882203D01*
X104955934Y-106643758D01*
X105018183Y-106388260D01*
X105029390Y-106125527D01*
X104989125Y-105865656D01*
X104898935Y-105618634D01*
X104845037Y-105517797D01*
X104611269Y-105458336D01*
X103869605Y-106200000D01*
X103510395Y-106200000D01*
X103496253Y-106185858D01*
X103675858Y-106006253D01*
X103690000Y-106020395D01*
X104431664Y-105278731D01*
X104372203Y-105044963D01*
X104133758Y-104934066D01*
X103878260Y-104871817D01*
X103615527Y-104860610D01*
X103355656Y-104900875D01*
X103108634Y-104991065D01*
X103088943Y-105001590D01*
X103143696Y-104869405D01*
X103195000Y-104611486D01*
X103195000Y-104348514D01*
X103143696Y-104090595D01*
X103043061Y-103847641D01*
X102896962Y-103628987D01*
X102857975Y-103590000D01*
X102896962Y-103551013D01*
X103043061Y-103332359D01*
X103143696Y-103089405D01*
X103195000Y-102831486D01*
X103195000Y-102568514D01*
X103143696Y-102310595D01*
X103043061Y-102067641D01*
X102897639Y-101850000D01*
X103043061Y-101632359D01*
X103143696Y-101389405D01*
X103195000Y-101131486D01*
X103195000Y-100868514D01*
X103171375Y-100749743D01*
X103332359Y-100683061D01*
X103551013Y-100536962D01*
X103736962Y-100351013D01*
X103883061Y-100132359D01*
X103983696Y-99889405D01*
X104035000Y-99631486D01*
X104035000Y-99368514D01*
X103983696Y-99110595D01*
X103883061Y-98867641D01*
X103737639Y-98650000D01*
X103883061Y-98432359D01*
X103983696Y-98189405D01*
X104035000Y-97931486D01*
X104035000Y-97668514D01*
X103983696Y-97410595D01*
X103883061Y-97167641D01*
X103736962Y-96948987D01*
X103687975Y-96900000D01*
X103736962Y-96851013D01*
X103883061Y-96632359D01*
X103983696Y-96389405D01*
X104035000Y-96131486D01*
X104035000Y-95868514D01*
X103983696Y-95610595D01*
X103883061Y-95367641D01*
X103736962Y-95148987D01*
X103551013Y-94963038D01*
X103332359Y-94816939D01*
X103089405Y-94716304D01*
X102831486Y-94665000D01*
X102568514Y-94665000D01*
X102310595Y-94716304D01*
X102067641Y-94816939D01*
X101848987Y-94963038D01*
X101663038Y-95148987D01*
X101516939Y-95367641D01*
X101416304Y-95610595D01*
X101365000Y-95868514D01*
X101365000Y-96131486D01*
X101416304Y-96389405D01*
X101516939Y-96632359D01*
X101663038Y-96851013D01*
X101712025Y-96900000D01*
X101663038Y-96948987D01*
X101516939Y-97167641D01*
X101416304Y-97410595D01*
X101365000Y-97668514D01*
X101365000Y-97931486D01*
X101391970Y-98067072D01*
X101269405Y-98016304D01*
X101011486Y-97965000D01*
X100748514Y-97965000D01*
X100490595Y-98016304D01*
X100247641Y-98116939D01*
X100028987Y-98263038D01*
X99843038Y-98448987D01*
X99696939Y-98667641D01*
X99596304Y-98910595D01*
X99545000Y-99168514D01*
X99545000Y-99265644D01*
X99447684Y-99120000D01*
X99573061Y-98932359D01*
X99673696Y-98689405D01*
X99725000Y-98431486D01*
X99725000Y-98168514D01*
X99673696Y-97910595D01*
X99573061Y-97667641D01*
X99426962Y-97448987D01*
X99241013Y-97263038D01*
X99022359Y-97116939D01*
X98779405Y-97016304D01*
X98521486Y-96965000D01*
X98258514Y-96965000D01*
X98000595Y-97016304D01*
X97757641Y-97116939D01*
X97538987Y-97263038D01*
X97353038Y-97448987D01*
X97206939Y-97667641D01*
X97106304Y-97910595D01*
X97055000Y-98168514D01*
X97055000Y-98431486D01*
X97106304Y-98689405D01*
X97206939Y-98932359D01*
X97332316Y-99120000D01*
X97206939Y-99307641D01*
X97106304Y-99550595D01*
X97055000Y-99808514D01*
X97055000Y-100071486D01*
X97106304Y-100329405D01*
X97206939Y-100572359D01*
X97353038Y-100791013D01*
X97357025Y-100795000D01*
X97353038Y-100798987D01*
X97206939Y-101017641D01*
X97106304Y-101260595D01*
X97055000Y-101518514D01*
X97055000Y-101781486D01*
X97106304Y-102039405D01*
X97206939Y-102282359D01*
X97353038Y-102501013D01*
X97538987Y-102686962D01*
X97757641Y-102833061D01*
X98000595Y-102933696D01*
X98258514Y-102985000D01*
X98521486Y-102985000D01*
X98779405Y-102933696D01*
X99022359Y-102833061D01*
X99241013Y-102686962D01*
X99426962Y-102501013D01*
X99573061Y-102282359D01*
X99673696Y-102039405D01*
X99725000Y-101781486D01*
X99725000Y-101518514D01*
X99673696Y-101260595D01*
X99573061Y-101017641D01*
X99426962Y-100798987D01*
X99422975Y-100795000D01*
X99426962Y-100791013D01*
X99573061Y-100572359D01*
X99673696Y-100329405D01*
X99725000Y-100071486D01*
X99725000Y-99974356D01*
X99843038Y-100151013D01*
X100028987Y-100336962D01*
X100247641Y-100483061D01*
X100490595Y-100583696D01*
X100580074Y-100601495D01*
X100576304Y-100610595D01*
X100525000Y-100868514D01*
X100525000Y-101131486D01*
X100576304Y-101389405D01*
X100676939Y-101632359D01*
X100822361Y-101850000D01*
X100676939Y-102067641D01*
X100576304Y-102310595D01*
X100525000Y-102568514D01*
X100525000Y-102831486D01*
X100576304Y-103089405D01*
X100676939Y-103332359D01*
X100823038Y-103551013D01*
X100862025Y-103590000D01*
X100823038Y-103628987D01*
X100676939Y-103847641D01*
X100576304Y-104090595D01*
X100525000Y-104348514D01*
X100525000Y-104611486D01*
X100576304Y-104869405D01*
X100676939Y-105112359D01*
X100823038Y-105331013D01*
X100878194Y-105386169D01*
X100756939Y-105567641D01*
X100656304Y-105810595D01*
X100605000Y-106068514D01*
X100605000Y-106331486D01*
X100656304Y-106589405D01*
X100756939Y-106832359D01*
X100903038Y-107051013D01*
X101088987Y-107236962D01*
X101168364Y-107290000D01*
X98641636Y-107290000D01*
X98721013Y-107236962D01*
X98906962Y-107051013D01*
X99053061Y-106832359D01*
X99153696Y-106589405D01*
X99205000Y-106331486D01*
X99205000Y-106068514D01*
X99153696Y-105810595D01*
X99053061Y-105567641D01*
X98963849Y-105434126D01*
X99066962Y-105331013D01*
X99213061Y-105112359D01*
X99313696Y-104869405D01*
X99365000Y-104611486D01*
X99365000Y-104348514D01*
X99313696Y-104090595D01*
X99213061Y-103847641D01*
X99066962Y-103628987D01*
X98881013Y-103443038D01*
X98662359Y-103296939D01*
X98419405Y-103196304D01*
X98161486Y-103145000D01*
X97898514Y-103145000D01*
X97640595Y-103196304D01*
X97397641Y-103296939D01*
X97178987Y-103443038D01*
X96993038Y-103628987D01*
X96846939Y-103847641D01*
X96746304Y-104090595D01*
X96695000Y-104348514D01*
X96695000Y-104611486D01*
X96746304Y-104869405D01*
X96803947Y-105008567D01*
X96643758Y-104934066D01*
X96388260Y-104871817D01*
X96125527Y-104860610D01*
X95865656Y-104900875D01*
X95618634Y-104991065D01*
X95517797Y-105044963D01*
X95458336Y-105278731D01*
X96200000Y-106020395D01*
X96214143Y-106006253D01*
X96393748Y-106185858D01*
X96379605Y-106200000D01*
X96393748Y-106214143D01*
X96214143Y-106393748D01*
X96200000Y-106379605D01*
X95458336Y-107121269D01*
X95501254Y-107290000D01*
X94210000Y-107290000D01*
X94210000Y-106274473D01*
X94860610Y-106274473D01*
X94900875Y-106534344D01*
X94991065Y-106781366D01*
X95044963Y-106882203D01*
X95278731Y-106941664D01*
X96020395Y-106200000D01*
X95278731Y-105458336D01*
X95044963Y-105517797D01*
X94934066Y-105756242D01*
X94871817Y-106011740D01*
X94860610Y-106274473D01*
X94210000Y-106274473D01*
X94210000Y-94068514D01*
X96615000Y-94068514D01*
X96615000Y-94331486D01*
X96666304Y-94589405D01*
X96766939Y-94832359D01*
X96913038Y-95051013D01*
X97098987Y-95236962D01*
X97317641Y-95383061D01*
X97560595Y-95483696D01*
X97818514Y-95535000D01*
X98081486Y-95535000D01*
X98339405Y-95483696D01*
X98582359Y-95383061D01*
X98801013Y-95236962D01*
X98986962Y-95051013D01*
X99133061Y-94832359D01*
X99233696Y-94589405D01*
X99285000Y-94331486D01*
X99285000Y-94068514D01*
X99233696Y-93810595D01*
X99133061Y-93567641D01*
X98986962Y-93348987D01*
X98801013Y-93163038D01*
X98582359Y-93016939D01*
X98339405Y-92916304D01*
X98081486Y-92865000D01*
X97818514Y-92865000D01*
X97560595Y-92916304D01*
X97317641Y-93016939D01*
X97098987Y-93163038D01*
X96913038Y-93348987D01*
X96766939Y-93567641D01*
X96666304Y-93810595D01*
X96615000Y-94068514D01*
X94210000Y-94068514D01*
X94210000Y-85710000D01*
X105790000Y-85710000D01*
X105790001Y-107290000D01*
X105790001Y-107290000D01*
G37*
X105790001Y-107290000D02*
X104388746Y-107290000D01*
X104431664Y-107121269D01*
X103690000Y-106379605D01*
X103675858Y-106393748D01*
X103496253Y-106214143D01*
X103510395Y-106200000D01*
X103869605Y-106200000D01*
X104611269Y-106941664D01*
X104845037Y-106882203D01*
X104955934Y-106643758D01*
X105018183Y-106388260D01*
X105029390Y-106125527D01*
X104989125Y-105865656D01*
X104898935Y-105618634D01*
X104845037Y-105517797D01*
X104611269Y-105458336D01*
X103869605Y-106200000D01*
X103510395Y-106200000D01*
X103496253Y-106185858D01*
X103675858Y-106006253D01*
X103690000Y-106020395D01*
X104431664Y-105278731D01*
X104372203Y-105044963D01*
X104133758Y-104934066D01*
X103878260Y-104871817D01*
X103615527Y-104860610D01*
X103355656Y-104900875D01*
X103108634Y-104991065D01*
X103088943Y-105001590D01*
X103143696Y-104869405D01*
X103195000Y-104611486D01*
X103195000Y-104348514D01*
X103143696Y-104090595D01*
X103043061Y-103847641D01*
X102896962Y-103628987D01*
X102857975Y-103590000D01*
X102896962Y-103551013D01*
X103043061Y-103332359D01*
X103143696Y-103089405D01*
X103195000Y-102831486D01*
X103195000Y-102568514D01*
X103143696Y-102310595D01*
X103043061Y-102067641D01*
X102897639Y-101850000D01*
X103043061Y-101632359D01*
X103143696Y-101389405D01*
X103195000Y-101131486D01*
X103195000Y-100868514D01*
X103171375Y-100749743D01*
X103332359Y-100683061D01*
X103551013Y-100536962D01*
X103736962Y-100351013D01*
X103883061Y-100132359D01*
X103983696Y-99889405D01*
X104035000Y-99631486D01*
X104035000Y-99368514D01*
X103983696Y-99110595D01*
X103883061Y-98867641D01*
X103737639Y-98650000D01*
X103883061Y-98432359D01*
X103983696Y-98189405D01*
X104035000Y-97931486D01*
X104035000Y-97668514D01*
X103983696Y-97410595D01*
X103883061Y-97167641D01*
X103736962Y-96948987D01*
X103687975Y-96900000D01*
X103736962Y-96851013D01*
X103883061Y-96632359D01*
X103983696Y-96389405D01*
X104035000Y-96131486D01*
X104035000Y-95868514D01*
X103983696Y-95610595D01*
X103883061Y-95367641D01*
X103736962Y-95148987D01*
X103551013Y-94963038D01*
X103332359Y-94816939D01*
X103089405Y-94716304D01*
X102831486Y-94665000D01*
X102568514Y-94665000D01*
X102310595Y-94716304D01*
X102067641Y-94816939D01*
X101848987Y-94963038D01*
X101663038Y-95148987D01*
X101516939Y-95367641D01*
X101416304Y-95610595D01*
X101365000Y-95868514D01*
X101365000Y-96131486D01*
X101416304Y-96389405D01*
X101516939Y-96632359D01*
X101663038Y-96851013D01*
X101712025Y-96900000D01*
X101663038Y-96948987D01*
X101516939Y-97167641D01*
X101416304Y-97410595D01*
X101365000Y-97668514D01*
X101365000Y-97931486D01*
X101391970Y-98067072D01*
X101269405Y-98016304D01*
X101011486Y-97965000D01*
X100748514Y-97965000D01*
X100490595Y-98016304D01*
X100247641Y-98116939D01*
X100028987Y-98263038D01*
X99843038Y-98448987D01*
X99696939Y-98667641D01*
X99596304Y-98910595D01*
X99545000Y-99168514D01*
X99545000Y-99265644D01*
X99447684Y-99120000D01*
X99573061Y-98932359D01*
X99673696Y-98689405D01*
X99725000Y-98431486D01*
X99725000Y-98168514D01*
X99673696Y-97910595D01*
X99573061Y-97667641D01*
X99426962Y-97448987D01*
X99241013Y-97263038D01*
X99022359Y-97116939D01*
X98779405Y-97016304D01*
X98521486Y-96965000D01*
X98258514Y-96965000D01*
X98000595Y-97016304D01*
X97757641Y-97116939D01*
X97538987Y-97263038D01*
X97353038Y-97448987D01*
X97206939Y-97667641D01*
X97106304Y-97910595D01*
X97055000Y-98168514D01*
X97055000Y-98431486D01*
X97106304Y-98689405D01*
X97206939Y-98932359D01*
X97332316Y-99120000D01*
X97206939Y-99307641D01*
X97106304Y-99550595D01*
X97055000Y-99808514D01*
X97055000Y-100071486D01*
X97106304Y-100329405D01*
X97206939Y-100572359D01*
X97353038Y-100791013D01*
X97357025Y-100795000D01*
X97353038Y-100798987D01*
X97206939Y-101017641D01*
X97106304Y-101260595D01*
X97055000Y-101518514D01*
X97055000Y-101781486D01*
X97106304Y-102039405D01*
X97206939Y-102282359D01*
X97353038Y-102501013D01*
X97538987Y-102686962D01*
X97757641Y-102833061D01*
X98000595Y-102933696D01*
X98258514Y-102985000D01*
X98521486Y-102985000D01*
X98779405Y-102933696D01*
X99022359Y-102833061D01*
X99241013Y-102686962D01*
X99426962Y-102501013D01*
X99573061Y-102282359D01*
X99673696Y-102039405D01*
X99725000Y-101781486D01*
X99725000Y-101518514D01*
X99673696Y-101260595D01*
X99573061Y-101017641D01*
X99426962Y-100798987D01*
X99422975Y-100795000D01*
X99426962Y-100791013D01*
X99573061Y-100572359D01*
X99673696Y-100329405D01*
X99725000Y-100071486D01*
X99725000Y-99974356D01*
X99843038Y-100151013D01*
X100028987Y-100336962D01*
X100247641Y-100483061D01*
X100490595Y-100583696D01*
X100580074Y-100601495D01*
X100576304Y-100610595D01*
X100525000Y-100868514D01*
X100525000Y-101131486D01*
X100576304Y-101389405D01*
X100676939Y-101632359D01*
X100822361Y-101850000D01*
X100676939Y-102067641D01*
X100576304Y-102310595D01*
X100525000Y-102568514D01*
X100525000Y-102831486D01*
X100576304Y-103089405D01*
X100676939Y-103332359D01*
X100823038Y-103551013D01*
X100862025Y-103590000D01*
X100823038Y-103628987D01*
X100676939Y-103847641D01*
X100576304Y-104090595D01*
X100525000Y-104348514D01*
X100525000Y-104611486D01*
X100576304Y-104869405D01*
X100676939Y-105112359D01*
X100823038Y-105331013D01*
X100878194Y-105386169D01*
X100756939Y-105567641D01*
X100656304Y-105810595D01*
X100605000Y-106068514D01*
X100605000Y-106331486D01*
X100656304Y-106589405D01*
X100756939Y-106832359D01*
X100903038Y-107051013D01*
X101088987Y-107236962D01*
X101168364Y-107290000D01*
X98641636Y-107290000D01*
X98721013Y-107236962D01*
X98906962Y-107051013D01*
X99053061Y-106832359D01*
X99153696Y-106589405D01*
X99205000Y-106331486D01*
X99205000Y-106068514D01*
X99153696Y-105810595D01*
X99053061Y-105567641D01*
X98963849Y-105434126D01*
X99066962Y-105331013D01*
X99213061Y-105112359D01*
X99313696Y-104869405D01*
X99365000Y-104611486D01*
X99365000Y-104348514D01*
X99313696Y-104090595D01*
X99213061Y-103847641D01*
X99066962Y-103628987D01*
X98881013Y-103443038D01*
X98662359Y-103296939D01*
X98419405Y-103196304D01*
X98161486Y-103145000D01*
X97898514Y-103145000D01*
X97640595Y-103196304D01*
X97397641Y-103296939D01*
X97178987Y-103443038D01*
X96993038Y-103628987D01*
X96846939Y-103847641D01*
X96746304Y-104090595D01*
X96695000Y-104348514D01*
X96695000Y-104611486D01*
X96746304Y-104869405D01*
X96803947Y-105008567D01*
X96643758Y-104934066D01*
X96388260Y-104871817D01*
X96125527Y-104860610D01*
X95865656Y-104900875D01*
X95618634Y-104991065D01*
X95517797Y-105044963D01*
X95458336Y-105278731D01*
X96200000Y-106020395D01*
X96214143Y-106006253D01*
X96393748Y-106185858D01*
X96379605Y-106200000D01*
X96393748Y-106214143D01*
X96214143Y-106393748D01*
X96200000Y-106379605D01*
X95458336Y-107121269D01*
X95501254Y-107290000D01*
X94210000Y-107290000D01*
X94210000Y-106274473D01*
X94860610Y-106274473D01*
X94900875Y-106534344D01*
X94991065Y-106781366D01*
X95044963Y-106882203D01*
X95278731Y-106941664D01*
X96020395Y-106200000D01*
X95278731Y-105458336D01*
X95044963Y-105517797D01*
X94934066Y-105756242D01*
X94871817Y-106011740D01*
X94860610Y-106274473D01*
X94210000Y-106274473D01*
X94210000Y-94068514D01*
X96615000Y-94068514D01*
X96615000Y-94331486D01*
X96666304Y-94589405D01*
X96766939Y-94832359D01*
X96913038Y-95051013D01*
X97098987Y-95236962D01*
X97317641Y-95383061D01*
X97560595Y-95483696D01*
X97818514Y-95535000D01*
X98081486Y-95535000D01*
X98339405Y-95483696D01*
X98582359Y-95383061D01*
X98801013Y-95236962D01*
X98986962Y-95051013D01*
X99133061Y-94832359D01*
X99233696Y-94589405D01*
X99285000Y-94331486D01*
X99285000Y-94068514D01*
X99233696Y-93810595D01*
X99133061Y-93567641D01*
X98986962Y-93348987D01*
X98801013Y-93163038D01*
X98582359Y-93016939D01*
X98339405Y-92916304D01*
X98081486Y-92865000D01*
X97818514Y-92865000D01*
X97560595Y-92916304D01*
X97317641Y-93016939D01*
X97098987Y-93163038D01*
X96913038Y-93348987D01*
X96766939Y-93567641D01*
X96666304Y-93810595D01*
X96615000Y-94068514D01*
X94210000Y-94068514D01*
X94210000Y-85710000D01*
X105790000Y-85710000D01*
X105790001Y-107290000D01*
M02*
